<svg id="Layer_1" data-name="Layer 1" xmlns="http://www.w3.org/2000/svg" xmlns:xlink="http://www.w3.org/1999/xlink" width="445" height="430" viewBox="0 0 445 430"><defs><style>.cls-1{fill:#c26950;}.cls-2{fill:#7f5539;}.cls-3{fill:#d9765a;}.cls-4{fill:#704b33;}.cls-5{fill:#2a9d8f;}.cls-6{fill:#238579;}.cls-7{fill:#d9866f;}</style><symbol id="an_apple" data-name="an apple" viewBox="0 0 442.44 425.57"><path class="cls-1" d="M343.63,389.74c-.29,13.93-80.3,36.92-134.41,35.79s-120.95-39.09-120.65-53,67.61,1.42,121.71,2.56S343.92,375.8,343.63,389.74Z"/><path class="cls-1" d="M356.33,118c0,13.94-79.51,38.6-133.62,38.6S101,120.09,101,106.15s67.63,0,121.75,0S356.33,104.09,356.33,118Z"/><path class="cls-2" d="M208.37,146.43,199.8,144a4.5,4.5,0,0,1-2.94-6l19.91-49.65L226.44,34A5.2,5.2,0,0,1,233,29.94l8.38,2.38a5.93,5.93,0,0,1,4,7.68l-25.59,72.09-3.85,29.39A6,6,0,0,1,208.37,146.43Z"/><path class="cls-3" d="M442.44,227.9c0,72.4-6.89,115-53.45,163.32C340.11,442,307.63,409,231.61,409c-55.65,0-111.52,23-154.41-5.93C5.72,354.8,0,332.54,0,239.78c0-74.21,34.14-119.14,83.14-136.6s62.39,26.73,136.6,26.73c86.72,0,105.69-40.24,154.41-11.88C408.8,138.21,442.44,166.21,442.44,227.9Z"/><ellipse class="cls-4" cx="236.28" cy="35.76" rx="5.48" ry="11.76" transform="translate(147.06 257.45) rotate(-76.68)"/><path class="cls-5" d="M217.49,97.27c-8.59,9.92-32.64,3.17-53.72-15.07s-20.92-70.06-12.33-80,2.68,38.17,23.76,56.41S226.07,87.35,217.49,97.27Z"/><path class="cls-6" d="M216.77,97.25c-9.41,9.14-22.14-18.62-41.57-38.61S142,11.37,151.44,2.23s33.6,11.59,53,31.57S226.17,88.1,216.77,97.25Z"/><path class="cls-7" d="M44.3,255.19c-2.65,51.59,11.82,89.81-4.56,89s-27.51-43.35-24.87-94.94,18.07-92.73,34.45-91.89S46.94,203.6,44.3,255.19Z"/><path class="cls-7" d="M393.68,344.07c-21.86,38.29-51,51.64-43.29,56.06s37.33-13.07,59.2-51.36,19.81-68.94,12.07-73.36S415.55,305.77,393.68,344.07Z"/><path class="cls-7" d="M430.56,248.69c0,9.84-4,17.81-8.9,17.81s-3-8-3-17.81-1.95-17.82,3-17.82S430.56,238.85,430.56,248.69Z"/></symbol></defs><use width="442.44" height="425.57" transform="translate(1.28 2.22)" xlink:href="#an_apple"/></svg>