<?xml version="1.0" encoding="utf-8"?>
<!-- Generator: Adobe Illustrator 26.0.0, SVG Export Plug-In . SVG Version: 6.00 Build 0)  -->
<svg version="1.1" id="Layer_1" xmlns="http://www.w3.org/2000/svg" xmlns:xlink="http://www.w3.org/1999/xlink" x="0px" y="0px"
	 viewBox="0 0 1920 1080" style="enable-background:new 0 0 1920 1080;" xml:space="preserve">
<style type="text/css">
	.st0{fill:url(#SVGID_1_);}
	.st1{fill:#A18F7C;}
	.st2{fill:none;}
	.st3{fill:#EDEDED;}
	.st4{fill:#F2F2F2;}
	.st5{fill:#99765E;}
	.st6{fill:#886F60;}
	.st7{fill:#997B66;}
	.st8{fill:#9B9B7A;}
	.st9{fill:#A3B18A;}
</style>
<linearGradient id="SVGID_1_" gradientUnits="userSpaceOnUse" x1="960" y1="19.83" x2="960" y2="1080.5699">
	<stop  offset="0" style="stop-color:#CFDBD5"/>
	<stop  offset="0.59" style="stop-color:#D1DCD6"/>
	<stop  offset="0.81" style="stop-color:#D8E1D8"/>
	<stop  offset="0.96" style="stop-color:#E3EADD"/>
	<stop  offset="1" style="stop-color:#E8EDDF"/>
</linearGradient>
<rect class="st0" width="1920" height="1080"/>
<polygon class="st1" points="1774.6,758.7 1767.2,775.4 1784,813.3 1791.3,796.7 "/>
<polygon class="st1" points="1791.9,719.4 1758.9,719.4 1758.9,794.3 1767.2,775.4 1774.6,758.7 "/>
<polygon class="st1" points="1758.9,719.4 1725.8,719.4 1758.9,794.3 "/>
<polygon class="st1" points="1800.9,707.6 1794.1,714.3 1807.7,714.4 "/>
<polygon class="st1" points="1832.5,692.1 1822.8,701.7 1842,701.8 "/>
<polygon class="st1" points="1879,711.2 1872.3,704.3 1865.4,711.1 "/>
<polygon class="st1" points="1736.9,701.9 1731.4,707.3 1742.3,707.3 "/>
<polygon class="st1" points="1765.7,705.5 1755.8,695.5 1745.7,705.4 "/>
<polygon class="st1" points="1863.2,766.8 1858.8,771.2 1867.4,771.3 "/>
<polygon class="st1" points="1883.1,756.7 1877,763 1889.2,763 "/>
<g>
	<polygon class="st2" points="1794.2,714.3 1807.7,714.4 1801,707.6 	"/>
	<polygon class="st2" points="1822.8,701.7 1842.1,701.8 1832.5,692.1 	"/>
	<polygon class="st2" points="1745.8,705.3 1765.8,705.5 1755.8,695.5 	"/>
	<polygon class="st2" points="1858.9,771.3 1858.9,771.2 1858.8,771.2 	"/>
	<polygon class="st2" points="1731.5,707.3 1742.4,707.3 1737,701.9 	"/>
	<polygon class="st2" points="1914,694 1914,694 1926.7,706.9 1900.9,707 1900.9,707 1926.8,706.9 	"/>
	<rect x="1858.8" y="719.5" class="st2" width="0" height="37"/>
	<polygon class="st2" points="1926.4,766.4 1942.8,766.4 1934.7,757.9 	"/>
	<polygon class="st2" points="1865.5,711.1 1879,711.2 1872.3,704.3 	"/>
	<polygon class="st2" points="1880.5,763 1889.1,763 1883.3,756.8 	"/>
	<path class="st1" d="M1937.8,756.4C1937.8,756.4,1937.8,756.4,1937.8,756.4L1937.8,756.4l-9.7,0l-2.7-2.8c-0.5-0.5-1.4-0.5-1.9,0
		l-2.8,2.8H1905l-0.7-0.7c-0.5-0.5-1.4-0.5-1.9,0l-0.7,0.7h-18.4l11.3-25.6l-3.3,3.6c0,0-0.1,0.1-0.1,0.1l3.3-3.6l10.4-11.6h2.6
		l4.5,4.6c1.8,1.8,4.6,1.8,6.5,0.1l6.2-6c4.9-2.3,8-7.1,8-12.5c0-7.6-6.2-13.8-13.8-13.8h-15.3l-4.2-4.3c-0.8-0.8-2.2-0.8-3,0
		l-4.4,4.3h-24.9l-1-1.1c-0.8-0.8-2.2-0.8-3,0l-1.1,1.1h-117.3l-1.2-1.2c-0.8-0.8-2-0.8-2.8,0c0,0,0,0,0,0l-1.2,1.2h-20.8l-6.8-6.9
		c-1.1-1.1-2.9-1.1-4.1,0l-7,6.9h-1.4c-7.6,0-13.8,6.2-13.8,13.8c0,2.2,0.5,4.3,1.5,6.2l0.2,0.2c0.3,0.6,0.6,1.1,1,1.6l9.9,15.7
		c0.4,0.6,1.1,0.7,1.7,0.4l16.3-10.3h75.6l-17.3,39.2l16.8,38l23.6,53.6l16.7-37.9l4.9,11.4l5.3-12.4l10.6,24.9l4.7-10.9l15,35.2
		l19.2-45.2l8.5,20.1v0l0,0v0l22.6-53.2l0.1-0.1l6.5-7.5h1.7l2.8,3c1,1.2,2.8,1.2,4,0.2c0,0,0,0,0,0l0.1-0.1l3.9-4
		c3.1-1.5,5.1-4.7,5.1-8.2C1946.7,760.6,1942.8,756.5,1937.8,756.4z M1900.9,707l25.9,0L1914,694l0,0l12.8,12.9L1900.9,707
		L1900.9,707z M1731.5,707.3l5.5-5.4l5.4,5.5L1731.5,707.3z M1745.8,705.3l10.1-9.9l9.9,10L1745.8,705.3z M1794.2,714.3l6.8-6.7
		l6.7,6.8L1794.2,714.3z M1822.8,701.7l9.7-9.6l9.6,9.7L1822.8,701.7z M1858.9,771.3L1858.9,771.3L1858.9,771.3L1858.9,771.3z
		 M1858.9,756.5L1858.9,756.5l0-37h0V756.5z M1865.5,711.1l6.8-6.7l6.7,6.8L1865.5,711.1z M1880.5,763l2.7-6.2l5.9,6.2L1880.5,763z
		 M1926.4,766.4l8.3-8.5l8.1,8.5H1926.4z"/>
</g>
<polygon class="st1" points="1822.7,763.1 1819.2,766.6 1826.1,766.7 "/>
<polygon class="st1" points="1840.9,765.5 1834.6,758.9 1828.2,765.4 "/>
<polygon class="st1" points="126.4,700.1 84.1,700.1 54.7,700.1 50.9,700.1 -1.3,700.1 -1.3,818.6 15.9,779.5 54.7,867.4 
	84.9,798.9 94.3,820.2 115.7,771.7 126.4,795.9 168.6,700.1 "/>
<path class="st1" d="M-95.7,682.5L-95.7,682.5c0,6.9,4,13.1,10.2,16l7.9,7.7c2.3,2.2,6,2.2,8.2-0.1l5.7-5.9h3.3l13.2,14.6l4.2,4.7
	c1.5,1.7,4.2,1.9,5.9,0.3c0,0,0,0,0,0l0,0l21.8-19.6h196.1l20.8,13.2c0.7,0.5,1.7,0.2,2.1-0.5l12.6-20c0.5-0.7,0.9-1.4,1.3-2.1
	l0.2-0.3l0,0c1.3-2.5,1.9-5.2,1.9-7.9l0,0c0-9.7-7.9-17.6-17.6-17.6h-1.8l-8.9-8.8c-1.4-1.4-3.8-1.4-5.2,0l0,0l-8.6,8.8h-26.6
	l-1.5-1.5c-1-1-2.6-1-3.6,0c0,0,0,0,0,0l0,0l-1.5,1.5H-5.2l-1.4-1.4c-1.1-1.1-2.8-1.1-3.9,0c0,0,0,0,0,0l-1.3,1.4h-31.8l-5.6-5.5
	c-1.1-1.1-2.8-1.1-3.9,0l0,0l-5.4,5.5h-19.6C-87.8,664.8-95.7,672.8-95.7,682.5z M-9.8,689.5l-17.3,0.1l8.6-8.7L-9.8,689.5z
	 M-55,684.3h-33.1l16.3-16.5L-55,684.3z M44.7,677.6l-24.6,0.2l12.2-12.4L44.7,677.6z M147.5,684.8l6.9-7l7,6.9L147.5,684.8z
	 M143.2,682.3l-25.5,0.2l12.7-12.8L143.2,682.3z M64.1,693.8l8.6-8.7l8.7,8.6L64.1,693.8z"/>
<polygon class="st1" points="72.7,685.1 81.4,693.7 64.1,693.8 "/>
<polygon class="st1" points="32.3,665.3 44.7,677.5 20.1,677.7 "/>
<polygon class="st1" points="154.4,677.8 161.4,684.7 147.5,684.8 "/>
<polygon class="st1" points="117.7,682.4 130.3,669.6 143.2,682.2 "/>
<polygon class="st1" points="1547.5,663.3 1556.9,684.6 1535.5,733.1 1526.1,711.8 "/>
<polygon class="st1" points="1525.3,613 1567.6,613 1567.6,708.8 1556.9,684.6 1547.5,663.3 "/>
<polygon class="st1" points="1567.6,613 1609.8,613 1567.6,708.8 "/>
<polygon class="st1" points="1513.9,598 1522.6,606.6 1505.3,606.7 "/>
<polygon class="st1" points="1473.6,578.2 1485.9,590.5 1461.3,590.6 "/>
<polygon class="st1" points="1595.6,590.7 1602.6,597.6 1588.7,597.7 "/>
<polygon class="st1" points="1558.9,595.3 1571.6,582.5 1584.4,595.2 "/>
<g>
	<polygon class="st2" points="1386.2,597.2 1386.2,597.2 1382,593 	"/>
	<polygon class="st2" points="1422.7,593.8 1431.4,602.4 1431.4,602.4 1422.7,593.8 1414.1,602.5 1414.1,602.5 	"/>
	<polygon class="st2" points="1353.1,597.2 1379.6,597.2 1353.2,597.1 	"/>
	<polygon class="st2" points="1461.3,590.6 1485.9,590.5 1473.6,578.2 	"/>
	<polygon class="st2" points="1588.7,597.7 1602.6,597.6 1595.6,590.7 	"/>
	<polygon class="st2" points="1558.9,595.3 1584.4,595.2 1571.6,582.5 	"/>
	<polygon class="st2" points="1505.3,606.7 1522.6,606.6 1513.9,598 	"/>
	<path class="st1" d="M1643.4,577.7h-1.8l-8.9-8.8c-1.4-1.4-3.8-1.4-5.2,0l-8.6,8.7h-26.6l-1.5-1.5c-1-1-2.6-1-3.7,0l-1.5,1.5H1436
		l-1.4-1.4c-1.1-1.1-2.8-1.1-3.9,0c0,0,0,0,0,0l-1.3,1.3h-31.8l-5.6-5.3c-1.1-1.1-2.8-1.1-3.9,0l-5.4,5.5h-19.6
		c-9.7,0-17.6,7.9-17.6,17.7c0,6.9,4,13.1,10.2,16l7.9,7.7c2.3,2.2,6,2.2,8.2-0.1l5.7-5.9h3.3l13.2,14.6l0.2,0.2l45.6,103.5v0.1
		l0-0.1l0,0.1v-0.1l17.2-39l38.8,87.9l30.2-68.5l21.4-48.5l-22.2-50.3h-29.4h-3.8h-52.2v0H1622l20.8,13.2c0.7,0.5,1.7,0.2,2.1-0.5
		c0,0,0,0,0,0l12.6-20c0.5-0.7,0.9-1.4,1.3-2.1l0.2-0.3c1.3-2.5,1.9-5.2,1.9-7.9C1661,585.6,1653.1,577.8,1643.4,577.7z
		 M1353.1,597.2L1353.1,597.2h26.5H1353.1z M1386.2,597.2l-4.2-4.2L1386.2,597.2L1386.2,597.2z M1422.7,593.8l8.7,8.6l0,0
		L1422.7,593.8l-8.6,8.7l0,0L1422.7,593.8z M1461.3,590.6l12.2-12.4l12.4,12.2L1461.3,590.6z M1505.3,606.7l8.6-8.7l8.7,8.6
		L1505.3,606.7z M1558.9,595.3l12.7-12.8l12.8,12.7L1558.9,595.3z M1588.7,597.7l6.9-7l7,6.9L1588.7,597.7z"/>
</g>
<path class="st3" d="M420,655.4c8.5-24.1-4.2-50.5-28.3-59c-2.9-1-5.9-1.7-8.9-2.2c-2.9-31.9-29.7-56.4-61.8-56.4
	c-1.9,0-3.7,0.1-5.5,0.3c-34.1-58.8-109.4-78.8-168.2-44.6c-31.7,18.4-53.6,50-59.6,86.2c-33.3-8.1-66.8,12.4-74.9,45.6
	c-1.8,7.6-2.2,15.5-1.1,23.3c-19,5.8-31.9,23.3-32,43.2l0,0c0.1,24.9,20.3,45.1,45.2,45.1h368.5c24.9-0.1,45.1-20.3,45.2-45.2l0,0
	C438.6,677.4,431.6,663.9,420,655.4z"/>
<path class="st3" d="M454.8,281.5c8.5-24.1-4.2-50.5-28.3-59c-2.9-1-5.9-1.7-8.9-2.2c-2.9-31.9-29.7-56.4-61.8-56.4
	c-1.9,0-3.7,0.1-5.5,0.2c-34.1-58.8-109.4-78.8-168.2-44.6c-31.7,18.4-53.6,50-59.6,86.2c-33.3-8.1-66.8,12.4-74.9,45.6
	c-1.8,7.6-2.2,15.5-1.1,23.3c-19,5.8-31.9,23.3-32,43.2l0,0c0.1,24.9,20.3,45.1,45.2,45.2h368.5c24.9-0.1,45.1-20.2,45.2-45.1l0,0
	C473.3,303.6,466.4,290,454.8,281.5z"/>
<path class="st3" d="M1912.3,273.9c7.2-20.3-3.5-42.5-23.8-49.7c-2.5-0.9-5-1.5-7.6-1.9c-2.5-26.9-25.1-47.5-52.1-47.5
	c-1.6,0-3.1,0.1-4.6,0.2c-28.9-49.6-92.5-66.4-142.1-37.5c-26.7,15.5-45.1,42.1-50.2,72.5c-28.1-6.8-56.4,10.5-63.2,38.6
	c-1,4-1.5,8.1-1.5,12.2c0,2.4,0.2,4.9,0.5,7.3c-16,4.9-26.9,19.7-27,36.4l0,0c0.1,21,17.1,38,38.1,38.1h311c21,0,38-17,38.1-38.1
	l0,0C1927.9,292.4,1922.1,281,1912.3,273.9z"/>
<path class="st4" d="M240.5,551.5L240.5,551.5c8.4-23.2-3.6-48.9-26.9-57.3c-11.4-4.1-24.1-3.4-35,1.9l0,0
	c-3.9-32.5-33.3-55.7-65.8-51.8c-11.6,1.4-22.6,6.2-31.5,13.8c-14.8-20.8-43.7-25.6-64.5-10.8c-5.5,3.9-10.1,9-13.4,14.9
	c-3.1-1.3-6.4-2-9.7-2c-10.8,0-20.4,7.1-23.7,17.4c-8.8-4.5-18.6-6.9-28.5-6.9c-34.5,0-62.5,28-62.5,62.6c0,6,0.8,12,2.5,17.7
	c-2.7,1.6-5.2,3.5-7.4,5.8c-7.1,7-11,16.6-11,26.6c0,20.8,16.8,37.6,37.6,37.7h320c20.8,0,37.6-16.8,37.6-37.6
	C258.3,570.5,251.6,558.4,240.5,551.5L240.5,551.5z"/>
<path class="st4" d="M1730.7,364.7c-4.7-23.3,10.4-46,33.7-50.6c7.2-1.4,14.6-1,21.6,1.2c13-28.5,46.6-41.2,75.2-28.2
	c12.1,5.5,22,15.1,27.7,27.2c23.1-5.2,46.1,9.3,51.3,32.4c1.1,5,1.4,10.2,0.7,15.2c9.6,6.3,15.4,17,15.4,28.5l0,0
	c0,18.9-15.3,34.2-34.2,34.2h-168.8c-18.9-0.1-34.1-15.4-34.2-34.2l0,0C1719,380.6,1723.2,371.2,1730.7,364.7z"/>
<path class="st4" d="M164.5,333.2L164.5,333.2c-8.4-23.2,3.6-48.9,26.9-57.3c11.4-4.1,24.1-3.4,35,1.9l0,0
	c3.9-32.5,33.3-55.7,65.8-51.8c11.6,1.4,22.6,6.2,31.5,13.8c14.8-20.8,43.7-25.6,64.5-10.8c5.5,3.9,10.1,9,13.4,14.9
	c3.1-1.3,6.4-2,9.7-2c10.8,0,20.4,7,23.7,17.4c30.8-15.7,68.5-3.5,84.3,27.3c7.3,14.3,8.8,30.8,4.3,46.2
	c17.9,10.6,23.8,33.6,13.2,51.5c-6.8,11.4-19.1,18.5-32.4,18.5h-320c-20.8,0-37.6-16.8-37.6-37.6
	C146.8,352.2,153.5,340.1,164.5,333.2L164.5,333.2z"/>
<polyline class="st5" points="1792,857.4 1792,629.3 1693.4,629.3 "/>
<polyline class="st5" points="1792,857.4 1792,629.3 1890.7,629.3 "/>
<polyline class="st5" points="1616.5,798.1 1616.5,570 1517.9,570 "/>
<polyline class="st5" points="1616.5,798.1 1616.5,570 1715.2,570 "/>
<polyline class="st6" points="1707.2,924.7 1707.2,582 1559,582 "/>
<polyline class="st7" points="1707.2,924.7 1707.2,582 1855.4,582 "/>
<polyline class="st6" points="1548.1,810.1 1548.1,582.1 1449.5,582.1 "/>
<polyline class="st7" points="1548.1,810.1 1548.1,582.1 1646.7,582.1 "/>
<polyline class="st6" points="1841.3,788.2 1841.3,560.1 1742.7,560.1 "/>
<polyline class="st7" points="1841.3,788.2 1841.3,560.1 1940,560.1 "/>
<path class="st4" d="M372.1,292.2c-8.5-24.1,4.2-50.5,28.3-59c2.9-1,5.9-1.7,8.9-2.2c2.9-31.9,29.7-56.4,61.8-56.4
	c1.9,0,3.7,0.1,5.5,0.3c34.1-58.8,109.4-78.8,168.2-44.6c31.7,18.4,53.6,50,59.6,86.2c33.3-8.1,66.8,12.3,74.9,45.6
	c1.2,4.8,1.8,9.8,1.8,14.7c0,2.9-0.2,5.8-0.6,8.6c19,5.8,31.9,23.3,32,43.2l0,0c-0.1,24.9-20.3,45.1-45.2,45.2H398.7
	c-24.9-0.1-45.1-20.3-45.2-45.2l0,0C353.5,314.2,360.4,300.7,372.1,292.2z"/>
<path class="st8" d="M1495.8,576.5l-28.9,29.8c-4.2,4.3-11.1,4.4-15.4,0.2c0,0,0,0,0,0l0,0l-29.8-28.9"/>
<path class="st8" d="M1450.6,529.5H1974c18.2,0,32.9,14.7,32.9,32.9v0c0,18.2-14.7,32.9-32.9,32.9h-523.4
	c-18.2,0-32.9-14.7-32.9-32.9v0C1417.7,544.2,1432.4,529.5,1450.6,529.5z"/>
<path class="st8" d="M1464.1,552.9l33.2-33.6c2-2,5.2-2,7.2-0.1l0,0l33.6,33.2"/>
<path class="st8" d="M1605.1,561.8l-77.8,70.1c-3.2,2.9-8.1,2.6-11-0.6c0,0,0,0,0,0l-70.1-77.8"/>
<path class="st8" d="M1543.6,560.5l33.2-33.6c2-2,5.3-2,7.3,0c0,0,0,0,0,0l0,0l33.6,33.2"/>
<path class="st8" d="M1835.5,560.5l33.4-33.8c1.9-1.9,4.9-1.9,6.8-0.1c0,0,0,0,0,0l0,0l33.9,33.4"/>
<path class="st8" d="M1912.4,545.5l32-32.4c2.7-2.7,7-2.7,9.7-0.1c0,0,0,0,0,0l0,0l32.4,32"/>
<polyline class="st9" points="1716,583.5 1732.1,567.2 1748.4,583.2 "/>
<polyline class="st9" points="1634,553.4 1656.8,530.3 1679.9,553.1 "/>
<polyline class="st9" points="1545.8,575.7 1561.8,559.4 1578.1,575.5 "/>
<polyline class="st9" points="1871.9,566.6 1884.8,553.5 1897.9,566.4 "/>
<polyline class="st9" points="1816.2,562.2 1839.8,538.2 1863.8,561.9 "/>
<polyline class="st9" points="1431.9,565.6 1462.3,534.7 1493.7,565.7 "/>
<path class="st4" d="M627.4,675.7c4.7-23.3-10.4-46-33.7-50.6c-7.2-1.4-14.6-1-21.6,1.2c-13-28.5-46.6-41.2-75.2-28.2
	c-12.1,5.5-22,15.1-27.7,27.2c-23.1-5.2-46.1,9.3-51.3,32.4c-1.1,5-1.4,10.2-0.7,15.2c-9.6,6.3-15.3,17.1-15.3,28.5l0,0
	c0.1,18.9,15.3,34.2,34.2,34.2H605c18.9-0.1,34.2-15.3,34.2-34.2l0,0C639.2,691.6,634.9,682.2,627.4,675.7z"/>
<polyline class="st5" points="248.5,1066.7 248.5,893.6 324.8,893.6 "/>
<polyline class="st5" points="248.5,1066.7 248.5,893.6 172.2,893.6 "/>
<polyline class="st5" points="376,1039 376,866 452.3,866 "/>
<polyline class="st5" points="376,1039 376,866 299.6,866 "/>
<polyline class="st6" points="305.8,1135 305.8,875 420.5,875 "/>
<polyline class="st7" points="305.8,1135 305.8,875 191.2,875 "/>
<polyline class="st6" points="387,1064.3 387,891.3 463.3,891.3 "/>
<polyline class="st7" points="387,1064.3 387,891.3 310.7,891.3 "/>
<polyline class="st6" points="202,1031.4 202,858.4 278.3,858.4 "/>
<polyline class="st7" points="202,1031.4 202,858.4 125.7,858.4 "/>
<path class="st8" d="M498.2,892.7h-406c-14.1,0-25.5-11.4-25.5-25.5l0,0l0,0c0-14.1,11.4-25.5,25.5-25.5h406
	c14.1,0,25.5,11.4,25.5,25.5v0l0,0C523.7,881.3,512.3,892.7,498.2,892.7C498.2,892.7,498.2,892.7,498.2,892.7z"/>
<path class="st8" d="M487.7,859.8L462,833.7c-1.6-1.5-4.1-1.5-5.6,0l-26.1,25.7"/>
<path class="st8" d="M378.3,866.7l60.4,54.4c2.4,2.2,6.2,2.1,8.5-0.4c0,0,0,0,0,0l0.1-0.1l54.4-60.4"/>
<path class="st8" d="M426,865.8l-25.7-26.1c-1.6-1.6-4.1-1.6-5.6,0l-26.1,25.7"/>
<path class="st8" d="M199.6,865.8l-25.9-26.3c-1.5-1.4-3.8-1.4-5.3,0l-26.3,25.9"/>
<path class="st8" d="M125.4,891.3L93,911.8c-1,0.7-2.4,0.3-3.1-0.7c0,0,0,0,0,0l0,0l-20.5-32.4"/>
<path class="st8" d="M140,854.1L115.2,829c-2.1-2.1-5.5-2.1-7.6,0l-25.1,24.7"/>
<path class="st8" d="M463.1,878.1l22.4,23.1c3.2,3.3,8.6,3.4,11.9,0.2c0,0,0,0,0,0l0,0l23.1-22.4"/>
<polyline class="st9" points="292.3,883.5 279.8,870.9 267.1,883.4 "/>
<polyline class="st9" points="355.9,860.2 338.2,842.3 320.3,860 "/>
<polyline class="st9" points="424.4,877.5 411.9,864.9 399.2,877.3 "/>
<polyline class="st9" points="171.4,870.4 161.4,860.3 151.2,870.3 "/>
<polyline class="st9" points="214.6,867 196.2,848.4 177.6,866.8 "/>
<polyline class="st9" points="512.7,869.7 489,845.7 464.7,869.7 "/>
</svg>
