<svg id="Layer_1" data-name="Layer 1" xmlns="http://www.w3.org/2000/svg" xmlns:xlink="http://www.w3.org/1999/xlink" width="480" height="409.68" viewBox="0 0 480 409.68"><defs><style>.cls-1{fill:#d9b663;}.cls-2{fill:#e9c46a;}.cls-3{fill:#9d6b53;}.cls-4{fill:#debb65;}</style><symbol id="banana" data-name="banana" viewBox="0 0 310.9 229.38"><path class="cls-1" d="M280,52.65l-3.44-1.22c-2.78-1,1.33-6.82,2.49-10.1,0,0,5.4-10.85,7-15,2.78-7.22,8-17,8-17,1.16-3.28,3.88-9.45,6.66-8.47L307,3.1c2.77,1,3.62,3.22,2.46,6.5,0,0-14.46,18.73-17.46,26.73-1.59,4.24-3.94,13.56-3.94,13.56C286.94,53.17,282.76,53.63,280,52.65Z"/><path class="cls-2" d="M286,110.33c-5.24,8.39-48,51-55,58-6,6-59,36-68,40-12.93,5.75-42,16-62,19-16.92,2.54-39,2-55,1-9.87-.61-39.47-8.26-43.46-17.31-1.5-3.39-2.94-16.28-.54-21.69,4-9,16.07-16.75,25-21,12-5.72,75.53-14.35,88-19,29.71-11.08,52.92-27.51,80-44,34.88-21.24,27.06-62.7,66-75,19.22-6.07,13-3,32,8,8.56,5,11.34,15.76,11,24C303,86.33,291,102.33,286,110.33Z"/><ellipse class="cls-3" cx="303.99" cy="4.81" rx="4.02" ry="7.39" transform="translate(170.06 277.76) rotate(-64.77)"/><path class="cls-4" d="M303,62.54c-1,24-13,40-18,48-5.24,8.39-48,51-55,58-6,6-59,36-68,40-12.93,5.75-42,16-62,19-16.93,2.54-39,2-55,1-9.87-.62-39.47-8.26-43.46-17.31A10.3,10.3,0,0,1,1.14,210c10.7,5.32,27.05,9.13,33.9,9.56,16,1,38.07,1.54,55-1,20-3,49.07-13.25,62-19,9-4,62-34,68-40,7-7,49.76-49.61,55-58,5-8,17-24,18-48a31.46,31.46,0,0,0-3.85-16.7c.88.54,1.83,1.11,2.85,1.7C300.59,43.5,303.38,54.3,303,62.54Z"/><path class="cls-3" d="M0,196.33c.36-6.87,2.56-7.15,6.6-6.43,3.36.59,5.8,16.17,6,20.17.33,6.87,1.67,10-3.34,8.35-.79-.26-5.67-3.57-6.69-5C.69,210.69-.2,200.82,0,196.33Z"/></symbol></defs><use width="310.9" height="229.38" transform="matrix(1.62, -0.13, 0.13, 1.65, -25.08, 37.75)" xlink:href="#banana"/></svg>