<?xml version="1.0" encoding="utf-8"?>
<!-- Generator: Adobe Illustrator 26.0.0, SVG Export Plug-In . SVG Version: 6.00 Build 0)  -->
<svg version="1.1" id="Layer_1" xmlns="http://www.w3.org/2000/svg" xmlns:xlink="http://www.w3.org/1999/xlink" x="0px" y="0px"
	 viewBox="0 0 250 300.2" style="enable-background:new 0 0 250 300.2;" xml:space="preserve">
<style type="text/css">
	.st0{fill:#DDB892;}
	.st1{fill:#CCAA87;}
	.st2{fill:#E76F51;}
	.st3{fill:#FFFFFF;}
	.st4{fill:#F57656;}
	.st5{fill:#DE6B4E;}
	.st6{fill:#FF7B5A;}
	.st7{fill:none;}
</style>
<path class="st0" d="M40.6,299.7c9.3,4.4,19.9-17.5,25.4-29.2s11.3-15.5,2-19.9s-10.7,3.2-16.2,14.8S31.3,295.3,40.6,299.7z"/>
<path class="st1" d="M65.6,269.7c-5.5,11.7-16.1,33.6-25.4,29.2c-0.9-0.4-1.7-1.1-2.2-1.9c9.1,2.5,19.1-18.3,24.4-29.5
	c4.4-9.3,9-13.6,5.9-17.2C76.6,254.4,71,258.3,65.6,269.7z"/>
<path class="st0" d="M203.8,299.7c-9.3,4.4-19.9-17.5-25.4-29.2s-11.3-15.5-2-19.9s10.7,3.2,16.2,14.8
	C198.1,277.1,213.1,295.3,203.8,299.7z"/>
<path class="st1" d="M178.8,269.7c5.5,11.7,16.1,33.6,25.4,29.2c0.9-0.4,1.7-1.1,2.2-1.9c-9.1,2.5-19.1-18.3-24.4-29.5
	c-4.4-9.3-9-13.6-5.9-17.2C167.8,254.4,173.4,258.3,178.8,269.7z"/>
<path class="st2" d="M125,23C56.3,23,0.6,78.7,0.6,147.4S56.3,271.8,125,271.8c68.7,0,124.4-55.7,124.4-124.4c0,0,0,0,0,0
	C249.4,78.7,193.7,23,125,23z M125,256.3c-60.2,0-109-48.8-109-109s48.8-109,109-109s109,48.8,109,109c0,0,0,0,0,0
	C234,207.5,185.2,256.3,125,256.3L125,256.3z"/>
<circle class="st3" cx="125" cy="147.4" r="108.9"/>
<path class="st4" d="M103.6,10.8C95.4-2.9,70.7-3.5,47.3,8.9c-0.2-0.4-0.4-0.8-0.6-1.2c-2.8-5.7-8-8.8-11.6-7
	c-3.5,1.8-4.1,7.8-1.3,13.4c0.4,0.9,0.9,1.7,1.5,2.4C16,31.1,9.8,60,17.5,72.8c4.2,7.1,9.7,5.4,14.5-2.2c5.5-8.6,17.8-20,30.4-27.5
	c12.9-7.7,29.2-9.4,37.5-14C107.4,24.9,107.7,17.7,103.6,10.8z"/>
<path class="st5" d="M125,23c-1.7,0-3.4,0-5.2,0.1c68.6,2.9,121.9,60.9,119,129.5c-2.7,64.6-54.5,116.3-119,119
	c1.7,0.1,3.4,0.1,5.2,0.1c68.7,0,124.4-55.7,124.4-124.4S193.7,23,125,23z"/>
<path class="st6" d="M88.3,9.6c-6.4-2-10.7-0.4-9.9-3.1s5-3.8,11.4-1.7s11,5.8,10.1,8.5S94.8,11.6,88.3,9.6z"/>
<path class="st6" d="M72.3,5.9c0-1.2,1.4-2.2,3.2-2.2s1.2,0.9,1.2,2.1S77.4,8,75.6,8S72.4,7.1,72.3,5.9z"/>
<g>
	<path class="st7" d="M212.9,23.6c-1,0.7-2.1,1.2-3.1,1.5C210.8,24.9,211.9,24.3,212.9,23.6z"/>
	<path class="st4" d="M217.1,19.1c0.1-0.2,0.3-0.4,0.4-0.7C220.7,13,220.5,7,217,5s-8.9,0.8-12,6.2l-0.3,0.5c2,1,3.9,2,6.1,3.3
		c0.2,0.1,0.4,0.2,0.5,0.3c-0.2-0.1-0.4-0.2-0.5-0.3c-2-1.2-4.1-2.3-6.1-3.3c-2.4,4.5-2.5,9.2-0.5,11.8c-2-2.6-1.9-7.3,0.5-11.8
		c-22.8-11.3-46.1-10.3-54.1,3c-2.7,4.6-4.7,9.8-1.7,12.8c6.3,6.6,26,9.5,42.9,19.5c11.7,7,24.1,18.3,29.4,25.8
		c4.9,6.9,10,7.8,14.6,0.2C243.6,59.8,237.5,33.9,217.1,19.1z M209.8,25.1c1-0.3,2.1-0.8,3.1-1.5C211.9,24.3,210.8,24.9,209.8,25.1z
		 M217.3,27.2c-1.3-1.2-1.7-2.9-0.9-3.8c0.8-0.9,2.5-0.5,3.8,0.7c1.3,1.2,0.2,1.5-0.7,2.3S218.6,28.5,217.3,27.2z"/>
	<path class="st6" d="M220.3,24.2c-1.3-1.2-3-1.6-3.8-0.7c-0.8,0.9-0.4,2.6,0.9,3.8c1.3,1.2,1.5,0.1,2.3-0.8S221.6,25.4,220.3,24.2z
		"/>
</g>
</svg>
