<?xml version="1.0" encoding="utf-8"?>
<!-- Generator: Adobe Illustrator 26.0.0, SVG Export Plug-In . SVG Version: 6.00 Build 0)  -->
<svg version="1.1" id="Layer_1" xmlns="http://www.w3.org/2000/svg" xmlns:xlink="http://www.w3.org/1999/xlink" x="0px" y="0px"
	 viewBox="0 0 535 427.7" style="enable-background:new 0 0 535 427.7;" xml:space="preserve">
<style type="text/css">
	.st0{fill:#F2935C;stroke:#F2935C;stroke-linecap:round;stroke-linejoin:round;}
	.st1{fill:#E68B57;}
	.st2{fill:#E68B57;stroke:#F2935C;stroke-linecap:round;stroke-linejoin:round;}
	.st3{fill:#ED905A;}
	.st4{fill:#EBF3F2;}
	.st5{fill:#FFFAEC;}
	.st6{fill:#BF886A;}
	.st7{fill:#F2935C;}
	.st8{fill:#484848;}
	.st9{fill:#F2F2F2;}
	.st10{fill:#767676;}
	.st11{fill:#F25555;}
	.st12{fill:#D17F4F;}
	.st13{fill:#9D5F3B;}
	.st14{fill:#E38A56;}
	.st15{fill:#FFDCC9;}
	.st16{fill:#EDCDBB;}
	.st17{fill:#E68B57;stroke:#F2935C;stroke-miterlimit:10;}
	.st18{fill:#ADE8F4;}
</style>
<path class="st0" d="M123.1,299.3c12.1,52.8,15.3,97.1,7,99l-5.7-11.3l-3.2,13.3l-3.8-4.6l-4.9-5.9l-3.2,13.3l-4.9-7.3
	c-2-3.5-3.9-7.3-5.7-11.3c-9.8-21.2-16-43.8-18.6-67"/>
<path class="st1" d="M122.7,361.2c1,11.6,3.5,21.3,6.8,21s0.1-10-0.8-21.5s1.7-16.8-1.6-16.5S121.8,349.7,122.7,361.2z"/>
<path class="st2" d="M237.6,0.5c-29.6,53-52.2,109.7-67.3,168.6c-2.2,8.5-4.1,16.9-5.9,25.2c0,0.1,0,0.1,0,0.2L1.2,109.5
	c5.3,0.5,40.5,3.2,63.2-22c6.1-6.8,10.7-14.8,13.5-23.5c7.4,1.1,32.8,4,57.3-11.8c10.7-6.9,19.7-16.3,26.1-27.4
	c10.2,4.4,21.4,5.9,32.4,4.4C220.7,25.4,235.2,4.2,237.6,0.5z"/>
<path class="st2" d="M161.2,24.9c8.3,21.3,12.2,44.1,11.4,67c-1.9,45.8-7.9,99.2-8.3,102.4c0,0.1,0,0.1,0,0.2c0,0-32.6-38-57.7-72.9
	c-12.5-17.6-22.2-37-28.8-57.5c7.4,1.1,32.8,4,57.3-11.8C145.9,45.3,154.8,35.9,161.2,24.9z"/>
<path class="st3" d="M362.7,175.6l0.3-0.2l60,78.5c68.3,45.7,19.8,35.8,3.3,44.6l-52,26.7c-11.8-53.7-17.4-108.5-20.1-163.4l0.9,1.2
	L362.7,175.6z"/>
<path class="st4" d="M114.8,156.1c0,13.8-4.5,25.8-12.9,33.7c-6.6,6.3-15.7,10-26.7,10c-24.9,0-39.6-18.8-39.6-43.7
	c0-17.8,8.2-29.7,22-35c6.1-2.2,12.5-3.3,19-3.2C101.5,117.8,114.8,131.2,114.8,156.1z"/>
<path class="st5" d="M114.8,156.1c0,13.8-4.5,25.8-12.9,33.7c-4.8,1.8-9.9,2.7-15.1,2.7c-24.9,0-39.6-18.8-39.6-43.7
	c0-12,3.7-21.3,10.3-27.7c6.1-2.2,12.5-3.3,19-3.2C101.5,117.8,114.8,131.2,114.8,156.1z"/>
<circle class="st6" cx="68.7" cy="198.6" r="6.5"/>
<path class="st7" d="M393.1,266.5c0,72.8-57.9,115.3-127.9,126.4c-12.6,2-25.3,3-38.1,3c-10.1,0-20.1-1-30-2.8
	c-28.8-5.5-55.7-18.2-78.4-36.8c-1.5-1.2-3-2.5-4.4-3.8c-32.1-28.2-53.2-67.9-53.2-111.9c0-85.7,80.3-155.2,166-155.2
	c69.6,0,135.6,62.8,158,132.4C390.3,233.6,393,250,393.1,266.5z"/>
<path class="st4" d="M295,179.4c0,15.7-5.3,29.2-15.1,38.1c-7.8,7.1-18.4,11.3-31.3,11.3c-29.1,0-46.4-21.3-46.4-49.4
	c0-20.1,9.6-33.6,25.8-39.6c7.1-2.5,14.7-3.8,22.2-3.6C279.4,136.1,295,151.2,295,179.4z"/>
<path class="st5" d="M295,179.4c0,15.7-5.3,29.2-15.1,38.1c-5.7,2.1-11.6,3.1-17.6,3c-29.1,0-46.4-21.3-46.4-49.4
	c0-13.6,4.3-24.1,12.1-31.4c7.1-2.5,14.7-3.7,22.2-3.6C279.4,136.1,295,151.2,295,179.4z"/>
<ellipse class="st8" cx="252.2" cy="171.7" rx="10.4" ry="9.7"/>
<ellipse class="st9" cx="255.3" cy="170.7" rx="4.7" ry="4.4"/>
<circle class="st8" cx="75.3" cy="146.2" r="9.7"/>
<circle class="st9" cx="78.2" cy="145.2" r="4.4"/>
<path class="st10" d="M174.3,226.7c-1.1,7.7-0.9,12.8-8.6,18.5c-5,3.7-10.7,6.1-16.8,7.1c-1.7,0.3-3.4,0.5-5.1,0.5
	c-2.7,0.1-5.3,0-7.9-0.4c-3.3-0.5-6.6-1.3-9.8-2.4c-18.5-6.4-24.8-16.7-22.9-29.8c1.3-9.4,1.4-13.8,10.8-10.6
	c2.9,1,6.3,2.2,10.2,3.3c1.3,0.4,2.7,0.8,4.2,1.1c2.8,0.7,5.7,1.3,8.5,1.7c0.7,0.1,1.4,0.2,2,0.3s1.6,0.1,2.3,0.2
	c2.2,0.2,4.3,0.2,6.4,0.2c3,0,5.9-0.1,8.7-0.3c2.3-0.1,4.4-0.4,6.4-0.5C173.8,214.6,175.6,217.4,174.3,226.7z"/>
<path class="st9" d="M156.3,216.1c-0.9,7.9-4.7,13.9-8.7,13.5c-3.8-0.3-6.4-6.1-6.3-13.4c2.2,0.2,4.3,0.2,6.4,0.2
	C150.6,216.4,153.5,216.2,156.3,216.1z"/>
<path class="st11" d="M148.9,252.3c-1.7,0.3-3.4,0.5-5.1,0.5c-2.7,0.1-5.3,0-7.9-0.4c-3.3-0.5-6.6-1.3-9.8-2.4
	c2.2-6.1,6.3-10.3,11-10.3c3.2,0,6.2,1.9,8.4,5.1C147,247.1,148.2,249.6,148.9,252.3z"/>
<path class="st11" d="M144.7,247c0.2-0.7,0.4-1.4,0.7-2.1c1.7-4.1,4.4-7,7.9-7.6c4.5-0.8,9.1,2.4,12.4,7.9c-5,3.7-10.7,6.1-16.8,7.1
	c-1.7,0.3-3.4,0.5-5.1,0.5"/>
<path class="st12" d="M295,208.9c0,19.4-16.9,28.6-44.2,28.6s-46.3-9.2-46.3-28.6s19,15.4,46.3,15.4S295,189.4,295,208.9z"/>
<path class="st13" d="M232.6,99.4l-38.7,9.7c-1,0.2-1.9-0.2-2.4-1.1c-2.9-6.7-2.4-13.1,2.1-19.2c5.9-8,16.4-11,25.6-7.3
	c7.1,2.6,12.5,8.4,14.8,15.6c0.3,1-0.2,2-1.2,2.3L232.6,99.4z"/>
<path class="st13" d="M270.9,97.3H258c-2,0.4-8.7-1.4-8.6-2.2c0.4-5.8,3.7-7.9,9.3-10.8c7-3.9,15.7-2.6,21.3,3
	c4.5,4.7,14.7,20.7,6.1,14.3C281.1,97.9,271.8,97.5,270.9,97.3z"/>
<path class="st13" d="M178.6,115.2L147.3,140c-0.8,0.6-1.9,0.6-2.6-0.1c-5.4-4.9-7.6-10.9-6-18.4c2.1-9.7,10.4-16.8,20.3-17.2
	c7.5-0.5,14.9,2.5,19.9,8.2c0.7,0.8,0.7,1.9-0.1,2.6c0,0,0,0,0,0L178.6,115.2z"/>
<path class="st13" d="M450,274.8l-12.9-10.1c-0.3-0.3-0.4-0.7-0.2-1.1c1.2-2.6,3.8-4.3,6.7-4.3c4.1-0.1,7.7,2.5,8.8,6.4
	c1,3,0.5,6.3-1.2,8.9C450.9,275,450.4,275.1,450,274.8L450,274.8z"/>
<path class="st13" d="M431.6,260.7l-14.2-11.1c-0.3-0.3-0.4-0.8-0.3-1.2c1.3-2.9,4.2-4.7,7.3-4.7c4.5-0.1,8.5,2.8,9.7,7.1
	c1.1,3.3,0.5,6.9-1.4,9.7C432.5,260.9,431.9,261,431.6,260.7C431.6,260.7,431.6,260.7,431.6,260.7L431.6,260.7z"/>
<path class="st13" d="M407.3,241.2l-11-17.3c-0.3-0.4-0.2-1,0.2-1.4c2.5-2.6,6.3-3.4,9.6-2.3c4.8,1.6,8,6.2,7.7,11.2
	c-0.1,3.9-2,7.6-5.2,9.9C408.2,241.8,407.7,241.7,407.3,241.2L407.3,241.2z"/>
<path class="st14" d="M359.7,347.5c-23.2,27.4-59.3,44.4-99.3,50.8c-12.4,2-25,3-37.6,3c-9.9,0-19.9-1-29.6-2.8
	c-28.5-5.5-55.1-18.2-77.3-36.8c-1.5-1.2-2.9-2.5-4.4-3.8C79.8,329.7,59,290,59,246c0-43.4,20.2-82.6,51.2-110.8
	c-23.7,26.7-38.5,60.8-38.5,97.8c0,44,20.8,83.6,52.5,111.9c1.4,1.3,2.9,2.5,4.4,3.8c22.3,18.6,48.9,31.2,77.3,36.8
	c9.8,1.9,19.7,2.8,29.6,2.8c12.6,0,25.2-1,37.6-3C306.5,380,337,367.3,359.7,347.5z"/>
<path class="st14" d="M282,390.5l6,1.9c-9,2.7-18.2,4.8-27.4,6.3c-12.4,2-25,3-37.6,3c-15.3,0-30.6-2.2-45.2-6.6l-0.5-0.1
	c-21-6.3-40.7-16.5-57.9-30.2l-0.3-0.2c-1-0.8-2-1.6-3-2.5c-1.5-1.2-2.9-2.5-4.3-3.8c-1.4-1.3-2.8-2.6-4.2-3.9
	c0-7.4,1.2-14.8,3.5-21.9c0-0.1,0.1-0.3,0.1-0.4c0-0.1,0-0.1,0-0.1c4.2,4.7,8.7,9.2,13.4,13.4l0.5,0.5l0.3,0.3c1.2,1,2.3,2,3.5,3
	c2.8,2.4,5.7,4.6,8.7,6.8c14.8,10.8,31.1,19.2,48.5,24.8c0.1,0,0.2,0.1,0.4,0.1c16,5.2,32.6,7.9,49.4,7.9c11.1,0,22.2-0.8,33.2-2.3
	l1,0.3L282,390.5z"/>
<path class="st15" d="M191.6,353.9c0,2.5-0.1,4.9-0.4,7.4c-0.7,6.7-2.3,13.2-4.9,19.4c-1.3,3.1-2.9,6.1-4.7,8.9
	c-1.2,1.9-2.6,3.6-4,5.3c-21.2-6.3-40.9-16.6-58.2-30.4c-1-0.8-2-1.6-3-2.5c-1.5-1.2-2.9-2.5-4.3-3.8s-3-2.7-4.5-4.1v-0.2
	c0-2.5,0.1-5,0.4-7.4c0.5-5,1.6-10,3.2-14.8c6.5-19.3,21.3-32.8,38.5-32.8C172.7,298.9,191.6,323.5,191.6,353.9z"/>
<path class="st15" d="M288.9,392.2c-9.2,2.8-18.5,4.9-28,6.5c-12.4,2-25,3-37.6,3c-9.9,0-19.9-1-29.6-2.8c-5.4-1-10.8-2.3-16.1-3.9
	c-21.2-6.3-40.9-16.7-58.2-30.5l2-6.2l4-12.5l1.5-4.9l64.4,20.4l78.9,25l12,3.8L288.9,392.2z"/>
<path class="st16" d="M186.5,380.4c-0.1,0.1-0.1,0.3-0.2,0.4l-0.1,0.3c-1.3,3.1-2.9,6.1-4.7,8.9c-1.1,1.7-2.4,3.4-3.7,5
	c-0.1,0.1-0.2,0.2-0.2,0.3c-21.2-6.3-40.9-16.6-58.2-30.4c-1-0.8-2-1.6-3-2.5c-1.5-1.2-2.9-2.5-4.3-3.8s-3-2.7-4.5-4.1v-0.2
	c0-7.4,1.2-14.8,3.4-21.9c0-0.1,0.1-0.3,0.1-0.4c0-0.1,0-0.1,0-0.1c4.2,4.7,8.7,9.2,13.4,13.4l0.5,0.5l0.3,0.3c1.2,1,2.3,2,3.5,3
	c2.8,2.4,5.7,4.6,8.7,6.8C152.4,366.5,169,374.8,186.5,380.4z"/>
<path class="st16" d="M288.9,392.6c-9.2,2.8-18.5,5-28,6.5c-12.4,2-25,3-37.6,3c-10,0-19.9-1-29.6-2.9c-5.4-1-10.8-2.3-16.1-3.9
	c-21.2-6.3-40.9-16.6-58.2-30.4l0.1-0.2l1.9-6l4-12.5v0l0.1-0.2c1.2,1,2.3,2,3.5,3c2.8,2.4,5.7,4.6,8.7,6.8
	c14.9,10.7,31.5,19,49,24.5c6.5,2.1,13.1,3.7,19.8,5c9.9,1.9,19.9,2.8,30,2.8c10.6,0,21.3-0.7,31.8-2.1l0.8,0.3l1,0.3l12,3.8l6,1.9
	L288.9,392.6z"/>
<path class="st13" d="M317.7,124.3l-11.2-6.4c-1.9-0.7-6.8-5.5-6.4-6.2c3.2-4.8,7.1-5,13.4-4.8c8,0.2,14.9,5.6,16.9,13.3
	c1.6,6.4,2.4,25.3-1.8,15.4C326.2,129.9,318.4,124.9,317.7,124.3z"/>
<path class="st0" d="M286,339.8c-18.1,51.1-39.2,90.2-47.2,87.3l1.2-12.6l-9.9,9.5l-0.7-6l-0.9-7.6l-9.8,9.5l-0.2-8.8
	c0.3-4,0.6-8.2,1.2-12.6c3.1-23.1,10-45.6,20.3-66.5"/>
<path class="st0" d="M359.5,335.8c9.4,30.7,12.6,56.6,7.2,57.9l-4.1-6.5l-1.8,7.9l-2.6-2.6l-3.4-3.4l-1.7,7.9l-3.4-4.1
	c-1.4-2-2.7-4.2-4.1-6.5c-6.9-12-11.6-25.2-13.9-38.9"/>
<path class="st17" d="M534.3,167.2c-60.7,3.3-120.7,14.4-178.5,33.1c-8.3,2.7-16.5,5.5-24.5,8.5l-0.1,0.1L315.8,25.6
	c2.4,4.7,19,35.9,52.4,41.7c9,1.5,18.3,1.1,27.1-1.2c3,6.8,14.2,29.8,40.5,42.2c11.6,5.4,24.3,7.9,37.1,7.4
	c1.8,11,6.5,21.2,13.6,29.8C504.2,166.2,529.9,167.1,534.3,167.2z"/>
<path class="st17" d="M472.9,115.6c-13.6,18.4-30.8,33.9-50.5,45.5c-39.8,22.9-88,46.3-91,47.7l-0.1,0.1c0,0,14.8-47.9,30.8-87.7
	c8.2-20,19.5-38.5,33.3-55.1c3,6.8,14.2,29.8,40.5,42.2C447.4,113.6,460.1,116.1,472.9,115.6z"/>
<path class="st18" d="M142.6,278.6c-3.3,0.1-4.3-29.6-7.4-23.5c-2.2,4.5-4.9-2.6-8.2-4.4c3.2,1,6.5,1.6,9.9,2
	c2.6,0.3,5.3,0.3,7.9,0.1C144.5,253.6,150.8,278.4,142.6,278.6z"/>
<path class="st18" d="M159.6,271.5c-1.2-3.5-6.1-25.9-9.2-14.8c-1.3,4.7-3.8-4-5.6-3.9c1.7-0.1,3.4-0.4,5.1-0.7
	c6.1-1.2,11.7-3.9,16.6-7.7C167.8,246.4,164.3,285.6,159.6,271.5z"/>
<path class="st1" d="M259.8,398.7c-4.8,10.5-10.5,18.9-13.5,17.5s3.2-9.4,8-20c4.8-10.6,4-16.4,7-15S264.5,388.1,259.8,398.7z"/>
<path class="st1" d="M366,367.3c1.1,8.7,1.2,16.3-0.6,16.5s-1.5-7.4-2.6-16.1s-3.3-12.2-1.5-12.5S364.8,358.5,366,367.3z"/>
<path class="st1" d="M359.7,351.6c1.1-0.4,1.7,0.9,2.1,1.9s0.1,0-1,0.4s-1.1,1.6-1.5,0.5S358.6,352,359.7,351.6z"/>
<path class="st1" d="M262.7,378.2c1.8,0.7,1.6,2.1,1.2,3.1s0.2,0.1-1.7-0.6s-2.9,0.1-2.5-0.9S260.9,377.5,262.7,378.2z"/>
</svg>
