<svg id="Layer_1" data-name="Layer 1" xmlns="http://www.w3.org/2000/svg" width="535" height="427.74" viewBox="0 0 535 427.74"><defs><style>.cls-1,.cls-8{fill:#f2935c;}.cls-1,.cls-18,.cls-3{stroke:#f2935c;}.cls-1,.cls-3{stroke-linecap:round;stroke-linejoin:round;}.cls-18,.cls-2,.cls-3{fill:#e68b57;}.cls-4{fill:#ed905a;}.cls-5{fill:#ebf3f2;}.cls-6{fill:#fffaec;}.cls-7{fill:#bf886a;}.cls-9{fill:#484848;}.cls-10{fill:#f2f2f2;}.cls-11{fill:#767676;}.cls-12{fill:#f25555;}.cls-13{fill:#d17f4f;}.cls-14{fill:#9d5f3b;}.cls-15{fill:#e38a56;}.cls-16{fill:#ffdcc9;}.cls-17{fill:#edcdbb;}.cls-18{stroke-miterlimit:10;}.cls-19{fill:#ade8f4;}</style></defs><path class="cls-1" d="M123.05,299.3c12.15,52.84,15.3,97.14,7,99L124.32,387l-3.23,13.33-3.78-4.6-4.9-5.94-3.17,13.31-4.87-7.27c-2-3.53-3.87-7.29-5.73-11.26a216.18,216.18,0,0,1-18.56-67"/><path class="cls-2" d="M122.71,361.21c1,11.56,3.51,21.3,6.82,21s.11-10-.84-21.52,1.73-16.75-1.57-16.48S121.76,349.67,122.71,361.21Z"/><path class="cls-3" d="M237.6.5a702.11,702.11,0,0,0-67.29,168.58q-3.24,12.76-5.91,25.21a.49.49,0,0,0,0,.17L1.17,109.52c5.28.48,40.5,3.16,63.25-22A65.08,65.08,0,0,0,77.87,64c7.37,1.09,32.8,4,57.29-11.76a81,81,0,0,0,26.09-27.35,61.32,61.32,0,0,0,32.42,4.36C220.68,25.41,235.18,4.21,237.6.5Z"/><path class="cls-3" d="M161.25,24.85a169.8,169.8,0,0,1,11.44,67c-1.92,45.85-7.94,99.15-8.31,102.43a.49.49,0,0,0,0,.17s-32.61-38-57.71-72.9A212.89,212.89,0,0,1,77.89,64c7.37,1.09,32.8,4,57.29-11.76A81,81,0,0,0,161.25,24.85Z"/><path class="cls-4" d="M362.71,175.62l.33-.2,60,78.5c68.29,45.68,19.75,35.85,3.32,44.58l-52.05,26.71c-11.81-53.71-17.42-108.49-20.08-163.43l.93,1.17Z"/><path class="cls-5" d="M114.8,156.07c0,13.84-4.54,25.8-12.87,33.69-6.64,6.3-15.67,10-26.71,10-24.9,0-39.6-18.8-39.6-43.7,0-17.79,8.21-29.67,22-35a52.58,52.58,0,0,1,19-3.21C101.46,117.84,114.8,131.21,114.8,156.07Z"/><path class="cls-6" d="M114.8,156.07c0,13.84-4.54,25.8-12.87,33.69a41.1,41.1,0,0,1-15.07,2.68c-24.88,0-39.6-18.8-39.6-43.68,0-12,3.71-21.28,10.35-27.71a52.58,52.58,0,0,1,19-3.21C101.46,117.84,114.8,131.21,114.8,156.07Z"/><circle class="cls-7" cx="68.67" cy="198.64" r="6.47"/><path class="cls-8" d="M393.13,266.55c0,72.81-57.91,115.26-127.89,126.38a242.06,242.06,0,0,1-38.11,3,162.32,162.32,0,0,1-30-2.83,175.25,175.25,0,0,1-78.36-36.78c-1.51-1.25-3-2.5-4.42-3.77-32.1-28.24-53.19-67.91-53.19-111.85,0-85.72,80.29-155.23,166-155.23,69.59,0,135.58,62.85,158,132.36A159.39,159.39,0,0,1,393.13,266.55Z"/><path class="cls-5" d="M295,179.37c0,15.66-5.33,29.2-15.07,38.13-7.77,7.13-18.35,11.32-31.27,11.32-29.15,0-46.37-21.27-46.37-49.45,0-20.12,9.62-33.57,25.75-39.62a63.23,63.23,0,0,1,22.23-3.63C279.42,136.12,295,151.21,295,179.37Z"/><path class="cls-6" d="M295,179.37c0,15.66-5.33,29.2-15.07,38.13a49.81,49.81,0,0,1-17.64,3c-29.13,0-46.37-21.28-46.37-49.43,0-13.56,4.34-24.08,12.12-31.35a63.2,63.2,0,0,1,22.23-3.6C279.42,136.12,295,151.21,295,179.37Z"/><ellipse class="cls-9" cx="252.16" cy="171.69" rx="10.43" ry="9.7"/><ellipse class="cls-10" cx="255.34" cy="170.66" rx="4.69" ry="4.36"/><circle class="cls-9" cx="75.26" cy="146.24" r="9.7"/><circle class="cls-10" cx="78.21" cy="145.21" r="4.36"/><path class="cls-11" d="M174.31,226.67c-1.1,7.71-.89,12.81-8.61,18.49a38.87,38.87,0,0,1-16.84,7.1,39.38,39.38,0,0,1-5.08.51,42.9,42.9,0,0,1-7.93-.4,52.79,52.79,0,0,1-9.78-2.35c-18.53-6.4-24.75-16.67-22.91-29.82,1.33-9.41,1.37-13.82,10.81-10.62,2.94,1,6.34,2.21,10.15,3.29,1.32.4,2.74.78,4.18,1.14a84.71,84.71,0,0,0,8.54,1.66c.68.11,1.37.19,2,.27s1.55.15,2.32.22c2.17.16,4.31.22,6.38.22,3,0,5.92-.14,8.67-.32,2.26-.15,4.4-.35,6.42-.5C173.75,214.65,175.62,217.41,174.31,226.67Z"/><path class="cls-10" d="M156.31,216.06c-.9,7.89-4.72,13.86-8.72,13.52-3.76-.33-6.42-6.14-6.33-13.42,2.17.16,4.31.22,6.38.22C150.62,216.38,153.51,216.21,156.31,216.06Z"/><path class="cls-12" d="M148.86,252.26a39.38,39.38,0,0,1-5.08.51,42.9,42.9,0,0,1-7.93-.4,52.79,52.79,0,0,1-9.78-2.35c2.24-6.15,6.3-10.28,11-10.29,3.21,0,6.16,1.89,8.43,5.1A24,24,0,0,1,148.86,252.26Z"/><path class="cls-12" d="M144.72,247a20.14,20.14,0,0,1,.73-2.15c1.66-4.13,4.41-7,7.86-7.57,4.5-.76,9.12,2.44,12.39,7.9a38.87,38.87,0,0,1-16.84,7.1,39.38,39.38,0,0,1-5.08.51"/><path class="cls-13" d="M295,208.85c0,19.44-16.89,28.6-44.22,28.6s-46.33-9.16-46.33-28.6,19,15.4,46.33,15.4S295,189.41,295,208.85Z"/><path class="cls-14" d="M232.55,99.44l-38.73,9.7a2.06,2.06,0,0,1-2.35-1.14c-2.92-6.69-2.45-13.08,2.07-19.25a21.81,21.81,0,0,1,25.56-7.34,24.29,24.29,0,0,1,14.76,15.64,1.87,1.87,0,0,1-1.18,2.35Z"/><path class="cls-14" d="M270.93,97.31H258c-2,.38-8.67-1.38-8.63-2.15.35-5.77,3.7-7.87,9.26-10.84a17.88,17.88,0,0,1,21.29,3c4.53,4.73,14.73,20.74,6.1,14.27C281.06,97.9,271.79,97.46,270.93,97.31Z"/><path class="cls-14" d="M178.65,115.21,147.31,140a2.08,2.08,0,0,1-2.62-.07c-5.41-4.9-7.61-10.91-6-18.4A21.82,21.82,0,0,1,159,104.3a24.27,24.27,0,0,1,19.89,8.18,1.86,1.86,0,0,1-.09,2.63Z"/><path class="cls-14" d="M450,274.84l-12.93-10.11a.88.88,0,0,1-.23-1.07,7.36,7.36,0,0,1,6.67-4.3,8.94,8.94,0,0,1,8.83,6.43,10.27,10.27,0,0,1-1.25,8.86.76.76,0,0,1-1,.23Z"/><path class="cls-14" d="M431.56,260.73l-14.25-11.12a1,1,0,0,1-.26-1.17,8.13,8.13,0,0,1,7.33-4.73,9.82,9.82,0,0,1,9.71,7.07,11.31,11.31,0,0,1-1.37,9.74.83.83,0,0,1-1.16.21Z"/><path class="cls-14" d="M407.31,241.21l-11-17.27a1.08,1.08,0,0,1,.17-1.35,9.21,9.21,0,0,1,9.63-2.27,11.13,11.13,0,0,1,7.7,11.23,12.81,12.81,0,0,1-5.16,9.89.92.92,0,0,1-1.29-.16Z"/><path class="cls-15" d="M359.72,347.48c-23.21,27.37-59.27,44.39-99.33,50.84a235.8,235.8,0,0,1-37.61,3,157.47,157.47,0,0,1-29.63-2.83,171.94,171.94,0,0,1-77.32-36.8c-1.49-1.25-2.94-2.5-4.36-3.78C79.79,329.66,59,290,59,246c0-43.38,20.25-82.6,51.22-110.77C86.56,161.94,71.75,196,71.75,233.06c0,44,20.8,83.65,52.48,111.91q2.13,1.9,4.36,3.78a172.08,172.08,0,0,0,77.33,36.8,158.29,158.29,0,0,0,29.63,2.82,237,237,0,0,0,37.61-3C306.47,380,337,367.34,359.72,347.48Z"/><path class="cls-15" d="M282,390.47l6,1.9a211,211,0,0,1-27.42,6.3,236.84,236.84,0,0,1-37.6,3,159.41,159.41,0,0,1-45.25-6.62l-.48-.13a172.19,172.19,0,0,1-57.88-30.18l-.31-.24c-1-.79-2-1.61-3-2.45q-2.22-1.87-4.35-3.78c-1.42-1.29-2.85-2.56-4.23-3.92A70.89,70.89,0,0,1,111,332.49a1.36,1.36,0,0,1,.13-.37c0-.13,0-.08,0-.13a166.75,166.75,0,0,0,13.37,13.35l.54.47.3.26c1.15,1,2.33,2,3.52,3,2.8,2.35,5.69,4.59,8.66,6.77A173.49,173.49,0,0,0,186,380.68a2.24,2.24,0,0,0,.37.1,160.34,160.34,0,0,0,49.41,7.92A235.7,235.7,0,0,0,269,386.37l1,.32Z"/><path class="cls-16" d="M191.55,353.89a73.4,73.4,0,0,1-.38,7.41,66.67,66.67,0,0,1-4.94,19.39,58.37,58.37,0,0,1-4.74,8.9,51.44,51.44,0,0,1-4,5.3,172.34,172.34,0,0,1-58.18-30.42c-1-.79-2-1.61-3-2.45-1.49-1.25-2.93-2.51-4.35-3.78s-3-2.71-4.47-4.14v-.21a66,66,0,0,1,.39-7.44,68.11,68.11,0,0,1,3.19-14.79c6.53-19.3,21.3-32.75,38.46-32.75C172.73,298.91,191.55,323.53,191.55,353.89Z"/><path class="cls-16" d="M288.85,392.21a211.93,211.93,0,0,1-28,6.47,236.84,236.84,0,0,1-37.6,3,158.59,158.59,0,0,1-29.65-2.82,163.85,163.85,0,0,1-16.08-3.93,172.4,172.4,0,0,1-58.21-30.46l2-6.16,4-12.53,1.53-4.85,64.4,20.37,78.88,25,12,3.77Z"/><path class="cls-17" d="M186.53,380.36c-.05.15-.11.29-.17.43l-.13.33a58.37,58.37,0,0,1-4.74,8.9,51.93,51.93,0,0,1-3.73,5,2.43,2.43,0,0,1-.24.3,172.48,172.48,0,0,1-58.21-30.42c-1-.79-2-1.61-3-2.45-1.49-1.25-2.93-2.5-4.35-3.78s-3-2.71-4.47-4.14v-.21a70.89,70.89,0,0,1,3.45-21.86,1.36,1.36,0,0,1,.13-.37c0-.13,0-.08,0-.13a166.75,166.75,0,0,0,13.37,13.35l.54.47.3.26c1.15,1,2.33,2,3.52,3,2.8,2.35,5.69,4.59,8.66,6.77A175.16,175.16,0,0,0,186.53,380.36Z"/><path class="cls-17" d="M288.85,392.63a211.57,211.57,0,0,1-28,6.47,236.84,236.84,0,0,1-37.6,3,158.57,158.57,0,0,1-29.65-2.89,163.85,163.85,0,0,1-16.08-3.93,172.57,172.57,0,0,1-58.21-30.38l.07-.19,1.87-6,4-12.48v-.05l.06-.17c1.15,1,2.33,2,3.52,3,2.8,2.35,5.69,4.59,8.66,6.77a175.34,175.34,0,0,0,49,24.51,166.45,166.45,0,0,0,19.81,5,162.32,162.32,0,0,0,30,2.83,241.86,241.86,0,0,0,31.82-2.07l.82.26,1,.32,12,3.77,6,1.9Z"/><path class="cls-14" d="M317.71,124.33l-11.22-6.45c-1.88-.65-6.82-5.52-6.4-6.17,3.17-4.82,7.13-5,13.43-4.78a17.88,17.88,0,0,1,16.94,13.28c1.57,6.36,2.43,25.31-1.82,15.41C326.2,129.89,318.38,124.89,317.71,124.33Z"/><path class="cls-1" d="M286,339.76c-18.11,51.11-39.22,90.17-47.2,87.34L240,414.52,230.08,424l-.73-6-.95-7.64-9.82,9.53-.21-8.75c.26-4,.65-8.23,1.21-12.58a216.23,216.23,0,0,1,20.32-66.52"/><path class="cls-1" d="M359.49,335.82c9.35,30.69,12.56,56.58,7.18,57.88l-4.06-6.49-1.79,7.88-2.63-2.63-3.37-3.37L353.07,397l-3.39-4.14c-1.38-2-2.74-4.19-4.06-6.47a117,117,0,0,1-13.93-38.87"/><path class="cls-18" d="M534.31,167.21a702.89,702.89,0,0,0-178.5,33.13q-12.51,4.08-24.5,8.48l-.15.06L315.8,25.56c2.41,4.72,19,35.92,52.41,41.7a65,65,0,0,0,27.1-1.21c3,6.81,14.18,29.84,40.55,42.15a80.92,80.92,0,0,0,37.06,7.44,61.33,61.33,0,0,0,13.61,29.75C504.18,166.21,529.88,167.08,534.31,167.21Z"/><path class="cls-18" d="M472.9,115.64a169.78,169.78,0,0,1-50.53,45.46c-39.78,22.88-88.05,46.27-91,47.72l-.15.06S346,161,362,121.16a213,213,0,0,1,33.3-55.11c3,6.81,14.18,29.84,40.55,42.15A81.1,81.1,0,0,0,472.9,115.64Z"/><path class="cls-19" d="M142.59,278.6c-3.34.1-4.32-29.57-7.35-23.46-2.22,4.51-4.86-2.6-8.23-4.39a53.28,53.28,0,0,0,9.85,2,43.87,43.87,0,0,0,7.94.09C144.46,253.55,150.8,278.36,142.59,278.6Z"/><path class="cls-19" d="M159.59,271.49c-1.19-3.51-6.11-25.92-9.18-14.76-1.3,4.69-3.76-4-5.61-3.91a37.94,37.94,0,0,0,5.07-.71,38.79,38.79,0,0,0,16.56-7.71C167.82,246.37,164.31,285.62,159.59,271.49Z"/><path class="cls-2" d="M259.78,398.68c-4.77,10.53-10.47,18.89-13.47,17.53s3.23-9.43,8-20,4-16.36,7-15S264.55,388.1,259.78,398.68Z"/><path class="cls-2" d="M366,367.26c1.14,8.72,1.17,16.31-.63,16.55s-1.48-7.4-2.63-16.12-3.31-12.23-1.51-12.46S364.81,358.54,366,367.26Z"/><path class="cls-2" d="M359.68,351.58c1.11-.39,1.71.88,2.08,1.92s.11,0-1,.35-1.14,1.57-1.5.53S358.57,352,359.68,351.58Z"/><path class="cls-2" d="M262.69,378.21c1.83.69,1.58,2.09,1.19,3.12s.18.07-1.66-.62-2.88.09-2.49-.94S260.85,377.52,262.69,378.21Z"/></svg>