<svg id="Layer_1" data-name="Layer 1" xmlns="http://www.w3.org/2000/svg" width="515" height="487" viewBox="0 0 515 487"><defs><style>.cls-1{fill:#f8edeb;}.cls-2{fill:#f7b538;}.cls-3{fill:#edae36;}.cls-4{fill:#fff4f2;}</style></defs><path class="cls-1" d="M502.92,197.23c26.23,45-5.17,183.42-34.89,221.5C426.93,471.37,324.55,487,252.59,487c-61.85,0-77.72-50.57-118.33-91-40.81-40.65-132-56.18-132-118.33,0-66.38,57.37-93.92,103.16-135C145.19,106.92,152.48,0,210.11,0c77.51,0,211.27,2.86,239.71,68.27C465,103.17,471.06,142.61,502.92,197.23Z"/><circle class="cls-2" cx="268.52" cy="270.81" r="100.89"/><path class="cls-3" d="M331.33,344.22a136.7,136.7,0,0,1-17.4,11.89C308.77,359,298,364,291.77,365.3c-8.21,1.68-16,.85-18.9-4.38h0c-2.85-5.23,1.89-9.62,10.25-10.22,6.05-.43,19.94-6.49,25.19-9.4,4.93-2.74,13.51-7.91,17.29-13.4,5.51-8,9.69-7.8,12.54-2.57h0C341,330.56,337.06,339.25,331.33,344.22Z"/><path class="cls-3" d="M175.84,270.29a137.09,137.09,0,0,1,3.35-20.81c1.45-5.72,5.21-17,8.58-22.4,4.42-7.11,10.42-12.22,16.17-10.7h0c5.76,1.53,5.69,8,.37,14.47-3.85,4.69-9,18.94-10.51,24.74-1.4,5.46-3.55,15.25-2.17,21.78,2,9.5-1,12.39-6.76,10.86h0C179.11,286.71,175.51,277.87,175.84,270.29Z"/><path class="cls-3" d="M206,205.06c4-4.85,7.76-7.37,12.61-3.38s4.58,5.87.59,10.72c-1.48,1.79-6.41,5.89-7.59,6.07-2,.29-.56-1.39-3.61-3.91-2.43-2-3-1.22-4-2.16C202.53,210.88,204,207.48,206,205.06Z"/><path class="cls-4" d="M13.22,279.72a137.09,137.09,0,0,1,3.35-20.81c1.45-5.73,5.21-17,8.58-22.4,4.42-7.12,10.42-12.23,16.17-10.7h0c5.76,1.52,5.68,8,.37,14.46-3.85,4.69-9,18.94-10.51,24.75-1.4,5.46-3.55,15.25-2.17,21.77,2,9.5-1,12.39-6.76,10.87h0C16.49,296.13,12.89,287.29,13.22,279.72Z"/><path class="cls-4" d="M251.3,478.16a135.6,135.6,0,0,1-20.38-5.38c-5.56-2-16.39-6.86-21.45-10.74-6.65-5.1-11.14-11.57-9.06-17.15h0c2.09-5.57,8.51-4.87,14.43,1.06,4.29,4.3,18,10.83,23.6,12.89,5.29,1.94,14.82,5,21.45,4.3,9.66-1.06,12.24,2.22,10.15,7.8h0C268,476.52,258.81,479.24,251.3,478.16Z"/><path class="cls-4" d="M187.2,437.73c-3.8-5-5.38-9.24-.37-13s6.76-3.11,10.56,1.9c1.41,1.85,4.26,7.59,4.15,8.78-.17,2-1.47.22-4.63,2.62-2.5,1.89-1.89,2.66-3,3.36C192.06,442.48,189.1,440.24,187.2,437.73Z"/></svg>