<svg id="Layer_1" data-name="Layer 1" xmlns="http://www.w3.org/2000/svg" width="100" height="100" viewBox="0 0 100 100"><defs><style>.cls-1{fill:#fff;stroke:#000;stroke-width:6px;}</style></defs><path class="cls-1" d="M79.3,45.12a40.39,40.39,0,0,1-1.76,12.33,33.39,33.39,0,0,1-4.91,9.76,32.46,32.46,0,0,1-7.49,7.35,43.08,43.08,0,0,1-9.52,5.06,56.3,56.3,0,0,1-11,2.93,74.92,74.92,0,0,1-12,1c-1.53,0-3,0-4.49-.12s-3-.21-4.49-.37L25,17.48a61.2,61.2,0,0,1,11.06-2.41,89.91,89.91,0,0,1,11.31-.71,37.84,37.84,0,0,1,12.84,2.1,29.22,29.22,0,0,1,10.11,6.05,27.34,27.34,0,0,1,6.61,9.67A33.5,33.5,0,0,1,79.3,45.12Zm-20,3.13a19.31,19.31,0,0,0-.56-5.08,12.25,12.25,0,0,0-2-4.32,10.4,10.4,0,0,0-3.54-3,11.59,11.59,0,0,0-5.13-1.25L46.1,64.85a14,14,0,0,0,5.32-1.93,16.44,16.44,0,0,0,4.13-3.66,16.71,16.71,0,0,0,2.68-4.84,17.7,17.7,0,0,0,1.05-5.49Z"/><path d="M79.3,48.51a37.17,37.17,0,0,1-1.71,8.42A34.1,34.1,0,0,1,72.27,67a34.88,34.88,0,0,1-8.12,7.58,43.89,43.89,0,0,1-4.85,2.83,9.52,9.52,0,0,1-1.36-6.71c.66-3.6,3.43-6.49,7.27-8.08A5.58,5.58,0,0,1,70.79,55C72,51.75,75.26,49.35,79.3,48.51Z"/></svg>