<svg id="Layer_1" data-name="Layer 1" xmlns="http://www.w3.org/2000/svg" width="440" height="160" viewBox="0 0 440 160"><defs><style>.cls-1{fill:#b56576;}.cls-2{fill:#e56b6f;}.cls-3{fill:#fff;}</style></defs><ellipse class="cls-1" cx="220" cy="80" rx="217.9" ry="79.01"/><ellipse class="cls-2" cx="220" cy="80" rx="212.87" ry="64.83"/><path class="cls-3" d="M82,98.44,69.31,99l-.1-10.71H63.37L63,99.45H51.63l1-35.7,12.09.56-.77,18.23h5.64l0-19.09,11.58.3Z"/><path class="cls-3" d="M115.8,80a18.22,18.22,0,0,1-.54,4.46,17.05,17.05,0,0,1-1.53,4,16.36,16.36,0,0,1-2.44,3.44A15.58,15.58,0,0,1,99.7,97a16,16,0,0,1-4.36-.58,16.62,16.62,0,0,1-3.87-1.64,15.45,15.45,0,0,1-3.26-2.54,16.07,16.07,0,0,1-2.49-3.3,17.19,17.19,0,0,1-1.6-3.9,16.29,16.29,0,0,1-.57-4.34,17.64,17.64,0,0,1,2.07-8.33A17.69,17.69,0,0,1,88,68.88a16.24,16.24,0,0,1,3.19-2.72,15.29,15.29,0,0,1,3.82-1.77,14.42,14.42,0,0,1,4.34-.64,19,19,0,0,1,6.72,1.14,14.28,14.28,0,0,1,8.51,8.4A18.35,18.35,0,0,1,115.8,80Zm-11.28.66a7.2,7.2,0,0,0-.31-2.12,6.08,6.08,0,0,0-.93-1.83,4.82,4.82,0,0,0-1.51-1.29,4.23,4.23,0,0,0-2.07-.5,5,5,0,0,0-2.13.44A4.77,4.77,0,0,0,96,76.54a5.17,5.17,0,0,0-1,1.75,6.21,6.21,0,0,0-.36,2.12,7.47,7.47,0,0,0,.31,2.13,6.12,6.12,0,0,0,.91,1.93,4.92,4.92,0,0,0,1.51,1.4,4.08,4.08,0,0,0,2.09.53,4.82,4.82,0,0,0,2.15-.47,4.88,4.88,0,0,0,1.61-1.27,5.89,5.89,0,0,0,1-1.84A6.79,6.79,0,0,0,104.52,80.66Z"/><path class="cls-3" d="M162.72,64.21l-5.94,34.17-14.42.31-3.1-17.22-3.1,15.9-14.42.51-6-32.66,12.59-1.11,2.54,20.06,3.4-18.54h9.9l4,18.79,2-21.33Z"/><path class="cls-3" d="M201.21,63.65,201,74.42l-7.57.3-.91,23.56-10.72.56-1-23.56-7.57.41.31-12Z"/><path class="cls-3" d="M233.56,80a18.72,18.72,0,0,1-.53,4.46,17.52,17.52,0,0,1-1.54,4,16.36,16.36,0,0,1-2.44,3.44,15.58,15.58,0,0,1-11.59,5,15.92,15.92,0,0,1-4.35-.58,16.88,16.88,0,0,1-3.88-1.64A15.45,15.45,0,0,1,206,92.2a16.07,16.07,0,0,1-2.49-3.3,17.19,17.19,0,0,1-1.6-3.9,16.29,16.29,0,0,1-.57-4.34,18,18,0,0,1,2.07-8.33,17.32,17.32,0,0,1,2.43-3.45A16.18,16.18,0,0,1,209,66.16a15.29,15.29,0,0,1,3.82-1.77,14.49,14.49,0,0,1,4.35-.64,18.94,18.94,0,0,1,6.71,1.14,14.28,14.28,0,0,1,8.51,8.4A18.14,18.14,0,0,1,233.56,80Zm-11.27.66a7.21,7.21,0,0,0-.32-2.12,5.86,5.86,0,0,0-.93-1.83,4.82,4.82,0,0,0-1.51-1.29,4.23,4.23,0,0,0-2.07-.5,5,5,0,0,0-2.13.44,4.64,4.64,0,0,0-1.61,1.18,5,5,0,0,0-1,1.75,6.21,6.21,0,0,0-.36,2.12,7.47,7.47,0,0,0,.31,2.13,6.12,6.12,0,0,0,.91,1.93,4.92,4.92,0,0,0,1.51,1.4,4.09,4.09,0,0,0,2.1.53,4.74,4.74,0,0,0,3.75-1.74,5.89,5.89,0,0,0,1-1.84A6.53,6.53,0,0,0,222.29,80.66Z"/><path class="cls-3" d="M275.07,76a12.1,12.1,0,0,1-.73,4.37,11.13,11.13,0,0,1-2,3.34,12,12,0,0,1-3,2.41,19.49,19.49,0,0,1-3.7,1.6,24.78,24.78,0,0,1-4.07.91,32.9,32.9,0,0,1-4.14.32V99.81H245.57c0-1.93,0-3.81,0-5.64s0-3.64,0-5.45,0-3.61,0-5.44,0-3.72,0-5.66,0-4.13,0-6.2,0-4.15.12-6.25a47.67,47.67,0,0,1,6.5-1.44,45.87,45.87,0,0,1,6.71-.49,24.65,24.65,0,0,1,3.91.32,19.24,19.24,0,0,1,3.74,1A16.91,16.91,0,0,1,270,66.28a11.25,11.25,0,0,1,2.65,2.45A11.42,11.42,0,0,1,274.42,72,11.88,11.88,0,0,1,275.07,76Zm-11.27.86a3.35,3.35,0,0,0-1-2.57,3.69,3.69,0,0,0-2.61-.93,7.09,7.09,0,0,0-1.1.09q-.57.09-1.08.21l-.3,7.42a5.31,5.31,0,0,0,.68,0h.69a5.25,5.25,0,0,0,1.76-.3,4.83,4.83,0,0,0,1.51-.88,4.5,4.5,0,0,0,1.06-1.35A3.78,3.78,0,0,0,263.8,76.9Z"/><path class="cls-3" d="M298.79,86l-1.07,11.28-21.38,1.67.81-36.25h13.21L288.48,86Z"/><path class="cls-3" d="M332,97.27l-12.6,1.62-1.52-5.74h-5.79l-1.27,5.74-12.95-1.27L308,63.8l14.12-.71ZM317,85.38,315,76.55l-1.88,8.83Z"/><path class="cls-3" d="M360.74,65.07l-11.93,19.5.35,14.37H336.11l.31-14.27-9.3-18.84,12.95-1.62,4.06,11,4.42-11Z"/><path class="cls-3" d="M377,89.55h-8.58a14.21,14.21,0,0,1,.3-4.51,9.68,9.68,0,0,1,1.31-3,7.87,7.87,0,0,1,1.85-2,19.93,19.93,0,0,1,2-1.3c.65-.36,1.23-.71,1.73-1a2.67,2.67,0,0,0,1-1.27,2.22,2.22,0,0,0-.42-2.19,3.56,3.56,0,0,0-1.32-.9,6.1,6.1,0,0,0-2.28-.37,17.12,17.12,0,0,0-2.17.17,23.17,23.17,0,0,0-2.62.51,25.67,25.67,0,0,0-2.71.83,14.85,14.85,0,0,0-2.4,1.13l-1.12-9.95c.63-.37,1.34-.76,2.12-1.15a18.43,18.43,0,0,1,2.61-1.07,22.87,22.87,0,0,1,3.09-.77,19.58,19.58,0,0,1,3.61-.31,20,20,0,0,1,5.9.86,14.75,14.75,0,0,1,4.87,2.54,12.09,12.09,0,0,1,4.52,9.75,9.2,9.2,0,0,1-.69,3.88,7.23,7.23,0,0,1-1.75,2.39,10.22,10.22,0,0,1-2.39,1.58q-1.32.63-2.58,1.38a11.82,11.82,0,0,0-2.31,1.84A7.12,7.12,0,0,0,377,89.55Zm1.27,6.7a5,5,0,0,1-.43,2.08,5.41,5.41,0,0,1-1.16,1.69,5.26,5.26,0,0,1-1.68,1.14,5.31,5.31,0,0,1-4.14,0,5.34,5.34,0,0,1-2.83-2.83,5.12,5.12,0,0,1-.42-2.08,5.26,5.26,0,0,1,.42-2.08,5.18,5.18,0,0,1,1.14-1.71,5.41,5.41,0,0,1,1.69-1.16,5.2,5.2,0,0,1,4.14,0,5.49,5.49,0,0,1,1.68,1.16,5.39,5.39,0,0,1,1.16,1.71A5.1,5.1,0,0,1,378.31,96.25Z"/></svg>