<?xml version="1.0" encoding="utf-8"?>
<!-- Generator: Adobe Illustrator 26.0.0, SVG Export Plug-In . SVG Version: 6.00 Build 0)  -->
<svg version="1.1" id="Layer_1" xmlns="http://www.w3.org/2000/svg" xmlns:xlink="http://www.w3.org/1999/xlink" x="0px" y="0px"
	 viewBox="0 0 360.6 335.5" style="enable-background:new 0 0 360.6 335.5;" xml:space="preserve">
<style type="text/css">
	.st0{fill:#808080;}
	.st1{fill:none;}
</style>
<path class="st0" d="M360.2,87.8c0-0.2,0-0.3-0.1-0.5c0.1,0.7,0.1,1.3,0.2,2C360.3,88.8,360.3,88.3,360.2,87.8z"/>
<g>
	<polygon class="st1" points="234.5,186.6 255.9,128.8 234.5,186.6 	"/>
	<path class="st1" d="M298.7,13.5L298.7,13.5c33.8,15,47.7,33.4,54.1,46.8c3.8,7.9,6.2,16.4,7.2,25.2c-1-8.7-3.4-17.2-7.1-25.2
		C346.4,46.9,332.5,28.5,298.7,13.5z"/>
	<path class="st0" d="M180.4,316.9c-0.2-2-0.6-3.9-1.1-5.8c-3.2-12.7-11.6-27.7-12.4-44.2c-0.9-18.3,7.7-38.5,7.4-60.2
		c-0.1-8.6-9.4-17.5-9.4-26.5c0-8.3,4.5-19.9,8.7-28.8c-11.8,16.5-28.5,28.8-47.7,35.2l0,0c19.2-6.4,35.9-18.7,47.7-35.1
		c2.5-3.5,4.7-7.1,6.7-10.8c-0.2-0.4-0.4-0.8-0.6-1.2c0,0,0,0,0,0c0,0,0,0,0,0c-9.7-19-12.7-40.7-8.8-61.6
		c-0.9-6.4-1.4-12.8-1.6-19.3c0.2-7.1,0.9-14.3,2.1-21.3C155,16,130.6,2.7,104,0.4C51.4-4.3,5,34.7,0.4,87.3c0,0,0,0.1,0,0.1
		c0,0.1,0,0.2,0,0.3c-0.1,0.7-0.2,1.3-0.2,2c0,0.1,0,0.3,0,0.4C-4,156.9,60.8,252.5,179.5,334.8l-0.2,0.6c0.2-0.1,0.4-0.3,0.6-0.4
		l0.7,0.5l-0.3-0.8l0.7-0.5c0.2-4.2,0.1-8.5-0.2-12.7C180.6,320,180.5,318.5,180.4,316.9z"/>
	<path class="st0" d="M360.4,91.2c0-0.6-0.1-1.1-0.1-1.7c0-0.1,0-0.2,0-0.3c0-0.4-0.1-0.8-0.1-1.2c0,0,0,0,0-0.1c0-0.1,0-0.3,0-0.4
		v-0.3c-0.1-0.6-0.1-1.2-0.2-1.8c-1-8.7-3.4-17.2-7.2-25.2c-6.4-13.4-20.3-31.8-54.1-46.8l0,0c33.8,15,47.7,33.4,54.1,46.8
		c3.8,7.9,6.2,16.4,7.1,25.2c-3.3-29.9-20.3-56.4-46.1-71.8c-45.4-27-104.1-12.2-131.2,33.2c-0.3,13.3-0.6,26.3,0.1,33.7
		c2,20.6,12.7,53.5,13,81.6c0,0,0,0,0,0c0,0.2,0,0.3,0,0.5c0,5.8-10.6,17.3-10.6,23.3c0,18.1,10.4,29.8,10,46.2
		c-0.5,18-14,28.3-14.9,43.3c-0.6,9.9,2,20.7,4.5,30.6c0.9,3.7,1.8,7.3,2.5,10.7c1,4,1.4,8.1,1.3,12.2
		C302,248.5,364,156.4,360.4,91.2z M234.5,186.6C234.5,186.6,234.5,186.6,234.5,186.6l21.5-57.8L234.5,186.6z"/>
</g>
</svg>
