<svg id="Layer_1" data-name="Layer 1" xmlns="http://www.w3.org/2000/svg" width="440" height="158.02" viewBox="0 0 440 158.02"><defs><style>.cls-1{fill:#355070;}.cls-2{fill:#6d597a;}.cls-3{fill:#fff;}</style></defs><ellipse class="cls-1" cx="220" cy="79.01" rx="217.9" ry="79.01"/><ellipse class="cls-2" cx="220" cy="79.01" rx="212.87" ry="64.83"/><path class="cls-3" d="M181.19,71.71a16.72,16.72,0,0,1-1,6.05,14.56,14.56,0,0,1-2.8,4.6,16.57,16.57,0,0,1-4.16,3.34,26.12,26.12,0,0,1-5.12,2.24,34.72,34.72,0,0,1-5.64,1.26,45.32,45.32,0,0,1-5.73.44V106H140.34q0-8,0-16t.11-16.1q.06-4.29,0-8.58t.18-8.65a64.58,64.58,0,0,1,9-2A63.84,63.84,0,0,1,159,54a34,34,0,0,1,5.41.44,26.78,26.78,0,0,1,5.19,1.39,22.7,22.7,0,0,1,4.6,2.37,15.57,15.57,0,0,1,6.12,7.88A16.6,16.6,0,0,1,181.19,71.71Zm-15.61,1.2a4.59,4.59,0,0,0-1.39-3.57,5.09,5.09,0,0,0-3.6-1.29,10.09,10.09,0,0,0-1.53.13q-.8.12-1.5.3l-.42,10.26a6.35,6.35,0,0,0,1,.07H159a7.2,7.2,0,0,0,2.44-.42,6.58,6.58,0,0,0,2.09-1.21A6,6,0,0,0,165,75.31,5.11,5.11,0,0,0,165.58,72.91Z"/><path class="cls-3" d="M214,85.49l-1.47,15.61L183,103.42q.21-12.27.47-24.4t.65-24.4h18.28q-.81,7.71-1.55,15.39t-1.05,15.48c1.1.05,2.19.07,3.27.07h3.27q2,0,3.87,0C211.42,85.5,212.71,85.49,214,85.49Z"/><path class="cls-3" d="M260,102.51l-17.44,2.25-2.11-8h-8l-1.76,8L212.76,103l14-46.83,19.55-1ZM239.2,86.05l-2.68-12.23-2.6,12.23Z"/><path class="cls-3" d="M301.56,57.93l-19.33,27-.92,22H264.65l.42-21.87L255,59,273,56.73l2.81,15.19,8.93-15.19Z"/></svg>