<svg id="Layer_1" data-name="Layer 1" xmlns="http://www.w3.org/2000/svg" width="1015" height="342.34" viewBox="0 0 1015 342.34"><defs><style>.cls-1{fill:#264653;}.cls-2{fill:#2a9d8f;}.cls-3{fill:#f2f2f2;}.cls-4{fill:#fff;}</style></defs><ellipse class="cls-1" cx="507.5" cy="171.17" rx="507.43" ry="171.17"/><ellipse class="cls-2" cx="507.5" cy="171.17" rx="476.26" ry="160.66"/><path class="cls-3" d="M665.1,167.53C648.59,238.66,642.23,298,650.89,300s22-55.86,38.51-127,30-128.6,21.29-130.61S681.61,96.39,665.1,167.53Z"/><path class="cls-4" d="M126.1,162.48a23.25,23.25,0,0,1-1.42,8.4,20.58,20.58,0,0,1-3.88,6.4,23.5,23.5,0,0,1-5.79,4.64,36.77,36.77,0,0,1-7.1,3.1,48,48,0,0,1-7.84,1.75,62.16,62.16,0,0,1-8,.61v22.76H69.36q0-11.19,0-22.27t.14-22.36q.11-6,0-11.92t.25-12a91.57,91.57,0,0,1,12.5-2.78,87.39,87.39,0,0,1,12.89-.93,47.76,47.76,0,0,1,7.52.61,36.71,36.71,0,0,1,7.2,1.93,32.24,32.24,0,0,1,6.4,3.3,22.24,22.24,0,0,1,5.1,4.71,22,22,0,0,1,3.39,6.22A23.24,23.24,0,0,1,126.1,162.48Zm-21.68,1.66a6.42,6.42,0,0,0-1.93-4.95,7.1,7.1,0,0,0-5-1.79,14.28,14.28,0,0,0-2.12.17c-.73.12-1.42.26-2.08.42l-.58,14.26a10,10,0,0,0,1.32.09h1.31a10,10,0,0,0,3.4-.58,8.85,8.85,0,0,0,2.9-1.69,8.32,8.32,0,0,0,2-2.58A7.37,7.37,0,0,0,104.42,164.14Z"/><path class="cls-4" d="M189.13,175a35.59,35.59,0,0,1-1,8.57,33.69,33.69,0,0,1-3,7.74,32,32,0,0,1-4.68,6.62,30.07,30.07,0,0,1-22.29,9.69,31.11,31.11,0,0,1-8.38-1.12,31.89,31.89,0,0,1-7.44-3.15,29.53,29.53,0,0,1-6.28-4.89,30.5,30.5,0,0,1-4.78-6.34,32.59,32.59,0,0,1-3.08-7.5,31.5,31.5,0,0,1-1.1-8.35,33.74,33.74,0,0,1,8.64-22.66,31.45,31.45,0,0,1,6.13-5.22,29.72,29.72,0,0,1,7.35-3.42,28.3,28.3,0,0,1,8.35-1.22,36.3,36.3,0,0,1,12.92,2.2,27.29,27.29,0,0,1,16.35,16.14A34.92,34.92,0,0,1,189.13,175Zm-21.68,1.27a13.67,13.67,0,0,0-.61-4.08,11.07,11.07,0,0,0-1.78-3.51,9,9,0,0,0-2.9-2.49,8.11,8.11,0,0,0-4-.95,9.6,9.6,0,0,0-4.1.83,9.39,9.39,0,0,0-3.11,2.27,9.85,9.85,0,0,0-2,3.37,12,12,0,0,0-.69,4.07,14.83,14.83,0,0,0,.59,4.1,12.26,12.26,0,0,0,1.76,3.72,9.39,9.39,0,0,0,2.9,2.68,7.82,7.82,0,0,0,4,1,9.12,9.12,0,0,0,4.13-.91,9.26,9.26,0,0,0,3.1-2.44,11.26,11.26,0,0,0,2-3.54A12.63,12.63,0,0,0,167.45,176.25Z"/><path class="cls-4" d="M218.92,140.7l-5.37,66.51-20.61,1.07V142.07Z"/><path class="cls-4" d="M288.69,139.43l-3.51,66.22L259.59,208l-13.67-35.45-2.15,36.13h-22l1.76-69.24L248,138.26l16.9,35.16.78-33.2Z"/><path class="cls-4" d="M344.26,139.63l-.49,20.7-14.55.59-3.71,46.29-20.6,1.07L305,162l-14.55.78.59-23Z"/><path class="cls-4" d="M397,183.48a27.61,27.61,0,0,1-2.32,11.69,23.36,23.36,0,0,1-6.35,8.33,27.42,27.42,0,0,1-9.42,5,39.52,39.52,0,0,1-11.6,1.66,23.89,23.89,0,0,1-5.25-.64q-2.85-.63-5.79-1.58t-5.64-2c-1.8-.74-3.41-1.43-4.81-2.08l2.15-20.12a34.65,34.65,0,0,0,9.21,3.79,40.06,40.06,0,0,0,9.93,1.29c.62,0,1.37,0,2.25-.07a10.71,10.71,0,0,0,2.51-.44,5.44,5.44,0,0,0,2-1.1,2.67,2.67,0,0,0,.83-2.1,2.32,2.32,0,0,0-.59-1.59,4.38,4.38,0,0,0-1.51-1.07,9.41,9.41,0,0,0-2.1-.64c-.78-.14-1.55-.25-2.29-.31s-1.45-.1-2.1-.1h-1.57a19.31,19.31,0,0,1-7.64-1.47,17.4,17.4,0,0,1-5.91-4.07,18.56,18.56,0,0,1-3.83-6.2,21.77,21.77,0,0,1-1.37-7.79,22.56,22.56,0,0,1,2.32-10.33,24.21,24.21,0,0,1,6.2-7.76,28.13,28.13,0,0,1,8.92-4.91,32.08,32.08,0,0,1,10.4-1.71c1.59,0,3.23.06,4.93.17a50.77,50.77,0,0,1,5,.61A48.7,48.7,0,0,1,388.5,139a28.9,28.9,0,0,1,4.54,1.7l-1.86,19.83a58.39,58.39,0,0,0-6.95-1.88,34.56,34.56,0,0,0-7.11-.76l-1.63,0c-.67,0-1.37.06-2.1.14a22.05,22.05,0,0,0-2.23.37,9.2,9.2,0,0,0-2,.66,3.71,3.71,0,0,0-1.41,1.1,2.31,2.31,0,0,0-.49,1.61,2.34,2.34,0,0,0,.8,1.73,5.43,5.43,0,0,0,2,1,14.1,14.1,0,0,0,2.63.51c1,.1,1.92.15,2.86.17s1.82,0,2.64,0a14.66,14.66,0,0,1,2,.07,20.16,20.16,0,0,1,7,1.66,16.48,16.48,0,0,1,5.3,3.76,16.07,16.07,0,0,1,3.32,5.59A21.5,21.5,0,0,1,397,183.48Z"/><path class="cls-4" d="M420.19,168.15a9.75,9.75,0,0,1-.83,4,11,11,0,0,1-2.22,3.25,10.4,10.4,0,0,1-3.25,2.19,10.18,10.18,0,0,1-8,0,10.25,10.25,0,0,1-5.44-5.44,9.9,9.9,0,0,1-.81-4,10.43,10.43,0,0,1,3-7.3,10.87,10.87,0,0,1,3.25-2.23,10,10,0,0,1,8,0,10.87,10.87,0,0,1,3.25,2.23,10.71,10.71,0,0,1,2.22,3.29A10,10,0,0,1,420.19,168.15Zm0,31.25a9.75,9.75,0,0,1-.83,4,11,11,0,0,1-2.22,3.25,10.4,10.4,0,0,1-3.25,2.19,10.18,10.18,0,0,1-8,0,10.25,10.25,0,0,1-5.44-5.44,9.9,9.9,0,0,1-.81-4,10.43,10.43,0,0,1,3-7.3,10.87,10.87,0,0,1,3.25-2.23,10,10,0,0,1,8,0,10.87,10.87,0,0,1,3.25,2.23,10.71,10.71,0,0,1,2.22,3.29A10,10,0,0,1,420.19,199.4Z"/><path class="cls-4" d="M807.53,119.31,803,230.41l-34.06-1.57,1.88-73.9-12.5,8.59-11.72-26.72,25.47-19.06Z"/><path class="cls-4" d="M894.32,192.28a40.14,40.14,0,0,1-3.63,17.66,35,35,0,0,1-9.88,12.42,42.34,42.34,0,0,1-14.69,7.34,65,65,0,0,1-18,2.43,61.74,61.74,0,0,1-9.06-.67,81.49,81.49,0,0,1-8.79-1.8c-2.89-.75-5.76-1.62-8.59-2.61s-5.69-2.06-8.56-3.21l3-31.09a57.92,57.92,0,0,0,6,2.89,55.78,55.78,0,0,0,6.6,2.27,61.75,61.75,0,0,0,6.87,1.48,42.86,42.86,0,0,0,6.76.55,40.47,40.47,0,0,0,4.77-.35,23.75,23.75,0,0,0,5.39-1.33,13.5,13.5,0,0,0,4.41-2.66,5.71,5.71,0,0,0,1.84-4.41,7.12,7.12,0,0,0-1.45-4.46,11.21,11.21,0,0,0-3.75-3.08,22.71,22.71,0,0,0-5.19-1.92,58.39,58.39,0,0,0-5.82-1.09,54.21,54.21,0,0,0-5.55-.47c-1.75,0-3.19-.08-4.34-.08q-3.51,0-7.14.32a38.71,38.71,0,0,0-7.08,1.25l3.13-63.13,63.28-1.72,1.72,32.66-39.22-2.19-.78,13.91a59.75,59.75,0,0,1,7-1.29,57.18,57.18,0,0,1,7-.43,37.48,37.48,0,0,1,13.24,2.3,31.91,31.91,0,0,1,10.71,6.6,31,31,0,0,1,7.19,10.36A33.86,33.86,0,0,1,894.32,192.28Z"/></svg>