<svg id="Layer_1" data-name="Layer 1" xmlns="http://www.w3.org/2000/svg" xmlns:xlink="http://www.w3.org/1999/xlink" width="1920" height="1080" viewBox="0 0 1920 1080"><defs><style>.cls-1{fill:url(#linear-gradient);}.cls-2{fill:#f2f2f2;}.cls-3{fill:#577590;}.cls-4{fill:#666;}.cls-5{fill:#ededed;}.cls-6{fill:#9b9b7a;}.cls-7{fill:#a18f7c;}.cls-8{fill:#99765e;}.cls-9{fill:#886f60;}.cls-10{fill:#997b66;}.cls-11{fill:#a3b18a;}.cls-12,.cls-19{fill:#f2935c;}.cls-12,.cls-14,.cls-28{stroke:#f2935c;}.cls-12,.cls-14{stroke-linecap:round;stroke-linejoin:round;}.cls-13,.cls-14,.cls-28{fill:#e68b57;}.cls-15{fill:#ed905a;}.cls-16{fill:#ebf3f2;}.cls-17{fill:#fffaec;}.cls-18{fill:#bf886a;}.cls-20{fill:#484848;}.cls-21{fill:#767676;}.cls-22{fill:#f25555;}.cls-23{fill:#d17f4f;}.cls-24{fill:#9d5f3b;}.cls-25{fill:#e38a56;}.cls-26{fill:#ffdcc9;}.cls-27{fill:#edcdbb;}.cls-28{stroke-miterlimit:10;}</style><linearGradient id="linear-gradient" x1="959.97" y1="19.73" x2="959.97" y2="1080.46" gradientUnits="userSpaceOnUse"><stop offset="0" stop-color="#cfdbd5"/><stop offset="0.59" stop-color="#d1dcd6"/><stop offset="0.81" stop-color="#d8e1d8"/><stop offset="0.96" stop-color="#e3eadd"/><stop offset="1" stop-color="#e8eddf"/></linearGradient></defs><rect class="cls-1" x="-0.03" y="-0.1" width="1920" height="1080"/><rect class="cls-2" x="271.51" y="75.87" width="1330.46" height="869.75" rx="91.82"/><path class="cls-3" d="M703.31,196.91l-43.5,60.75-2.06,49.52H620.26l.94-49.2-22.61-58.7,40.34-5.06,6.33,34.17,20.09-34.17Z"/><path class="cls-3" d="M787.32,248.17a57.48,57.48,0,0,1-1.66,13.88,54.29,54.29,0,0,1-4.79,12.54,51.72,51.72,0,0,1-7.59,10.75A48.56,48.56,0,0,1,737.17,301a49.87,49.87,0,0,1-13.58-1.85,51.41,51.41,0,0,1-12.06-5.1,49.15,49.15,0,0,1-17.94-18.2,53.37,53.37,0,0,1-5-12.14,50.66,50.66,0,0,1-1.78-13.52,55.23,55.23,0,0,1,6.45-25.95,53.7,53.7,0,0,1,7.55-10.76,49.28,49.28,0,0,1,9.93-8.46,47.6,47.6,0,0,1,11.9-5.54,45.3,45.3,0,0,1,13.53-2,59,59,0,0,1,20.92,3.56,44.31,44.31,0,0,1,26.5,26.15A56.74,56.74,0,0,1,787.32,248.17Zm-35.12,2.06a22.44,22.44,0,0,0-1-6.61,18.15,18.15,0,0,0-2.89-5.7,14.63,14.63,0,0,0-4.71-4,13,13,0,0,0-6.44-1.54,15.86,15.86,0,0,0-6.65,1.34,15.24,15.24,0,0,0-5,3.68,15.92,15.92,0,0,0-3.2,5.46,19.51,19.51,0,0,0-1.11,6.6,24.51,24.51,0,0,0,.95,6.65,19.71,19.71,0,0,0,2.85,6,15.15,15.15,0,0,0,4.7,4.35,12.56,12.56,0,0,0,6.53,1.66,14.83,14.83,0,0,0,6.68-1.46,15.31,15.31,0,0,0,5-4,18.27,18.27,0,0,0,3.16-5.73A20.4,20.4,0,0,0,752.2,250.23Z"/><path class="cls-3" d="M887.46,216.05c0,3.91-.18,8.2-.55,12.9s-1,9.54-1.82,14.55-1.94,10.09-3.29,15.23a106.39,106.39,0,0,1-5,14.83,87.72,87.72,0,0,1-7,13.33,52.45,52.45,0,0,1-9.21,10.84A40.52,40.52,0,0,1,849,305a36.89,36.89,0,0,1-14.24,2.65,39.61,39.61,0,0,1-15.94-3,36.13,36.13,0,0,1-11.59-8,42.33,42.33,0,0,1-7.91-11.71,73,73,0,0,1-4.82-14.16,107.7,107.7,0,0,1-2.42-15.26q-.68-7.8-.67-15,0-11.06,1.18-22.05t3.16-22l37,1.42q-2.13,12.42-3.68,25a208,208,0,0,0-1.54,25.19c0,.9,0,2.23.12,4s.22,3.74.44,5.93.51,4.43.91,6.72a36.09,36.09,0,0,0,1.62,6.29,16.29,16.29,0,0,0,2.49,4.67,4.32,4.32,0,0,0,3.44,1.82,5.29,5.29,0,0,0,4.11-2.18,20.51,20.51,0,0,0,3.21-5.81,59.92,59.92,0,0,0,2.41-8.39q1-4.74,1.74-9.89c.47-3.42.86-6.85,1.15-10.28s.52-6.62.71-9.57.3-5.56.35-7.83.08-4,.08-5.06q0-6.18-.19-12.3c-.14-4.09-.33-8.16-.6-12.22h37Q887.46,204.81,887.46,216.05Z"/><path class="cls-3" d="M1068.13,194.22l-18.54,109.64-44.93,1L995,248.06l-9.65,52.68-44.93,1.58-18.67-108L961,190.84l7.91,65.66,10.68-65.76h30.84l12.34,66.45,6.33-66.45Z"/><path class="cls-3" d="M1115.19,192.64l-8.7,107.7-33.38,1.74V194.85Z"/><path class="cls-3" d="M1228.23,190.58l-5.64,107.26-41.45,3.8L1159,244.21l-3.48,58.54h-35.6l2.85-112.17,39.55-1.9,27.37,57,1.26-53.79Z"/><path class="cls-3" d="M1273.4,186.47l-6.49,83.21h-29.27l-3-83.21Zm-5.22,107.58a15.56,15.56,0,0,1-1.35,6.48,17.22,17.22,0,0,1-3.6,5.26,16.7,16.7,0,0,1-5.26,3.56,16.51,16.51,0,0,1-12.89,0,16.78,16.78,0,0,1-8.82-8.82,16,16,0,0,1-1.31-6.48,16.87,16.87,0,0,1,4.87-11.83,17.4,17.4,0,0,1,5.26-3.6,15.71,15.71,0,0,1,6.48-1.34,15.55,15.55,0,0,1,6.41,1.34,17.09,17.09,0,0,1,8.86,8.94,15.9,15.9,0,0,1,1.35,6.49Z"/><path class="cls-4" d="M466.59,384.34l-16.11,22.5-.76,18.34H435.79l.35-18.22-8.38-21.74,14.94-1.88L445.05,396l7.44-12.66Z"/><path class="cls-4" d="M499,401.55a21.19,21.19,0,0,1-.61,5.14,19.42,19.42,0,0,1-1.78,4.65,18.85,18.85,0,0,1-2.81,4,17.83,17.83,0,0,1-3.72,3.09,18.07,18.07,0,0,1-9.65,2.73,18.78,18.78,0,0,1-5-.68,19,19,0,0,1-4.46-1.89,18.17,18.17,0,0,1-3.77-2.93,18.4,18.4,0,0,1-2.87-3.81,19,19,0,0,1-2.5-9.49,20.49,20.49,0,0,1,.61-5,20.16,20.16,0,0,1,4.57-8.61,18,18,0,0,1,8.09-5.18,16.63,16.63,0,0,1,5-.73,21.78,21.78,0,0,1,7.75,1.31,16.45,16.45,0,0,1,9.81,9.69A20.91,20.91,0,0,1,499,401.55Zm-13,.76a8.45,8.45,0,0,0-.36-2.45,6.67,6.67,0,0,0-1.07-2.11,5.55,5.55,0,0,0-1.74-1.49,4.85,4.85,0,0,0-2.39-.57,5.82,5.82,0,0,0-2.46.49,5.58,5.58,0,0,0-1.86,1.37,5.81,5.81,0,0,0-1.19,2,7.48,7.48,0,0,0-.41,2.44,8.92,8.92,0,0,0,.35,2.46,7.38,7.38,0,0,0,1.06,2.23,5.7,5.7,0,0,0,1.74,1.61,4.67,4.67,0,0,0,2.42.62,5.53,5.53,0,0,0,2.47-.54,5.8,5.8,0,0,0,1.86-1.47,6.49,6.49,0,0,0,1.17-2.12,7.52,7.52,0,0,0,.4-2.44Z"/><path class="cls-4" d="M536,382.74q-1.32,10.31-2.26,20.52t-1.79,20.55l-12,.88.53-4.51a6.37,6.37,0,0,1-1.36,1.17,8.5,8.5,0,0,1-1.66.81,9.45,9.45,0,0,1-1.82.43,10.58,10.58,0,0,1-1.78.11,9.87,9.87,0,0,1-3.75-.78,12.54,12.54,0,0,1-3.23-2,16.46,16.46,0,0,1-2.63-2.9A19.73,19.73,0,0,1,501,409.8a17,17,0,0,1-.43-3.69c0-1.76,0-3.58.11-5.47s.19-3.77.36-5.67.41-3.77.69-5.62.64-3.64,1.07-5.33l7.18.32q3.6.15,7.18.09c-.45,1.69-.9,3.4-1.34,5.11s-.83,3.43-1.18,5.15-.64,3.47-.85,5.2a42.28,42.28,0,0,0-.32,5.28v1.76a14.16,14.16,0,0,0,.31,2.25,6.93,6.93,0,0,0,.76,1.95A1.63,1.63,0,0,0,516,412a2.66,2.66,0,0,0,2-.95,8.94,8.94,0,0,0,1.55-2.56,23.22,23.22,0,0,0,1.16-3.72c.32-1.41.59-2.88.82-4.41s.4-3.08.54-4.64.24-3,.31-4.41.11-2.62.14-3.71,0-1.94,0-2.55v-1.14a7.3,7.3,0,0,0-.09-1.14c1.27,0,2.53.07,3.78.08h6.72C534,382.83,535,382.8,536,382.74Z"/><path class="cls-4" d="M577.38,384l-1,12.36a10.48,10.48,0,0,0-1.67-.32,15.43,15.43,0,0,0-1.67-.09,14.61,14.61,0,0,0-4,.53,9.94,9.94,0,0,0-3.34,1.61,7.87,7.87,0,0,0-2.32,2.74,8.37,8.37,0,0,0-.86,3.91,7.78,7.78,0,0,0,.48,2.86,5.33,5.33,0,0,0,1.38,2,6,6,0,0,0,2.17,1.21,9.3,9.3,0,0,0,2.82.41,11.87,11.87,0,0,0,2.23-.22,17.92,17.92,0,0,0,2.29-.6,22.79,22.79,0,0,0,4.19-1.93l-.49,13.79a19.49,19.49,0,0,1-2.46,1c-.88.3-1.79.57-2.71.79a26.32,26.32,0,0,1-2.79.51,23.43,23.43,0,0,1-2.65.18,18.26,18.26,0,0,1-7.57-1.55,17.83,17.83,0,0,1-5.86-4.24,19.44,19.44,0,0,1-3.8-6.22,21.44,21.44,0,0,1-1.34-7.56,28.6,28.6,0,0,1,1.36-9,20.91,20.91,0,0,1,4-7.22,18.46,18.46,0,0,1,6.57-4.8,21.89,21.89,0,0,1,9-1.75,25.57,25.57,0,0,1,4.1.33A14.41,14.41,0,0,1,577.38,384Z"/><path class="cls-4" d="M615.91,401.55a21.2,21.2,0,0,1-.62,5.14,20.38,20.38,0,0,1-1.77,4.64,18.85,18.85,0,0,1-2.81,4,18,18,0,0,1-13.38,5.82,18.78,18.78,0,0,1-5-.68,19.74,19.74,0,0,1-4.47-1.89,18.11,18.11,0,0,1-3.76-2.93,18.44,18.44,0,0,1-2.88-3.81,19.73,19.73,0,0,1-1.84-4.49,19.18,19.18,0,0,1-.66-5,20.49,20.49,0,0,1,.61-5,20,20,0,0,1,1.78-4.61,19.78,19.78,0,0,1,2.79-4,18.66,18.66,0,0,1,3.68-3.13,17.89,17.89,0,0,1,4.41-2.05,16.63,16.63,0,0,1,5-.73,21.78,21.78,0,0,1,7.75,1.31,16.81,16.81,0,0,1,6,3.77,16.56,16.56,0,0,1,3.83,5.92A20.93,20.93,0,0,1,615.91,401.55Zm-13,.76a8.13,8.13,0,0,0-.37-2.45,6.67,6.67,0,0,0-1.07-2.11,5.55,5.55,0,0,0-1.74-1.49,4.85,4.85,0,0,0-2.39-.57,5.82,5.82,0,0,0-2.46.49,5.69,5.69,0,0,0-1.86,1.37,6,6,0,0,0-1.19,2,7.48,7.48,0,0,0-.41,2.44,8.57,8.57,0,0,0,.36,2.46,7.13,7.13,0,0,0,1.05,2.23,5.7,5.7,0,0,0,1.76,1.66A4.77,4.77,0,0,0,597,409a5.57,5.57,0,0,0,2.48-.54,5.8,5.8,0,0,0,1.86-1.47,6.87,6.87,0,0,0,1.17-2.12,7.84,7.84,0,0,0,.38-2.49Z"/><path class="cls-4" d="M643.65,408.46l-1.23,13-24.67,1.93.94-41.84h15.23l-2.16,26.9Z"/><path class="cls-4" d="M670.72,408.46l-1.23,13-24.67,1.93.94-41.84H661l-2.16,26.9Z"/><path class="cls-4" d="M704.79,400.34a36.32,36.32,0,0,1-.35,5.1c-3.34.22-6.66.56-10,1l-9.9,1.42a7.22,7.22,0,0,0,2.39,3.37,6.16,6.16,0,0,0,3.88,1.26,8.24,8.24,0,0,0,2.56-.44,20.74,20.74,0,0,0,2.77-1.1c.92-.44,1.8-.91,2.64-1.42s1.56-1,2.16-1.37l-1.4,13.3a13.83,13.83,0,0,1-2.48,1.49,17.94,17.94,0,0,1-2.77,1,20.32,20.32,0,0,1-2.9.55,22.92,22.92,0,0,1-2.87.18,17,17,0,0,1-5.3-.79,16.22,16.22,0,0,1-4.35-2.21,16.46,16.46,0,0,1-3.41-3.36A20.15,20.15,0,0,1,673,414.1a24.88,24.88,0,0,1-1.46-4.83,27.1,27.1,0,0,1-.5-5.16,30.19,30.19,0,0,1,.5-5.45,26.41,26.41,0,0,1,1.51-5.24,21.58,21.58,0,0,1,2.55-4.67,18.09,18.09,0,0,1,3.59-3.77,16.21,16.21,0,0,1,4.64-2.52,17.44,17.44,0,0,1,5.73-.91,14.78,14.78,0,0,1,4.76.72,13.5,13.5,0,0,1,6.77,5,17.35,17.35,0,0,1,2,3.85,24.07,24.07,0,0,1,1.2,4.42A28.55,28.55,0,0,1,704.79,400.34Zm-11.72-1.52a7.85,7.85,0,0,0-.17-1.68,5.47,5.47,0,0,0-.57-1.57,3.61,3.61,0,0,0-1-1.16,2.71,2.71,0,0,0-1.61-.45,3.42,3.42,0,0,0-2.07.63,6.09,6.09,0,0,0-1.54,1.58,9,9,0,0,0-1.05,2.07,16.14,16.14,0,0,0-.62,2.05l8.67-.82Z"/><path class="cls-4" d="M734.65,384l-1.06,12.37a9.47,9.47,0,0,0-1.67-.32,15.43,15.43,0,0,0-1.67-.09,14.61,14.61,0,0,0-4,.53,10,10,0,0,0-3.34,1.61,7.84,7.84,0,0,0-2.31,2.74,8.38,8.38,0,0,0-.87,3.91,7.76,7.76,0,0,0,.49,2.86,5.5,5.5,0,0,0,1.37,2,6,6,0,0,0,2.17,1.21,9.37,9.37,0,0,0,2.83.41,11.87,11.87,0,0,0,2.23-.22,17.78,17.78,0,0,0,2.28-.6,22.49,22.49,0,0,0,4.2-1.93l-.47,13.77a19.49,19.49,0,0,1-2.46,1c-.88.3-1.78.57-2.71.79a25.68,25.68,0,0,1-2.78.51,23.43,23.43,0,0,1-2.65.18,18.31,18.31,0,0,1-7.58-1.55,18.08,18.08,0,0,1-5.86-4.24,19.59,19.59,0,0,1-3.79-6.22,21.23,21.23,0,0,1-1.35-7.56,28.61,28.61,0,0,1,1.37-9,20.51,20.51,0,0,1,4-7.22,18.43,18.43,0,0,1,6.56-4.8,21.89,21.89,0,0,1,9-1.75,25.57,25.57,0,0,1,4.1.33A14.19,14.19,0,0,1,734.65,384Z"/><path class="cls-4" d="M768.48,382.68l-.29,12.42-8.73.35-1,27.19-12.37.64L745,396.1l-8.73.46.34-13.82Z"/><path class="cls-4" d="M802.26,400.34a36.32,36.32,0,0,1-.35,5.1c-3.34.22-6.66.56-10,1l-9.9,1.42a7.22,7.22,0,0,0,2.39,3.37,6.16,6.16,0,0,0,3.88,1.26,8.24,8.24,0,0,0,2.56-.44,20.74,20.74,0,0,0,2.77-1.1c.92-.44,1.8-.91,2.64-1.42s1.56-1,2.17-1.37L797,421.46a13.83,13.83,0,0,1-2.48,1.49,17.94,17.94,0,0,1-2.77,1,20.32,20.32,0,0,1-2.9.55,22.92,22.92,0,0,1-2.87.18,17,17,0,0,1-5.3-.79,16.22,16.22,0,0,1-4.35-2.21,16.46,16.46,0,0,1-3.41-3.36,19.68,19.68,0,0,1-2.43-4.22,24,24,0,0,1-1.47-4.83,27.1,27.1,0,0,1-.5-5.16,30.19,30.19,0,0,1,.5-5.45,28,28,0,0,1,1.51-5.24,21.58,21.58,0,0,1,2.55-4.67,18.09,18.09,0,0,1,3.59-3.77,16.21,16.21,0,0,1,4.64-2.52,17.44,17.44,0,0,1,5.73-.91,14.78,14.78,0,0,1,4.76.72,13.5,13.5,0,0,1,6.77,5,17.35,17.35,0,0,1,2,3.85,24.07,24.07,0,0,1,1.2,4.42A28.55,28.55,0,0,1,802.26,400.34Zm-11.67-1.55a7.86,7.86,0,0,0-.18-1.68,5.47,5.47,0,0,0-.57-1.57,3.61,3.61,0,0,0-1-1.16,2.71,2.71,0,0,0-1.61-.45,3.56,3.56,0,0,0-2.07.63,6.37,6.37,0,0,0-1.57,1.58,9,9,0,0,0-1.05,2.07,16.14,16.14,0,0,0-.62,2.05l8.68-.82Z"/><path class="cls-4" d="M837.36,400.72a23.83,23.83,0,0,1-1,7.36,19.66,19.66,0,0,1-3,5.76,18.74,18.74,0,0,1-4.49,4.26,26,26,0,0,1-5.72,2.88,34.13,34.13,0,0,1-6.6,1.66,49.53,49.53,0,0,1-7.2.53c-.91,0-1.81,0-2.69-.08s-1.78-.12-2.7-.22l.82-38.14a37,37,0,0,1,6.64-1.45,54.86,54.86,0,0,1,6.78-.43,24,24,0,0,1,7.71,1.18,16.91,16.91,0,0,1,6.06,3.44,15.57,15.57,0,0,1,4,5.59A19.31,19.31,0,0,1,837.36,400.72ZM817.44,412a9.3,9.3,0,0,0,5.71-3.06,8.43,8.43,0,0,0,1.63-2.69,8.84,8.84,0,0,0,.57-3.21,13.1,13.1,0,0,0-.35-3.12,7.1,7.1,0,0,0-1.14-2.52,5.62,5.62,0,0,0-2.08-1.7,7.73,7.73,0,0,0-3.17-.69Z"/><path class="cls-4" d="M883.59,400.34a37.89,37.89,0,0,1-.35,5.1c-3.34.22-6.66.56-10,1l-9.9,1.42a7.27,7.27,0,0,0,2.38,3.37,6.21,6.21,0,0,0,3.89,1.26,8.24,8.24,0,0,0,2.56-.44,20.74,20.74,0,0,0,2.77-1.1c.92-.44,1.8-.91,2.64-1.42s1.56-1,2.16-1.37l-1.4,13.3a13.83,13.83,0,0,1-2.48,1.49,17.94,17.94,0,0,1-2.77,1,20.32,20.32,0,0,1-2.9.55,22.92,22.92,0,0,1-2.87.18,17,17,0,0,1-5.3-.79,16.22,16.22,0,0,1-4.35-2.21,16.46,16.46,0,0,1-3.41-3.36,20.15,20.15,0,0,1-2.44-4.22,24.88,24.88,0,0,1-1.46-4.83,27.1,27.1,0,0,1-.5-5.16,30.19,30.19,0,0,1,.5-5.45,26.41,26.41,0,0,1,1.51-5.24,21.58,21.58,0,0,1,2.55-4.67A18.09,18.09,0,0,1,858,385a16.21,16.21,0,0,1,4.64-2.52,17.44,17.44,0,0,1,5.73-.91,14.78,14.78,0,0,1,4.76.72,13.53,13.53,0,0,1,6.76,5,17,17,0,0,1,2.06,3.85,24.07,24.07,0,0,1,1.2,4.42A28.55,28.55,0,0,1,883.59,400.34Zm-11.72-1.52a8.55,8.55,0,0,0-.17-1.68,5.47,5.47,0,0,0-.57-1.57,3.61,3.61,0,0,0-1-1.16,2.75,2.75,0,0,0-1.62-.45,3.53,3.53,0,0,0-2.06.63,6.09,6.09,0,0,0-1.54,1.58,9.2,9.2,0,0,0-1,2.07,16.14,16.14,0,0,0-.62,2.05l8.67-.82Z"/><path class="cls-4" d="M921.85,409.16c0,2.2,0,4.39-.07,6.55s-.12,4.33-.22,6.52l-16.87-.29c.58-3.46,1.09-6.92,1.52-10.36a85,85,0,0,0,.64-10.45V399.9c0-.56-.05-1.2-.11-1.91s-.14-1.45-.25-2.2a16.21,16.21,0,0,0-.44-2.07,5.88,5.88,0,0,0-.68-1.54,1.13,1.13,0,0,0-1-.6,2.47,2.47,0,0,0-1.68.59,4.57,4.57,0,0,0-1.14,1.51,8.68,8.68,0,0,0-.72,2.06,21.92,21.92,0,0,0-.4,2.29c-.09.76-.14,1.48-.17,2.15s0,1.23,0,1.66c-.1,3.46-.17,6.89-.23,10.3s-.14,6.85-.24,10.32l-14.94.65q.59-10.35,1.13-20.57t.86-20.57l13.83-.7-.11,4.69a18.55,18.55,0,0,1,1.77-1.88,11.24,11.24,0,0,1,2-1.5,10.9,10.9,0,0,1,2.3-1,9,9,0,0,1,2.57-.37,10.84,10.84,0,0,1,4.36.82,10,10,0,0,1,3.23,2.23,12.6,12.6,0,0,1,2.25,3.33,22.56,22.56,0,0,1,1.47,4.08,36.51,36.51,0,0,1,.85,4.53c.19,1.57.32,3.12.39,4.64s.1,3,.1,4.43Z"/><path class="cls-4" d="M960.82,401.55a21.2,21.2,0,0,1-.62,5.14,20.38,20.38,0,0,1-1.77,4.64,18.85,18.85,0,0,1-2.81,4,18,18,0,0,1-13.38,5.82,18.78,18.78,0,0,1-5-.68,19.74,19.74,0,0,1-4.47-1.89,18.17,18.17,0,0,1-6.63-6.74,19.76,19.76,0,0,1-1.85-4.49,19.18,19.18,0,0,1-.66-5,20.5,20.5,0,0,1,.62-5,20,20,0,0,1,1.77-4.61,19.17,19.17,0,0,1,2.8-4,18.6,18.6,0,0,1,3.67-3.13,17.89,17.89,0,0,1,4.41-2.05,17,17,0,0,1,5-.73,21.78,21.78,0,0,1,7.75,1.31,16.39,16.39,0,0,1,9.82,9.69A20.94,20.94,0,0,1,960.82,401.55Zm-13,.76a8.13,8.13,0,0,0-.37-2.45,6.86,6.86,0,0,0-1.06-2.11,5.45,5.45,0,0,0-1.75-1.49,4.85,4.85,0,0,0-2.39-.57,5.82,5.82,0,0,0-2.46.49,5.58,5.58,0,0,0-1.86,1.37,6,6,0,0,0-1.18,2,7,7,0,0,0-.41,2.44,8.92,8.92,0,0,0,.35,2.46,7.11,7.11,0,0,0,1,2.23,5.5,5.5,0,0,0,1.75,1.61,4.64,4.64,0,0,0,2.41.62,5.57,5.57,0,0,0,2.48-.54,5.8,5.8,0,0,0,1.86-1.47,6.49,6.49,0,0,0,1.17-2.12,7.85,7.85,0,0,0,.45-2.44Z"/><path class="cls-4" d="M997.79,382.74q-1.32,10.31-2.25,20.52t-1.79,20.55l-12,.88.52-4.51a6.1,6.1,0,0,1-1.36,1.17,8.42,8.42,0,0,1-1.65.81,9.45,9.45,0,0,1-1.82.43,10.69,10.69,0,0,1-1.79.11,9.87,9.87,0,0,1-3.75-.78,12.76,12.76,0,0,1-3.22-2A15.81,15.81,0,0,1,966,417a20.09,20.09,0,0,1-2-3.49,20.37,20.37,0,0,1-1.23-3.73,17,17,0,0,1-.43-3.69c0-1.76,0-3.58.1-5.47s.19-3.77.37-5.67.4-3.77.69-5.62.64-3.64,1.07-5.33l7.17.32c2.41.1,4.81.13,7.18.09-.45,1.69-.89,3.4-1.33,5.11s-.84,3.43-1.19,5.15-.63,3.47-.85,5.2a44.28,44.28,0,0,0-.32,5.28c0,.41,0,1,.06,1.76a13.1,13.1,0,0,0,.31,2.25,6.28,6.28,0,0,0,.76,1.95,1.59,1.59,0,0,0,1.45.83,2.64,2.64,0,0,0,2-.95,8.4,8.4,0,0,0,1.55-2.56,23.22,23.22,0,0,0,1.16-3.72c.32-1.41.6-2.88.82-4.41s.41-3.08.54-4.64.24-3,.31-4.41.12-2.62.15-3.71,0-1.94,0-2.55v-1.14a7.3,7.3,0,0,0-.09-1.14c1.27,0,2.53.07,3.78.08h6.78C995.8,382.83,996.8,382.8,997.79,382.74Z"/><path class="cls-4" d="M1034.53,417.42a13.71,13.71,0,0,1-3.4,3,23,23,0,0,1-4.33,2.14,27.73,27.73,0,0,1-4.75,1.27,26.68,26.68,0,0,1-4.63.43,20.74,20.74,0,0,1-7.82-1.44,18.11,18.11,0,0,1-10.23-10.1,20.31,20.31,0,0,1-1.46-7.74,26,26,0,0,1,.73-6.21,25.27,25.27,0,0,1,2.1-5.65,23,23,0,0,1,3.32-4.84,21.44,21.44,0,0,1,4.45-3.78,21.14,21.14,0,0,1,5.47-2.44,22.1,22.1,0,0,1,6.31-.87,23.17,23.17,0,0,1,2.7.11,24.64,24.64,0,0,1,2.85.35,18.69,18.69,0,0,1,2.77.69,12.25,12.25,0,0,1,2.46,1.08l-.82,11.19a14.53,14.53,0,0,0-3.38-.83,25.92,25.92,0,0,0-3.41-.22,14.78,14.78,0,0,0-4.38.63,10.24,10.24,0,0,0-3.55,1.86,8.75,8.75,0,0,0-2.39,3.07,9.84,9.84,0,0,0-.88,4.28,10.87,10.87,0,0,0,.41,2.94,7.72,7.72,0,0,0,1.25,2.52,6.6,6.6,0,0,0,2.08,1.78,6,6,0,0,0,2.88.67,9.86,9.86,0,0,0,2.3-.29,5,5,0,0,0,2-1l.12-2.28-7-.12.35-8.79c2.91-.1,5.82-.19,8.73-.25s5.84-.16,8.79-.28Z"/><path class="cls-4" d="M1071.53,422.81l-14.65.71-.11-12.37H1050l-.41,12.84h-13.13l1.12-41.19,13.94.64-.88,21h6.51l0-22,13.36.36Z"/><path class="cls-4" d="M1113.75,382.34c-.12,1.83-.23,3.65-.32,5.45s-.23,3.61-.38,5.44l-12.43.65v3.69h10.78l-.58,9.08-10.26.3.06,16.17-14.82.29.94-41.07Z"/><path class="cls-4" d="M1151,401.55a21.2,21.2,0,0,1-.62,5.14,20.39,20.39,0,0,1-1.75,4.65,18.85,18.85,0,0,1-2.81,4,18,18,0,0,1-13.38,5.82,18.78,18.78,0,0,1-5-.68,19.12,19.12,0,0,1-4.47-1.89,18.19,18.19,0,0,1-6.64-6.74,19.73,19.73,0,0,1-1.84-4.49,19.18,19.18,0,0,1-.66-5,20.28,20.28,0,0,1,5.18-13.6,18.66,18.66,0,0,1,3.68-3.13,17.89,17.89,0,0,1,4.41-2.05,16.63,16.63,0,0,1,5-.73,21.78,21.78,0,0,1,7.75,1.31,16.35,16.35,0,0,1,9.81,9.69A20.86,20.86,0,0,1,1151,401.55Zm-13,.76a8.13,8.13,0,0,0-.37-2.45,6.67,6.67,0,0,0-1.07-2.11,5.55,5.55,0,0,0-1.74-1.49,4.85,4.85,0,0,0-2.39-.57,5.82,5.82,0,0,0-2.46.49,5.69,5.69,0,0,0-1.86,1.37,6,6,0,0,0-1.19,2,7.48,7.48,0,0,0-.41,2.44,8.92,8.92,0,0,0,.35,2.46,7.38,7.38,0,0,0,1.06,2.23,5.64,5.64,0,0,0,1.71,1.66,4.77,4.77,0,0,0,2.42.62,5.57,5.57,0,0,0,2.48-.54,5.8,5.8,0,0,0,1.86-1.47,6.87,6.87,0,0,0,1.17-2.12,7.54,7.54,0,0,0,.43-2.49Z"/><path class="cls-4" d="M1189.22,401.55a21.2,21.2,0,0,1-.62,5.14,20.38,20.38,0,0,1-1.77,4.64,18.85,18.85,0,0,1-2.81,4,18,18,0,0,1-13.38,5.82,18.78,18.78,0,0,1-5-.68,19.74,19.74,0,0,1-4.47-1.89,18.11,18.11,0,0,1-3.76-2.93,18.44,18.44,0,0,1-2.88-3.81,19.73,19.73,0,0,1-1.84-4.49,19.18,19.18,0,0,1-.66-5,20.56,20.56,0,0,1,2.39-9.61,19.17,19.17,0,0,1,2.8-4,17.93,17.93,0,0,1,8.08-5.18,16.63,16.63,0,0,1,5-.73,21.78,21.78,0,0,1,7.75,1.31,16.81,16.81,0,0,1,6,3.77,16.56,16.56,0,0,1,3.83,5.92A20.93,20.93,0,0,1,1189.22,401.55Zm-13,.76a8.13,8.13,0,0,0-.37-2.45,6.67,6.67,0,0,0-1.07-2.11,5.55,5.55,0,0,0-1.74-1.49,4.85,4.85,0,0,0-2.39-.57,5.82,5.82,0,0,0-2.46.49,5.69,5.69,0,0,0-1.86,1.37,6,6,0,0,0-1.19,2,7.48,7.48,0,0,0-.41,2.44,8.57,8.57,0,0,0,.36,2.46,7.11,7.11,0,0,0,1,2.23,5.7,5.7,0,0,0,1.74,1.61,4.77,4.77,0,0,0,2.42.62,5.57,5.57,0,0,0,2.48-.54,5.8,5.8,0,0,0,1.86-1.47,6.67,6.67,0,0,0,1.17-2.12,7.85,7.85,0,0,0,.45-2.44Z"/><path class="cls-4" d="M1224.46,400.72a23.83,23.83,0,0,1-1,7.36,19.66,19.66,0,0,1-3,5.76,18.74,18.74,0,0,1-4.49,4.26,26,26,0,0,1-5.72,2.88,34.13,34.13,0,0,1-6.6,1.66,49.53,49.53,0,0,1-7.2.53c-.91,0-1.81,0-2.69-.08s-1.78-.12-2.7-.22l.82-38.14a37,37,0,0,1,6.64-1.45,54.86,54.86,0,0,1,6.78-.43A24,24,0,0,1,1213,384a16.91,16.91,0,0,1,6.06,3.44,15.57,15.57,0,0,1,4,5.59A19.31,19.31,0,0,1,1224.46,400.72ZM1204.59,412a9.3,9.3,0,0,0,5.71-3.06,8.43,8.43,0,0,0,1.63-2.69,9.06,9.06,0,0,0,.57-3.21,13.1,13.1,0,0,0-.35-3.12,7.1,7.1,0,0,0-1.14-2.52,5.62,5.62,0,0,0-2.08-1.7,7.73,7.73,0,0,0-3.17-.69Z"/><path class="cls-4" d="M1265.71,382.34c-.12,1.83-.22,3.65-.32,5.45s-.23,3.61-.38,5.44l-12.42.65v3.69h10.78l-.59,9.08-10.25.3.06,16.17-14.83.29.94-41.07Z"/><path class="cls-4" d="M1302.92,401.55a21.2,21.2,0,0,1-.62,5.14,20.38,20.38,0,0,1-1.77,4.64,19.22,19.22,0,0,1-2.81,4,18,18,0,0,1-13.38,5.82,18.78,18.78,0,0,1-5-.68,19.74,19.74,0,0,1-4.47-1.89,18.17,18.17,0,0,1-6.63-6.74,19.12,19.12,0,0,1-2.51-9.49,20.5,20.5,0,0,1,.62-5,20,20,0,0,1,1.77-4.61,19.17,19.17,0,0,1,2.8-4,18.6,18.6,0,0,1,3.67-3.13,17.89,17.89,0,0,1,4.41-2.05,16.63,16.63,0,0,1,5-.73,21.78,21.78,0,0,1,7.75,1.31,16.39,16.39,0,0,1,9.82,9.69A20.94,20.94,0,0,1,1302.92,401.55Zm-13,.76a8.13,8.13,0,0,0-.37-2.45,6.67,6.67,0,0,0-1.07-2.11,5.42,5.42,0,0,0-1.74-1.49,4.85,4.85,0,0,0-2.39-.57,5.82,5.82,0,0,0-2.46.49,5.69,5.69,0,0,0-1.86,1.37,6,6,0,0,0-1.18,2,7,7,0,0,0-.41,2.44,8.92,8.92,0,0,0,.35,2.46,7.11,7.11,0,0,0,1,2.23,5.5,5.5,0,0,0,1.8,1.66,4.64,4.64,0,0,0,2.41.62,5.57,5.57,0,0,0,2.48-.54,5.8,5.8,0,0,0,1.86-1.47,6.49,6.49,0,0,0,1.17-2.12,7.82,7.82,0,0,0,.4-2.49Z"/><path class="cls-4" d="M1339.3,395.74a20.69,20.69,0,0,1-.39,4.15,12,12,0,0,1-1.25,3.41,11.75,11.75,0,0,1-2.19,2.87,19.43,19.43,0,0,1-3.26,2.52l7,12.43L1326,423.69l-4.51-12.48-3.63.12-.53,12.19h-12.6q.15-6.69.28-13.3t.31-13.3q.06-3.37.12-6.68c0-2.21.11-4.44.23-6.68a35.64,35.64,0,0,1,4-1.26,38.7,38.7,0,0,1,4-.78c1.34-.18,2.7-.31,4.08-.38s2.78-.1,4.23-.1a22.42,22.42,0,0,1,6.46.92,16.58,16.58,0,0,1,5.52,2.77,13.68,13.68,0,0,1,3.85,4.6A13.44,13.44,0,0,1,1339.3,395.74Zm-13.12.94a6.83,6.83,0,0,0-.34-2.25,4.69,4.69,0,0,0-1-1.78,4.45,4.45,0,0,0-1.64-1.17,5.66,5.66,0,0,0-2.3-.42,8.88,8.88,0,0,0-1.15.07,8.27,8.27,0,0,0-1.08.22l-.47,10.9h.7a11.1,11.1,0,0,0,2.57-.32,7.7,7.7,0,0,0,2.34-1,5.61,5.61,0,0,0,1.7-1.73A4.67,4.67,0,0,0,1326.18,396.68Z"/><path class="cls-4" d="M1381,399.85v3.42a32.82,32.82,0,0,1-.17,3.43,25.45,25.45,0,0,1-1.58,6.93,18.84,18.84,0,0,1-3.42,5.73,15.53,15.53,0,0,1-5.23,3.89,16.51,16.51,0,0,1-7.06,1.44,21.56,21.56,0,0,1-6.57-1.06,20.3,20.3,0,0,1-3.17-1.3,13.81,13.81,0,0,1-2.68-1.8L1353,408.4a15.17,15.17,0,0,0,3.84,2.71,10.38,10.38,0,0,0,4.59,1,7.27,7.27,0,0,0,2.73-.47,5.11,5.11,0,0,0,1.85-1.29,6.17,6.17,0,0,0,1.15-1.92,11.22,11.22,0,0,0,.62-2.34,24.58,24.58,0,0,0,.23-2.56v-2.61a92.51,92.51,0,0,0-.47-9.27c-.32-3.08-.59-6.17-.82-9.25l13.41-.88A176.07,176.07,0,0,1,1381,399.85Z"/><path class="cls-4" d="M1411,399.85v3.42a32.84,32.84,0,0,1-.18,3.43,25.45,25.45,0,0,1-1.58,6.93,18.84,18.84,0,0,1-3.42,5.73,15.43,15.43,0,0,1-5.23,3.89,16.51,16.51,0,0,1-7.06,1.44,21.56,21.56,0,0,1-6.57-1.06,20.3,20.3,0,0,1-3.17-1.3,13.81,13.81,0,0,1-2.68-1.8l1.82-12.13a15.17,15.17,0,0,0,3.84,2.71,10.45,10.45,0,0,0,4.6,1,7.22,7.22,0,0,0,2.72-.47,5.11,5.11,0,0,0,1.85-1.29,6.17,6.17,0,0,0,1.15-1.92,11.22,11.22,0,0,0,.62-2.34,20,20,0,0,0,.23-2.56v-2.61a92.51,92.51,0,0,0-.47-9.27c-.31-3.08-.59-6.16-.82-9.25l13.42-.88Q1411,390.7,1411,399.85Z"/><path class="cls-4" d="M1427.93,380.45l-2.4,30.82h-10.84l-1.1-30.82ZM1426,420.34a5.86,5.86,0,0,1-.49,2.4,6.85,6.85,0,0,1-1.34,1.95,6.09,6.09,0,0,1-2,1.31,6,6,0,0,1-4.77,0,6.17,6.17,0,0,1-3.27-3.26,6,6,0,0,1-.48-2.4,6.15,6.15,0,0,1,1.8-4.38,6.4,6.4,0,0,1,2-1.34,5.94,5.94,0,0,1,4.77,0,6.21,6.21,0,0,1,3.34,3.34A5.9,5.9,0,0,1,1426,420.34Z"/><path class="cls-5" d="M240.22,690.84a46.24,46.24,0,0,0-37.16-61.16,62,62,0,0,0-61.76-56.36c-1.86,0-3.69.09-5.5.25A123.07,123.07,0,0,0-92,615.17a62.21,62.21,0,0,0-14.6-1.74,62,62,0,0,0-62,62,62.55,62.55,0,0,0,.61,8.61,45.35,45.35,0,0,0-32,43.2h0a45.31,45.31,0,0,0,45.18,45.18H213.62a45.31,45.31,0,0,0,45.17-45.18h0A45.17,45.17,0,0,0,240.22,690.84Z"/><path class="cls-2" d="M300.88,567.82a43,43,0,0,0-55.22-49.46,56.76,56.76,0,0,0-102.88-1,42.94,42.94,0,0,0-52,47.65,34.29,34.29,0,0,0-15.39,28.53h0a34.33,34.33,0,0,0,34.23,34.23h168.8a34.33,34.33,0,0,0,34.23-34.23h0A34.16,34.16,0,0,0,300.88,567.82Z"/><path class="cls-5" d="M279.85,265.53a46.24,46.24,0,0,0-37.16-61.16A62,62,0,0,0,180.92,148c-1.85,0-3.68.1-5.49.26a123.07,123.07,0,0,0-227.84,41.6A62.06,62.06,0,0,0-67,188.13a62,62,0,0,0-62,62,62.66,62.66,0,0,0,.6,8.61,45.36,45.36,0,0,0-32,43.2h0a45.3,45.3,0,0,0,45.17,45.17H253.24A45.3,45.3,0,0,0,298.42,302h0A45.2,45.2,0,0,0,279.85,265.53Z"/><path class="cls-5" d="M1877.08,284.84a38.94,38.94,0,0,0-31.37-51.53,52.33,52.33,0,0,0-52.13-47.49c-1.56,0-3.11.09-4.64.22a103.93,103.93,0,0,0-192.3,35.05,52.26,52.26,0,0,0-64.16,58,38.21,38.21,0,0,0-27,36.4h0a38.21,38.21,0,0,0,38.13,38.06h311a38.21,38.21,0,0,0,38.13-38.06h0A38,38,0,0,0,1877.08,284.84Z"/><path class="cls-2" d="M19.47,226.11h0a44.74,44.74,0,0,0,2.66-15.23,44.74,44.74,0,0,0-44.74-44.75,44.57,44.57,0,0,0-19.77,4.6h0a59.23,59.23,0,0,0-58.82-52.23,59,59,0,0,0-38.49,14.21,46.16,46.16,0,0,0-37.64-19.39,46.21,46.21,0,0,0-40.25,23.46,24.51,24.51,0,0,0-9.74-2A24.81,24.81,0,0,0-251,152.18a62.36,62.36,0,0,0-28.54-6.87,62.59,62.59,0,0,0-62.59,62.59,62.56,62.56,0,0,0,2.55,17.74,37.79,37.79,0,0,0-7.42,5.77A37.45,37.45,0,0,0-358,258a37.73,37.73,0,0,0,37.61,37.62h320a37.49,37.49,0,0,0,26.57-11,37.49,37.49,0,0,0,11-26.57A37.69,37.69,0,0,0,19.47,226.11Z"/><path class="cls-2" d="M1695.47,375.66a43,43,0,0,1,55.22-49.45,56.76,56.76,0,0,1,102.88-1,42.94,42.94,0,0,1,52,47.65A34.26,34.26,0,0,1,1921,401.4h0a34.33,34.33,0,0,1-34.23,34.23H1718a34.33,34.33,0,0,1-34.23-34.23h0A34.19,34.19,0,0,1,1695.47,375.66Z"/><path class="cls-2" d="M-10.4,317.24h0a44.75,44.75,0,0,1,61.85-55.37h0a59.23,59.23,0,0,1,97.31-38,46.24,46.24,0,0,1,77.89,4.07,24.51,24.51,0,0,1,9.74-2,24.81,24.81,0,0,1,23.67,17.4,62.63,62.63,0,0,1,88.58,73.46,37.59,37.59,0,0,1-19.14,70H9.53A37.49,37.49,0,0,1-17,375.67a37.49,37.49,0,0,1-11-26.57A37.69,37.69,0,0,1-10.4,317.24Z"/><path class="cls-6" d="M1899.66,837.65l41.81,26.44a2.91,2.91,0,0,0,4-.9l26.44-41.82"/><polygon class="cls-7" points="1743.13 1002.94 1735.78 1019.59 1752.54 1057.58 1759.88 1040.93 1743.13 1002.94"/><polygon class="cls-7" points="1786.47 963.6 1783.51 963.6 1783.51 1094.5 1813.86 1025.7 1786.47 963.6"/><polygon class="cls-7" points="1783.51 963.6 1760.48 963.6 1743.13 1002.94 1759.88 1040.93 1783.51 1094.5 1783.51 963.6"/><path class="cls-7" d="M1855.3,978.94l-17-15.34h-10.9v92.72l35.84-81.26-3.28,3.64A3.27,3.27,0,0,1,1855.3,978.94Z"/><polygon class="cls-7" points="1827.36 963.6 1786.47 963.6 1813.86 1025.7 1827.36 1056.32 1827.36 963.6"/><polygon class="cls-7" points="1760.48 963.6 1727.42 963.6 1727.42 1038.55 1735.78 1019.59 1743.13 1002.94 1760.48 963.6"/><polygon class="cls-7" points="1727.42 963.6 1694.36 963.6 1727.42 1038.55 1727.42 963.6"/><path class="cls-7" d="M1887.43,936h-15.34l-4.23-4.28a2.16,2.16,0,0,0-3,0l-4.36,4.3H1835.6l-1-1a2.16,2.16,0,0,0-3.06,0l-1.09,1.07H1713.28l-1.15-1.15a2,2,0,0,0-2.85,0l-1.19,1.17h-20.81l-6.76-6.84a2.88,2.88,0,0,0-4.08,0l-7,6.87h-1.37a13.83,13.83,0,0,0-13.79,13.8h0a13.63,13.63,0,0,0,1.49,6.2h0l.16.25a13.15,13.15,0,0,0,1,1.63l9.89,15.65a1.22,1.22,0,0,0,1.68.37l16.29-10.3h153.44l17,15.34a3.27,3.27,0,0,0,4.62-.24l3.28-3.64,10.31-11.46h2.61l4.47,4.6a4.56,4.56,0,0,0,6.45.1l6.19-6a13.85,13.85,0,0,0,8-12.49h0A13.84,13.84,0,0,0,1887.43,936Zm-46.62,12.55,6.74,6.83L1834,955.3Zm41.69-10.33,12.76,12.92-25.9,0ZM1801,936.37l9.56,9.68-19.24-.12ZM1700,951.5l5.49-5.42,5.41,5.49Zm24.33-11.81,9.92,10-20-.14Zm38.31,18.87,6.83-6.74,6.73,6.83Z"/><polygon class="cls-7" points="1769.45 951.82 1762.62 958.56 1776.18 958.65 1769.45 951.82"/><polygon class="cls-7" points="1801.01 936.37 1791.33 945.93 1810.57 946.05 1801.01 936.37"/><polygon class="cls-7" points="1847.55 955.39 1840.81 948.56 1833.98 955.3 1847.55 955.39"/><polygon class="cls-7" points="1705.46 946.08 1699.98 951.5 1710.88 951.57 1705.46 946.08"/><polygon class="cls-7" points="1734.23 949.74 1724.31 939.69 1714.26 949.6 1734.23 949.74"/><polygon class="cls-7" points="1869.36 951.19 1895.26 951.15 1882.5 938.23 1869.36 951.19"/><polygon class="cls-7" points="1815.03 1044.63 1810.38 1055.56 1820.99 1080.52 1825.63 1069.58 1815.03 1044.63"/><polygon class="cls-7" points="1842.46 1018.79 1840.59 1018.79 1840.59 1104.76 1859.79 1059.58 1842.46 1018.79"/><polygon class="cls-7" points="1840.59 1018.79 1826.01 1018.79 1815.03 1044.63 1825.63 1069.58 1840.59 1104.76 1840.59 1018.79"/><path class="cls-7" d="M1886,1028.86l-10.78-10.07h-6.9v60.89l22.68-53.37-2.08,2.39A2,2,0,0,1,1886,1028.86Z"/><polygon class="cls-7" points="1868.34 1018.79 1842.46 1018.79 1859.79 1059.58 1868.34 1079.68 1868.34 1018.79"/><polygon class="cls-7" points="1826.01 1018.79 1805.09 1018.79 1805.09 1068.02 1810.38 1055.56 1815.03 1044.63 1826.01 1018.79"/><polygon class="cls-7" points="1805.09 1018.79 1784.17 1018.79 1805.09 1068.02 1805.09 1018.79"/><path class="cls-7" d="M1906.35,1000.67h-9.7l-2.68-2.81a1.32,1.32,0,0,0-1.92,0l-2.76,2.82h-15.74l-.66-.69a1.33,1.33,0,0,0-1.93,0l-.69.71h-74.13l-.73-.76a1.23,1.23,0,0,0-1.8,0l-.76.77h-13.17l-4.27-4.5a1.78,1.78,0,0,0-2.58,0l-4.41,4.51h-.87a8.93,8.93,0,0,0-8.73,9.06h0a9.23,9.23,0,0,0,1,4.07h0l.1.16a9.58,9.58,0,0,0,.66,1.07l6.26,10.28a.76.76,0,0,0,1.06.25l10.31-6.77h97.11l10.78,10.07a2,2,0,0,0,2.92-.16l2.08-2.39,6.53-7.52h1.65l2.82,3a2.81,2.81,0,0,0,4.09.06l3.91-3.94a9.09,9.09,0,0,0,5.06-8.2h0A8.93,8.93,0,0,0,1906.35,1000.67Zm-29.5,8.24,4.27,4.48-8.59,0Zm26.39-6.79,8.07,8.49-16.39,0Zm-51.58-1.22,6.06,6.37-12.19-.09Zm-63.94,9.94,3.47-3.56,3.43,3.61Zm15.4-7.76,6.28,6.6-12.64-.08Zm24.24,12.4,4.33-4.43,4.26,4.49Z"/><polygon class="cls-7" points="1831.69 1011.05 1827.36 1015.48 1835.95 1015.54 1831.69 1011.05"/><polygon class="cls-7" points="1851.66 1000.9 1845.53 1007.18 1857.71 1007.27 1851.66 1000.9"/><polygon class="cls-7" points="1881.12 1013.39 1876.85 1008.91 1872.53 1013.34 1881.12 1013.39"/><polygon class="cls-7" points="1791.19 1007.28 1787.72 1010.84 1794.62 1010.89 1791.19 1007.28"/><polygon class="cls-7" points="1809.4 1009.68 1803.12 1003.08 1796.76 1009.6 1809.4 1009.68"/><polygon class="cls-7" points="1894.92 1010.64 1911.31 1010.61 1903.24 1002.13 1894.92 1010.64"/><polygon class="cls-7" points="1516.04 907.53 1525.43 928.81 1504.02 977.36 1494.63 956.07 1516.04 907.53"/><polygon class="cls-7" points="1460.66 857.27 1464.44 857.27 1464.44 1024.53 1425.67 936.62 1460.66 857.27"/><polygon class="cls-7" points="1464.44 857.27 1493.87 857.27 1516.04 907.53 1494.63 956.07 1464.44 1024.53 1464.44 857.27"/><path class="cls-7" d="M1372.71,876.87l21.77-19.6h13.94V975.74l-45.8-103.83,4.19,4.65A4.18,4.18,0,0,0,1372.71,876.87Z"/><polygon class="cls-7" points="1408.42 857.27 1460.66 857.27 1425.67 936.62 1408.42 975.74 1408.42 857.27"/><polygon class="cls-7" points="1493.87 857.27 1536.11 857.27 1536.11 953.04 1525.43 928.81 1516.04 907.53 1493.87 857.27"/><polygon class="cls-7" points="1536.11 857.27 1578.35 857.27 1536.11 953.04 1536.11 857.27"/><path class="cls-7" d="M1314,839.65h0a17.66,17.66,0,0,0,10.21,16l7.91,7.67a5.84,5.84,0,0,0,8.25-.12l5.7-5.88h3.33l13.18,14.64,4.19,4.65a4.18,4.18,0,0,0,5.9.31l21.77-19.6h196.06l20.82,13.16a1.54,1.54,0,0,0,2.14-.48l12.64-20a16.61,16.61,0,0,0,1.32-2.08l.2-.32h-.05a17.47,17.47,0,0,0,1.91-7.92h0A17.68,17.68,0,0,0,1611.9,822h-1.75l-8.9-8.78a3.69,3.69,0,0,0-5.21,0L1587.4,822h-26.59l-1.52-1.5a2.57,2.57,0,0,0-3.64,0l-1.47,1.48H1404.52l-1.4-1.38a2.76,2.76,0,0,0-3.9,0l-1.33,1.35h-31.77l-5.57-5.49a2.75,2.75,0,0,0-3.89,0l-5.4,5.47h-19.59A17.68,17.68,0,0,0,1314,839.65Zm85.91,7-17.33.12,8.61-8.73Zm-45.2-5.24-33.09-.06,16.3-16.51Zm99.71-6.73-24.6.16,12.22-12.38Zm102.79,7.21,6.92-7,7,6.91Zm-4.32-2.52-25.51.17,12.67-12.84ZM1473.8,851l8.61-8.73,8.73,8.61Z"/><polygon class="cls-7" points="1482.41 842.22 1491.14 850.83 1473.8 850.95 1482.41 842.22"/><polygon class="cls-7" points="1442.08 822.47 1454.46 834.69 1429.86 834.85 1442.08 822.47"/><polygon class="cls-7" points="1382.62 846.77 1391.23 838.05 1399.95 846.66 1382.62 846.77"/><polygon class="cls-7" points="1564.16 834.89 1571.17 841.8 1557.25 841.9 1564.16 834.89"/><polygon class="cls-7" points="1527.42 839.55 1540.09 826.71 1552.93 839.38 1527.42 839.55"/><polygon class="cls-7" points="1354.74 841.42 1321.66 841.36 1337.96 824.85 1354.74 841.42"/><polyline class="cls-8" points="1760.57 1101.61 1760.57 873.55 1661.94 873.55"/><polyline class="cls-8" points="1760.57 1101.61 1760.57 873.55 1859.19 873.55"/><polyline class="cls-8" points="1585.06 1042.34 1585.06 814.28 1486.44 814.28"/><polyline class="cls-8" points="1585.06 1042.34 1585.06 814.28 1683.68 814.28"/><polyline class="cls-9" points="1675.69 1168.88 1675.69 826.2 1527.5 826.2"/><polyline class="cls-10" points="1675.69 1168.88 1675.69 826.2 1823.89 826.2"/><polyline class="cls-9" points="1516.63 1054.36 1516.63 826.31 1418.01 826.31"/><polyline class="cls-10" points="1516.63 1054.36 1516.63 826.31 1615.25 826.31"/><polyline class="cls-9" points="1809.88 1032.38 1809.88 804.33 1711.26 804.33"/><polyline class="cls-10" points="1809.88 1032.38 1809.88 804.33 1908.5 804.33"/><path class="cls-6" d="M1464.33,820.71l-28.89,29.77a10.9,10.9,0,0,1-15.4.24l-29.77-28.89"/><rect class="cls-6" x="1386.21" y="773.68" width="589.18" height="65.82" rx="32.91"/><path class="cls-6" d="M1432.62,797.09l33.18-33.63a5.13,5.13,0,0,1,7.26-.05l33.62,33.18"/><path class="cls-6" d="M1573.64,806l-77.86,70.1a7.8,7.8,0,0,1-11-.58l-70.1-77.85"/><path class="cls-6" d="M1512.11,804.77l33.17-33.62a5.16,5.16,0,0,1,7.29,0l33.61,33.16"/><path class="cls-6" d="M1804,804.77l33.41-33.86a4.8,4.8,0,0,1,6.8,0l33.86,33.4"/><path class="cls-6" d="M1880.9,789.72l31.95-32.38a6.88,6.88,0,0,1,9.73-.06l32.38,32"/><polyline class="cls-11" points="1684.57 827.69 1700.65 811.4 1716.95 827.48"/><polyline class="cls-11" points="1602.51 797.64 1625.32 774.52 1648.44 797.33"/><polyline class="cls-11" points="1514.28 819.91 1530.36 803.61 1546.65 819.69"/><polyline class="cls-11" points="1840.41 810.79 1853.33 797.71 1866.42 810.62"/><polyline class="cls-11" points="1784.7 806.42 1808.36 782.44 1832.34 806.1"/><polyline class="cls-11" points="1400.44 809.8 1430.87 778.96 1462.22 809.9"/><path class="cls-12" d="M450.18,927.34a216.23,216.23,0,0,1-18.59,67c-1.86,4-3.73,7.73-5.73,11.26l-4.87,7.27-3.17-13.31-4.9,5.94-3.78,4.6-3.23-13.33-5.73,11.3c-8.3-1.86-5.15-46.16,7-99"/><path class="cls-13" d="M403.14,954c-3.3-.27-.62,5-1.57,16.48s-4.15,21.22-.84,21.52,5.82-9.44,6.82-21S406.44,954.28,403.14,954Z"/><path class="cls-14" d="M336.59,639.05A61.53,61.53,0,0,0,369,634.69,81.17,81.17,0,0,0,395.1,662c24.49,15.76,49.92,12.85,57.29,11.76a65.37,65.37,0,0,0,13.45,23.54c22.75,25.16,58,22.48,63.25,22L365.86,804.26a.48.48,0,0,0,0-.17q-2.67-12.45-5.91-25.21a701.65,701.65,0,0,0-67.29-168.54C295.08,614,309.59,635.21,336.59,639.05Z"/><path class="cls-14" d="M395.08,662c24.49,15.76,49.92,12.85,57.29,11.76a212.53,212.53,0,0,1-28.78,57.54c-25.1,34.9-57.71,72.9-57.71,72.9a.48.48,0,0,0,0-.17c-.37-3.28-6.39-56.58-8.31-102.43a169.8,169.8,0,0,1,11.44-67A81.08,81.08,0,0,0,395.08,662Z"/><path class="cls-15" d="M175.1,772.75l.93-1.17C173.37,826.52,167.76,881.3,156,935l-52-26.67c-16.43-8.73-65,1.1,3.32-44.58l60-78.5.33.2Z"/><path class="cls-16" d="M453.64,727.65a52.16,52.16,0,0,1,19,3.21c13.79,5.33,22,17.21,22,35,0,24.9-14.7,43.7-39.6,43.7-11,0-20.07-3.7-26.71-10-8.33-7.89-12.87-19.85-12.87-33.69C415.46,741,428.8,727.64,453.64,727.65Z"/><path class="cls-17" d="M453.65,727.64a52.16,52.16,0,0,1,19,3.21c6.64,6.43,10.35,15.71,10.35,27.71,0,24.88-14.72,43.68-39.6,43.68a41.48,41.48,0,0,1-15.07-2.68c-8.33-7.89-12.87-19.85-12.87-33.69C415.46,741,428.8,727.64,453.65,727.64Z"/><circle class="cls-18" cx="461.59" cy="808.44" r="6.47"/><path class="cls-19" d="M145.1,827.63c22.42-69.51,88.41-132.36,158-132.36,85.71,0,166,69.51,166,155.23,0,43.94-21.09,83.61-53.19,111.85-1.42,1.27-2.91,2.52-4.42,3.77a175.41,175.41,0,0,1-78.36,36.78,164.06,164.06,0,0,1-30,2.83,243.26,243.26,0,0,1-38.11-3c-70-11.12-127.89-53.57-127.89-126.38A159.39,159.39,0,0,1,145.1,827.63Z"/><path class="cls-16" d="M280,745.92a62.78,62.78,0,0,1,22.23,3.63c16.13,6,25.75,19.5,25.75,39.62,0,28.18-17.22,49.45-46.37,49.45-12.92,0-23.5-4.19-31.27-11.32-9.74-8.93-15.07-22.47-15.07-38.13C235.26,761,250.84,745.92,280,745.92Z"/><path class="cls-17" d="M280,745.92a62.75,62.75,0,0,1,22.23,3.6c7.78,7.27,12.12,17.79,12.12,31.35,0,28.15-17.24,49.43-46.37,49.43a50,50,0,0,1-17.64-3c-9.74-8.93-15.07-22.47-15.07-38.13C235.26,761,250.84,745.92,280,745.92Z"/><ellipse class="cls-20" cx="278.1" cy="781.49" rx="10.43" ry="9.7"/><ellipse class="cls-2" cx="274.92" cy="780.46" rx="4.69" ry="4.36"/><circle class="cls-20" cx="455" cy="756.04" r="9.7"/><circle class="cls-2" cx="452.05" cy="755.01" r="4.36"/><path class="cls-21" d="M367.59,825.34c2,.15,4.16.35,6.42.5,2.75.18,5.67.32,8.67.32,2.07,0,4.21-.06,6.38-.22.77-.07,1.69-.14,2.32-.22s1.32-.16,2-.27c2.87-.41,5.73-1,8.54-1.66,1.44-.36,2.86-.74,4.18-1.14,3.81-1.08,7.21-2.29,10.15-3.29,9.44-3.2,9.48,1.21,10.81,10.62,1.84,13.15-4.38,23.42-22.91,29.82a53,53,0,0,1-9.78,2.35,43.79,43.79,0,0,1-7.93.4,39.38,39.38,0,0,1-5.08-.51,38.94,38.94,0,0,1-16.84-7.1c-7.72-5.68-7.51-10.78-8.61-18.49C354.64,827.21,356.51,824.45,367.59,825.34Z"/><path class="cls-2" d="M382.59,826.18c2.07,0,4.21-.06,6.38-.22.09,7.28-2.57,13.09-6.33,13.42-4,.34-7.82-5.63-8.72-13.52C376.75,826,379.64,826.18,382.59,826.18Z"/><path class="cls-22" d="M384.76,854.63c2.27-3.21,5.22-5.1,8.43-5.1,4.7,0,8.76,4.14,11,10.29a53,53,0,0,1-9.78,2.35,43.79,43.79,0,0,1-7.93.4,39.38,39.38,0,0,1-5.08-.51A24.21,24.21,0,0,1,384.76,854.63Z"/><path class="cls-22" d="M386.48,862.59a39.38,39.38,0,0,1-5.08-.51,38.94,38.94,0,0,1-16.84-7.1c3.27-5.46,7.89-8.66,12.39-7.9,3.45.57,6.2,3.44,7.86,7.57a18.13,18.13,0,0,1,.73,2.15"/><path class="cls-23" d="M279.48,834.05c27.33,0,46.33-34.84,46.33-15.4s-19,28.6-46.33,28.6-44.22-9.16-44.22-28.6S252.15,834.05,279.48,834.05Z"/><path class="cls-24" d="M297.59,709.2a1.87,1.87,0,0,1-1.18-2.35,24.29,24.29,0,0,1,14.76-15.64,21.8,21.8,0,0,1,25.56,7.34c4.52,6.17,5,12.56,2.07,19.25a2.07,2.07,0,0,1-2.35,1.14l-38.73-9.7Z"/><path class="cls-24" d="M244.24,711.39c-8.63,6.47,1.57-9.54,6.1-14.27a17.86,17.86,0,0,1,21.29-3c5.56,3,8.91,5.07,9.26,10.84,0,.77-6.63,2.53-8.63,2.15H259.33C258.47,707.26,249.2,707.7,244.24,711.39Z"/><path class="cls-24" d="M351.46,724.91h0a1.85,1.85,0,0,1-.09-2.62h0a24.27,24.27,0,0,1,19.89-8.18,21.8,21.8,0,0,1,20.33,17.23c1.61,7.49-.59,13.5-6,18.4a2.11,2.11,0,0,1-2.62.07L351.59,725Z"/><path class="cls-24" d="M80.17,884.68a.77.77,0,0,1-1-.23,10.27,10.27,0,0,1-1.25-8.86,8.92,8.92,0,0,1,8.83-6.43,7.32,7.32,0,0,1,6.67,4.3.88.88,0,0,1-.23,1.07L80.26,884.64Z"/><path class="cls-24" d="M98.7,870.53h0a.84.84,0,0,1-1.11-.19,11.32,11.32,0,0,1-1.37-9.74,9.81,9.81,0,0,1,9.71-7.07,8.09,8.09,0,0,1,7.33,4.73,1,1,0,0,1-.26,1.17L98.75,870.55Z"/><path class="cls-24" d="M122.9,851.08a.92.92,0,0,1-1.29.16,12.82,12.82,0,0,1-5.16-9.89,11.13,11.13,0,0,1,7.7-11.23,9.17,9.17,0,0,1,9.63,2.27,1.08,1.08,0,0,1,.17,1.35L123,851Z"/><path class="cls-25" d="M257.1,995.17a239.24,239.24,0,0,0,37.61,3,160.16,160.16,0,0,0,29.63-2.83,172.18,172.18,0,0,0,77.33-36.8c1.49-1.26,2.95-2.52,4.36-3.78,31.68-28.26,52.48-67.91,52.48-111.91,0-37.06-14.81-71.12-38.47-97.83,31,28.17,51.22,67.39,51.22,110.77,0,44-20.79,83.66-52.47,111.91-1.42,1.28-2.87,2.53-4.36,3.78a172,172,0,0,1-77.32,36.86,158.38,158.38,0,0,1-29.63,2.83,236.87,236.87,0,0,1-37.61-3c-40.06-6.45-76.12-23.47-99.33-50.84C193.26,977.14,223.79,989.8,257.1,995.17Z"/><path class="cls-25" d="M260.26,996.49l1-.32a238.29,238.29,0,0,0,33.22,2.33,160.39,160.39,0,0,0,49.41-7.92l.37-.1a173.59,173.59,0,0,0,48.48-24.84c3-2.18,5.86-4.42,8.66-6.77,1.19-1,2.37-2,3.52-3l.3-.26.54-.47a170.11,170.11,0,0,0,13.37-13.35v.13a1,1,0,0,1,.13.37,70.88,70.88,0,0,1,3.52,21.86c-1.38,1.36-2.81,2.63-4.23,3.92s-2.87,2.53-4.35,3.78c-1,.84-2,1.66-3,2.45l-.31.24A172.37,172.37,0,0,1,353,1004.72l-.48.13a159.43,159.43,0,0,1-45.25,6.62,239.21,239.21,0,0,1-37.6-3,212.68,212.68,0,0,1-27.42-6.3l6-1.9Z"/><path class="cls-26" d="M380.73,908.71c17.16,0,31.93,13.45,38.46,32.75a67.86,67.86,0,0,1,3.19,14.79,66,66,0,0,1,.39,7.44v.21c-1.47,1.43-3,2.87-4.47,4.14s-2.86,2.53-4.35,3.78c-1,.84-2,1.66-3,2.45a172.53,172.53,0,0,1-58.18,30.42,52.92,52.92,0,0,1-4-5.3,60.25,60.25,0,0,1-4.74-8.9,66.75,66.75,0,0,1-4.94-19.39,73.4,73.4,0,0,1-.38-7.41C338.71,933.34,357.53,908.71,380.73,908.71Z"/><path class="cls-26" d="M248.14,999.87l12-3.77,78.88-25,64.4-20.37,1.53,4.85,4,12.53,2,6.16a172.4,172.4,0,0,1-58.21,30.46,164.55,164.55,0,0,1-16.08,3.93,159.43,159.43,0,0,1-29.65,2.82,239.21,239.21,0,0,1-37.6-3,214.77,214.77,0,0,1-28-6.47Z"/><path class="cls-27" d="M392.8,965.61c3-2.18,5.86-4.42,8.66-6.77,1.19-1,2.37-2,3.52-3l.3-.26.54-.47a170.11,170.11,0,0,0,13.37-13.35v.13a1,1,0,0,1,.13.37,70.86,70.86,0,0,1,3.45,21.86v.22c-1.47,1.43-3,2.86-4.47,4.14s-2.86,2.53-4.35,3.78c-1,.84-2,1.66-3,2.45a172.67,172.67,0,0,1-58.21,30.42l-.24-.3a51.93,51.93,0,0,1-3.73-5,60.25,60.25,0,0,1-4.74-8.9l-.13-.33c-.06-.14-.12-.28-.17-.43A175.19,175.19,0,0,0,392.8,965.61Z"/><path class="cls-27" d="M242.32,1002.1l6-1.9,12-3.77,1-.32.82-.26A245.34,245.34,0,0,0,294,997.92a164.06,164.06,0,0,0,30-2.83,166.45,166.45,0,0,0,19.81-5,175.73,175.73,0,0,0,49-24.51c3-2.18,5.86-4.42,8.66-6.77,1.19-1,2.37-2,3.52-3l.06.17v0l4,12.48,1.87,6,.07.19a172.75,172.75,0,0,1-58.21,30.38,164.55,164.55,0,0,1-16.08,3.93A160.36,160.36,0,0,1,307,1011.9a239.21,239.21,0,0,1-37.6-3,214.77,214.77,0,0,1-28-6.47Z"/><path class="cls-24" d="M201.59,745.42c-4.25,9.9-3.39-9-1.82-15.41a17.88,17.88,0,0,1,16.94-13.28c6.3-.22,10.26,0,13.43,4.78.42.65-4.52,5.52-6.4,6.17l-11.15,6.45C211.88,734.69,204.06,739.69,201.59,745.42Z"/><path class="cls-12" d="M290.36,941.84a216,216,0,0,1,20.32,66.5c.56,4.35,1,8.58,1.21,12.58l-.21,8.75-9.82-9.53-.95,7.64-.73,6-9.92-9.48,1.2,12.58c-8,2.83-29.09-36.23-47.2-87.34"/><path class="cls-12" d="M198.59,957.34a117,117,0,0,1-13.93,38.87c-1.32,2.28-2.68,4.47-4.06,6.47l-3.39,4.14-1.75-7.91-3.37,3.37-2.63,2.63L167.67,997l-4.08,6.47c-5.38-1.3-2.17-27.19,7.18-57.88"/><path class="cls-28" d="M43.73,755.19a61.33,61.33,0,0,0,13.61-29.75A80.92,80.92,0,0,0,94.4,718C120.77,705.69,132,682.66,135,675.85a65.2,65.2,0,0,0,27.1,1.21c33.41-5.78,50-37,52.41-41.7L199.1,818.68l-.15-.06q-12-4.41-24.5-8.48A702.61,702.61,0,0,0-4,777C.38,776.88,26.08,776,43.73,755.19Z"/><path class="cls-28" d="M94.41,718C120.78,705.69,132,682.66,135,675.85A212.62,212.62,0,0,1,168.26,731c16,39.84,30.78,87.72,30.78,87.72l-.15-.06c-3-1.45-51.22-24.84-91-47.72a170,170,0,0,1-50.53-45.46A81.17,81.17,0,0,0,94.41,718Z"/><path class="cls-13" d="M269,991c3-1.36,2.23,4.43,7,15s11,18.64,8,20-8.7-7-13.47-17.53S266,992.34,269,991Z"/><path class="cls-13" d="M169,965c1.8.23-.36,3.74-1.51,12.46s-.83,16.36-2.63,16.12-1.77-7.83-.63-16.55S167.23,964.8,169,965Z"/><path class="cls-13" d="M171,964.18c-.36,1-.39-.18-1.5-.53s-1.37.69-1-.35,1-2.31,2.08-1.92S171.36,963.14,171,964.18Z"/><path class="cls-13" d="M270.53,989.57c.39,1-.65.25-2.49.94s-1.27,1.65-1.66.62-.64-2.43,1.19-3.12S270.14,988.54,270.53,989.57Z"/></svg>