<svg id="Layer_1" data-name="Layer 1" xmlns="http://www.w3.org/2000/svg" xmlns:xlink="http://www.w3.org/1999/xlink" width="375" height="500" viewBox="0 0 375 500"><defs><style>.cls-1{fill:#e56b6f;}.cls-2{fill:#b56576;}.cls-3{fill:#4a7c59;}.cls-4{fill:#518761;}</style><symbol id="chili" data-name="chili" viewBox="0 0 374.09 496.44"><path class="cls-1" d="M295.1,359.45c-3.85,3.85-22.74,31-26.58,34.9C184.12,479.47,84.68,517.28,17.42,485c-35.16-16.89-11.85-31.06,23.44-55.74C60.14,415.76,109,401,127.27,377.73c19.8-25.19,49.85-91.4,54.84-118C204.19,142,203.19,58.14,273.5,91.91c17.58,8.45,79.47-11,89.73,6.65C394,151.55,355.56,299.12,295.1,359.45Z"/><path class="cls-2" d="M337.56,242.39c5.61,3.14,5.28,29.67-9.76,56.54s-35.73,39.47-41.34,36.33,13.36-17.65,28.4-44.52S332,239.26,337.56,242.39Z"/><path class="cls-3" d="M204.29,98.9c8.63-17.35,42.39-62.17,94.66-58.24s76.63,66.15,75,87.52c-.58,7.73-6.57,23.25-24.74,35.36-16.27,10.85-7.69-49.66-20-43.19-3.7,1.94-31.52,46.28-37,25.34-3.86-14.87,5.12-51.26,1-42.06-62.62,138.55-29.56-8.73-44.88-1.29-25.06,12.16-32.7,36.29-38.87,43.38C197.37,159.6,199.13,109.28,204.29,98.9Z"/><path class="cls-3" d="M298,67.28l-11.09-2.8a4,4,0,0,1-2.68-5.43c3.65-8.42,11.49-27,13.14-34.78.88-4.18,1.15-14.22,1.23-20.34A4,4,0,0,1,303.5.12L315,3a4,4,0,0,1,2.69,5.4c-4,9.42-13.25,31.92-14.81,41.24-.47,2.79-.25,9,0,13.54A4,4,0,0,1,298,67.28Z"/><path class="cls-2" d="M282.92,342.66c-4.66,3.46-9.39,5-10.57,3.39s1.64-5.68,6.29-9.14,3-.2,4.14,1.39S287.57,339.2,282.92,342.66Z"/><path class="cls-4" d="M332.58,63.71c4.54-1.32,18.91,14.72,26.09,39.35s3.69,44-.85,45.3-3-18.17-10.14-42.81S328,65,332.58,63.71Z"/></symbol></defs><use width="374.09" height="496.44" transform="translate(0.46 1.78)" xlink:href="#chili"/></svg>