<svg id="Layer_1" data-name="Layer 1" xmlns="http://www.w3.org/2000/svg" width="685" height="386.94" viewBox="0 0 685 386.94"><defs><style>.cls-1{fill:#8a817c;}</style></defs><path class="cls-1" d="M242.3,212.68C240.7,191.8,229.1,74.89,227,60.87c-4.87-33.09-27-23.41-50.84-.63C143.5,91.39,130.65,101,80.85,131.55c-26,15.92-79.61,57.14-78.71,90,.73,27,60.64,55.38,83.53,65.87C96,292.1,104.76,296,112.9,299.75c71.6-31.41,73.13-30.09,76.1-23.41,2.88,6.45,12.21,5.22-54,33.9a551.8,551.8,0,0,1,48.76,27.81c62.59,39.29,54.56,39.29,59.92-72.34C244.23,253.64,243.23,232.41,242.3,212.68Zm-114.06-.8a13.66,13.66,0,1,1,13.66-13.66A13.66,13.66,0,0,1,128.24,211.88Z"/><path class="cls-1" d="M609.38,187.78c0,9.76-1.58,6.43-192.78,6.43s-194.38,9.75-194.38,0,3.19-16.07,194.38-16.07S609.38,178,609.38,187.78Z"/><path class="cls-1" d="M308.44,386.93c-9.76.21-6.46-1.44-10.71-192.59S283.65.22,293.41,0s16.13,2.82,20.38,194S318.19,386.71,308.44,386.93Z"/><path class="cls-1" d="M388.11,347.75c-8.25.19-5.46-1.21-9.05-162.75s-11.9-164-3.65-164.23S389,23.16,392.63,184.7,396.36,347.57,388.11,347.75Z"/><path class="cls-1" d="M465.41,321.59c-6.94.15-4.6-1-7.62-137s-10-138.06-3.07-138.21,11.47,2,14.49,138S472.35,321.44,465.41,321.59Z"/><path class="cls-1" d="M529.48,289.22c-5.31.11-3.51-.79-5.83-104.78S516,78.83,521.3,78.71s8.78,1.54,11.09,105.54S534.79,289.1,529.48,289.22Z"/><path class="cls-1" d="M670.35,267.59c-26.56-1.78-93.89-40.55-92-69.64s23.06-21.38,49.61-19.6,48.51-3,46.56,26S696.9,269.37,670.35,267.59Z"/><path class="cls-1" d="M670.36,104.27c-26.55,1.78-93.89,40.44-92,69.44S601.46,195,628,193.25s48.51,3,46.57-26S696.92,102.49,670.36,104.27Z"/></svg>