<svg id="Layer_1" data-name="Layer 1" xmlns="http://www.w3.org/2000/svg" width="470" height="467" viewBox="0 0 470 467"><defs><style>.cls-1{fill:#b98b73;}.cls-2{fill:#f9e5d8;}.cls-3{fill:#98c1d9;}.cls-4{fill:#2a9d8f;}.cls-5{fill:#bc4749;}.cls-6{fill:#e9c46a;}.cls-7{fill:#c4947a;}</style></defs><path class="cls-1" d="M235,0C106,0,1.5,104.54,1.5,233.5S106,467,235,467,468.5,362.46,468.5,233.5,364,0,235,0Zm-.7,123.41A109.39,109.39,0,1,1,124.91,232.8,109.39,109.39,0,0,1,234.3,123.41Z"/><path class="cls-2" d="M234.89,30.17c-112,0-202.73,90.76-202.73,202.73s90.76,202.73,202.73,202.73S437.62,344.87,437.62,232.9,346.86,30.17,234.89,30.17ZM343.69,232.8A109.39,109.39,0,1,1,234.3,123.41,109.4,109.4,0,0,1,343.69,232.8Z"/><rect class="cls-3" x="207.87" y="64.95" width="37.41" height="14.48" rx="4.8" transform="translate(286.66 -157.9) rotate(86.96)"/><rect class="cls-3" x="83.58" y="133.73" width="37.41" height="14.48" rx="4.8" transform="translate(-56.57 212.38) rotate(-78.24)"/><rect class="cls-3" x="367.16" y="274.92" width="37.41" height="14.48" rx="4.8" transform="translate(724.51 -55.22) rotate(98.93)"/><rect class="cls-3" x="300.79" y="367.83" width="37.41" height="14.48" rx="4.8" transform="translate(358.79 -116.06) rotate(45)"/><rect class="cls-3" x="122.19" y="355.77" width="37.41" height="14.48" rx="4.8" transform="translate(-207.64 189.38) rotate(-42.31)"/><rect class="cls-3" x="46.15" y="267.89" width="37.41" height="14.48" rx="4.8"/><rect class="cls-3" x="358.77" y="152.63" width="37.41" height="14.48" rx="4.8" transform="translate(787.32 151.53) rotate(155.88)"/><rect class="cls-4" x="352.66" y="118.26" width="37.41" height="14.48" rx="4.8" transform="translate(569.89 -212.5) rotate(101.76)"/><rect class="cls-4" x="394.89" y="243.76" width="37.41" height="14.48" rx="4.8" transform="translate(547.45 715.91) rotate(-137.31)"/><rect class="cls-4" x="333.35" y="355.98" width="37.41" height="14.48" rx="4.8" transform="matrix(-0.56, -0.83, 0.83, -0.56, 249.26, 858.51)"/><rect class="cls-4" x="101.66" y="91.71" width="37.41" height="14.48" rx="4.8"/><rect class="cls-4" x="141.48" y="388.56" width="37.41" height="14.48" rx="4.8" transform="translate(555.99 235.62) rotate(90)"/><rect class="cls-4" x="85.21" y="274.68" width="37.41" height="14.48" rx="4.8" transform="translate(-195.57 306.23) rotate(-74.41)"/><rect class="cls-4" x="241.32" y="50.86" width="37.41" height="14.48" rx="4.8" transform="translate(180.33 -196.14) rotate(60)"/><rect class="cls-5" x="335.76" y="307.71" width="37.41" height="14.48" rx="4.8"/><rect class="cls-5" x="282.67" y="91.71" width="37.41" height="14.48" rx="4.8" transform="translate(269.9 414.58) rotate(-102.48)"/><rect class="cls-5" x="164.41" y="79.64" width="37.41" height="14.48" rx="4.8" transform="translate(1.88 177.63) rotate(-51.98)"/><rect class="cls-5" x="54.6" y="176.18" width="37.41" height="14.48" rx="4.8" transform="translate(220.29 51.48) rotate(69.87)"/><rect class="cls-5" x="207.85" y="395.8" width="37.41" height="14.48" rx="4.8" transform="translate(-235.77 397.72) rotate(-60)"/><rect class="cls-5" x="79.94" y="314.95" width="37.41" height="14.48" rx="4.8"/><rect class="cls-5" x="352.66" y="211.18" width="37.41" height="14.48" rx="4.8" transform="translate(459.79 640.07) rotate(-132.31)"/><rect class="cls-6" x="385.24" y="190.66" width="37.41" height="14.48" rx="4.8" transform="translate(-33.23 91.99) rotate(-12.48)"/><rect class="cls-6" x="241.64" y="91.71" width="37.41" height="14.48" rx="4.8" transform="translate(57.64 -92.05) rotate(22.49)"/><rect class="cls-6" x="316.45" y="120.67" width="37.41" height="14.48" rx="4.8" transform="translate(107.13 404.85) rotate(-71.42)"/><rect class="cls-6" x="129.41" y="113.43" width="37.41" height="14.48" rx="4.8" transform="translate(-42.26 104.62) rotate(-34.35)"/><rect class="cls-6" x="76.32" y="226.86" width="37.41" height="14.48" rx="4.8" transform="translate(-151.18 177.35) rotate(-54.93)"/><rect class="cls-6" x="180.09" y="368.05" width="37.41" height="14.48" rx="4.8"/><rect class="cls-6" x="252.5" y="372.88" width="37.41" height="14.48" rx="4.8" transform="translate(507.3 -22.74) rotate(65.88)"/><path class="cls-7" d="M234.38,115.84c-63.47,0-114.91,52-114.91,116.22s51.44,116.22,114.91,116.22,114.91-52,114.91-116.22S297.85,115.84,234.38,115.84Zm-.08,226.35A109.39,109.39,0,1,1,343.69,232.8,109.39,109.39,0,0,1,234.3,342.19Z"/></svg>