<?xml version="1.0" encoding="utf-8"?>
<!-- Generator: Adobe Illustrator 25.4.1, SVG Export Plug-In . SVG Version: 6.00 Build 0)  -->
<svg version="1.1" id="Layer_1" xmlns="http://www.w3.org/2000/svg" xmlns:xlink="http://www.w3.org/1999/xlink" x="0px" y="0px"
	 viewBox="0 0 360.6 335.6" style="enable-background:new 0 0 360.6 335.6;" xml:space="preserve">
<style type="text/css">
	.st0{fill:#B56576;}
	.st1{fill:#C26C7E;}
	.st2{fill:#CC7284;}
</style>
<path class="st0" d="M62.2,13.2l63.6,173.4c23.4-7.8,42.9-24.3,54.4-46c-14.7-28-14.7-61.5,0.1-89.5c-24.6-46.7-82.5-64.7-129.3-40
	C22.3,26.2,3.2,55,0.4,87.3v0.4c0.8-9.7,3.3-19.2,7.5-27.9C14.4,46.5,28.3,28.1,62.2,13.2z"/>
<path class="st0" d="M360.2,87.9c0-0.2,0-0.3,0-0.5c0.1,0.7,0.1,1.3,0.2,2L360.2,87.9z"/>
<path class="st0" d="M169.5,104c3.2,38,28.7,70.5,64.9,82.7l64.2-173.1c33.8,15,47.7,33.4,54.1,46.8c4,8.5,6.5,17.6,7.3,27
	c-4.6-52.6-51-91.6-103.6-87S164.9,51.4,169.5,104L169.5,104z"/>
<path class="st0" d="M360.4,91.3c0-0.6,0-1.1-0.1-1.7c0-0.1,0-0.2,0-0.3c0-0.7-0.1-1.3-0.2-2c-0.8-9.4-3.3-18.5-7.3-27
	c-6.5-13.4-20.4-31.8-54.1-46.8l-64.2,173.1c-23.3-7.8-42.7-24.3-54.2-46.1c-11.6,21.7-31.1,38.2-54.4,46L62.2,13.2
	C28.3,28.1,14.4,46.5,7.9,59.8c-4.2,8.8-6.7,18.3-7.5,27.9c-0.1,0.7-0.1,1.3-0.2,2c0,0.1,0,0.3,0,0.4C-4,157,60.8,252.5,179.4,334.9
	l-0.2,0.6c0.2-0.1,0.4-0.3,0.6-0.4c0.2,0.2,0.5,0.3,0.7,0.5l-0.3-0.8C298.9,253.1,364,158,360.4,91.3z"/>
<path class="st1" d="M356.4,97.5c0,14.4-5.5,26.1-12.4,26.1s3.1-11.7,3.1-26.1s-9.9-26.1-3.1-26.1S356.4,83.1,356.4,97.5z"/>
<path class="st1" d="M346.2,61.8c1.4,3,1.1,4.4-1.6,5.6s-3.8,0.5-5.2-2.5s-3.3-5-0.6-6.3C341.8,57.5,345.1,58.9,346.2,61.8z"/>
<path class="st1" d="M230.5,287.8c-20.3,14-43,36.8-47.5,32s22.5-25.3,40.6-42.1s72.2-83,77.8-79.6C308,202,270.9,260,230.5,287.8z"
	/>
<path class="st0" d="M1248.4,77.6c0-0.2,0-0.3-0.1-0.5c0.1,0.7,0.1,1.3,0.2,2C1248.4,78.6,1248.4,78.1,1248.4,77.6z"/>
<path class="st1" d="M19,58.2C39.7,30,88.5,4.4,110.3,20.4s-2.7,38.2-23.4,66.4S72.2,209.5,50.4,193.6S-1.7,86.5,19,58.2z"/>
<path class="st2" d="M97.5,110c0,23.6-9.8,42.8-22,42.8S53.6,133.6,53.6,110S88,58.1,100.1,58.1S97.5,86.4,97.5,110z"/>
</svg>
