<svg id="Layer_1" data-name="Layer 1" xmlns="http://www.w3.org/2000/svg" xmlns:xlink="http://www.w3.org/1999/xlink" width="1920" height="1080" viewBox="0 0 1920 1080"><defs><style>.cls-1{fill:none;}.cls-2{fill:#c26950;}.cls-3{fill:#7f5539;}.cls-4{fill:#d9765a;}.cls-5{fill:#704b33;}.cls-6{fill:#2a9d8f;}.cls-7{fill:#238579;}.cls-8{fill:#d9866f;}.cls-9{fill:#d9b663;}.cls-10{fill:#e9c46a;}.cls-11{fill:#9d6b53;}.cls-12{fill:#debb65;}.cls-13{fill:#e56b6f;}.cls-14{fill:#b56576;}.cls-15{fill:#4a7c59;}.cls-16{fill:#f0e9d4;}.cls-17{fill:#faf3dd;}.cls-18{fill:#74807d;}.cls-19{fill:#fefdf8;}.cls-20{fill:#686868;}.cls-21{fill:#6d597a;}.cls-22{fill:#f4a261;}.cls-23{fill:#89c2d9;}.cls-24{fill:#8fa170;}.cls-25{fill:#6ea5c2;}.cls-26{fill:#d6ab81;}.cls-27{fill:#c99b6d;}.cls-28{fill:#87986a;}.cls-29{fill:#a5a58d;}.cls-30{fill:#495867;}.cls-31{fill:#ccd5ae;}.cls-32{fill:#b5c99a;}.cls-33{fill:#ba9065;}.cls-34{fill:#ced4da;}.cls-35{fill:#adb5bd;}.cls-36{fill:#61a5c2;}.cls-37{fill:#ededf5;}.cls-38{fill:#f7f7ff;}.cls-39{fill:#718355;}.cls-40{fill:#7b8f5d;}.cls-41{fill:#72b3cf;}.cls-42{fill:#b98b73;}.cls-43{fill:#f9e5d8;}.cls-44{fill:#98c1d9;}.cls-45{fill:#bc4749;}.cls-46{fill:#c4947a;}.cls-47{fill:#8a817c;}.cls-48{fill:#ffdab9;}.cls-49{fill:#90a955;}.cls-50{fill:#6a994e;}.cls-51{clip-path:url(#clip-path);}.cls-52{clip-path:url(#clip-path-2);}.cls-53{fill:#ddb892;}.cls-54{fill:#ccaa87;}.cls-55{fill:#e76f51;}.cls-56{fill:#fff;}.cls-57{fill:#f57656;}.cls-58{fill:#de6b4e;}.cls-59{fill:#ff7b5a;}.cls-60{fill:#c26c7e;}.cls-61{fill:#cc7284;}.cls-62{fill:#03071e;}.cls-63{fill:#edf5f3;}.cls-64{fill:#24877b;}.cls-65{fill:#f2faf8;}.cls-66{fill:#ffe8d6;}.cls-67{fill:#3d3f3e;}.cls-68{fill:#264653;}.cls-69{fill:#f2f2f2;}.cls-70,.cls-76{fill:#f2935c;}.cls-70,.cls-72,.cls-85{stroke:#f2935c;}.cls-70,.cls-72,.cls-88{stroke-linecap:round;}.cls-70,.cls-72{stroke-linejoin:round;}.cls-71,.cls-72,.cls-85{fill:#e68b57;}.cls-73{fill:#ed905a;}.cls-74{fill:#ebf3f2;}.cls-75{fill:#fffaec;}.cls-77{fill:#484848;}.cls-78{fill:#767676;}.cls-79{fill:#f25555;}.cls-80{fill:#d17f4f;}.cls-81{fill:#9d5f3b;}.cls-82{fill:#e38a56;}.cls-83{fill:#ffdcc9;}.cls-84{fill:#edcdbb;}.cls-85,.cls-88{stroke-miterlimit:10;}.cls-86{fill:#ade8f4;}.cls-87,.cls-88{fill:#4d4d4d;}.cls-88{stroke:#4d4d4d;stroke-width:5px;}</style><clipPath id="clip-path"><rect class="cls-1" x="785.37" y="590.55" width="116.51" height="154.62"/></clipPath><clipPath id="clip-path-2"><polygon class="cls-1" points="535.9 863.39 706.71 848.61 716.83 987.03 546.01 1001.81 535.9 863.39"/></clipPath><symbol id="an_apple" data-name="an apple" viewBox="0 0 442.44 425.56"><path class="cls-2" d="M343.63,35.83C343.34,21.9,263.33-1.09,209.22,0S88.27,39.13,88.57,53s67.61-1.42,121.71-2.56S343.92,49.77,343.63,35.83Z"/><path class="cls-2" d="M356.33,307.57c0-13.94-79.51-38.6-133.62-38.6S101,305.48,101,319.42s67.63,0,121.75,0S356.33,321.48,356.33,307.57Z"/><path class="cls-3" d="M208.37,279.14l-8.57,2.43a4.5,4.5,0,0,0-3.09,5.56,3.26,3.26,0,0,0,.15.44l19.91,49.65,9.67,54.35a5.2,5.2,0,0,0,6.05,4.18,4.7,4.7,0,0,0,.51-.12l8.38-2.38a5.94,5.94,0,0,0,4.12-7.31l-.12-.37-25.59-72.09-3.85-29.39a6,6,0,0,0-6.77-5.12A7.1,7.1,0,0,0,208.37,279.14Z"/><path class="cls-4" d="M442.44,197.67c0-72.4-6.89-115-53.45-163.32-48.88-50.78-81.36-17.78-157.38-17.78-55.65,0-111.52-23-154.41,5.93C5.72,70.77,0,93,0,185.79,0,260,34.14,304.93,83.14,322.39s62.39-26.73,136.6-26.73c86.72,0,105.69,40.24,154.41,11.88C408.8,287.36,442.44,259.36,442.44,197.67Z"/><ellipse class="cls-5" cx="236.29" cy="389.81" rx="11.76" ry="5.48" transform="translate(-83.45 64.93) rotate(-13.32)"/><path class="cls-6" d="M217.49,328.3c-8.59-9.92-32.64-3.17-53.72,15.07s-20.92,70.06-12.33,80S154.12,385.2,175.2,367,226.07,338.22,217.49,328.3Z"/><path class="cls-7" d="M216.77,328.32c-9.41-9.14-22.14,18.62-41.57,38.61S142,414.2,151.44,423.34s33.6-11.59,53-31.57S226.17,337.47,216.77,328.32Z"/><path class="cls-8" d="M44.3,170.38c-2.65-51.59,11.82-89.81-4.56-89s-27.51,43.35-24.87,94.94,18.07,92.73,34.45,91.89S46.94,222,44.3,170.38Z"/><path class="cls-8" d="M393.68,81.5c-21.86-38.29-51-51.64-43.29-56.06s37.33,13.07,59.2,51.36,19.81,68.94,12.07,73.36S415.55,119.8,393.68,81.5Z"/><path class="cls-8" d="M430.56,176.88c0-9.84-4-17.81-8.9-17.81s-3,8-3,17.81-2,17.82,3,17.82S430.56,186.72,430.56,176.88Z"/></symbol><symbol id="chili" data-name="chili" viewBox="0 0 374.08 496.43"><path class="cls-13" d="M295.1,137c-3.85-3.85-22.74-31-26.58-34.9C184.12,17,84.68-20.84,17.42,11.45-17.74,28.34,5.57,42.5,40.86,67.18c19.28,13.5,68.14,28.27,86.41,51.53,19.8,25.19,49.85,91.4,54.84,118,22.08,117.74,21.08,201.6,91.39,167.82,17.58-8.44,79.47,11,89.73-6.65C394,344.89,355.56,197.33,295.1,137Z"/><path class="cls-14" d="M330.7,243.34c5.32-3.6,2.78-30-14.44-55.53s-38.9-36.36-44.26-32.76,14.78,16.48,32,42S325.37,246.92,330.7,243.34Z"/><path class="cls-15" d="M204.29,397.54c8.63,17.35,42.39,62.17,94.66,58.25s76.63-66.15,75-87.52c-.58-7.73-6.57-23.25-24.74-35.36-16.27-10.85-7.69,49.66-20,43.19-3.7-1.94-31.52-46.28-37-25.34-3.86,14.87,5.12,51.26,1,42.06-62.62-138.55-29.56,8.73-44.88,1.29-25.06-12.16-32.7-36.29-38.87-43.38C197.37,336.84,199.13,387.17,204.29,397.54Z"/><path class="cls-15" d="M298,429.17,286.91,432a4,4,0,0,0-2.86,4.87,3.65,3.65,0,0,0,.18.56c3.65,8.42,11.49,27,13.14,34.78.88,4.18,1.15,14.22,1.23,20.34a4,4,0,0,0,4.09,3.91,4.38,4.38,0,0,0,.81-.1l11.5-2.88a4,4,0,0,0,2.69-5.4c-4-9.42-13.25-31.92-14.81-41.24-.47-2.79-.25-9,0-13.54a4,4,0,0,0-3.79-4.2A3.64,3.64,0,0,0,298,429.17Z"/><path class="cls-16" d="M320,299.84a20,20,0,1,0-20.06,19.94.24.24,0,0,0,.12,0A19.88,19.88,0,0,0,320,300Z"/><path class="cls-17" d="M320,299.84a19.81,19.81,0,0,0-4.24-12.39,20,20,0,0,0-28,28A20,20,0,0,0,320,299.84Z"/><path class="cls-16" d="M252.05,303.7a20,20,0,1,0-20,19.94h0a19.81,19.81,0,0,0,19.94-19.71Z"/><path class="cls-17" d="M252.05,303.7a19.78,19.78,0,0,0-4.27-12.35,20,20,0,0,0-28,28,19.94,19.94,0,0,0,32.28-15.67Z"/><path class="cls-18" d="M283,248.37c-.44-5-6.17-14.07-13.68-21.41a57.48,57.48,0,0,0-5.67-4.89,40.47,40.47,0,0,0-3.58-2.46l-.19-.1c-.26-.18-.55-.35-.81-.5l-.15-.08a23.69,23.69,0,0,0-9.62-3.31h-.12a5,5,0,0,0-.78,0,.13.13,0,0,0-.12,0h-1.44a13.07,13.07,0,0,0-7.31,3.07l-.12.1c-.23.19-.47.39-.68.6a.23.23,0,0,0-.12.1,25.21,25.21,0,0,0-5.12,7.26,46.63,46.63,0,0,0-2.36,5.93A59.12,59.12,0,0,0,228.34,253c.27,3,1.53,4.62,3.63,5.33,2.37.85,5.83.55,10.07,0a.2.2,0,0,1,.11,0c2.94-.41,6.27-1,9.87-1.39h.15c1-.13,2.08-.23,3.16-.33,2.33-.2,4.6-.3,6.8-.37a.15.15,0,0,1,.13,0c3.65-.13,7.06-.15,10-.33a.24.24,0,0,1,.12,0c4.55-.31,8-1.06,9.62-3.25A6,6,0,0,0,283,248.37Z"/><path class="cls-19" d="M262.09,256.2l-.75-5.63a3.12,3.12,0,0,0-3.49-2.66l-3.74.5a3.1,3.1,0,0,0-2.66,3.47h0l.68,5c1-.13,2.08-.23,3.16-.33C257.62,256.37,259.89,256.28,262.09,256.2Z"/><path class="cls-19" d="M272.24,255.87l-.95-7.05a3.12,3.12,0,0,0-3.47-2.66l-3.76.5a3.15,3.15,0,0,0-2.66,3.49l.82,6C265.87,256.08,269.28,256.06,272.24,255.87Z"/><path class="cls-19" d="M252,256.92l-.63-4.77a3.1,3.1,0,0,0-3.47-2.66l-3.76.5a3.14,3.14,0,0,0-2.66,3.49l.65,4.83C245.05,257.91,248.38,257.34,252,256.92Z"/><path class="cls-19" d="M242,258.34l-.62-4.53a3.1,3.1,0,0,0-3.47-2.66l-3.76.5a3.14,3.14,0,0,0-2.66,3.49l.44,3.22C234.3,259.22,237.76,258.92,242,258.34Z"/><path class="cls-19" d="M282,252.61l-.68-5.09a3.11,3.11,0,0,0-3.48-2.66l-3.75.5a3.11,3.11,0,0,0-2.65,3.49l.94,7C276.91,255.55,280.36,254.8,282,252.61Z"/><path class="cls-19" d="M259.84,219.52c-.26-.18-.55-.35-.81-.5l-.15-.08a23.39,23.39,0,0,0-9.62-3.31l.7,5.12a3.11,3.11,0,0,0,3.48,2.66l3.74-.5A3.08,3.08,0,0,0,259.84,219.52Z"/><path class="cls-19" d="M249.87,221.09l-.73-5.48a6.66,6.66,0,0,0-.78-.05H246.8a13.16,13.16,0,0,0-7.31,3.08l.51,3.81a3.13,3.13,0,0,0,3.49,2.66l3.74-.5a3.1,3.1,0,0,0,2.65-3.48Z"/><path class="cls-19" d="M239.9,222.75l-.53-4c-.23.2-.47.4-.68.61a.23.23,0,0,0-.12.1,25.21,25.21,0,0,0-5.12,7.26h.05l3.74-.5A3.1,3.1,0,0,0,239.9,222.75Z"/><path class="cls-19" d="M263.61,222.08a36.59,36.59,0,0,0-3.58-2.46,3.08,3.08,0,0,0,3.42,2.48Z"/><circle class="cls-20" cx="224.48" cy="304" r="5.82"/><circle class="cls-20" cx="294.27" cy="299.02" r="5.82"/><path class="cls-14" d="M210.18,336.34c-.13,2.83,8.78,8.88,20.89,9.44s20.67-4.3,20.8-7.16-8.69.94-20.81.37S210.32,333.45,210.18,336.34Z"/><path class="cls-14" d="M283,334.27c.29,3.39,10,9.29,22.09,8.27s19.84-8,19.55-11.38-8.52,2.29-20.64,3.29S282.67,330.89,283,334.27Z"/><path class="cls-21" d="M211.77,311.84c.5,5.91,10.34,16.8,22,15.81s18.8-12.62,18.3-18.53-8.1,3.5-19.8,4.49S211.27,305.94,211.77,311.84Z"/><path class="cls-21" d="M280.91,309.72c1.32,5.78,12.6,15.18,24,12.55s16.84-15.15,15.51-20.92-7.52,4.6-19,7.23S279.58,304,280.91,309.72Z"/><path class="cls-10" d="M213.7,232.68a6.62,6.62,0,0,1-1.22-.74c-2.25-1.81-11.34-8.63-20.21-8.55-16.27.14-16.15-50.28-50.83-24-2.85,2.16,4.52,13.82-13.58,16.88-11.93,2-22.41-6.83-28.26-1.46-28.18,25.86,33.66,43.76,63,37.9,0,0,5.86,4.84,12.81-2.57.26-.28,12.49-2.13,14.51-5.25,5.78-8.94,16.89-1.47,16.89-1.47,1.08,0,6.05-2,7-2.57l6.79-.92c3.72-2.4,1.45-3.51-2.59-5.32Z"/><path class="cls-10" d="M178.15,260.28c-6.53,2.78-22.39,5.86-22.39,5.86-31.65,2.14,2.35,26.67.15,28.45-20.14,16.16,8.61,22.16,14.36,21.66,8.44-.75,16.33-11.57,16.33-11.57,10.46,11.19,5.87-7.71,11.48-10,12.09-5,20.08-33.92,24.84-46.12,1.21-3.07-8.5,2.75-11.67,3.68,0,0-6.31,7.7-9.24,4C197.73,250.87,179.44,259.73,178.15,260.28Z"/><path class="cls-10" d="M135.76,265.59c16.7.19-34.13-8.8-47.71-22-8.75-8.5-50.1-.53-49,4.61,1.22,5.67,37.26,12,19.76,36-12.22,16.7,33.93-6.81,37-4.59,3.67,2.69-.22,11.7,9.91,16.14,12.72,5.59,8.45,14.31,14.69,18.34,2,1.29,10.7-7.78,13.57-16.88C138.56,282.52,124,265.45,135.76,265.59Z"/><path class="cls-22" d="M124,266.23c10.5.11-21.44-5.53-30-13.84-5.49-5.33-31.47-.33-30.78,2.89.77,3.58,23.41,7.56,12.41,22.59C68,288.37,97,273.59,98.85,275c2.31,1.69-.14,7.35,6.23,10.14,8,3.51,5.3,9,9.22,11.53,1.25.81,6.73-4.89,8.53-10.61C125.71,276.86,116.57,266.14,124,266.23Z"/><path class="cls-22" d="M198.34,230.53a4.07,4.07,0,0,1-.9-.47c-1.68-1.17-8.46-5.56-14.85-5.29-11.73.48-13.26-33.57-37.42-15-2,1.53,3.7,9.23-9.25,11.72-8.54,1.65-16.38-4.08-20.43-.32-19.49,18.1,25.67,28.72,46.62,24.08,0,0,4.38,3.13,9.15-2,.19-.19,9-1.73,10.3-3.89,3.89-6.18,12.13-1.4,12.13-1.4a21.37,21.37,0,0,0,4.95-1.9l4.86-.78c2.61-1.7.94-2.39-2-3.53Z"/><path class="cls-22" d="M180.47,267.72c-4.47,1.91-15.33,4-15.33,4-21.68,1.46,1.6,18.26.09,19.47-13.79,11.06,5.9,15.18,9.84,14.83,5.78-.5,11.18-7.92,11.18-7.92,7.17,7.67,4-5.28,7.87-6.87,8.28-3.45,13.74-23.23,17-31.59.82-2.1-5.83,1.89-8,2.52,0,0-4.31,5.28-6.33,2.76C193.87,261.28,181.35,267.34,180.47,267.72Z"/></symbol><symbol id="banana" data-name="banana" viewBox="0 0 310.92 229.37"><path class="cls-9" d="M280,176.72l-3.44,1.22c-2.78,1,1.33,6.82,2.49,10.1,0,0,5.4,10.85,7,15,2.78,7.22,8,17,8,17,1.16,3.28,3.88,9.45,6.66,8.47l6.29-2.24c2.77-1,3.62-3.22,2.46-6.5,0,0-14.46-18.73-17.46-26.73-1.59-4.24-3.94-13.56-3.94-13.56C287,176.2,282.79,175.74,280,176.72Z"/><path class="cls-10" d="M286,119c-5.24-8.39-48-51-55-58-6-6-59-36-68-40C150.1,15.29,121,5,101,2,84.11-.5,62,0,46,1,36.16,1.65,6.56,9.3,2.57,18.35,1.07,21.74-.37,34.63,2,40,6,49,18.1,56.79,27,61c12,5.72,75.53,14.35,88,19,29.71,11.08,52.92,27.51,80,44,34.88,21.24,27.06,62.7,66,75,19.22,6.07,13,3,32-8,8.56-5,11.34-15.76,11-24C303,143,291,127,286,119Z"/><ellipse class="cls-11" cx="304.02" cy="224.55" rx="7.39" ry="4.02" transform="translate(-66.71 151.01) rotate(-25.23)"/><path class="cls-12" d="M303,166.83c-1-24-13-40-18-48-5.24-8.39-48-51-55-58-6-6-59-36-68-40-12.93-5.75-42-16-62-19-16.93-2.54-39-2-55-1C35.16,1.45,5.56,9.09,1.57,18.14a11,11,0,0,0-.4,1.23c10.7-5.32,27.05-9.13,33.9-9.56,16-1,38.07-1.54,55,1,20,3,49.07,13.25,62,19,9,4,62,34,68,40,7,7,49.76,49.61,55,58,5,8,17,24,18,48a31.55,31.55,0,0,1-3.85,16.7c.88-.54,1.83-1.11,2.85-1.7C300.62,185.87,303.41,175.07,303,166.83Z"/><path class="cls-11" d="M0,33c.36,6.87,2.56,7.15,6.6,6.43,3.36-.59,5.8-16.17,6-20.17C13,12.43,14.3,9.3,9.29,11c-.79.26-5.67,3.57-6.69,5C.72,18.68-.17,28.55,0,33Z"/></symbol></defs><rect class="cls-23" width="1920" height="1080"/><path class="cls-24" d="M1904.59,417.5c0-6.41-.1-10.06,1.06-10.06s1,3.65,1,10.06-1.58,7.83-2.74,7.83S1904.59,423.91,1904.59,417.5Z"/><circle class="cls-10" cx="131.33" cy="284.73" r="59.68"/><path class="cls-25" d="M1951.92,462.54H1661.05a8.65,8.65,0,0,0-8.65,8.65v101.7a8.65,8.65,0,0,0,8.65,8.65H1716a8.64,8.64,0,0,1,8.64,8.64v59a8.64,8.64,0,0,0,8.65,8.64H1779a8.65,8.65,0,0,1,8.65,8.65v77.29a8.64,8.64,0,0,0,8.64,8.65H1894a8.64,8.64,0,0,0,8.64-8.65V666.46a8.65,8.65,0,0,1,8.65-8.65h23.39a8.64,8.64,0,0,0,8.64-8.64v-59a8.64,8.64,0,0,1,8.65-8.64h0a8.64,8.64,0,0,0,8.64-8.65V471.19A8.64,8.64,0,0,0,1951.92,462.54Z"/><path class="cls-25" d="M1978.5,443.58H1629.89a4.39,4.39,0,0,0-4.38,4.38v29.16a4.38,4.38,0,0,0,4.38,4.38h13.91a4.39,4.39,0,0,1,4.38,4.38v36.39a4.39,4.39,0,0,0,4.38,4.38h8.13a4.39,4.39,0,0,0,4.38-4.38v-19.9a4.39,4.39,0,0,1,4.38-4.38h7.73a4.38,4.38,0,0,0,4.38-4.38v-7.73a4.39,4.39,0,0,1,4.38-4.38h74.22a4.39,4.39,0,0,1,4.38,4.38v23.31a4.39,4.39,0,0,0,4.38,4.38h3.91a4.38,4.38,0,0,1,4.38,4.38h0a4.38,4.38,0,0,0,4.38,4.38h3.91a4.38,4.38,0,0,0,4.38-4.38V507.76a4.38,4.38,0,0,1,4.38-4.38h17.54a4.38,4.38,0,0,0,4.38-4.38V485.88a4.39,4.39,0,0,1,4.38-4.38h129.29a4.39,4.39,0,0,1,4.38,4.38v33.49a4.38,4.38,0,0,0,4.38,4.38h3.91a4.39,4.39,0,0,0,4.38-4.38V485.88a4.39,4.39,0,0,1,4.38-4.38h7.22a4.38,4.38,0,0,0,4.38-4.38V448A4.39,4.39,0,0,0,1978.5,443.58Z"/><path class="cls-25" d="M191.77,849.65H138.54a6.42,6.42,0,0,0-6.42,6.43V882a6.41,6.41,0,0,0,6.42,6.42h6.12v17.16a6.42,6.42,0,0,0,6.42,6.42h21.44a6.42,6.42,0,0,0,6.42-6.42V888.38h12.83a6.42,6.42,0,0,0,6.42-6.42V856.08A6.43,6.43,0,0,0,191.77,849.65Z"/><path class="cls-25" d="M190.82,849.64H145.4a5.1,5.1,0,0,0-5.1,5.11v22.4a5.1,5.1,0,0,0,5.1,5.11h5.45V897a5.11,5.11,0,0,0,5.11,5.11h18.65a5.11,5.11,0,0,0,5.11-5.11V882.26h11.1a5.11,5.11,0,0,0,5.11-5.11v-22.4A5.11,5.11,0,0,0,190.82,849.64Z"/><path class="cls-25" d="M203.09,841.81H127.22a.53.53,0,0,0-.53.53v13.17a.52.52,0,0,0,.53.52h5.39a.52.52,0,0,1,.52.53v14.5a.52.52,0,0,0,.53.52H138a.52.52,0,0,0,.53-.52v-14.5A.52.52,0,0,1,139,856h0a.53.53,0,0,1,.53.53v3.13a.53.53,0,0,0,.53.53h2.38a.52.52,0,0,0,.52-.53v-3.13a.53.53,0,0,1,.53-.53H175a.52.52,0,0,1,.52.53v4.58a.52.52,0,0,0,.53.52H181a.52.52,0,0,0,.53-.52v-4.58A.52.52,0,0,1,182,856h3.7a.53.53,0,0,1,.53.53v3.13a.53.53,0,0,0,.53.53h1.84a.52.52,0,0,0,.52-.53v-3.13a.53.53,0,0,1,.53-.53h13.42a.52.52,0,0,0,.53-.52V842.34A.53.53,0,0,0,203.09,841.81Z"/><path class="cls-26" d="M1883.61,326.64H1397.78a14.44,14.44,0,0,0-14.44,14.44V511a14.43,14.43,0,0,0,14.44,14.44h91.73A14.45,14.45,0,0,1,1504,539.83v98.53a14.44,14.44,0,0,0,14.44,14.44h76.44a14.44,14.44,0,0,1,14.44,14.44v129.1a14.44,14.44,0,0,0,14.44,14.44h163.07a14.44,14.44,0,0,0,14.44-14.44V667.24a14.44,14.44,0,0,1,14.44-14.44h39.07a14.44,14.44,0,0,0,14.44-14.44V539.83a14.45,14.45,0,0,1,14.44-14.44h0A14.44,14.44,0,0,0,1898.05,511V341.08A14.45,14.45,0,0,0,1883.61,326.64Z"/><path class="cls-27" d="M1860,332.64H1456.15a13.27,13.27,0,0,0-13.27,13.27V503.28a13.27,13.27,0,0,0,13.27,13.27h98.6A13.28,13.28,0,0,1,1568,529.83V647.38a13.27,13.27,0,0,0,13.27,13.27h47.4A13.27,13.27,0,0,1,1642,673.92v79.64a13.28,13.28,0,0,0,13.28,13.27h106.17a13.27,13.27,0,0,0,13.27-13.27V673.92A13.28,13.28,0,0,1,1788,660.65h45.5a13.27,13.27,0,0,0,13.27-13.27V529.83A13.29,13.29,0,0,1,1860,516.55h0a13.27,13.27,0,0,0,13.27-13.27V345.91A13.27,13.27,0,0,0,1860,332.64Z"/><path class="cls-28" d="M1928,295H1345.74a7.32,7.32,0,0,0-7.32,7.32V351a7.32,7.32,0,0,0,7.32,7.32H1369a7.31,7.31,0,0,1,7.31,7.32v60.76a7.32,7.32,0,0,0,7.32,7.32h13.58a7.32,7.32,0,0,0,7.32-7.32V393.17a7.31,7.31,0,0,1,7.31-7.32h12.91a7.31,7.31,0,0,0,7.31-7.31V365.63a7.32,7.32,0,0,1,7.32-7.32h124a7.32,7.32,0,0,1,7.32,7.32v38.92a7.31,7.31,0,0,0,7.31,7.31h6.53a7.32,7.32,0,0,1,7.32,7.32h0a7.31,7.31,0,0,0,7.31,7.31h6.53a7.31,7.31,0,0,0,7.32-7.31v-17a7.31,7.31,0,0,1,7.31-7.31h29.3a7.31,7.31,0,0,0,7.31-7.32v-21.9a7.32,7.32,0,0,1,7.32-7.32h215.94a7.32,7.32,0,0,1,7.32,7.32v55.93a7.32,7.32,0,0,0,7.32,7.32h6.52a7.32,7.32,0,0,0,7.32-7.32V365.63a7.32,7.32,0,0,1,7.32-7.32H1928a7.31,7.31,0,0,0,7.31-7.32v-48.7A7.31,7.31,0,0,0,1928,295Z"/><path class="cls-26" d="M332.32,783.5H180.52a18.33,18.33,0,0,0-18.33,18.32v73.82A18.33,18.33,0,0,0,180.52,894H198v48.92a18.33,18.33,0,0,0,18.32,18.33h61.15a18.33,18.33,0,0,0,18.32-18.33V894h36.57a18.32,18.32,0,0,0,18.32-18.32V801.82A18.32,18.32,0,0,0,332.32,783.5Z"/><path class="cls-27" d="M329.63,783.47H200.09A14.57,14.57,0,0,0,185.52,798v63.88a14.56,14.56,0,0,0,14.57,14.56h15.55v42A14.56,14.56,0,0,0,230.2,933.1h53.2A14.57,14.57,0,0,0,298,918.53v-42h31.66a14.56,14.56,0,0,0,14.56-14.56V798A14.56,14.56,0,0,0,329.63,783.47Z"/><path class="cls-29" d="M364.62,761.13H148.21a1.5,1.5,0,0,0-1.5,1.5V800.2a1.5,1.5,0,0,0,1.5,1.49H163.6a1.51,1.51,0,0,1,1.5,1.5v41.36a1.5,1.5,0,0,0,1.49,1.5h12.33a1.5,1.5,0,0,0,1.5-1.5V803.19a1.5,1.5,0,0,1,1.5-1.5h0a1.5,1.5,0,0,1,1.5,1.5v8.94a1.5,1.5,0,0,0,1.5,1.5h6.79a1.5,1.5,0,0,0,1.5-1.5v-8.94a1.5,1.5,0,0,1,1.5-1.5h89.73a1.5,1.5,0,0,1,1.5,1.5v13.07a1.5,1.5,0,0,0,1.5,1.5h14.09a1.5,1.5,0,0,0,1.5-1.5V803.19a1.5,1.5,0,0,1,1.5-1.5h10.56a1.5,1.5,0,0,1,1.5,1.5v8.94a1.5,1.5,0,0,0,1.5,1.5h5.25a1.5,1.5,0,0,0,1.5-1.5v-8.94a1.5,1.5,0,0,1,1.5-1.5h38.28a1.5,1.5,0,0,0,1.5-1.49V762.63A1.5,1.5,0,0,0,364.62,761.13Z"/><path class="cls-30" d="M282.56,870.93a57,57,0,0,1-.31,6H261.59a57,57,0,0,1-.31-6c0-13.74,4.76-24.88,10.64-24.88S282.56,857.19,282.56,870.93Z"/><path class="cls-30" d="M1809.74,588.75a68.46,68.46,0,0,1-.37,7.14h-24.7a68.46,68.46,0,0,1-.37-7.14c0-16.45,5.7-29.79,12.72-29.79S1809.74,572.3,1809.74,588.75Z"/><path class="cls-30" d="M1503.59,465.78a104.54,104.54,0,0,1-.54,10.65h-36.89a101.69,101.69,0,0,1-.55-10.65c0-24.57,8.5-44.49,19-44.49S1503.59,441.21,1503.59,465.78Z"/><path class="cls-31" d="M1376.39,267.07c17.5,4.6,21.22,7.45,24.06,5.39,5.57-4-4.28-18.32,2.76-27.52,4.56-6,14.93-8.14,19.23-4.58,5.32,4.39-1.9,14.83,4.76,25.45,2.56,4.09,7.53,8.78,11.33,7.77,5.81-1.55,4.41-15.28,9.48-16.26,2.18-.43,5.75,3.74,12.8,12.09,6,7.1,6.59,8.68,6.85,10.25,1.14,6.9-4.66,13.06-6.16,14.65-2.75,2.94-10.16,9.45-38.6,10.18-22.46.58-33.69.86-43.61-6-14.34-9.94-21.24-29.29-17.1-33.36C1362.87,264.44,1364.18,263.87,1376.39,267.07Z"/><path class="cls-31" d="M263.5,735.07c17.5,4.59,21.22,7.45,24.06,5.38,5.58-4-4.28-18.31,2.76-27.52,4.56-6,14.93-8.14,19.24-4.58,5.31,4.4-1.9,14.84,4.75,25.46,2.57,4.09,7.54,8.77,11.33,7.76,5.82-1.55,4.41-15.27,9.48-16.26,2.19-.43,5.76,3.74,12.8,12.1,6,7.09,6.6,8.67,6.86,10.25,1.13,6.89-4.66,13.06-6.16,14.65-2.75,2.93-10.16,9.45-38.61,10.18-22.46.57-33.69.86-43.61-6-14.33-9.93-21.24-29.28-17.1-33.36C250,732.44,251.3,731.87,263.5,735.07Z"/><path class="cls-32" d="M1859.75,287c-7.54-9-10.81-10.49-10.83-14.43,0-4.21,3.68-8.77,7.22-9,4.75-.35,7.37,7.18,9.93,6.32s3.75-9.16,0-14.44c-4.61-6.47-14.08-4.58-14.44-7.22-.5-3.58,16.11-13.1,25.26-7.21,5.81,3.73,6.95,12.57,8.12,21.65a43.78,43.78,0,0,1,.53,9.78c-.33,4.35-1.29,7-.53,7.36,1.43.72,4.82-8.48,10.83-9,4.05-.36,8.25,3.31,9.93,7.22,2.37,5.53-.52,11-.91,11.73-6.18,11.32-28.86,14-38.79,5.41C1864.07,293.42,1865.05,293.37,1859.75,287Z"/><path class="cls-32" d="M1389.81,287.24c-4.31-6.25-4.58-6.45-5.41-8.12a34.83,34.83,0,0,1-3.61-18.05c.74-9,5.54-19.31,9-18.94,3.71.38,8,13.16,7.4,23.33a14.41,14.41,0,0,0,.72,6.44c1.85,4.86,7.06,9.22,9.93,8.12,4.14-1.58-.31-13.1,5.41-17.14,4-2.84,12.07-1.31,15.34,3.61a11.32,11.32,0,0,1,1.58,8.37c-.5,2.17-1.4,2.42-1.58,4.26-.41,4.16,3.64,8.64,5.41,8.1s.15-5,2.76-6.9c2.32-1.71,6.83-.68,9.21,1.84,3.28,3.48,2.38,9.66,0,13.34-1.08,1.68-3.6,4.59-17.49,6.91-15.32,2.56-23,3.84-28.53-.46C1398.53,300.83,1399.27,301,1389.81,287.24Z"/><path class="cls-26" d="M1447,871.75H1332.7a6.48,6.48,0,0,0-6.48,6.48v62.51a6.49,6.49,0,0,0,6.48,6.49h30.65a6.49,6.49,0,0,1,6.49,6.48v21.35a6.49,6.49,0,0,0,6.48,6.49H1434a6.49,6.49,0,0,0,6.48-6.49V953.71a6.48,6.48,0,0,1,6.49-6.48h0a6.49,6.49,0,0,0,6.48-6.49V878.23A6.48,6.48,0,0,0,1447,871.75Z"/><path class="cls-33" d="M1434.41,871.75h-89.12a5.06,5.06,0,0,0-5.06,5.06v48.74a5.06,5.06,0,0,0,5.06,5.05h23.9a5.06,5.06,0,0,1,5,5.06v16.65a5.06,5.06,0,0,0,5.06,5.05h45a5,5,0,0,0,5-5.05V935.66a5.07,5.07,0,0,1,5.06-5.06h0a5.06,5.06,0,0,0,5.06-5.05V876.81A5.06,5.06,0,0,0,1434.41,871.75Z"/><path class="cls-29" d="M1461.46,854.85H1321.71a3.93,3.93,0,0,0-3.93,3.92v27.55a3.92,3.92,0,0,0,3.93,3.92h5.65a3.93,3.93,0,0,1,3.92,3.93v23.18a3.93,3.93,0,0,0,3.92,3.92h10.07a3.93,3.93,0,0,0,3.92-3.92V909.8a3.93,3.93,0,0,1,3.92-3.93h0A3.92,3.92,0,0,0,1357,902v-7.78a3.92,3.92,0,0,1,3.92-3.93h67.75a3.93,3.93,0,0,1,3.92,3.93v14.12a3.92,3.92,0,0,0,3.92,3.92h5.83a3.91,3.91,0,0,0,3.92-3.92V894.17a3.93,3.93,0,0,1,3.92-3.93h11.24a3.92,3.92,0,0,0,3.92-3.92V858.77A3.93,3.93,0,0,0,1461.46,854.85Z"/><path class="cls-30" d="M1404.3,938a68.26,68.26,0,0,1-.37,7.13h-24.7a68.26,68.26,0,0,1-.37-7.13c0-16.46,5.7-29.8,12.72-29.8S1404.3,921.52,1404.3,938Z"/><path class="cls-31" d="M1402.89,846.36c-4.3-6.24-4.58-6.45-5.41-8.12a34.81,34.81,0,0,1-3.61-18c.74-9,5.54-19.32,9-19,3.72.39,8,13.17,7.41,23.33A14.21,14.21,0,0,0,1411,831c1.85,4.86,7.06,9.22,9.93,8.13,4.14-1.59-.31-13.1,5.41-17.15,4-2.84,12.07-1.31,15.34,3.61a11.24,11.24,0,0,1,1.58,8.37c-.49,2.17-1.4,2.43-1.58,4.26-.41,4.16,3.64,8.64,5.42,8.11s.14-5,2.76-6.91c2.31-1.71,6.82-.68,9.2,1.84,3.29,3.48,2.38,9.67,0,13.35-1.08,1.67-3.6,4.58-17.49,6.9-15.32,2.56-23,3.84-28.53-.46C1411.61,860,1412.35,860.08,1402.89,846.36Z"/><path class="cls-32" d="M1404.59,849.92c-7.53-9-10.81-10.49-10.83-14.43,0-4.21,3.68-8.77,7.22-9,4.76-.34,7.37,7.18,9.93,6.32s3.75-9.16,0-14.44c-4.61-6.47-14.07-4.57-14.44-7.21-.5-3.59,16.11-13.11,25.27-7.22,5.8,3.73,6.94,12.58,8.12,21.65a43.81,43.81,0,0,1,.52,9.78c-.32,4.35-1.29,7-.52,7.37,1.42.71,4.81-8.49,10.82-9,4.06-.36,8.25,3.32,9.93,7.22,2.37,5.53-.52,11-.9,11.73-6.19,11.32-28.86,14-38.8,5.41C1408.92,856.33,1409.89,856.28,1404.59,849.92Z"/><path class="cls-32" d="M303.7,764.37c-7.54-9-10.81-10.5-10.83-14.44,0-4.21,3.68-8.76,7.22-9,4.75-.35,7.37,7.18,9.92,6.31s3.76-9.15,0-14.43c-4.6-6.48-14.07-4.58-14.43-7.22-.5-3.59,16.11-13.1,25.26-7.22,5.81,3.73,7,12.58,8.12,21.66a43.75,43.75,0,0,1,.53,9.78c-.33,4.35-1.29,7-.53,7.36,1.43.72,4.82-8.49,10.83-9,4-.37,8.25,3.31,9.92,7.21,2.38,5.53-.51,11-.9,11.73-6.18,11.33-28.86,14-38.8,5.42C308,770.77,309,770.73,303.7,764.37Z"/><path class="cls-34" d="M1550.24,265.34a134.88,134.88,0,0,0,4.49,34.84h69.64V163.85C1583.42,163.86,1550.24,209.29,1550.24,265.34Z"/><path class="cls-35" d="M1624.37,163.85V300.18H1694a134.88,134.88,0,0,0,4.49-34.84C1698.49,209.29,1665.31,163.86,1624.37,163.85Z"/><path class="cls-30" d="M1637.08,281a68.65,68.65,0,0,1-.36,7.14H1612c-.23-2.29-.36-4.68-.36-7.14,0-16.46,5.69-29.79,12.72-29.79S1637.08,264.52,1637.08,281Z"/><rect class="cls-36" x="1620.62" y="286.81" width="7.49" height="16.91" rx="3.01"/><rect class="cls-36" x="1628.74" y="256.34" width="7.31" height="97" rx="2.45" transform="translate(1327.56 1937.23) rotate(-90)"/><rect class="cls-36" x="1662.71" y="301.18" width="18.19" height="162.29" rx="2.45" transform="translate(3343.6 764.65) rotate(180)"/><path class="cls-30" d="M1556.14,642.66a68.41,68.41,0,0,1-.37,7.13h-24.71a71.32,71.32,0,0,1-.36-7.13c0-16.46,5.69-29.8,12.72-29.8S1556.14,626.2,1556.14,642.66Z"/><path class="cls-26" d="M1771.64,480.37H1657.35a6.48,6.48,0,0,0-6.49,6.48v62.51a6.49,6.49,0,0,0,6.49,6.49H1688a6.49,6.49,0,0,1,6.49,6.48v21.35a6.48,6.48,0,0,0,6.48,6.48h57.71a6.48,6.48,0,0,0,6.48-6.48V562.33a6.49,6.49,0,0,1,6.49-6.48h0a6.49,6.49,0,0,0,6.48-6.49V486.85A6.48,6.48,0,0,0,1771.64,480.37Z"/><path class="cls-33" d="M1759.05,480.37h-89.12a5.05,5.05,0,0,0-5,5.06v48.74a5,5,0,0,0,5,5.05h23.9a5.07,5.07,0,0,1,5.06,5.06v16.65a5,5,0,0,0,5,5.05h45a5.06,5.06,0,0,0,5.06-5.05V544.28a5.06,5.06,0,0,1,5-5.06h0a5.06,5.06,0,0,0,5.06-5.05V485.43A5.06,5.06,0,0,0,1759.05,480.37Z"/><path class="cls-29" d="M1790,467.39v27.55a3.92,3.92,0,0,1-3.92,3.92h-11.23a3.93,3.93,0,0,0-3.93,3.92v14.13a3.91,3.91,0,0,1-3.92,3.92h-5.83a3.92,3.92,0,0,1-3.92-3.92V502.78a3.93,3.93,0,0,0-3.92-3.92H1685.6a3.92,3.92,0,0,0-3.92,3.92v7.79a3.93,3.93,0,0,1-3.93,3.92,3.93,3.93,0,0,0-3.92,3.93V526a3.93,3.93,0,0,1-3.92,3.93h-10.07a3.93,3.93,0,0,1-3.92-3.93V502.78a3.93,3.93,0,0,0-3.92-3.92h-5.65a3.93,3.93,0,0,1-3.84-3.09,3.7,3.7,0,0,1-.09-.83V467.39a3.84,3.84,0,0,1,.09-.83,3.94,3.94,0,0,1,3.84-3.09H1786.1A3.93,3.93,0,0,1,1790,467.39Z"/><path class="cls-36" d="M1707.13,461.7a2.6,2.6,0,0,1-.7,1.77,2.57,2.57,0,0,1-1.89.82h-64.33a2.59,2.59,0,0,1-.14-5.18h64.47A2.59,2.59,0,0,1,1707.13,461.7Z"/><path class="cls-36" d="M1630.34,303.63v872.06h-46.45V303.63a2.45,2.45,0,0,1,2.45-2.45h41.55A2.45,2.45,0,0,1,1630.34,303.63Z"/><path class="cls-31" d="M1727.53,455c-4.3-6.24-4.58-6.45-5.41-8.12a34.81,34.81,0,0,1-3.61-18c.74-9,5.54-19.32,9-18.95,3.72.39,8,13.17,7.41,23.33a14.24,14.24,0,0,0,.72,6.44c1.84,4.86,7,9.22,9.92,8.12,4.14-1.58-.31-13.09,5.41-17.14,4-2.84,12.07-1.31,15.34,3.61a11.24,11.24,0,0,1,1.58,8.37c-.49,2.17-1.4,2.43-1.58,4.26-.41,4.16,3.65,8.64,5.42,8.1s.14-5,2.76-6.9c2.31-1.71,6.82-.68,9.2,1.84,3.29,3.48,2.38,9.66,0,13.35-1.08,1.67-3.6,4.58-17.48,6.9-15.33,2.56-23,3.84-28.53-.46C1736.25,468.57,1737,468.7,1727.53,455Z"/><path class="cls-36" d="M1644,464.29a3.9,3.9,0,0,0-1.44,2.27v-2.27Z"/><path class="cls-36" d="M1642.51,461.7V526a2.6,2.6,0,0,1-5.19,0V461.7a2.6,2.6,0,0,1,2.6-2.6h.15A2.58,2.58,0,0,1,1642.51,461.7Z"/><path class="cls-36" d="M1642.51,531.64v630.3c0,5.07-.15,9.79-.41,13.75h-4.37c-.24-3.61-.38-7.85-.4-12.38,0-.49,0-.88,0-1.37V531.64c0-14,1.16-25.37,2.6-25.37.68,0,1.31,2.64,1.77,6.86A180.63,180.63,0,0,1,1642.51,531.64Z"/><path class="cls-37" d="M32.44,359.11c0,5.63,6,10.19,13.4,10.19h266c7.4,0,13.41-4.56,13.41-10.19V351c0-5.63-6-10.19-13.41-10.19h-1.2c-7.4,0-13.41-4.57-13.41-10.2v-7.79c0-5.63-6-10.19-13.4-10.19H241.46c-7.41,0-13.41-4.57-13.41-10.2v-7.5c0-5.63-6-10.19-13.41-10.19h-54c-7.4,0-13.4,4.56-13.4,10.19v7.5c0,5.63-6,10.2-13.41,10.2h0c-7.41,0-13.41,4.56-13.41,10.19v7.79c0,5.63-6,10.2-13.41,10.2H45.84c-7.4,0-13.4,4.56-13.4,10.19Z"/><path class="cls-38" d="M285.14,312.43c0-5.31-5.66-9.61-12.64-9.61H21.81c-7,0-12.63,4.3-12.63,9.61v7.65c0,5.31,5.65,9.61,12.63,9.61h1.13c7,0,12.64,4.3,12.64,9.61v7.34c0,5.3,5.66,9.61,12.64,9.61H88.13c7,0,12.64,4.3,12.64,9.6v7.08c0,5.3,5.65,9.61,12.63,9.61h50.89c7,0,12.64-4.31,12.64-9.61v-7.08c0-5.3,5.65-9.6,12.63-9.6h0c7,0,12.64-4.31,12.64-9.61V339.3c0-5.31,5.66-9.61,12.64-9.61H272.5c7,0,12.64-4.3,12.64-9.61Z"/><path class="cls-37" d="M1740.87,639.71c0,6.22,6.64,11.27,14.82,11.27h294c8.19,0,14.82-5.05,14.82-11.27v-9c0-6.22-6.63-11.27-14.82-11.27h-1.32c-8.19,0-14.82-5-14.82-11.27v-8.61c0-6.22-6.64-11.27-14.82-11.27h-46.81c-8.19,0-14.82-5-14.82-11.26v-8.3c0-6.22-6.64-11.27-14.82-11.27H1882.6c-8.19,0-14.82,5-14.82,11.27v8.3c0,6.22-6.64,11.26-14.82,11.26h0c-8.19,0-14.82,5-14.82,11.27v8.61c0,6.23-6.64,11.27-14.82,11.27h-67.63c-8.18,0-14.82,5-14.82,11.27Z"/><path class="cls-38" d="M2056.22,607.07h-85.34a14.83,14.83,0,0,0,3.22-9.24v-7.14a14.83,14.83,0,0,0-2-7.48h70.29a14.92,14.92,0,0,0,14.92-14.92v-7.14a14.92,14.92,0,0,0-14.92-14.92h-135a14.93,14.93,0,0,0-14.93,14.92v7.14a14.83,14.83,0,0,0,2,7.48h-70.29a14.92,14.92,0,0,0-14.92,14.92v7.14a14.92,14.92,0,0,0,14.92,14.92h85.35a14.82,14.82,0,0,0-3.23,9.25v7.13a15.81,15.81,0,0,0,.24,2.6h-31.18a14.92,14.92,0,0,0-14.92,14.92v7.14a14.92,14.92,0,0,0,14.92,14.92h135a14.92,14.92,0,0,0,14.92-14.92v-7.14a14.67,14.67,0,0,0-.24-2.59h31.19a14.92,14.92,0,0,0,14.92-14.93V622A14.92,14.92,0,0,0,2056.22,607.07Z"/><path class="cls-25" d="M308.27,568.38H231.2a3.15,3.15,0,0,0-3.15,3.15v39.55a3.15,3.15,0,0,0,3.15,3.15h18.08a3.15,3.15,0,0,1,3.15,3.15v17.08a3.15,3.15,0,0,0,3.15,3.15h0a3.15,3.15,0,0,1,3.14,3.15v9.47a3.15,3.15,0,0,0,3.15,3.15h15.72a3.15,3.15,0,0,0,3.15-3.15v-9.47a3.15,3.15,0,0,1,3.15-3.15h16.56a3.15,3.15,0,0,0,3.15-3.15V617.38a3.15,3.15,0,0,1,3.15-3.15h1.52a3.15,3.15,0,0,0,3.15-3.15V571.53A3.15,3.15,0,0,0,308.27,568.38Z"/><path class="cls-25" d="M299.6,579.32H240.4a2.35,2.35,0,0,0-2.42,2.27V610.1a2.34,2.34,0,0,0,2.42,2.27h13.89a2.35,2.35,0,0,1,2.41,2.27V627a2.35,2.35,0,0,0,2.42,2.27h0a2.35,2.35,0,0,1,2.42,2.27v6.83a2.36,2.36,0,0,0,2.42,2.27H276a2.35,2.35,0,0,0,2.41-2.27v-6.83a2.36,2.36,0,0,1,2.42-2.27h12.72A2.34,2.34,0,0,0,296,627V614.64a2.36,2.36,0,0,1,2.42-2.27h1.17A2.34,2.34,0,0,0,302,610.1V581.59A2.35,2.35,0,0,0,299.6,579.32Z"/><path class="cls-25" d="M286.17,618.11a32.1,32.1,0,0,1-.32,4.56H264a32.1,32.1,0,0,1-.32-4.56c0-10.51,5-19,11.26-19S286.17,607.6,286.17,618.11Z"/><path class="cls-25" d="M225.72,559.65a39.61,39.61,0,0,1-2.7-4,17.43,17.43,0,0,1-1.79-9c.37-4.48,2.76-9.63,4.49-9.45s4,6.57,3.69,11.63a7.08,7.08,0,0,0,.36,3.21c.92,2.42,3.52,4.6,4.95,4,2.06-.79-.16-6.53,2.69-8.55,2-1.41,6-.65,7.65,1.8a5.67,5.67,0,0,1,.79,4.18c-.25,1.08-.7,1.2-.79,2.12-.21,2.07,1.81,4.3,2.7,4s.07-2.48,1.37-3.44,3.4-.34,4.59.91c1.64,1.74,1.19,4.82,0,6.66-.54.83-1.79,2.28-8.71,3.44-7.64,1.27-11.46,1.91-14.22-.23C230.07,566.42,230.44,566.48,225.72,559.65Z"/><path class="cls-25" d="M315.87,561.74H224.13a5.54,5.54,0,0,0-5.54,5.54v8a5.54,5.54,0,0,0,5.54,5.54h.24v10.6a1.51,1.51,0,0,0,1.5,1.51h4.35a1.52,1.52,0,0,0,1.51-1.51V589a1.5,1.5,0,0,1,1.5-1.5h2.31a1.51,1.51,0,0,0,1.51-1.51v-5.25H281.2V595.4a1.5,1.5,0,0,0,1.5,1.5h7.36a1.51,1.51,0,0,0,1.51-1.5v-3.72a1.5,1.5,0,0,1,1.5-1.5,1.52,1.52,0,0,0,1.51-1.51v-7.89h21.29a5.54,5.54,0,0,0,5.54-5.54v-8A5.54,5.54,0,0,0,315.87,561.74Z"/><path class="cls-25" d="M205.72,478.82H51.07a6.32,6.32,0,0,0-6.32,6.32V564.5a6.32,6.32,0,0,0,6.32,6.32H87.35a6.31,6.31,0,0,1,6.31,6.32V611.4a6.32,6.32,0,0,0,6.32,6.32h0A6.32,6.32,0,0,1,106.3,624v19a6.32,6.32,0,0,0,6.32,6.32h31.54a6.32,6.32,0,0,0,6.32-6.32V624a6.32,6.32,0,0,1,6.32-6.32H190a6.32,6.32,0,0,0,6.32-6.32V577.14a6.32,6.32,0,0,1,6.32-6.32h3.05A6.32,6.32,0,0,0,212,564.5V485.14A6.32,6.32,0,0,0,205.72,478.82Z"/><path class="cls-25" d="M188.32,500.78H69.53a4.71,4.71,0,0,0-4.85,4.55v57.21a4.71,4.71,0,0,0,4.85,4.55H97.4a4.71,4.71,0,0,1,4.85,4.56v24.7a4.71,4.71,0,0,0,4.85,4.55h0a4.72,4.72,0,0,1,4.86,4.56v13.7a4.71,4.71,0,0,0,4.85,4.55H141a4.71,4.71,0,0,0,4.85-4.55v-13.7a4.71,4.71,0,0,1,4.85-4.56h25.53a4.71,4.71,0,0,0,4.85-4.55v-24.7a4.71,4.71,0,0,1,4.85-4.56h2.35a4.71,4.71,0,0,0,4.85-4.55V505.33A4.71,4.71,0,0,0,188.32,500.78Z"/><path class="cls-25" d="M161.37,578.61a63.17,63.17,0,0,1-.65,9.15H116.83a64.61,64.61,0,0,1-.65-9.15c0-21.09,10.12-38.18,22.6-38.18S161.37,557.52,161.37,578.61Z"/><path class="cls-25" d="M40.08,461.3c-4.3-6.25-4.58-6.45-5.41-8.12a34.83,34.83,0,0,1-3.61-18.05c.74-9,5.54-19.31,9-18.95,3.72.39,8,13.17,7.41,23.33A14.4,14.4,0,0,0,48.2,446c1.85,4.86,7.06,9.22,9.93,8.12,4.14-1.58-.31-13.1,5.41-17.14,4-2.84,12.07-1.31,15.34,3.61a11.22,11.22,0,0,1,1.58,8.37c-.49,2.17-1.4,2.42-1.58,4.26-.41,4.16,3.64,8.64,5.42,8.1s.14-5,2.76-6.9c2.31-1.71,6.82-.68,9.2,1.84,3.29,3.48,2.38,9.66,0,13.34-1.08,1.68-3.6,4.58-17.49,6.91-15.32,2.56-23,3.84-28.52-.46C48.8,474.89,49.54,475,40.08,461.3Z"/><path class="cls-25" d="M221,465.5H36.89a11.12,11.12,0,0,0-11.12,11.12v16a11.12,11.12,0,0,0,11.12,11.12h.48V525a3,3,0,0,0,3,3h8.72a3,3,0,0,0,3-3v-4.7a3,3,0,0,1,3-3h4.64a3,3,0,0,0,3-3V503.71H151.4V533a3,3,0,0,0,3,3h14.76a3,3,0,0,0,3-3v-7.45a3,3,0,0,1,3-3,3,3,0,0,0,3-3V503.71H221a11.12,11.12,0,0,0,11.12-11.12v-16A11.12,11.12,0,0,0,221,465.5Z"/><path class="cls-26" d="M282.7,504.9H128.06a6.32,6.32,0,0,0-6.32,6.32v79.36a6.32,6.32,0,0,0,6.32,6.32h36.27a6.32,6.32,0,0,1,6.32,6.32v34.27a6.32,6.32,0,0,0,6.32,6.32h0a6.32,6.32,0,0,1,6.32,6.32v19a6.32,6.32,0,0,0,6.32,6.32h31.54a6.32,6.32,0,0,0,6.32-6.32v-19a6.32,6.32,0,0,1,6.32-6.32H267a6.32,6.32,0,0,0,6.32-6.32V603.22a6.32,6.32,0,0,1,6.32-6.32h3a6.32,6.32,0,0,0,6.32-6.32V511.22A6.32,6.32,0,0,0,282.7,504.9Z"/><path class="cls-27" d="M265.3,526.86H146.52a4.72,4.72,0,0,0-4.86,4.56v57.2a4.72,4.72,0,0,0,4.86,4.56h27.86a4.71,4.71,0,0,1,4.86,4.55v24.7a4.71,4.71,0,0,0,4.85,4.56h0a4.71,4.71,0,0,1,4.85,4.55v13.7a4.71,4.71,0,0,0,4.86,4.55H218a4.71,4.71,0,0,0,4.86-4.55v-13.7a4.71,4.71,0,0,1,4.85-4.55h25.53a4.71,4.71,0,0,0,4.85-4.56v-24.7a4.7,4.7,0,0,1,4.85-4.55h2.34a4.72,4.72,0,0,0,4.86-4.56v-57.2A4.72,4.72,0,0,0,265.3,526.86Z"/><path class="cls-30" d="M238.36,604.7a64.47,64.47,0,0,1-.65,9.14H193.82a64.47,64.47,0,0,1-.65-9.14c0-21.09,10.11-38.19,22.6-38.19S238.36,583.61,238.36,604.7Z"/><path class="cls-32" d="M117.07,487.38c-4.31-6.24-4.58-6.45-5.41-8.12a34.81,34.81,0,0,1-3.61-18c.74-9,5.54-19.32,9-19,3.72.39,8,13.17,7.41,23.33a14.21,14.21,0,0,0,.71,6.44c1.85,4.86,7.06,9.22,9.93,8.12,4.14-1.58-.31-13.09,5.41-17.14,4-2.84,12.07-1.31,15.34,3.61a11.29,11.29,0,0,1,1.58,8.37c-.5,2.17-1.4,2.43-1.58,4.26-.41,4.16,3.64,8.64,5.41,8.11s.15-5,2.77-6.91c2.31-1.71,6.82-.68,9.2,1.84,3.28,3.48,2.38,9.66,0,13.35-1.08,1.67-3.6,4.58-17.49,6.9-15.32,2.56-23,3.84-28.53-.46C125.79,501,126.53,501.1,117.07,487.38Z"/><path class="cls-39" d="M297.94,491.59H113.88a11.12,11.12,0,0,0-11.12,11.12v16a11.12,11.12,0,0,0,11.12,11.12h.47v21.27a3,3,0,0,0,3,3h8.73a3,3,0,0,0,3-3v-4.69a3,3,0,0,1,3-3h4.64a3,3,0,0,0,3-3V529.79h88.58v29.32a3,3,0,0,0,3,3h14.77a3,3,0,0,0,3-3v-7.45a3,3,0,0,1,3-3,3,3,0,0,0,3-3V529.79h42.71a11.11,11.11,0,0,0,11.12-11.12v-16A11.12,11.12,0,0,0,297.94,491.59Z"/><path class="cls-40" d="M306,504.18c0,5.83.06,10.56-2.19,10.56s-1.88-4.73-1.88-10.56-5.63-9.11-3.38-9.11S306,498.35,306,504.18Z"/><path class="cls-40" d="M117.15,493.68c7.42,0,13.44,1.82,13.44,4.07s-6,0-13.44,0-11.6,5.63-11.6,3.38S109.73,493.68,117.15,493.68Z"/><path class="cls-40" d="M230.57,520c0-6.4-.1-10.06,1.06-10.06s1.05,3.66,1.05,10.06-1.59,7.83-2.75,7.83S230.57,526.41,230.57,520Z"/><path class="cls-40" d="M303.65,517.06c1.45.05,1.61-1,1.52,1.22s-.29,2.81-1.74,2.76-1.47-.66-1.38-2.91S302.21,517,303.65,517.06Z"/><path class="cls-24" d="M1342.27,307.09c0-2.24,4.18-7.44,11.6-7.44s13.44,1.82,13.44,4.06"/><path class="cls-24" d="M1764.45,288c.08-2.24.16-1.13,1.6-1.07s1.61-1,1.52,1.22"/><path class="cls-41" d="M1630.34,308.58v867.11h-17V308.58c0-1.35.4-2.45.89-2.45h15.18C1629.94,306.13,1630.34,307.23,1630.34,308.58Z"/><rect class="cls-41" x="1642.22" y="285.77" width="2.79" height="43.52" rx="1.14" transform="translate(1336.09 1951.15) rotate(-90)"/><rect class="cls-41" x="1662.76" y="306.13" width="5.24" height="155.14" rx="2.45" transform="translate(3330.75 767.41) rotate(180)"/><path class="cls-41" d="M1668,460.19a1.05,1.05,0,0,1-.3.74,1.14,1.14,0,0,1-.82.34h-27.93a1.11,1.11,0,0,1-1.13-1.08,1.09,1.09,0,0,1,.33-.77,1.14,1.14,0,0,1,.74-.32h28A1.11,1.11,0,0,1,1668,460.19Z"/><path class="cls-41" d="M1639.92,463.2V564.63c0,2.25-.58,4.08-1.3,4.08-.36,0-.68-.46-.92-1.2a10,10,0,0,1-.38-2.88V460.93c0-2.27.59-1.83,1.3-1.83a.12.12,0,0,1,.08,0C1639.38,459.23,1639.92,461,1639.92,463.2Z"/><path class="cls-41" d="M1639.92,559.87V661.29c0,2.26-.58,4.09-1.3,4.09-.36,0-.68-.46-.92-1.2a10.07,10.07,0,0,1-.38-2.89V557.6c0-2.27.59-1.83,1.3-1.83h.08C1639.38,555.89,1639.92,557.68,1639.92,559.87Z"/><path class="cls-41" d="M1475.55,734.43V835.86c0,2.25-.58,4.08-1.3,4.08-.36,0-.68-.46-.92-1.2a10,10,0,0,1-.38-2.88V732.16c0-2.27.59-1.83,1.3-1.83a.12.12,0,0,1,.08,0C1475,730.46,1475.55,732.24,1475.55,734.43Z"/><path class="cls-41" d="M1475.55,838.39V939.81c0,2.26-.58,4.09-1.3,4.09-.36,0-.68-.46-.92-1.2a10.07,10.07,0,0,1-.38-2.89V836.12c0-2.27.59-1.83,1.3-1.83h.08C1475,834.41,1475.55,836.2,1475.55,838.39Z"/><use width="442.44" height="425.56" transform="matrix(0.27, -0.04, -0.04, -0.28, 510.41, 387.86)" xlink:href="#an_apple"/><path class="cls-42" d="M833.64,139.28A68.73,68.73,0,1,0,902.36,208,68.72,68.72,0,0,0,833.64,139.28Zm-.21,36.32a32.2,32.2,0,1,1-32.2,32.2,32.2,32.2,0,0,1,32.2-32.2Z"/><path class="cls-43" d="M833.6,148.16a59.67,59.67,0,1,0,59.67,59.67A59.65,59.65,0,0,0,833.6,148.16Zm32,59.64a32.2,32.2,0,1,1-32.2-32.2A32.2,32.2,0,0,1,865.63,207.8Z"/><rect class="cls-44" x="829.03" y="155.02" width="4.26" height="11.01" rx="1.41" transform="translate(-7.34 44.3) rotate(-3.04)"/><rect class="cls-44" x="789.07" y="178.64" width="11.01" height="4.26" rx="1.41" transform="translate(455.66 921.82) rotate(-78.24)"/><rect class="cls-44" x="872.54" y="220.2" width="11.01" height="4.26" rx="1.41" transform="matrix(0.16, -0.99, 0.99, 0.16, 522.11, 1055.21)"/><rect class="cls-44" x="856.37" y="244.16" width="4.26" height="11.01" rx="1.41" transform="translate(74.91 680.18) rotate(-45)"/><rect class="cls-44" x="800.44" y="243.98" width="11.01" height="4.26" rx="1.41" transform="translate(44.27 606.62) rotate(-42.31)"/><rect class="cls-44" x="778.05" y="218.12" width="11.01" height="4.26" rx="1.41"/><rect class="cls-44" x="870.06" y="184.2" width="11.01" height="4.26" rx="1.41" transform="translate(0.3 374.07) rotate(-24.12)"/><rect class="cls-6" x="868.26" y="174.08" width="11.01" height="4.26" rx="1.41" transform="translate(523.17 995.72) rotate(-78.24)"/><rect class="cls-6" x="884.08" y="207.64" width="4.26" height="11.01" rx="1.41" transform="translate(128.66 720.02) rotate(-47.31)"/><rect class="cls-6" x="866.4" y="240.58" width="4.27" height="11.02" rx="1.41" transform="translate(10.91 527.86) rotate(-34.01)"/><rect class="cls-6" x="794.39" y="166.27" width="11.01" height="4.26" rx="1.41"/><rect class="cls-6" x="809.49" y="250.27" width="4.26" height="11.01" rx="1.41"/><rect class="cls-6" x="789.55" y="220.12" width="11.01" height="4.26" rx="1.41" transform="translate(367.31 928.32) rotate(-74.41)"/><rect class="cls-6" x="838.87" y="150.87" width="4.26" height="11.01" rx="1.41" transform="translate(34.48 441.45) rotate(-30)"/><rect class="cls-45" x="863.29" y="229.84" width="11.01" height="4.26" rx="1.41"/><rect class="cls-45" x="851.04" y="162.89" width="4.26" height="11.01" rx="1.41" transform="translate(-16.23 188.35) rotate(-12.48)"/><rect class="cls-45" x="812.86" y="162.72" width="11.01" height="4.26" rx="1.41" transform="translate(184.44 708.02) rotate(-51.98)"/><rect class="cls-45" x="783.91" y="187.76" width="4.26" height="11.01" rx="1.41" transform="translate(-18.5 282.32) rotate(-20.13)"/><rect class="cls-45" x="825.64" y="255.77" width="11.01" height="4.26" rx="1.41" transform="translate(192.23 848.75) rotate(-60)"/><rect class="cls-45" x="788" y="231.97" width="11.01" height="4.26" rx="1.41"/><rect class="cls-45" x="871.63" y="198.06" width="4.26" height="11.01" rx="1.41" transform="translate(90.58 641.19) rotate(-42.31)"/><rect class="cls-10" x="877.85" y="195.4" width="11.01" height="4.26" rx="1.41" transform="translate(-21.81 195.56) rotate(-12.48)"/><rect class="cls-10" x="838.96" y="162.9" width="4.26" height="11.01" rx="1.41" transform="translate(363.76 881.11) rotate(-67.51)"/><rect class="cls-10" x="857.61" y="174.8" width="11.01" height="4.26" rx="1.41" transform="translate(420.4 938.68) rotate(-71.42)"/><rect class="cls-10" x="802.56" y="172.66" width="11.01" height="4.26" rx="1.41" transform="translate(42.29 486.43) rotate(-34.35)"/><rect class="cls-10" x="786.93" y="206.04" width="11.01" height="4.26" rx="1.41" transform="translate(166.74 737.13) rotate(-54.93)"/><rect class="cls-10" x="817.48" y="247.6" width="11.01" height="4.26" rx="1.41"/><rect class="cls-10" x="842.16" y="245.65" width="4.26" height="11.01" rx="1.41" transform="translate(-28.92 366.95) rotate(-24.12)"/><path class="cls-46" d="M833.45,173.37a34.21,34.21,0,1,0,33.83,34.21A34,34,0,0,0,833.45,173.37Zm0,66.62a32.2,32.2,0,1,1,32.2-32.19A32.2,32.2,0,0,1,833.43,240Z"/><path class="cls-47" d="M1104.54,390.35c-1.33-4.28-9.29-28.11-10.38-30.94-2.55-6.67-6.31-3.66-9.75,2.16-4.72,8-6.71,10.54-14.74,19.15-4.19,4.49-12.42,15.49-10.64,22.3,1.47,5.59,14.32,8.81,19.21,10l5.82,1.34c12.15-9.77,12.51-9.56,13.41-8.3s2.59.53-8.67,9.49a108.26,108.26,0,0,1,10.69,3.6c13.91,5.37,12.37,5.73,7.92-17.77C1106.92,398.8,1105.69,394.42,1104.54,390.35Zm-21.86,5a2.93,2.93,0,1,1,1.94-3.46,2.81,2.81,0,0,1-1.94,3.46Z"/><path class="cls-47" d="M1173.54,368.62c.48,2,0,1.41-36.56,10s-36.71,10.79-37.19,8.76-.18-3.49,36.4-12.11S1173.06,366.59,1173.54,368.62Z"/><path class="cls-47" d="M1125.74,423.68c-1.85.48-1.3,0-11.5-39.65s-12.21-39.81-10.36-40.29,3.23-.14,13.42,39.5S1127.6,423.19,1125.74,423.68Z"/><path class="cls-47" d="M1139.06,411.92c-1.57.41-1.1,0-9.71-33.5s-10.33-33.63-8.76-34.05,2.72-.12,11.34,33.38S1140.63,411.51,1139.06,411.92Z"/><path class="cls-47" d="M1152.57,403c-1.32.34-.93,0-8.18-28.2s-8.69-28.32-7.37-28.66,2.29-.1,9.54,28.1S1153.89,402.65,1152.57,403Z"/><path class="cls-47" d="M1163.24,393.36c-1,.26-.71,0-6.26-21.57s-6.65-21.66-5.64-21.92,1.76-.08,7.3,21.49S1164.25,393.09,1163.24,393.36Z"/><path class="cls-47" d="M1189.12,382.5c-5.16.83-19.95-4.21-21-10.36s3.36-5.49,8.53-6.32,9.13-2.81,10.18,3.32S1194.29,381.68,1189.12,382.5Z"/><path class="cls-47" d="M1181.11,348.48c-5,1.56-16,12.65-14.19,18.61s5.46,3.39,10.45,1.83,9.43-1.56,7.64-7.51S1186.11,346.91,1181.11,348.48Z"/><path class="cls-13" d="M704.73,590.41c-12.65,24.58-32.92,58.49-60.18,53.94s-25-49.79-22.29-77.29c2.67-27,19.28-20.55,46.54-16C698.14,556,716.22,568.12,704.73,590.41Z"/><path class="cls-48" d="M668.33,582a16.38,16.38,0,0,1,.54-2.17c.2-.72.35-1.35,1-1.28s.64.71.67,1.48a18.44,18.44,0,0,1,0,2.23c-.21,1.75-.36,2.75-1.42,2.63S668.14,583.79,668.33,582Z"/><path class="cls-48" d="M653.69,604.56a16,16,0,0,1,.72-2.12c.27-.71.47-1.32,1.1-1.18s.58.75.53,1.52a16.62,16.62,0,0,1-.18,2.23c-.36,1.72-.6,2.7-1.65,2.49S653.33,606.28,653.69,604.56Z"/><path class="cls-48" d="M629.25,610.22a17.6,17.6,0,0,1,.65-2.14c.24-.71.43-1.33,1.06-1.22s.6.74.58,1.51a16.57,16.57,0,0,1-.11,2.23c-.3,1.74-.51,2.73-1.57,2.54S628.94,612,629.25,610.22Z"/><path class="cls-48" d="M646.24,613.12a15.46,15.46,0,0,1,.66-2.13c.24-.72.43-1.34,1.06-1.23s.6.74.58,1.51a18.67,18.67,0,0,1-.11,2.24c-.3,1.73-.52,2.72-1.57,2.53S645.94,614.85,646.24,613.12Z"/><path class="cls-48" d="M641.14,616.86a16.4,16.4,0,0,1,.64-2.14c.24-.72.41-1.33,1.05-1.23s.6.73.59,1.51a16.64,16.64,0,0,1-.09,2.23c-.29,1.73-.49,2.73-1.55,2.55S640.85,618.6,641.14,616.86Z"/><path class="cls-48" d="M638.2,609.65a17.6,17.6,0,0,1,.65-2.14c.25-.71.43-1.33,1.06-1.22s.6.74.58,1.51a16.66,16.66,0,0,1-.11,2.23c-.3,1.73-.51,2.72-1.57,2.54S637.89,611.38,638.2,609.65Z"/><path class="cls-48" d="M632.25,615.75a15.9,15.9,0,0,1,.66-2.13c.24-.72.43-1.33,1.06-1.22s.6.73.57,1.51a16.65,16.65,0,0,1-.1,2.23c-.29,1.73-.52,2.72-1.57,2.54S632,617.49,632.25,615.75Z"/><path class="cls-48" d="M638.62,625.59a16.92,16.92,0,0,1,.89-2.05c.32-.68.58-1.27,1.19-1.09s.51.8.41,1.56a18.2,18.2,0,0,1-.37,2.21c-.5,1.68-.82,2.65-1.85,2.34S638.12,627.28,638.62,625.59Z"/><path class="cls-48" d="M655.18,630.38a16.92,16.92,0,0,1,.89-2c.33-.68.58-1.27,1.19-1.09s.52.8.41,1.56a16.71,16.71,0,0,1-.37,2.21c-.5,1.69-.82,2.64-1.84,2.34S654.69,632.07,655.18,630.38Z"/><path class="cls-48" d="M649.69,633.53a15,15,0,0,1,.87-2.06c.32-.69.56-1.28,1.18-1.1s.52.79.42,1.56a18,18,0,0,1-.34,2.2c-.48,1.7-.8,2.66-1.83,2.37S649.21,635.22,649.69,633.53Z"/><path class="cls-48" d="M647.58,626a15.48,15.48,0,0,1,.89-2c.32-.68.57-1.27,1.19-1.09s.51.8.4,1.56a16.29,16.29,0,0,1-.37,2.2c-.49,1.69-.81,2.65-1.84,2.35S647.08,627.71,647.58,626Z"/><path class="cls-48" d="M641,631.42a16.78,16.78,0,0,1,.89-2c.32-.69.58-1.28,1.19-1.1s.52.8.41,1.57a16.29,16.29,0,0,1-.37,2.2c-.49,1.69-.82,2.65-1.84,2.35S640.48,633.11,641,631.42Z"/><path class="cls-48" d="M655.62,614.12a16.24,16.24,0,0,1,1.21-1.88c.43-.62.78-1.16,1.35-.88s.39.87.15,1.61a15.9,15.9,0,0,1-.72,2.11c-.76,1.59-1.24,2.48-2.2,2S654.85,615.7,655.62,614.12Z"/><path class="cls-48" d="M671.18,621.55a16.24,16.24,0,0,1,1.21-1.88c.43-.62.78-1.16,1.35-.88s.39.87.15,1.6a16,16,0,0,1-.72,2.12c-.76,1.59-1.24,2.48-2.2,2S670.41,623.13,671.18,621.55Z"/><path class="cls-48" d="M665.25,623.76a15.4,15.4,0,0,1,1.19-1.89c.42-.63.76-1.17,1.34-.9s.38.87.16,1.61a17.53,17.53,0,0,1-.7,2.12c-.75,1.59-1.2,2.49-2.18,2S664.49,625.35,665.25,623.76Z"/><path class="cls-48" d="M664.38,616a16.32,16.32,0,0,1,1.22-1.88c.43-.62.77-1.16,1.35-.88s.38.87.15,1.6a18.87,18.87,0,0,1-.72,2.12c-.77,1.59-1.24,2.48-2.2,2S663.62,617.59,664.38,616Z"/><path class="cls-48" d="M657,620.26a15.31,15.31,0,0,1,1.21-1.87c.43-.63.78-1.17,1.35-.89s.39.87.15,1.61a15.42,15.42,0,0,1-.72,2.11c-.76,1.59-1.24,2.48-2.2,2S656.23,621.85,657,620.26Z"/><path class="cls-48" d="M662.42,599.59a16.59,16.59,0,0,1,1.21-1.87c.43-.62.78-1.16,1.36-.89s.38.88.14,1.61a17.58,17.58,0,0,1-.71,2.12c-.77,1.58-1.24,2.48-2.21,2S661.65,601.18,662.42,599.59Z"/><path class="cls-48" d="M678,607a16.72,16.72,0,0,1,1.21-1.88c.43-.62.78-1.16,1.36-.89s.38.88.14,1.61A16.87,16.87,0,0,1,680,608c-.77,1.59-1.25,2.48-2.21,2S677.21,608.61,678,607Z"/><path class="cls-48" d="M672.05,609.23a14.93,14.93,0,0,1,1.2-1.88c.42-.63.76-1.18,1.34-.9s.38.87.16,1.61a17.53,17.53,0,0,1-.7,2.12c-.75,1.59-1.22,2.49-2.18,2S671.3,610.82,672.05,609.23Z"/><path class="cls-48" d="M671.19,601.49a15.43,15.43,0,0,1,1.21-1.88c.43-.62.78-1.16,1.35-.89s.38.88.15,1.61a15.42,15.42,0,0,1-.72,2.11c-.76,1.59-1.24,2.48-2.2,2S670.42,603.07,671.19,601.49Z"/><path class="cls-48" d="M663.8,605.74a15.5,15.5,0,0,1,1.22-1.88c.42-.62.77-1.16,1.35-.88s.38.87.14,1.6a16,16,0,0,1-.72,2.12c-.76,1.58-1.23,2.48-2.2,2S663,607.32,663.8,605.74Z"/><path class="cls-48" d="M630.52,595.89a16.4,16.4,0,0,1,.64-2.14c.24-.71.42-1.33,1.05-1.23s.6.74.59,1.51a18.4,18.4,0,0,1-.1,2.23c-.29,1.74-.49,2.73-1.55,2.55S630.22,597.63,630.52,595.89Z"/><path class="cls-48" d="M647.54,598.66a14.49,14.49,0,0,1,.64-2.13c.23-.72.41-1.34,1.05-1.23s.6.73.59,1.5a18.66,18.66,0,0,1-.1,2.24c-.29,1.73-.49,2.72-1.55,2.54S647.24,600.39,647.54,598.66Z"/><path class="cls-48" d="M642.46,602.45a17.62,17.62,0,0,1,.62-2.15c.23-.72.41-1.34,1-1.24s.61.73.6,1.5a16.77,16.77,0,0,1-.07,2.24c-.28,1.73-.47,2.73-1.53,2.56S642.18,604.19,642.46,602.45Z"/><path class="cls-48" d="M639.46,595.25a17.6,17.6,0,0,1,.65-2.14c.24-.71.42-1.33,1-1.23s.61.74.59,1.51a16.64,16.64,0,0,1-.09,2.23c-.29,1.74-.5,2.73-1.55,2.55S639.17,597,639.46,595.25Z"/><path class="cls-48" d="M633.56,601.4a18,18,0,0,1,.64-2.13c.24-.71.42-1.33,1-1.23s.61.74.59,1.51a15.14,15.14,0,0,1-.11,2.23c-.29,1.74-.49,2.72-1.55,2.55S633.27,603.14,633.56,601.4Z"/><path class="cls-48" d="M677.1,592.89a15.31,15.31,0,0,1,1.27-1.83c.45-.61.82-1.14,1.38-.84s.35.89.09,1.61a17,17,0,0,1-.78,2.1c-.82,1.55-1.33,2.43-2.28,1.93S676.28,594.45,677.1,592.89Z"/><path class="cls-48" d="M686.39,602.85a17.73,17.73,0,0,1,1.26-1.85c.45-.61.81-1.14,1.38-.85s.35.88.11,1.6a17,17,0,0,1-.77,2.1c-.81,1.56-1.3,2.45-2.26,2S685.59,604.42,686.39,602.85Z"/><path class="cls-48" d="M685.79,595.08a16.78,16.78,0,0,1,1.28-1.84c.45-.6.81-1.13,1.38-.84s.35.89.09,1.62a19.43,19.43,0,0,1-.78,2.09c-.83,1.56-1.33,2.43-2.28,1.94S685,596.63,685.79,595.08Z"/><path class="cls-48" d="M678.27,599.08a17.7,17.7,0,0,1,1.27-1.84c.45-.6.82-1.13,1.39-.84s.34.89.09,1.62a17.57,17.57,0,0,1-.79,2.09c-.82,1.56-1.32,2.44-2.27,1.94S677.45,600.64,678.27,599.08Z"/><path class="cls-48" d="M640.07,583.9a16.3,16.3,0,0,1,.43-2.19c.17-.74.29-1.37.93-1.32s.68.67.73,1.44a16.58,16.58,0,0,1,.12,2.23c-.12,1.75-.23,2.76-1.3,2.68S639.94,585.67,640.07,583.9Z"/><path class="cls-48" d="M635.38,588.16a16.25,16.25,0,0,1,.41-2.19c.16-.74.28-1.38.92-1.33s.68.66.74,1.44a16.6,16.6,0,0,1,.15,2.23c-.1,1.76-.19,2.77-1.27,2.69S635.27,589.92,635.38,588.16Z"/><path class="cls-48" d="M631.7,581.29a16.33,16.33,0,0,1,.44-2.19c.16-.74.29-1.37.92-1.33s.68.67.73,1.44a16.73,16.73,0,0,1,.12,2.24c-.12,1.75-.23,2.76-1.29,2.68S631.58,583,631.7,581.29Z"/><path class="cls-48" d="M626.42,588a18.58,18.58,0,0,1,.43-2.2c.17-.73.29-1.36.93-1.32s.68.68.73,1.44a16.67,16.67,0,0,1,.12,2.23c-.12,1.76-.23,2.77-1.3,2.69S626.3,589.73,626.42,588Z"/><path class="cls-48" d="M662,587.19a16.92,16.92,0,0,1,.89-2.05c.32-.69.57-1.28,1.19-1.1s.51.8.41,1.57a18.37,18.37,0,0,1-.37,2.2c-.5,1.69-.82,2.65-1.85,2.35S661.5,588.88,662,587.19Z"/><path class="cls-48" d="M656.51,590.34a17.91,17.91,0,0,1,.87-2.06c.32-.69.57-1.28,1.18-1.11s.52.8.42,1.56a16.36,16.36,0,0,1-.33,2.21c-.48,1.69-.8,2.66-1.83,2.37S656,592,656.51,590.34Z"/><path class="cls-48" d="M654.39,582.84a16.08,16.08,0,0,1,.89-2.05c.32-.68.57-1.27,1.18-1.09s.52.8.41,1.56a16.68,16.68,0,0,1-.36,2.21c-.5,1.68-.82,2.64-1.85,2.34S653.89,584.53,654.39,582.84Z"/><path class="cls-48" d="M647.8,588.26a17.06,17.06,0,0,1,.89-2.06c.32-.68.57-1.27,1.19-1.09s.52.8.41,1.56a18.53,18.53,0,0,1-.37,2.21c-.5,1.68-.81,2.65-1.84,2.34S647.31,590,647.8,588.26Z"/><path class="cls-48" d="M669.27,591.53a18.7,18.7,0,0,1,1.19-1.89c.42-.63.76-1.17,1.34-.9s.39.86.17,1.61a16.51,16.51,0,0,1-.69,2.13c-.74,1.59-1.21,2.49-2.18,2S668.53,593.13,669.27,591.53Z"/><path class="cls-48" d="M678.6,615a16.25,16.25,0,0,1,1.24-1.86c.43-.61.79-1.15,1.36-.86s.38.88.12,1.6a16,16,0,0,1-.74,2.11c-.79,1.57-1.27,2.46-2.23,2S677.81,616.53,678.6,615Z"/><path class="cls-48" d="M627.44,573.84a19.54,19.54,0,0,1,.87-2.06c.31-.69.56-1.28,1.18-1.12s.52.79.43,1.56a16.6,16.6,0,0,1-.33,2.21c-.47,1.69-.78,2.66-1.81,2.37S627,575.54,627.44,573.84Z"/><path class="cls-48" d="M692.9,592.68a17,17,0,0,1,.74-2.11c.27-.71.48-1.32,1.11-1.18s.57.76.52,1.53a18.47,18.47,0,0,1-.2,2.23c-.37,1.72-.62,2.7-1.67,2.47S692.53,594.4,692.9,592.68Z"/><path class="cls-48" d="M646.53,578.19a16.22,16.22,0,0,1,1-2c.36-.67.64-1.25,1.24-1s.48.82.33,1.58a16,16,0,0,1-.48,2.18c-.58,1.66-1,2.6-2,2.25S646,579.85,646.53,578.19Z"/><path class="cls-48" d="M683,587.9a14.82,14.82,0,0,1,.41-2.19c.16-.74.28-1.38.91-1.34s.68.67.75,1.45a18.42,18.42,0,0,1,.14,2.23c-.11,1.75-.2,2.76-1.28,2.69S682.92,589.65,683,587.9Z"/><path class="cls-48" d="M689.41,584.46a16.55,16.55,0,0,1,.31-2.21c.13-.75.22-1.38.86-1.37s.71.64.81,1.4a20.36,20.36,0,0,1,.24,2.22c0,1.76-.09,2.77-1.16,2.75S689.38,586.22,689.41,584.46Z"/><path class="cls-48" d="M638.23,573.4a15.54,15.54,0,0,1,1.16-1.92c.41-.63.74-1.19,1.32-.92s.41.86.19,1.61a17.6,17.6,0,0,1-.65,2.14c-.72,1.6-1.17,2.51-2.14,2.07S637.51,575,638.23,573.4Z"/><path class="cls-48" d="M675.56,585.2a16.44,16.44,0,0,1,.62-2.15c.23-.71.41-1.33,1-1.23s.61.73.6,1.5a16.63,16.63,0,0,1-.08,2.23c-.29,1.74-.47,2.73-1.53,2.56S675.28,586.94,675.56,585.2Z"/><path class="cls-48" d="M661.07,577.59a14.82,14.82,0,0,1,1-2c.37-.66.66-1.23,1.26-1s.46.84.29,1.59a16.45,16.45,0,0,1-.52,2.18c-.62,1.64-1,2.58-2,2.2S660.45,579.24,661.07,577.59Z"/><path class="cls-48" d="M653.77,574.38a14.79,14.79,0,0,1,.91-2c.33-.68.6-1.27,1.21-1.08s.5.8.38,1.57a18.4,18.4,0,0,1-.38,2.2c-.52,1.68-.86,2.63-1.88,2.32S653.24,576.08,653.77,574.38Z"/><path class="cls-48" d="M681.34,578a17.6,17.6,0,0,1,.47-2.18c.18-.74.31-1.37,1-1.31s.66.68.71,1.45a18.56,18.56,0,0,1,.08,2.24c-.16,1.75-.28,2.75-1.35,2.67S681.19,579.74,681.34,578Z"/><path class="cls-48" d="M646.26,568.76a16.78,16.78,0,0,1,1.31-1.82c.46-.6.83-1.12,1.4-.82s.33.89.06,1.62a17.61,17.61,0,0,1-.82,2.08c-.84,1.54-1.36,2.41-2.3,1.9S645.42,570.29,646.26,568.76Z"/><path class="cls-48" d="M635.35,566.56a16.58,16.58,0,0,1,1.3-1.81c.46-.6.83-1.13,1.4-.82s.33.88.06,1.61a17.61,17.61,0,0,1-.82,2.08c-.84,1.54-1.36,2.41-2.3,1.9S634.5,568.1,635.35,566.56Z"/><path class="cls-48" d="M673.8,575.16a16,16,0,0,1,.47-2.18c.18-.74.31-1.37,1-1.31s.66.68.71,1.45a18.47,18.47,0,0,1,.08,2.23c-.16,1.76-.28,2.76-1.35,2.67S673.64,576.91,673.8,575.16Z"/><path class="cls-48" d="M694.84,580.86a15.09,15.09,0,0,1,0-2.23c0-.76,0-1.4.65-1.47s.79.53,1,1.27a18.1,18.1,0,0,1,.54,2.17c.21,1.75.3,2.76-.76,2.88S695.05,582.61,694.84,580.86Z"/><path class="cls-48" d="M667.48,570.71a18.42,18.42,0,0,1,.47-2.18c.18-.73.32-1.37,1-1.31s.66.68.7,1.46a16.57,16.57,0,0,1,.08,2.23c-.15,1.75-.28,2.76-1.35,2.67S667.33,572.47,667.48,570.71Z"/><path class="cls-48" d="M660,567.94a16.15,16.15,0,0,1,1-2c.35-.66.63-1.24,1.24-1s.47.82.33,1.58a18.16,18.16,0,0,1-.47,2.19c-.58,1.66-1,2.6-2,2.25S659.43,569.61,660,567.94Z"/><path class="cls-48" d="M642.15,562.89a16.17,16.17,0,0,1,1-2c.35-.68.62-1.26,1.23-1s.49.82.35,1.58a18.45,18.45,0,0,1-.44,2.19c-.56,1.66-.92,2.61-1.94,2.27S641.59,564.56,642.15,562.89Z"/><path class="cls-48" d="M630.84,562a16.66,16.66,0,0,1,1.35-1.78c.48-.58.87-1.1,1.42-.77s.31.9,0,1.61a17,17,0,0,1-.87,2.06c-.89,1.52-1.43,2.37-2.35,1.83S630,563.55,630.84,562Z"/><path class="cls-48" d="M653.13,566a17.76,17.76,0,0,1,1-2c.35-.66.63-1.24,1.22-1s.48.82.33,1.58a16,16,0,0,1-.47,2.18c-.57,1.67-.94,2.61-2,2.26S652.55,567.64,653.13,566Z"/><path class="cls-49" d="M694.41,552.2c-1.4,4.64-4.55,6.3-11.8,9.09-5.22,2-9.23-.75-14.33-2.25-5.37-1.58-15.94-2.8-19.23-7.67-4.23-6.23-.34-16.55.94-20.89.91-3.08,4.29,3,9.29,6,2.62,1.58,1.32-8.87,8.93.65,2.62,3.27,3.51-7.56,8.33-6.14,4.6,1.36,6.56,8.9,9.65,11.46,2.22,1.82,5.61-1.44,9.47-1.18C700.79,541.67,695.23,549.45,694.41,552.2Z"/><path class="cls-50" d="M696.4,547.6a2.31,2.31,0,0,0-1.76-.75c-3.86-.25-7.25,3-9.47,1.18-3.09-2.56-5-10.1-9.65-11.46-4.82-1.42-5.72,9.41-8.33,6.14-7.61-9.53-6.31.93-8.92-.65-5-3-8.38-9.13-9.29-6-.46,1.53-1.24,3.82-1.87,6.41.34-4.72,2-9.46,2.81-12.06.91-3.08,4.27,3,9.29,6.06,2.61,1.57,1.31-8.88,8.93.65,2.6,3.26,3.51-7.57,8.33-6.14,4.59,1.35,6.55,8.9,9.64,11.45,2.22,1.83,5.62-1.44,9.47-1.17C698.82,541.42,697.8,544.6,696.4,547.6Z"/><g class="cls-51"><use width="374.08" height="496.43" transform="matrix(0.31, 0, 0, -0.31, 779.84, 745.15)" xlink:href="#chili"/></g><g class="cls-52"><use width="310.92" height="229.36" transform="matrix(0.55, -0.05, -0.04, -0.6, 545.77, 1001.49)" xlink:href="#banana"/></g><path class="cls-53" d="M25.44,193.79c2.66,1.26,5.68-5,7.26-8.34s3.23-4.43.58-5.68-3.05.9-4.63,4.23S22.78,192.52,25.44,193.79Z"/><path class="cls-54" d="M32.59,185.22c-1.58,3.33-4.6,9.6-7.25,8.34a1.49,1.49,0,0,1-.63-.56c2.59.73,5.45-5.22,7-8.44,1.27-2.67,2.57-3.89,1.68-4.93C35.74,180.86,34.14,182,32.59,185.22Z"/><path class="cls-53" d="M72.08,193.79c-2.66,1.26-5.68-5-7.26-8.34s-3.23-4.42-.57-5.68,3,.9,4.63,4.23S74.74,192.52,72.08,193.79Z"/><path class="cls-54" d="M64.93,185.22c1.58,3.33,4.6,9.6,7.26,8.34a1.5,1.5,0,0,0,.64-.56c-2.6.73-5.46-5.22-7-8.44-1.26-2.67-2.57-3.89-1.68-4.93C61.78,180.86,63.39,182,64.93,185.22Z"/><path class="cls-55" d="M49.56,114.74A35.54,35.54,0,1,0,85.1,150.27h0A35.53,35.53,0,0,0,49.56,114.74Zm0,66.66A31.14,31.14,0,1,1,80.7,150.26h0A31.14,31.14,0,0,1,49.56,181.4Z"/><circle class="cls-56" cx="49.57" cy="150.27" r="31.13"/><path class="cls-57" d="M42.39,116.48c-2.36,1.33-7,1.79-10.7,4a28.91,28.91,0,0,0-8.7,7.87c-1.39,2.16-2.94,2.65-4.15.63-2.18-3.67-.42-11.92,5.09-16.09.84,1.15,2,1.72,2.88,1.29s1.16-2,.55-3.48c6.7-3.55,13.73-3.37,16.08.55C44.61,113.22,44.52,115.28,42.39,116.48Z"/><path class="cls-57" d="M75.87,113.64c-.91,1.43-2.35,2.14-3.3,1.6s-1-2.2-.23-3.72c.59.29,1.17.61,1.75,1S75.3,113.23,75.87,113.64Z"/><path class="cls-57" d="M76,113.44l-.12.2c-.57-.41-1.17-.8-1.78-1.17s-1.16-.66-1.75-1l.07-.14c.91-1.56,2.44-2.36,3.44-1.78S76.89,111.88,76,113.44Z"/><path class="cls-57" d="M26.81,114.18c-.86.44-2-.13-2.88-1.29a23.87,23.87,0,0,1,2.31-1.55c.37-.23.74-.44,1.12-.64C28,112.2,27.75,113.71,26.81,114.18Z"/><path class="cls-57" d="M27.36,110.7c-.38.2-.75.41-1.12.64a23.87,23.87,0,0,0-2.31,1.55,6.12,6.12,0,0,1-.43-.69c-.79-1.62-.63-3.34.38-3.84s2.51.37,3.32,2Z"/><path class="cls-58" d="M49.56,114.74c-.49,0-1,0-1.47,0a35.54,35.54,0,0,1,0,71q.73,0,1.47,0a35.54,35.54,0,1,0,0-71.07Z"/><path class="cls-57" d="M81.19,129c-1.3,2.19-2.77,1.92-4.16-.05a32,32,0,0,0-8.4-7.37c-4.81-2.86-10.44-3.69-12.25-5.57-.83-.85-.29-2.35.5-3.65,2.28-3.81,8.94-4.09,15.46-.86-.82,1.52-.73,3.16.23,3.71s2.39-.17,3.3-1.59C81.72,117.84,83.45,125.25,81.19,129Z"/><path class="cls-59" d="M39.09,110.9c-1.84-.57-3.07-.12-2.83-.88s1.43-1.07,3.26-.5,3.14,1.66,2.89,2.42S40.93,111.48,39.09,110.9Z"/><path class="cls-59" d="M78.48,119.36c.92,1.69.72,3,1.42,2.6s.78-1.6-.15-3.29-2.24-2.75-2.94-2.36S77.56,117.68,78.48,119.36Z"/><path class="cls-59" d="M34.52,109.86c0-.34.4-.62.91-.64s.33.27.34.61.2.62-.31.62S34.53,110.2,34.52,109.86Z"/><path class="cls-59" d="M75.69,114.87c-.24.24-.13.73.24,1.08s.43,0,.66-.21.57-.32.19-.67S75.92,114.62,75.69,114.87Z"/><path d="M48.28,147.29a6.22,6.22,0,0,1-.45,2.35,9.05,9.05,0,0,1-1.18,2.1A11.42,11.42,0,0,1,45,153.55,19.56,19.56,0,0,1,43.09,155H48l-.37,6.42L33.15,161v-5.62c.55-.19,1.12-.41,1.72-.67a18.66,18.66,0,0,0,1.78-.91,13.44,13.44,0,0,0,1.65-1.14,8.51,8.51,0,0,0,1.37-1.38,6.5,6.5,0,0,0,.95-1.63,5.17,5.17,0,0,0,.34-1.9,2.4,2.4,0,0,0-.21-1,2,2,0,0,0-.57-.75,2.62,2.62,0,0,0-.86-.45,3.53,3.53,0,0,0-1-.15,5.2,5.2,0,0,0-1,.1,6.76,6.76,0,0,0-.94.29,4.51,4.51,0,0,0-.87.46,3.94,3.94,0,0,0-.73.61l-1.36-6.06a5.17,5.17,0,0,1,1.31-1,8.49,8.49,0,0,1,1.56-.63,11.79,11.79,0,0,1,1.67-.35,13.44,13.44,0,0,1,1.66-.1,8.69,8.69,0,0,1,3.4.65,8.55,8.55,0,0,1,2.74,1.81,8.44,8.44,0,0,1,1.84,2.72A8.56,8.56,0,0,1,48.28,147.29Z"/><path d="M66.7,154a8.45,8.45,0,0,1-.67,3.42A7.64,7.64,0,0,1,64.2,160a8.09,8.09,0,0,1-2.77,1.69,9.85,9.85,0,0,1-3.47.61,8.51,8.51,0,0,1-2.76-.42A7.51,7.51,0,0,1,51.35,159a11,11,0,0,1-1.15-2.21,12.68,12.68,0,0,1-.67-2.51,17.23,17.23,0,0,1-.22-2.69,21.71,21.71,0,0,1,.25-3.25,15.39,15.39,0,0,1,.77-3,11.29,11.29,0,0,1,1.33-2.56,8.28,8.28,0,0,1,2-2,9,9,0,0,1,2.58-1.31,10.78,10.78,0,0,1,3.28-.47c.45,0,.9,0,1.36.06a11,11,0,0,1,1.39.19,10.35,10.35,0,0,1,1.35.37,6.72,6.72,0,0,1,1.24.59l-.46,6.08a11.06,11.06,0,0,0-2.37-.83,11.3,11.3,0,0,0-2.48-.28,4.35,4.35,0,0,0-1.65.28,3.39,3.39,0,0,0-1.17.82,3.63,3.63,0,0,0-.75,1.25,6.28,6.28,0,0,0-.35,1.63,9.78,9.78,0,0,1,2.18-.92,8.21,8.21,0,0,1,2.36-.34,7.94,7.94,0,0,1,2.56.41,6.15,6.15,0,0,1,2.1,1.21,5.6,5.6,0,0,1,1.4,1.91A6.11,6.11,0,0,1,66.7,154Zm-5.87.46a1.77,1.77,0,0,0-.21-.86,2.22,2.22,0,0,0-.54-.64,2.44,2.44,0,0,0-.76-.42,2.65,2.65,0,0,0-.87-.15,2.54,2.54,0,0,0-.85.15,2.58,2.58,0,0,0-.74.42,2,2,0,0,0-.54.64,1.77,1.77,0,0,0-.21.86,1.69,1.69,0,0,0,.21.84,1.76,1.76,0,0,0,.54.64,2.34,2.34,0,0,0,.74.41,2.54,2.54,0,0,0,.85.15,2.65,2.65,0,0,0,.87-.15,2.23,2.23,0,0,0,.76-.41,2,2,0,0,0,.54-.64A1.69,1.69,0,0,0,60.83,154.42Z"/><path class="cls-14" d="M28.93,25.15,41.2,59.58a18.67,18.67,0,0,0,10.5-9.13,19.56,19.56,0,0,1,0-17.78,18.21,18.21,0,0,0-24.94-8A19,19,0,0,0,17,39.87V40a15.87,15.87,0,0,1,1.44-5.55C19.7,31.75,22.4,28.1,28.93,25.15Z"/><path class="cls-14" d="M86.42,40a.34.34,0,0,0,0-.1l0,.4Z"/><path class="cls-14" d="M49.64,43.18A18.88,18.88,0,0,0,62.16,59.6L74.55,25.21c6.52,3,9.2,6.63,10.44,9.3a16.06,16.06,0,0,1,1.42,5.36,18.63,18.63,0,0,0-20-17.28C56.26,23.51,48.75,32.72,49.64,43.18Z"/><path class="cls-14" d="M86.46,40.65a1.22,1.22,0,0,0,0-.33v0l0-.4A16.12,16.12,0,0,0,85,34.5c-1.24-2.66-3.92-6.32-10.44-9.3L62.16,59.6A18.7,18.7,0,0,1,51.7,50.45a18.67,18.67,0,0,1-10.5,9.13L28.93,25.15c-6.53,3-9.23,6.6-10.48,9.26A16.1,16.1,0,0,0,17,40l0,.4v.09C16.16,53.71,28.66,72.69,51.55,89l0,.12.11-.08.14.1,0-.16C74.59,72.8,87.15,53.91,86.46,40.65Z"/><path class="cls-60" d="M85.68,41.89c0,2.86-1.07,5.18-2.39,5.18s.6-2.32.6-5.18-1.91-5.18-.6-5.18S85.68,39,85.68,41.89Z"/><path class="cls-60" d="M83.72,34.8c.27.59.21.86-.31,1.11s-.73.1-1-.49-.63-1-.11-1.25A1.08,1.08,0,0,1,83.72,34.8Z"/><path class="cls-60" d="M61.4,79.69C57.49,82.47,53.1,87,52.24,86s4.35-5,7.84-8.37S74,61.19,75.1,61.87C76.35,62.65,69.19,74.17,61.4,79.69Z"/><path class="cls-60" d="M20.6,34.09c4-5.61,13.41-10.7,17.6-7.52s-.52,7.58-4.52,13.19-2.82,24.38-7,21.21S16.6,39.7,20.6,34.09Z"/><path class="cls-61" d="M56,43.66c0,5.69-2.3,10.3-5.14,10.3s-5.12-4.62-5.12-10.3,8-12.5,10.86-12.5S56,38,56,43.66Z"/><path class="cls-14" d="M113.17,26.46,125.44,60.9a18.68,18.68,0,0,0,10.5-9.14A19.54,19.54,0,0,1,136,34,18.18,18.18,0,0,0,111,26a19,19,0,0,0-9.78,15.14v.09a16.44,16.44,0,0,1,1.44-5.55C104,33.07,106.64,29.42,113.17,26.46Z"/><path class="cls-14" d="M170.66,41.29a.41.41,0,0,0,0-.11l0,.4Z"/><path class="cls-14" d="M133.88,44.49A18.88,18.88,0,0,0,146.4,60.91l12.39-34.39c6.52,3,9.2,6.64,10.44,9.3a16.12,16.12,0,0,1,1.42,5.37c-.89-10.46-9.84-18.2-20-17.28S133,34,133.88,44.49Z"/><path class="cls-14" d="M170.7,42a1.22,1.22,0,0,0,0-.33,0,0,0,0,0,0-.05l0-.4a16.29,16.29,0,0,0-1.41-5.36c-1.25-2.66-3.93-6.32-10.45-9.3L146.4,60.91a18.66,18.66,0,0,1-10.46-9.15,18.68,18.68,0,0,1-10.5,9.14L113.17,26.46c-6.53,3-9.22,6.61-10.48,9.26a16.22,16.22,0,0,0-1.45,5.56l0,.39v.09C100.4,55,112.9,74,135.79,90.35l0,.13.11-.08.13.1-.05-.16C158.83,74.11,171.39,55.22,170.7,42Z"/><path class="cls-60" d="M169.93,43.2c0,2.87-1.07,5.19-2.39,5.19s.59-2.32.59-5.19S166.22,38,167.54,38,169.93,40.34,169.93,43.2Z"/><path class="cls-60" d="M168,36.11c.26.6.2.87-.31,1.11s-.74.1-1-.49-.62-1-.11-1.25A1.1,1.1,0,0,1,168,36.11Z"/><path class="cls-60" d="M145.64,81c-3.91,2.78-8.3,7.31-9.16,6.36s4.35-5,7.84-8.37,13.94-16.49,15-15.81C160.59,64,153.43,75.48,145.64,81Z"/><path class="cls-60" d="M104.84,35.4c4-5.61,13.41-10.69,17.6-7.52s-.52,7.58-4.51,13.2-2.83,24.38-7,21.21S100.84,41,104.84,35.4Z"/><path class="cls-61" d="M140.22,45c0,5.68-2.3,10.29-5.14,10.29S130,50.66,130,45s8-12.51,10.87-12.51S140.22,39.29,140.22,45Z"/><path class="cls-14" d="M195.92,27.78,208.2,62.21a18.72,18.72,0,0,0,10.5-9.14,19.54,19.54,0,0,1,0-17.77,18.2,18.2,0,0,0-24.93-7.95A19,19,0,0,0,184,42.5v.09A16.1,16.1,0,0,1,185.45,37C186.7,34.38,189.39,30.73,195.92,27.78Z"/><path class="cls-14" d="M253.41,42.6a.17.17,0,0,0,0-.1c0,.13,0,.26,0,.39Z"/><path class="cls-14" d="M216.63,45.81a18.92,18.92,0,0,0,12.52,16.42l12.39-34.39c6.52,3,9.2,6.63,10.45,9.3a15.75,15.75,0,0,1,1.41,5.36,18.61,18.61,0,0,0-20-17.28C223.26,26.14,215.75,35.35,216.63,45.81Z"/><path class="cls-14" d="M253.46,43.28c0-.11,0-.22,0-.33v-.06l0-.39A16.12,16.12,0,0,0,252,37.13c-1.24-2.66-3.93-6.32-10.44-9.3l-12.4,34.39a18.61,18.61,0,0,1-10.45-9.15,18.72,18.72,0,0,1-10.5,9.14L195.92,27.78c-6.53,2.95-9.22,6.6-10.47,9.26A16.1,16.1,0,0,0,184,42.59a2.6,2.6,0,0,0,0,.4.11.11,0,0,0,0,.08c-.81,13.27,11.69,32.25,34.57,48.59l0,.13.11-.08.14.1-.06-.16C241.59,75.42,254.15,56.53,253.46,43.28Z"/><path class="cls-60" d="M252.68,44.52c0,2.86-1.07,5.18-2.39,5.18s.6-2.32.6-5.18-1.92-5.19-.6-5.19S252.68,41.65,252.68,44.52Z"/><path class="cls-60" d="M250.72,37.43c.27.59.21.86-.31,1.11s-.74.1-1-.49-.63-1-.11-1.25A1.08,1.08,0,0,1,250.72,37.43Z"/><path class="cls-60" d="M228.39,82.32c-3.91,2.78-8.29,7.3-9.15,6.35s4.34-5,7.84-8.37,13.93-16.49,15-15.8C243.34,65.27,236.19,76.79,228.39,82.32Z"/><path class="cls-60" d="M187.6,36.72c4-5.61,13.4-10.7,17.6-7.53s-.52,7.58-4.52,13.2-2.82,24.38-7,21.21S183.59,42.33,187.6,36.72Z"/><path class="cls-61" d="M223,46.29c0,5.68-2.3,10.29-5.15,10.29s-5.11-4.61-5.11-10.29,8-12.5,10.86-12.5S223,40.6,223,46.29Z"/><rect class="cls-3" x="966.77" y="699.59" width="65.03" height="37.93" rx="4.89" transform="translate(-97.95 160.91) rotate(-8.78)"/><path class="cls-62" d="M1028.79,708.74c.3,1.93,1.18,8.43.92,8.47s-1.37-6.43-1.67-8.35-.29-2.63,0-2.67S1028.5,706.82,1028.79,708.74Z"/><path class="cls-62" d="M970,713.66c.3,1.92.95,8.46.16,8.58s-2.14-6.31-2.44-8.23,0-2.66.73-2.78S969.67,711.74,970,713.66Z"/><path class="cls-62" d="M972.31,716.38c.3,1.93,1.19,8.43.93,8.47s-1.38-6.42-1.68-8.35-.28-2.63,0-2.67S972,714.46,972.31,716.38Z"/><path class="cls-63" d="M1069.49,736.94l16.28,105.44c.62,4-.7,7.66-3,8.51l-.22.08a2.29,2.29,0,0,1-.36.07l-122,18.84a2.31,2.31,0,0,1-.37,0c-2.46.08-4.86-2.83-5.58-6.8L948,821l-9.41-63.83a3,3,0,0,1,2.47-3.35l125-19.3A3,3,0,0,1,1069.49,736.94Z"/><rect class="cls-63" x="956.7" y="715.01" width="86.7" height="17.03" rx="4.48" transform="translate(-98.7 161.08) rotate(-8.78)"/><rect class="cls-63" x="969.37" y="726.48" width="65.03" height="17.81" rx="2.92" transform="translate(-100.49 161.5) rotate(-8.78)"/><ellipse class="cls-64" cx="981.42" cy="818.45" rx="27.48" ry="11.23" transform="translate(-113.4 159.35) rotate(-8.78)"/><ellipse class="cls-64" cx="1045.69" cy="818.71" rx="27.48" ry="18.19" transform="translate(-112.69 169.16) rotate(-8.78)"/><path class="cls-6" d="M1076.42,781.81l9.35,60.58c.62,4-.7,7.66-3,8.52l-.23.07a2.33,2.33,0,0,1-.36.08l-122,18.83a2.21,2.21,0,0,1-.37,0c-2.46.08-4.85-2.83-5.58-6.8a2.76,2.76,0,0,1-.06-.4L948,821.12,948,821c1.25-2.71,3.68-4.24,6.38-3.42,8.28,2.46,19.88,5.48,24.86,4.87,9.08-1.14,24.6-23.36,38.91-16.88,10.92,5,22.31,16.7,32.24,16,8.82-.63,16.89-22.48,16.89-22.48C1071.39,786.66,1074.32,782,1076.42,781.81Z"/><path class="cls-65" d="M974.39,739.7c.78,5.07,3.66,6.81,2.6,7s-4.88-1.43-5.66-6.5-3.64-6.16-2.59-6.33S973.61,734.64,974.39,739.7Z"/><path class="cls-65" d="M961.8,729.44c.78,5.07,2.65,5.07,1.59,5.23s-3.87.31-4.65-4.76,2.06-5,3.11-5.18S961,724.37,961.8,729.44Z"/><path class="cls-65" d="M1083.53,836.83c.24,2.36,1.39,8.08-.07,10.9-1.27,2.46-5.11,2.19-5.61,2.24-1.07.12,3-8.4,2.58-12.82s-.14-6.06.93-6.17S1083.08,832.41,1083.53,836.83Z"/><path class="cls-65" d="M1080.27,816.89c.24,2.37,2.58,9.54,1.12,12.36-1.27,2.46-2.24-4.35-2.48-5.88-.42-2.76-.61-2.46-1.06-6.89s-1.37-6.89-.29-7S1079.81,812.46,1080.27,816.89Z"/><path class="cls-65" d="M1069,744c.25,2.36,2.59,9.54,1.13,12.36-1.27,2.46-2.24-4.35-2.47-5.88a66.4,66.4,0,0,1-1.07-6.89c-.45-4.42-1.37-6.89-.3-7S1068.55,739.58,1069,744Z"/><path class="cls-65" d="M1071.6,759.48a1.35,1.35,0,0,1-2.69.12,1.82,1.82,0,0,1,1.6-1.83C1071.44,757.72,1071.56,758.66,1071.6,759.48Z"/><rect class="cls-66" x="959.3" y="776.21" width="101.41" height="28.64" rx="1.4" transform="translate(-108.81 163.39) rotate(-8.78)"/><path class="cls-67" d="M977.34,785.9a4.93,4.93,0,0,1,3.29,4.29,14.39,14.39,0,0,1-1,6.4Q978.2,801,976,801.38a1.57,1.57,0,0,1-1-.26l-1.16-.64.71,4.55a2.64,2.64,0,0,0,.25.78c.19.41.32.69.38.85a1.84,1.84,0,0,1-.07.9.94.94,0,0,1-.63.8,5.74,5.74,0,0,1-2.19-.35,5.21,5.21,0,0,1-2.3-1,1.34,1.34,0,0,1-.17-1.12,3.1,3.1,0,0,0,.05-.91l-2.56-16.58a1.59,1.59,0,0,0-.28-.55,1.45,1.45,0,0,1-.25-.6c0-.87.23-1.35.77-1.43a7.27,7.27,0,0,1,1.13.14,6.27,6.27,0,0,0,1.56.1,5.67,5.67,0,0,0,2-.75,6.18,6.18,0,0,1,1.74-.73,2.92,2.92,0,0,1,.66,0,3.07,3.07,0,0,1,1.41.61A6.16,6.16,0,0,0,977.34,785.9Zm-1.9,2.41a3.79,3.79,0,0,0-1.61.93,5.93,5.93,0,0,0-1.46,1.73l1,6.44c.92-.45,1.66-1.69,2.22-3.71a11.17,11.17,0,0,0,.51-4.55C976,788.54,975.77,788.25,975.44,788.31Z"/><path class="cls-67" d="M993.47,805a3.67,3.67,0,0,1-1.28,0l-1.43-.2c-.55-.06-1.43-.19-2.63-.38a6.31,6.31,0,0,1-3.79-3.2,16.35,16.35,0,0,1-1.9-5.77,27.39,27.39,0,0,1-.05-6.71q.54-5.24,2.62-5.56a2,2,0,0,1,.54,0l.54,0a13.64,13.64,0,0,1,2.46-1,4.93,4.93,0,0,1,.54-.05c2.19-.07,4.08,1,5.68,3.24a19.24,19.24,0,0,1,2.5,15.13C996.54,803,995.28,804.49,993.47,805ZM990,785.43c-.42,0-.72.53-.92,1.76s-.5,1.86-.9,1.92a.88.88,0,0,1-.42-.08,1.3,1.3,0,0,0-.43-.11,14.52,14.52,0,0,0,0,5.87,18.25,18.25,0,0,0,1.39,4.91c.71,1.48,1.48,2.25,2.33,2.27s1.61-1.07,1.87-3.33a26.36,26.36,0,0,0-.27-6.87,21.43,21.43,0,0,0-1.09-4.38C991,786.15,990.5,785.5,990,785.43Z"/><path class="cls-67" d="M1003,781.55a1.35,1.35,0,0,1,0,.53q-.07.33-.09.42a12.22,12.22,0,0,0-.06,1.71l2.54,16.44a1,1,0,0,0,.25.55,1,1,0,0,1,.22.38q.27,1.71-.36,1.95a8.32,8.32,0,0,1-1.93-.06,6.58,6.58,0,0,1-2.08-.37,1.35,1.35,0,0,1-.73-.84.4.4,0,0,1,.06-.26.69.69,0,0,0,0-.47L998,782.66a.83.83,0,0,0-.14-.32.63.63,0,0,1-.15-.32c0-.43.25-.76.86-1a7.16,7.16,0,0,1,1.23-.19,10.8,10.8,0,0,1,2,0C1002.54,780.92,1003,781.16,1003,781.55Z"/><path class="cls-67" d="M1019.89,796.36a4.39,4.39,0,0,1-.81,3.45,5.25,5.25,0,0,1-3.44,1.89,5.06,5.06,0,0,1-1.29,0c-.84-.11-1.3-.15-1.34-.15l-1.34-.08a2.46,2.46,0,0,1-1.23-.43,4.61,4.61,0,0,1-1.5-1.91,11.06,11.06,0,0,0-1.19-2,3.94,3.94,0,0,1-.62-.67,1.13,1.13,0,0,1,0-.83,1.05,1.05,0,0,1,.48-.58,2.26,2.26,0,0,1,.57-.14,14,14,0,0,1,2.33-.13,4.48,4.48,0,0,1,1.58.17,7.61,7.61,0,0,1,.72,1.86c.33,1,.66,1.61,1,1.69a.7.7,0,0,0,.25,0c.34,0,.59-.38.74-1a4.89,4.89,0,0,0,.07-2c-.24-1.55-.89-2.51-1.93-2.88a17.33,17.33,0,0,1-5.17-2.6,5.59,5.59,0,0,1-2-4,8.61,8.61,0,0,1,.84-4.27A5.06,5.06,0,0,1,1009,779q.6-.22,3.93.6l1.67.37a3.12,3.12,0,0,1,1.41.75,5.33,5.33,0,0,1,1.25,3.1c0,.29.11.7.17,1.26s.09.81.13,1a3.1,3.1,0,0,0,.28.58,1.19,1.19,0,0,1,.2.57c.08.81-.18,1.27-.79,1.47a5.13,5.13,0,0,1-2-.1,4.15,4.15,0,0,1-2.21-.78,1.33,1.33,0,0,1-.13-.53c0-.27-.11-.88-.19-1.83s-.16-1.65-.23-2.08c-.12-.77-.26-1.13-.44-1.08-.55.12-.95.59-1.19,1.42a6,6,0,0,0-.15,2.67,4,4,0,0,0,2,3.21l3.53,1.53a6.63,6.63,0,0,1,2.42,1.66A7.57,7.57,0,0,1,1019.89,796.36Z"/><path class="cls-67" d="M1031.26,799.15a3.45,3.45,0,0,1-1.28.05l-1.43-.19q-.84-.09-2.64-.39a6.37,6.37,0,0,1-3.81-3.19,16.22,16.22,0,0,1-1.88-5.75,26.9,26.9,0,0,1,0-6.71c.35-3.49,1.23-5.34,2.62-5.56a2,2,0,0,1,.54,0l.54,0a13.35,13.35,0,0,1,2.46-1,4.51,4.51,0,0,1,.54,0c2.18-.07,4.08,1,5.68,3.24a17.32,17.32,0,0,1,2.86,7.54,16.91,16.91,0,0,1-.36,7.59Q1034,798.4,1031.26,799.15Zm-3.52-19.55c-.42-.05-.71.52-.92,1.76s-.5,1.86-.89,1.92a.89.89,0,0,1-.43-.08,1.25,1.25,0,0,0-.43-.12,14.37,14.37,0,0,0,0,5.87,18,18,0,0,0,1.39,4.92c.7,1.48,1.48,2.24,2.32,2.27,1,0,1.62-1.08,1.87-3.33a25.93,25.93,0,0,0-.26-6.87,21.36,21.36,0,0,0-1.09-4.39C1028.8,780.32,1028.28,779.66,1027.74,779.6Z"/><path class="cls-67" d="M1050.52,774.22a1.62,1.62,0,0,1,0,.58,3.9,3.9,0,0,0-.13.76l2.73,17.68c0-.06.08.26.29,1s.21,1.35-.08,1.66a3.47,3.47,0,0,1-2.13.54,9.32,9.32,0,0,1-2.3-.16c-1.14-.17-1.8-.43-2-.79a7.25,7.25,0,0,0-.26-1.14q-2.12-3.74-4.83-8.17l1.23,7.93a1.22,1.22,0,0,0,.27.53,4.37,4.37,0,0,1,.31.44,2.53,2.53,0,0,1,.26.79c.11.71-.15,1.12-.79,1.22a9.67,9.67,0,0,1-2.74-.13,4.87,4.87,0,0,1-1.95-.55,1,1,0,0,1-.17-1.09,3,3,0,0,0,.19-.88l-2.59-16.8a2,2,0,0,0-.15-.47,1,1,0,0,1-.11-.51,1.82,1.82,0,0,1,.86-1.39,1.65,1.65,0,0,1,.58-.14,9.35,9.35,0,0,1,2.18-.07,4,4,0,0,1,2.12.61q.89.69,2.71,4.59a54.73,54.73,0,0,0,3.36,6.45l-1.63-10.52a2.42,2.42,0,0,0-.2-.59,2.34,2.34,0,0,1-.2-.58.81.81,0,0,1,0-.31c0-.32.35-.59.92-.83a4,4,0,0,1,1.31-.33,7.71,7.71,0,0,1,1.52.06C1050,773.7,1050.45,773.92,1050.52,774.22Z"/><ellipse class="cls-68" cx="1747.65" cy="72.58" rx="150.1" ry="50.63"/><ellipse class="cls-6" cx="1747.65" cy="72.58" rx="140.88" ry="47.52"/><path class="cls-69" d="M1794.27,71.5c-4.89,21-6.77,38.6-4.21,39.19s6.51-16.53,11.39-37.57,8.88-38,6.3-38.63S1799.15,50.46,1794.27,71.5Z"/><path class="cls-56" d="M1634.83,70a7,7,0,0,1-.42,2.48,6.36,6.36,0,0,1-1.15,1.9,7.06,7.06,0,0,1-1.71,1.37,10.88,10.88,0,0,1-2.1.92,14.35,14.35,0,0,1-2.32.51,15.76,15.76,0,0,1-2.37.18v6.74H1618V77.52c0-2.19,0-4.39,0-6.61,0-1.19,0-2.36,0-3.53s0-2.35.08-3.55a26.17,26.17,0,0,1,7.51-1.1,13.76,13.76,0,0,1,2.22.18,11.16,11.16,0,0,1,2.13.57,9.76,9.76,0,0,1,1.9,1,6.4,6.4,0,0,1,1.5,1.39,6.61,6.61,0,0,1,1,1.84A7.07,7.07,0,0,1,1634.83,70Zm-6.42.49a1.89,1.89,0,0,0-.57-1.46,2,2,0,0,0-1.48-.53,3.18,3.18,0,0,0-.62,0,5.67,5.67,0,0,0-.62.12L1625,72.9a2.56,2.56,0,0,0,.39,0h.39a2.85,2.85,0,0,0,1-.18,2.56,2.56,0,0,0,.86-.5,2.3,2.3,0,0,0,.59-.76A2,2,0,0,0,1628.41,70.5Z"/><path class="cls-56" d="M1653.47,73.71a9.86,9.86,0,0,1-.3,2.54,10.12,10.12,0,0,1-.88,2.29,9.55,9.55,0,0,1-1.39,2,8.86,8.86,0,0,1-6.59,2.86,9.44,9.44,0,0,1-2.48-.33,9.69,9.69,0,0,1-2.2-.93,8.7,8.7,0,0,1-1.86-1.45,9.18,9.18,0,0,1-1.41-1.87,9.52,9.52,0,0,1-.91-2.22,9.42,9.42,0,0,1-.33-2.47,9.92,9.92,0,0,1,2.56-6.7,8.94,8.94,0,0,1,1.81-1.55,9.31,9.31,0,0,1,2.17-1,8.35,8.35,0,0,1,2.47-.36,10.64,10.64,0,0,1,3.83.65,8.08,8.08,0,0,1,4.83,4.77A10.2,10.2,0,0,1,1653.47,73.71Zm-6.41.38a4.12,4.12,0,0,0-.18-1.21,3.2,3.2,0,0,0-.53-1,2.64,2.64,0,0,0-.86-.73,2.31,2.31,0,0,0-1.18-.28,2.76,2.76,0,0,0-2.13.91,2.68,2.68,0,0,0-.59,1,3.53,3.53,0,0,0-.21,1.2,4.24,4.24,0,0,0,.18,1.22,3.58,3.58,0,0,0,.52,1.1,2.79,2.79,0,0,0,.85.79,2.45,2.45,0,0,0,1.19.3,2.7,2.7,0,0,0,2.14-1,3.26,3.26,0,0,0,.59-1,3.7,3.7,0,0,0,.21-1.23Z"/><path class="cls-56" d="M1662.28,63.57l-1.59,19.67-6.09.32V64Z"/><path class="cls-56" d="M1682.92,63.19l-1,19.59-7.57.69-4-10.48-.64,10.69h-6.5l.52-20.49,7.23-.35,5,10.41.23-9.83Z"/><path class="cls-56" d="M1699.36,63.25l-.15,6.12-4.3.18-1.1,13.69-6.09.32,0-13.69-4.31.23.18-6.81Z"/><path class="cls-56" d="M1715,76.22a8.08,8.08,0,0,1-.69,3.46,7,7,0,0,1-1.87,2.46,8.07,8.07,0,0,1-2.79,1.48,11.38,11.38,0,0,1-3.43.49,6.8,6.8,0,0,1-1.56-.19c-.56-.12-1.13-.28-1.71-.46s-1.13-.39-1.67-.6-1-.42-1.42-.61l.64-6a10.27,10.27,0,0,0,2.72,1.12,11.68,11.68,0,0,0,2.94.38c.18,0,.4,0,.66,0a3.1,3.1,0,0,0,.75-.13,1.72,1.72,0,0,0,.59-.33.75.75,0,0,0,.24-.62.68.68,0,0,0-.17-.47,1.39,1.39,0,0,0-.45-.31,2.62,2.62,0,0,0-.62-.19,5.52,5.52,0,0,0-.68-.09l-.62,0h-.46a5.62,5.62,0,0,1-2.26-.44,5,5,0,0,1-1.75-1.2,5.54,5.54,0,0,1-1.13-1.84,6.45,6.45,0,0,1-.41-2.3,6.75,6.75,0,0,1,.69-3.06,7.13,7.13,0,0,1,1.83-2.29A8.44,8.44,0,0,1,1705,63a9.74,9.74,0,0,1,3.08-.5c.47,0,1,0,1.46,0s1,.1,1.47.18a14.76,14.76,0,0,1,1.47.31,8,8,0,0,1,1.34.51l-.55,5.86a16,16,0,0,0-2.06-.55,9.86,9.86,0,0,0-2.1-.23h-.48c-.2,0-.41,0-.62,0a6.49,6.49,0,0,0-.66.11,2.28,2.28,0,0,0-.59.2,1,1,0,0,0-.42.32.73.73,0,0,0,.09,1,1.65,1.65,0,0,0,.59.3,5.36,5.36,0,0,0,.78.15c.3,0,.57,0,.85,0h.78a3.92,3.92,0,0,1,.59,0,6,6,0,0,1,2.07.49,4.93,4.93,0,0,1,1.57,1.11,4.8,4.8,0,0,1,1,1.66A6.14,6.14,0,0,1,1715,76.22Z"/><path class="cls-56" d="M1721.82,71.69a2.84,2.84,0,0,1-.25,1.18,3.13,3.13,0,0,1-.65,1,3,3,0,0,1-1,.65,3,3,0,0,1-2.37,0,3.09,3.09,0,0,1-1.61-1.61,3,3,0,0,1-.24-1.18,3.06,3.06,0,0,1,.89-2.16,3.16,3.16,0,0,1,1-.66,3,3,0,0,1,2.37,0,3.29,3.29,0,0,1,1,.66,3,3,0,0,1,.65,1A2.86,2.86,0,0,1,1721.82,71.69Zm0,9.24a2.81,2.81,0,0,1-.25,1.18,3,3,0,0,1-.65,1,3,3,0,0,1-3.33.65,3,3,0,0,1-1.61-1.61,3,3,0,0,1-.24-1.18,3.08,3.08,0,0,1,.89-2.16,3.16,3.16,0,0,1,1-.66,3,3,0,0,1,2.37,0,3.29,3.29,0,0,1,1,.66,3,3,0,0,1,.65,1A2.89,2.89,0,0,1,1721.82,80.93Z"/><path class="cls-56" d="M1836.4,57.24l-1.34,32.86L1825,89.64l.56-21.86-3.7,2.54-3.46-7.9,7.53-5.64Z"/><path class="cls-56" d="M1862.07,78.82a11.94,11.94,0,0,1-1.07,5.23,10.34,10.34,0,0,1-2.92,3.67,12.52,12.52,0,0,1-4.35,2.17,19.12,19.12,0,0,1-5.32.72,17.09,17.09,0,0,1-2.68-.2,22.59,22.59,0,0,1-2.6-.53c-.86-.22-1.71-.48-2.55-.77s-1.68-.61-2.53-1l.89-9.2a17,17,0,0,0,1.77.86,16.76,16.76,0,0,0,2,.67,19.81,19.81,0,0,0,2,.44,11.36,11.36,0,0,0,3.41.06,6.74,6.74,0,0,0,1.59-.4,3.87,3.87,0,0,0,1.31-.78,1.7,1.7,0,0,0,.54-1.31,2.11,2.11,0,0,0-.43-1.32,3.18,3.18,0,0,0-1.11-.91,6.86,6.86,0,0,0-1.53-.57c-.57-.13-1.14-.24-1.72-.32s-1.09-.12-1.64-.14l-1.29,0c-.69,0-1.39,0-2.11.09a11.3,11.3,0,0,0-2.09.37l.92-18.67,18.72-.51.51,9.66-11.6-.65-.23,4.12a16,16,0,0,1,2.07-.38,15.87,15.87,0,0,1,2.07-.13,11.2,11.2,0,0,1,3.92.68,9.4,9.4,0,0,1,3.16,2,9.21,9.21,0,0,1,2.13,3.07A10,10,0,0,1,1862.07,78.82Z"/><path class="cls-56" d="M1759.66,56.38l-1.34,32.86-10.08-.46.56-21.86-3.7,2.54-3.46-7.91,7.53-5.63Z"/><path class="cls-56" d="M1779.25,56.38l-1.34,32.86-10.08-.46.56-21.86-3.7,2.54-3.47-7.91,7.54-5.63Z"/><path class="cls-70" d="M1513.69,928.44c9.83,51.58,11.27,94.56,3.17,96.06l-5.14-11.15-3.61,12.79-3.49-4.59-4.52-5.93-3.55,12.77-4.45-7.22c-1.81-3.49-3.48-7.19-5.14-11.1a209.33,209.33,0,0,1-15.52-65.51"/><path class="cls-71" d="M1511.1,988.34c.55,11.22,2.63,20.74,5.84,20.57s.47-9.67,0-20.86,2.28-16.14-.92-16S1510.6,977.14,1511.1,988.34Z"/><path class="cls-72" d="M1635.41,643.45a679.46,679.46,0,0,0-71.25,160.69q-3.6,12.24-6.64,24.18a1,1,0,0,0,0,.17l-154.87-88.14c5.1.66,39.08,4.53,62-19a62.82,62.82,0,0,0,13.87-22.27c7.1,1.33,31.6,5.07,55.87-9.29a78.38,78.38,0,0,0,26.24-25.52,59.45,59.45,0,0,0,31.22,5.4C1618.13,666.94,1632.93,647,1635.41,643.45Z"/><path class="cls-72" d="M1560.64,664.24a164.53,164.53,0,0,1,8.63,65.25c-3.53,44.3-11.29,95.66-11.77,98.82a1,1,0,0,0,0,.17s-30.17-38-53.19-72.65a206.16,206.16,0,0,1-25.76-56.74c7.09,1.33,31.6,5.07,55.87-9.29A78.47,78.47,0,0,0,1560.64,664.24Z"/><path class="cls-73" d="M1750.11,817.47l.32-.18,55.21,78.15c64.42,46.69,17.81,35.41,1.59,43.26l-51.34,23.95c-9.48-52.4-12.91-105.62-13.49-158.88l.86,1.17Z"/><path class="cls-74" d="M1510.91,789.53c-.5,13.4-5.33,24.81-13.68,32.14-6.65,5.85-15.53,9.11-26.21,8.7-24.1-.9-37.64-19.63-36.73-43.73.65-17.21,9-28.41,22.56-33.07a51.13,51.13,0,0,1,18.5-2.41C1499.39,752.05,1511.82,765.48,1510.91,789.53Z"/><path class="cls-75" d="M1510.91,789.53c-.5,13.4-5.33,24.81-13.68,32.14a39.75,39.75,0,0,1-14.68,2c-24.08-.9-37.64-19.63-36.73-43.71.43-11.61,4.36-20.45,11-26.44a51.15,51.15,0,0,1,18.51-2.41C1499.39,752.05,1511.82,765.48,1510.91,789.53Z"/><path class="cls-76" d="M1776.24,906.57C1773.59,977,1716,1016,1647.88,1024.22a234.45,234.45,0,0,1-37,1.52,157.52,157.52,0,0,1-28.93-3.83,169.79,169.79,0,0,1-74.49-38.45c-1.42-1.26-2.81-2.53-4.14-3.81-30-28.49-49-67.65-47.41-110.17,3.12-83,83.35-147.3,166.29-144.18,67.34,2.53,128.92,65.75,148.09,133.83A154.62,154.62,0,0,1,1776.24,906.57Z"/><path class="cls-74" d="M1684.45,818.64c-.57,15.15-6.22,28.06-16,36.35-7.78,6.61-18.17,10.28-30.68,9.81-28.21-1.06-44.1-22.27-43.07-49.54.73-19.47,10.53-32.13,26.36-37.4a61,61,0,0,1,21.64-2.7C1670.94,776.22,1685.47,791.39,1684.45,818.64Z"/><path class="cls-75" d="M1684.45,818.64c-.57,15.15-6.22,28.06-16,36.35a48.37,48.37,0,0,1-17.18,2.26c-28.19-1.06-44.1-22.28-43.08-49.52.49-13.12,5.08-23.15,12.87-29.9a61,61,0,0,1,21.64-2.67C1670.94,776.22,1685.47,791.39,1684.45,818.64Z"/><ellipse class="cls-77" cx="1643.27" cy="809.65" rx="9.39" ry="10.1" transform="translate(772.47 2421.34) rotate(-87.85)"/><ellipse class="cls-69" cx="1646.38" cy="808.77" rx="4.22" ry="4.54" transform="translate(776.34 2423.61) rotate(-87.85)"/><circle class="cls-77" cx="1473.01" cy="778.58" r="9.39"/><circle class="cls-69" cx="1475.9" cy="777.69" r="4.22"/><path class="cls-78" d="M1565.93,860c-1.34,7.42-1.33,12.36-9,17.58a37.7,37.7,0,0,1-16.56,6.26,38.62,38.62,0,0,1-4.93.31,41.88,41.88,0,0,1-7.66-.68,51.86,51.86,0,0,1-9.38-2.63c-17.7-6.87-23.34-17-21.09-29.69,1.63-9.06,1.83-13.32,10.85-9.88,2.81,1.07,6.06,2.37,9.7,3.55,1.27.43,2.63.85,4,1.25a82.63,82.63,0,0,0,8.2,1.92c.66.13,1.32.24,1.93.34s1.49.2,2.23.29c2.1.24,4.17.37,6.17.45,2.9.11,5.73.08,8.4,0,2.19-.06,4.27-.18,6.23-.25C1565.83,848.37,1567.54,851.11,1565.93,860Z"/><path class="cls-69" d="M1548.9,849.1c-1.16,7.6-5.07,13.24-8.93,12.76-3.63-.45-6-6.17-5.64-13.21,2.1.23,4.16.37,6.17.44C1543.38,849.2,1546.18,849.14,1548.9,849.1Z"/><path class="cls-79" d="M1540.37,883.86a38.62,38.62,0,0,1-4.93.31,41.88,41.88,0,0,1-7.66-.68,51.86,51.86,0,0,1-9.38-2.63c2.39-5.87,6.47-9.72,11-9.56,3.11.12,5.89,2.06,8,5.24A23.15,23.15,0,0,1,1540.37,883.86Z"/><path class="cls-79" d="M1536.56,878.62a19,19,0,0,1,.78-2.06c1.76-3.93,4.52-6.61,7.88-7,4.39-.57,8.74,2.7,11.71,8.1a37.7,37.7,0,0,1-16.56,6.26,38.62,38.62,0,0,1-4.93.31"/><path class="cls-80" d="M1683.37,847.16c-.7,18.82-17.38,27.07-43.83,26.07s-44.5-10.55-43.79-29.36,17.82,15.59,44.27,16.59S1684.08,828.35,1683.37,847.16Z"/><path class="cls-81" d="M1626.92,739l-37.83,8a2,2,0,0,1-2.24-1.18c-2.58-6.59-1.89-12.75,2.71-18.56a21.11,21.11,0,0,1,25-6.17,23.5,23.5,0,0,1,13.71,15.67,1.8,1.8,0,0,1-1.22,2.23Z"/><path class="cls-81" d="M1664.14,738.35l-12.51-.47c-2,.3-8.34-1.65-8.28-2.39.55-5.58,3.87-7.49,9.36-10.16A17.33,17.33,0,0,1,1673.2,729c4.21,4.74,13.5,20.61,5.39,14C1673.92,739.29,1665,738.53,1664.14,738.35Z"/><path class="cls-81" d="M1574.19,752.32,1543,775.17a2,2,0,0,1-2.54-.17c-5.05-4.94-7-10.83-5.13-18A21.13,21.13,0,0,1,1555.57,741a23.51,23.51,0,0,1,19,8.64,1.8,1.8,0,0,1-.18,2.54h0Z"/><path class="cls-81" d="M1831,916.66l-12.15-10.25a.87.87,0,0,1-.18-1,7.12,7.12,0,0,1,6.61-3.91,8.64,8.64,0,0,1,8.31,6.54,9.94,9.94,0,0,1-1.53,8.53.74.74,0,0,1-1,.18Z"/><path class="cls-81" d="M1813.64,902.34l-13.39-11.28a1,1,0,0,1-.21-1.14,7.85,7.85,0,0,1,7.27-4.31,9.5,9.5,0,0,1,9.14,7.19,11,11,0,0,1-1.68,9.38.81.81,0,0,1-1.13.16Z"/><path class="cls-81" d="M1790.88,882.57l-10-17.12a1.05,1.05,0,0,1,.22-1.3,8.9,8.9,0,0,1,9.4-1.84,10.77,10.77,0,0,1,7,11.14,12.44,12.44,0,0,1-5.35,9.39.9.9,0,0,1-1.24-.2Z"/><path class="cls-82" d="M1741,983.67c-23.46,25.65-59,40.8-98,45.59a228.43,228.43,0,0,1-36.51,1.53,152.12,152.12,0,0,1-28.57-3.81,166.55,166.55,0,0,1-73.48-38.43c-1.4-1.26-2.76-2.52-4.08-3.81-29.63-28.49-48.31-67.63-46.71-110.21,1.58-42,22.6-79.2,53.6-105.33-23.87,25-39.44,57.41-40.79,93.27-1.6,42.58,17.09,81.71,46.72,110.21q2,1.92,4.08,3.81a166.64,166.64,0,0,0,73.49,38.43,153.67,153.67,0,0,0,28.57,3.81,229.61,229.61,0,0,0,36.51-1.54C1688.25,1013.21,1718.25,1002.07,1741,983.67Z"/><path class="cls-82" d="M1664.19,1022.45l5.73,2a202.69,202.69,0,0,1-26.76,5.1,228.31,228.31,0,0,1-36.5,1.54,154.55,154.55,0,0,1-43.54-8.05l-.46-.15a166.57,166.57,0,0,1-54.92-31.31l-.29-.24c-.94-.8-1.87-1.63-2.81-2.48q-2.09-1.89-4.07-3.82c-1.33-1.3-2.67-2.58-4-3.94a68.4,68.4,0,0,1,4.2-21,1.17,1.17,0,0,1,.14-.35v-.13a161.06,161.06,0,0,0,12.45,13.41l.51.47.28.26q1.62,1.51,3.3,3c2.62,2.38,5.34,4.65,8.13,6.87a167.84,167.84,0,0,0,46,25.8,1.65,1.65,0,0,0,.36.11,155.07,155.07,0,0,0,47.52,9.46,226.85,226.85,0,0,0,32.24-1l1,.34Z"/><path class="cls-83" d="M1578,983.76a71.83,71.83,0,0,1-.64,7.16,64.24,64.24,0,0,1-5.49,18.58,56.42,56.42,0,0,1-4.91,8.44,48.47,48.47,0,0,1-4.06,5,166.69,166.69,0,0,1-55.19-31.55c-.94-.8-1.88-1.63-2.82-2.48-1.4-1.26-2.74-2.54-4.07-3.82s-2.81-2.73-4.18-4.17v-.2a64.05,64.05,0,0,1,.65-7.18,66.08,66.08,0,0,1,3.62-14.2c7-18.44,21.81-30.92,38.41-30.29C1561.78,929.87,1579.09,954.38,1578,983.76Z"/><path class="cls-83" d="M1670.75,1024.38a204.61,204.61,0,0,1-27.33,5.24,229.36,229.36,0,0,1-36.49,1.54,153.77,153.77,0,0,1-28.59-3.81,158.42,158.42,0,0,1-15.42-4.39,166.93,166.93,0,0,1-55.22-31.59l2.15-5.89,4.33-12,1.66-4.64,61.58,22.06,75.42,27.06,11.48,4.09Z"/><path class="cls-84" d="M1572.17,1009.19l-.18.41-.14.32a56.42,56.42,0,0,1-4.91,8.44,51.91,51.91,0,0,1-3.79,4.7,3.33,3.33,0,0,1-.25.28,167.1,167.1,0,0,1-55.22-31.55c-.94-.81-1.88-1.64-2.81-2.48-1.4-1.27-2.75-2.53-4.08-3.82s-2.8-2.73-4.17-4.17v-.2a68.37,68.37,0,0,1,4.13-21,1.58,1.58,0,0,1,.14-.36v-.12a162.77,162.77,0,0,0,12.46,13.4l.5.48.28.26q1.62,1.51,3.3,3c2.62,2.38,5.34,4.65,8.13,6.87A169.58,169.58,0,0,0,1572.17,1009.19Z"/><path class="cls-84" d="M1670.74,1024.79a206.52,206.52,0,0,1-27.33,5.24,230.67,230.67,0,0,1-36.5,1.54,154,154,0,0,1-28.59-3.88,159.23,159.23,0,0,1-15.42-4.39,167.09,167.09,0,0,1-55.22-31.51l.07-.19,2-5.73,4.33-11.94v0l.06-.17q1.62,1.51,3.3,3c2.62,2.38,5.34,4.65,8.13,6.87a169.74,169.74,0,0,0,46.53,25.5,160.64,160.64,0,0,0,19,5.56,157.52,157.52,0,0,0,28.93,3.83,233.94,233.94,0,0,0,30.87-.84l.78.28,1,.34,11.47,4.09,5.74,2.05Z"/><path class="cls-81" d="M1708.42,766.2l-10.62-6.65c-1.79-.7-6.4-5.59-6-6.2,3.25-4.55,7.08-4.58,13.17-4.14a17.31,17.31,0,0,1,15.91,13.47c1.29,6.21,1.43,24.58-2.32,14.84C1716.44,771.89,1709.05,766.77,1708.42,766.2Z"/><path class="cls-70" d="M1669.9,973.52c-19.38,48.8-41.23,85.83-48.85,82.8l1.62-12.13-10,8.82-.49-5.84-.64-7.42-9.85,8.86.12-8.47c.4-3.87.93-7.94,1.63-12.13a209.3,209.3,0,0,1,22.08-63.64"/><path class="cls-70" d="M1741.16,972.38c7.93,30,10.1,55.21,4.85,56.27l-3.7-6.42-2,7.56-2.45-2.64-3.13-3.39-2,7.59-3.13-4.13c-1.26-2-2.49-4.15-3.69-6.41a113.3,113.3,0,0,1-12.07-38.12"/><path class="cls-85" d="M1916.47,815.57a681.05,681.05,0,0,0-173.94,25.57q-12.26,3.5-24,7.32l-.15,0-8.19-178c2.16,4.65,17.08,35.45,49.2,42.26a62.87,62.87,0,0,0,26.27-.19c2.65,6.7,12.64,29.4,37.71,42.27a78.35,78.35,0,0,0,35.59,8.55A59.35,59.35,0,0,0,1871,792.72C1887.35,813.51,1912.19,815.29,1916.47,815.57Z"/><path class="cls-85" d="M1858.92,763.44a164.5,164.5,0,0,1-50.55,42.15c-39.33,20.69-86.89,41.57-89.8,42.87l-.15,0s16-45.79,33-83.77a206.22,206.22,0,0,1,34.23-52.12c2.65,6.7,12.64,29.4,37.71,42.27A78.57,78.57,0,0,0,1858.92,763.44Z"/><path class="cls-86" d="M1533.35,909.12c-3.24,0-3.11-28.77-6.26-23-2.31,4.28-4.61-2.69-7.81-4.55a51.37,51.37,0,0,0,9.46,2.29,42,42,0,0,0,7.68.38C1536.07,885,1541.3,909.19,1533.35,909.12Z"/><path class="cls-86" d="M1550.06,902.86c-1-3.44-5-25.31-8.35-14.62-1.43,4.49-3.49-4-5.29-4a35.64,35.64,0,0,0,4.94-.5,37.63,37.63,0,0,0,16.3-6.86C1558.93,878.85,1554.11,916.7,1550.06,902.86Z"/><path class="cls-71" d="M1642.39,1029.58c-5,10-10.82,17.9-13.68,16.48s3.47-9,8.47-19.06,4.47-15.69,7.32-14.27S1647.39,1019.52,1642.39,1029.58Z"/><path class="cls-71" d="M1746.32,1003c.78,8.48.54,15.83-1.21,16s-1.17-7.22-2-15.7-2.76-12-1-12.11S1745.48,994.56,1746.32,1003Z"/><path class="cls-71" d="M1740.77,987.64c1.09-.34,1.63.91,2,1.93s.1,0-1,.31-1.16,1.47-1.48.45S1739.68,988,1740.77,987.64Z"/><path class="cls-71" d="M1646,1009.88c1.74.74,1.45,2.08,1,3.06s.18.08-1.58-.66-2.79,0-2.38-1S1644.19,1009.15,1646,1009.88Z"/><circle class="cls-87" cx="52.92" cy="1026.19" r="41.11"/><circle class="cls-56" cx="52.92" cy="1026.19" r="37.19"/><ellipse class="cls-87" cx="34.51" cy="1040.75" rx="9.08" ry="5.68"/><ellipse class="cls-87" cx="64" cy="1049.51" rx="9.08" ry="5.68"/><path class="cls-87" d="M71.93,1013.35v3.2c0,1-.59,1.81-1.32,1.81H70a3.31,3.31,0,0,1-1.54-.41l-28-15.5v-5.37c0-1,.59-1.81,1.32-1.81h.62a3,3,0,0,1,1.46.39l25.44,14.09C70.9,1010.62,71.93,1011,71.93,1013.35Z"/><path class="cls-88" d="M41.05,997.66c-.12,39.26,0,40.11,0,40.11"/><path class="cls-88" d="M71.35,1013.89c-.11,35.59,0,36.38,0,36.38"/><ellipse class="cls-87" cx="142.94" cy="1025.67" rx="40.76" ry="41.53"/><ellipse class="cls-56" cx="142.94" cy="1025.67" rx="36.88" ry="37.57"/><path class="cls-87" d="M147.7,999.31a1.26,1.26,0,0,1,1.79.29,1.34,1.34,0,0,1,.22.52c0,.12,0,.24,0,.36V1051a1.29,1.29,0,0,1-1.33,1.26,1.24,1.24,0,0,1-.69-.25L120.47,1032a1.3,1.3,0,0,1-.53-1v-10.47a1.27,1.27,0,0,1,.53-1Z"/><path class="cls-87" d="M113,1019.91h4.29a1.75,1.75,0,0,1,1.73,1.78v8a1.75,1.75,0,0,1-1.73,1.78H113a1.75,1.75,0,0,1-1.72-1.78v-8A1.75,1.75,0,0,1,113,1019.91Z"/><path class="cls-87" d="M162.44,1026.55c6.75,8.81,6.91,9,7.81,8.24s1-1.15-5.7-10-7.18-8.77-8.08-8S155.68,1017.73,162.44,1026.55Z"/><path class="cls-87" d="M162.38,1025.09c-6.06,9.34-6.17,9.55-5.21,10.21s1.38.67,7.44-8.66,5.88-9.74,4.92-10.4S168.43,1015.76,162.38,1025.09Z"/><path class="cls-37" d="M208.87,691.8c0,5.16-7.15,9.34-16,9.34H-123.85c-8.82,0-16-4.18-16-9.34v-7.45c0-5.16,7.15-9.34,16-9.34h1.43c8.82,0,16-4.19,16-9.35v-7.15c0-5.16,7.14-9.34,16-9.34h50.43c8.82,0,16-4.19,16-9.35v-6.88c0-5.16,7.15-9.35,16-9.35H56.17c8.82,0,16,4.19,16,9.35v6.88c0,5.16,7.15,9.35,16,9.35h0c8.82,0,16,4.18,16,9.34v7.15c0,5.16,7.15,9.35,16,9.35H192.9c8.82,0,16,4.18,16,9.34Z"/><path class="cls-38" d="M-130.88,664.72h91.95a10.7,10.7,0,0,1-3.48-7.67v-5.92a10.23,10.23,0,0,1,2.19-6.2h-75.73c-8.88,0-16.08-5.55-16.08-12.38v-5.92c0-6.84,7.2-12.38,16.08-12.38H29.51c8.88,0,16.08,5.54,16.08,12.38v5.92a10.23,10.23,0,0,1-2.19,6.2h75.73c8.88,0,16.08,5.55,16.08,12.38v5.92c0,6.84-7.2,12.38-16.08,12.38H27.18a10.69,10.69,0,0,1,3.47,7.67V683a9.58,9.58,0,0,1-.25,2.15H64c8.87,0,16.07,5.55,16.07,12.38v5.92c0,6.84-7.2,12.38-16.07,12.38H-81.47c-8.88,0-16.07-5.54-16.07-12.38v-5.92a9.65,9.65,0,0,1,.26-2.15h-33.6c-8.88,0-16.08-5.54-16.08-12.38V677.1C-147,670.26-139.76,664.72-130.88,664.72Z"/></svg>