<?xml version="1.0" encoding="utf-8"?>
<!-- Generator: Adobe Illustrator 26.0.0, SVG Export Plug-In . SVG Version: 6.00 Build 0)  -->
<svg version="1.1" id="Layer_1" xmlns="http://www.w3.org/2000/svg" xmlns:xlink="http://www.w3.org/1999/xlink" x="0px" y="0px"
	 viewBox="0 0 360.6 335.6" style="enable-background:new 0 0 360.6 335.6;" xml:space="preserve">
<style type="text/css">
	.st0{fill:none;}
	.st1{fill:#B56576;}
	.st2{fill:#C26C7E;}
	.st3{fill:#CC7284;}
</style>
<g>
	<path class="st0" d="M344,123.6c6.9,0,12.4-11.7,12.4-26.1C356.4,111.9,350.8,123.6,344,123.6z"/>
	<path class="st0" d="M50.4,193.5C33.8,181.3,12,125,12.1,86.7c0,38.4,21.7,94.7,38.3,106.9c11.7,8.5,15.3-14.6,19.4-42.3
		c0,0,0,0,0,0C65.7,179,62.1,202.1,50.4,193.5z"/>
	<path class="st0" d="M100.1,58C88,58,53.6,86.3,53.6,109.9c0,0,0,0.1,0,0.1c0-23.6,34.4-51.9,46.5-51.9c3.2,0,4.5,2,4.7,5.3
		C104.6,60,103.3,58,100.1,58z"/>
	<path class="st0" d="M346.2,61.8c1.4,3,1.1,4.4-1.6,5.6c-0.7,0.3-1.2,0.5-1.7,0.5c0.5,0,1.1-0.2,1.8-0.5
		C347.4,66.2,347.7,64.8,346.2,61.8c-1-2.6-3.8-4.1-6.5-3.4C342.3,57.8,345.1,59.2,346.2,61.8z"/>
	<path class="st0" d="M347.1,97.5c0,14.4-10,26.1-3.1,26.1C337.2,123.6,347.1,111.9,347.1,97.5z"/>
	<path class="st0" d="M75.5,152.8c-2,0-3.9-0.6-5.7-1.5C71.6,152.3,73.5,152.8,75.5,152.8z"/>
	<path class="st0" d="M114,23.6c10.1,10.7,2.7,24-9.2,39.8c0.6,9-6.8,28-7.3,45c0.5-17,7.9-35.9,7.4-44.9
		C116.8,47.6,124.2,34.4,114,23.6z"/>
	<path class="st0" d="M223.7,277.7c17.5-16.4,68.8-78.9,77.1-79.7C292.8,198.3,241.2,261.3,223.7,277.7
		c-18.2,16.8-45.2,37.3-40.7,42.1c0.4,0.5,1,0.7,1.8,0.6c-0.7,0-1.3-0.2-1.7-0.6C178.6,315.1,205.6,294.6,223.7,277.7z"/>
	<path class="st1" d="M360.4,91.3c0-0.6,0-1.1-0.1-1.7c0-0.1,0-0.2,0-0.3c0-0.7-0.1-1.3-0.2-2c0-0.4-0.1-0.8-0.1-1.2
		c-0.1-0.7-0.1-1.4-0.2-2c0-0.1,0-0.3-0.1-0.4c-6.4-50.8-51.8-87.8-103.2-83.3c-33.6,2.9-61.6,22.9-76.3,50.6
		C155.6,4.3,97.8-13.5,51.1,11.1C22.3,26.2,3.2,55,0.4,87.3v0.2c0,0.1,0,0.2,0,0.3c-0.1,0.7-0.1,1.3-0.2,2c0,0.1,0,0.3,0,0.4
		C-4,157,60.8,252.6,179.4,334.9l-0.2,0.6c0.2-0.1,0.4-0.3,0.6-0.4c0.2,0.2,0.5,0.3,0.7,0.5l-0.3-0.8
		C298.9,253.1,364,158,360.4,91.3z M356.4,97.5c0,14.4-5.5,26.1-12.4,26.1c-6.9,0,3.1-11.7,3.1-26.1c0-14.4-9.9-26.1-3.1-26.1
		S356.4,83.1,356.4,97.5z M338.8,58.6c0.3-0.1,0.6-0.2,0.9-0.2c2.7-0.7,5.5,0.8,6.6,3.4c1.4,3,1.1,4.4-1.6,5.6
		c-0.7,0.3-1.3,0.5-1.8,0.5c-1.5,0.2-2.4-0.8-3.5-3C338,61.9,336.1,59.9,338.8,58.6z M97.5,108.4c0,0.5,0,1.1,0,1.6
		c0,23.6-9.8,42.8-22,42.8c-2,0-3.9-0.5-5.7-1.5c-4.1,27.7-7.7,50.8-19.4,42.3C33.8,181.3,12,125.1,12.1,86.7
		c0-11.8,2.1-21.8,6.9-28.5C39.7,30,88.5,4.4,110.3,20.4c1.4,1.1,2.7,2.1,3.7,3.2c10.2,10.8,2.8,24-9.1,39.9
		C105.4,72.4,98,91.4,97.5,108.4z M230.6,287.8c-18.4,12.7-38.9,32.7-45.8,32.6c-0.7,0-1.3-0.2-1.8-0.6
		c-4.5-4.8,22.5-25.3,40.6-42.1c17.6-16.4,69.2-79.4,77.2-79.7c0.3,0,0.5,0,0.7,0.1C308,202,270.9,260,230.6,287.8z"/>
	<path class="st2" d="M347.1,97.5c0,14.4-9.9,26.1-3.1,26.1s12.4-11.7,12.4-26.1c0-14.4-5.6-26.1-12.4-26.1S347.1,83.1,347.1,97.5z"
		/>
	<path class="st2" d="M342.9,67.9c0.5-0.1,1.1-0.2,1.7-0.5c2.7-1.2,3-2.6,1.6-5.6c-1.1-2.6-3.9-4-6.5-3.4c-0.3,0.1-0.6,0.1-0.9,0.2
		c-2.7,1.3-0.8,3.3,0.6,6.3C340.5,67.2,341.3,68.1,342.9,67.9z"/>
	<path class="st2" d="M301.5,198.1c-0.2-0.1-0.4-0.1-0.7-0.1c-8.3,0.9-59.6,63.4-77.1,79.7c-18.1,16.9-45.1,37.4-40.6,42.1
		c0.4,0.4,1,0.6,1.7,0.6c7,0.1,27.4-19.9,45.8-32.6C270.9,260,308,202,301.5,198.1z"/>
	<path class="st2" d="M50.4,193.5c11.7,8.6,15.3-14.5,19.4-42.2c-9.4-4.9-16.2-21.5-16.2-41.3c0,0,0,0,0,0c0,0,0-0.1,0-0.1
		C53.6,86.3,88,58,100.1,58c3.2,0,4.5,2,4.7,5.4c12-15.8,19.3-29.1,9.2-39.8c-1-1.1-2.3-2.2-3.7-3.2C88.5,4.4,39.7,30,19,58.2
		c-4.9,6.6-6.9,16.7-6.9,28.5C12,125,33.8,181.3,50.4,193.5z"/>
	<path class="st3" d="M104.8,63.4c-0.2-3.3-1.5-5.3-4.7-5.3C88,58.1,53.6,86.4,53.6,110c0,0,0,0,0,0c0,19.8,6.8,36.4,16.2,41.3
		c0,0,0,0,0,0c1.8,0.9,3.7,1.5,5.7,1.5c12.2,0,22-19.2,22-42.8c0-0.5,0-1.1,0-1.6C98,91.4,105.4,72.4,104.8,63.4z"/>
</g>
</svg>
