<svg id="Layer_1" data-name="Layer 1" xmlns="http://www.w3.org/2000/svg" width="325" height="324.67" viewBox="0 0 325 324.67"><defs><style>.cls-1,.cls-3{fill:#4d4d4d;}.cls-2{fill:#fff;}.cls-3{stroke:#4d4d4d;stroke-linecap:round;stroke-miterlimit:10;stroke-width:5px;}</style></defs><circle class="cls-1" cx="162.5" cy="162.34" r="162.34"/><circle class="cls-2" cx="162.5" cy="162.34" r="146.86"/><ellipse class="cls-1" cx="89.82" cy="219.85" rx="35.86" ry="22.42"/><ellipse class="cls-1" cx="206.25" cy="254.42" rx="35.86" ry="22.42"/><path class="cls-1" d="M237.57,111.65v12.63c0,3.94-2.33,7.14-5.21,7.14h-2.42a12.42,12.42,0,0,1-6.06-1.61L113.39,68.62V47.42c0-4,2.33-7.15,5.21-7.15h2.46a11.76,11.76,0,0,1,5.76,1.54L227.27,97.44C233.49,100.89,237.57,102.45,237.57,111.65Z"/><path class="cls-3" d="M115.63,49.71c-.45,155,0,158.38,0,158.38"/><path class="cls-3" d="M235.27,113.77c-.45,140.56,0,143.66,0,143.66"/></svg>