<svg id="Layer_1" data-name="Layer 1" xmlns="http://www.w3.org/2000/svg" width="415" height="410.61" viewBox="0 0 415 410.61"><defs><style>.cls-1,.cls-3{fill:#4d4d4d;}.cls-2{fill:#fff;}.cls-3{stroke:#4d4d4d;stroke-linecap:round;stroke-miterlimit:10;stroke-width:5px;}</style></defs><circle class="cls-1" cx="207.5" cy="205.31" r="205.31"/><circle class="cls-2" cx="207.5" cy="205.31" r="185.73"/><ellipse class="cls-1" cx="115.59" cy="278.04" rx="45.36" ry="28.35"/><ellipse class="cls-1" cx="262.83" cy="321.76" rx="45.36" ry="28.35"/><path class="cls-1" d="M302.44,141.21v16c0,5-2.95,9-6.59,9h-3.06a15.73,15.73,0,0,1-7.66-2L145.39,86.78V60c0-5,3-9,6.59-9h3.12a15,15,0,0,1,7.27,1.94l127,70.36C297.28,127.59,302.44,129.56,302.44,141.21Z"/><path class="cls-3" d="M148.22,62.87c-.57,196,0,200.31,0,200.31"/><path class="cls-3" d="M299.53,143.88c-.57,177.76,0,181.69,0,181.69"/><path class="cls-1" d="M220.24,200.49c-101.59,140.68-125,171.43-132.39,166.1s17.88-33,119.47-173.68S319.18,39.07,326.57,44.41,321.84,59.82,220.24,200.49Z"/></svg>