<svg id="Layer_1" data-name="Layer 1" xmlns="http://www.w3.org/2000/svg" width="440" height="160" viewBox="0 0 440 160"><defs><style>.cls-1{fill:#355070;}.cls-2{fill:#6d597a;}.cls-3{fill:#fff;}</style></defs><ellipse class="cls-1" cx="220" cy="80" rx="217.9" ry="79.01"/><ellipse class="cls-2" cx="220" cy="80" rx="212.87" ry="64.83"/><path class="cls-3" d="M188.48,37.71a12.09,12.09,0,0,1-.74,4.37,10.57,10.57,0,0,1-2,3.33,12.28,12.28,0,0,1-3,2.41A18.49,18.49,0,0,1,179,49.43a23.7,23.7,0,0,1-4.08.91,30.85,30.85,0,0,1-4.13.32V62.49H159q0-5.81,0-11.57c0-3.85,0-7.72.08-11.63,0-2.07,0-4.13,0-6.2s0-4.15.13-6.24a45.24,45.24,0,0,1,13.2-1.93,24.53,24.53,0,0,1,3.91.31,18.85,18.85,0,0,1,3.75,1A16,16,0,0,1,183.41,28a11.15,11.15,0,0,1,4.42,5.69A12.11,12.11,0,0,1,188.48,37.71Zm-11.28.87a3.34,3.34,0,0,0-1-2.58,3.67,3.67,0,0,0-2.6-.93,7.11,7.11,0,0,0-1.11.09,10.08,10.08,0,0,0-1.07.22l-.31,7.41a5.6,5.6,0,0,0,.69.05h.68a5.31,5.31,0,0,0,1.77-.3,5,5,0,0,0,1.51-.88,4.4,4.4,0,0,0,1.05-1.34A3.84,3.84,0,0,0,177.2,38.58Z"/><path class="cls-3" d="M212.19,47.67l-1.06,11.27-21.38,1.67q.15-8.85.34-17.62t.47-17.62h13.2q-.58,5.56-1.11,11.11c-.36,3.7-.61,7.43-.77,11.19.8,0,1.59,0,2.37,0h2.36c.94,0,1.88,0,2.79,0S211.24,47.67,212.19,47.67Z"/><path class="cls-3" d="M245.4,60l-12.59,1.63-1.52-5.74H225.5l-1.27,5.74-12.95-1.27,10.1-33.82,14.12-.71Zm-15-11.88-1.93-8.83-1.88,8.83Z"/><path class="cls-3" d="M275.42,27.76l-14,19.5-.66,15.89h-12l.31-15.79L241.8,28.52l12.95-1.62,2,11,6.45-11Z"/><path class="cls-3" d="M180.57,122.35,168,124l-1.52-5.74h-5.79L159.39,124l-12.95-1.27,10.11-33.82,14.12-.71Zm-15-11.88-1.93-8.83-1.88,8.83Z"/><path class="cls-3" d="M211.16,118.85a11.84,11.84,0,0,1-2.94,2.62,19.61,19.61,0,0,1-3.76,1.85,23.53,23.53,0,0,1-4.11,1.1,22.92,22.92,0,0,1-4,.37,18,18,0,0,1-6.78-1.24,16,16,0,0,1-5.35-3.47,15.69,15.69,0,0,1-3.51-5.29,17.32,17.32,0,0,1-1.27-6.71,22.89,22.89,0,0,1,.63-5.38,21.58,21.58,0,0,1,1.82-4.9,19.74,19.74,0,0,1,2.88-4.19,18.25,18.25,0,0,1,8.59-5.39,19.49,19.49,0,0,1,5.47-.75q1.1,0,2.34.09c.83.06,1.65.16,2.48.3a17.54,17.54,0,0,1,2.4.6,11.44,11.44,0,0,1,2.13.94l-.71,9.7a12.91,12.91,0,0,0-2.94-.73,24.88,24.88,0,0,0-3-.19,12.6,12.6,0,0,0-3.8.55,8.9,8.9,0,0,0-3.07,1.61,7.63,7.63,0,0,0-2.07,2.67,8.46,8.46,0,0,0-.76,3.7,9.53,9.53,0,0,0,.35,2.56,6.74,6.74,0,0,0,1.08,2.18,5.44,5.44,0,0,0,1.8,1.53,5.2,5.2,0,0,0,2.51.59,8.81,8.81,0,0,0,2-.25,4.35,4.35,0,0,0,1.76-.87l.1-2-6.09-.1.31-7.62q3.78-.12,7.56-.21t7.62-.24Z"/><path class="cls-3" d="M245.11,122.35,232.52,124,231,118.24h-5.78L223.94,124,211,122.71l10.1-33.82,14.12-.71Zm-15-11.88-1.93-8.83-1.88,8.83Z"/><path class="cls-3" d="M258.9,88.79l-1.78,34.58-10.71.56-1-34.43Z"/><path class="cls-3" d="M292.46,111.69q0,2.86-.06,5.67c0,1.87-.11,3.76-.19,5.65l-14.62-.25q.75-4.5,1.32-9a73.42,73.42,0,0,0,.55-9c0-.22,0-.57,0-1.06s-.05-1-.1-1.67-.13-1.25-.22-1.9a12.22,12.22,0,0,0-.38-1.79,4.87,4.87,0,0,0-.58-1.33,1,1,0,0,0-.83-.52,2.18,2.18,0,0,0-1.46.5,4,4,0,0,0-1,1.31,8.18,8.18,0,0,0-.62,1.79,17.08,17.08,0,0,0-.34,2c-.08.66-.13,1.28-.16,1.87s0,1.06,0,1.43c-.09,3-.16,6-.21,8.93s-.12,5.93-.2,9l-12.95.56q.51-9,1-17.83t.75-17.82l12-.61-.1,4.06A15.7,15.7,0,0,1,275.52,90a9.61,9.61,0,0,1,3.75-2.18,7.8,7.8,0,0,1,2.23-.31,9.27,9.27,0,0,1,3.78.71,8.6,8.6,0,0,1,2.79,1.93A10.84,10.84,0,0,1,290,93a20.89,20.89,0,0,1,1.27,3.54,31.65,31.65,0,0,1,.73,3.92c.17,1.37.29,2.71.35,4s.08,2.6.08,3.83Z"/></svg>