<svg id="Layer_1" data-name="Layer 1" xmlns="http://www.w3.org/2000/svg" width="330" height="399.24" viewBox="0 0 330 399.24"><defs><style>.cls-1{fill:#7f5539;}.cls-2{fill:#03071e;}.cls-3{fill:#edf5f3;}.cls-4{fill:#24877b;}.cls-5{fill:#2a9d8f;}.cls-6{fill:#f2faf8;}.cls-7{fill:#ffe8d6;}.cls-8{fill:#3d3f3e;}</style></defs><rect class="cls-1" x="85.15" width="159.7" height="93.16" rx="12"/><path class="cls-2" d="M240.3,33.82c0,4.78-.29,20.9-.94,20.9s-.93-16.12-.93-20.9.29-6.48.93-6.48S240.3,29.05,240.3,33.82Z"/><path class="cls-2" d="M95.68,23.7c0,4.78-.88,20.9-2.83,20.9S90,28.48,90,23.7s.87-6.48,2.82-6.48S95.68,18.93,95.68,23.7Z"/><path class="cls-2" d="M100.36,31.2c0,4.78-.29,20.9-.93,20.9S98.49,36,98.49,31.2s.29-6.48.94-6.48S100.36,26.42,100.36,31.2Z"/><path class="cls-3" d="M328.5,117.51v262c0,10-4.56,18.33-10.48,19.54a5.67,5.67,0,0,1-.57.1,6.85,6.85,0,0,1-.91.05H13.46a6.85,6.85,0,0,1-.91-.05c-6-.74-10.73-8.69-11-18.6L2.22,275.9,3.29,117.47a7.26,7.26,0,0,1,7.26-7.2H321.26A7.25,7.25,0,0,1,328.5,117.51Z"/><rect class="cls-3" x="58.53" y="38.02" width="212.93" height="41.83" rx="11"/><rect class="cls-3" x="85.15" y="66.54" width="159.7" height="43.73" rx="7.18"/><ellipse class="cls-4" cx="84.2" cy="282.32" rx="67.49" ry="27.57"/><ellipse class="cls-4" cx="240.1" cy="307.04" rx="67.49" ry="44.68"/><path class="cls-5" d="M328.5,229V379.55c0,10-4.56,18.33-10.48,19.54a5.67,5.67,0,0,1-.57.1,6.85,6.85,0,0,1-.91.05H13.46a6.85,6.85,0,0,1-.91-.05c-6-.74-10.73-8.69-11-18.6a8.87,8.87,0,0,1,0-1L2,276.26l.23-.36C6.27,269.81,12.74,267,19,270c19.18,9.08,46.18,20.76,58.52,21.14,22.45.64,68.44-47.49,100.76-26.39,24.64,16.1,47.87,48.9,72.24,50.87,21.64,1.77,49.43-48.23,49.43-48.23C314.49,238.9,323.35,228.63,328.5,229Z"/><path class="cls-6" d="M14.81,138.78c0,12.6-1.18,55.14-3.8,55.14S7.2,151.38,7.2,138.78,8.38,121.67,11,121.67,14.81,126.19,14.81,138.78Z"/><path class="cls-6" d="M14.91,116.73a3,3,0,0,1-3.65,3A3,3,0,0,1,8.34,116a4.48,4.48,0,0,1,4.57-3.85C15.17,112.41,15.12,114.72,14.91,116.73Z"/><path class="cls-6" d="M96.66,88.57c0,12.6,6.33,17.9,3.7,17.9s-11.3-5.3-11.3-17.9-6.53-16.33-3.91-16.33S96.66,76,96.66,88.57Z"/><path class="cls-6" d="M69.94,58.94c0,12.6,4.53,13.3,1.9,13.3s-9.5-.7-9.5-13.3,6.88-11.41,9.5-11.41S69.94,46.34,69.94,58.94Z"/><path class="cls-6" d="M13.12,379.52c3.59,14,6.21,15.92,3.59,15.92S5.52,392.12,5.52,379.52s-.94-20.2,1.68-20.2S10,367.31,13.12,379.52Z"/><path class="cls-6" d="M9.1,350.83c0,4.5-.7,4.69-1.87,4.69s-1.52-.19-1.52-4.69S6.05,346,7.23,346,9.1,346.33,9.1,350.83Z"/><path class="cls-6" d="M325.15,365.21c-.3,5.82.34,20.14-4.25,26.43-4,5.49-13.24,3.4-14.47,3.34-2.64-.13,10.51-19.26,11.07-30.17s1.94-14.75,4.58-14.62S325.71,354.3,325.15,365.21Z"/><path class="cls-6" d="M324.7,315.59c-.3,5.83,2.69,24.13-1.9,30.42-4,5.49-3.81-11.41-3.81-15.21,0-6.85-.56-6.2,0-17.11s-.74-17.24,1.91-17.11S325.26,304.68,324.7,315.59Z"/><path class="cls-6" d="M324.68,134.47c-.3,5.82,2.69,24.12-1.9,30.42-4,5.49-3.8-11.41-3.8-15.21,0-6.86-.56-6.2,0-17.11s-.74-17.25,1.9-17.12S325.24,123.56,324.68,134.47Z"/><path class="cls-6" d="M325.18,173a3.3,3.3,0,1,1-6.57-.71,4.49,4.49,0,0,1,4.57-3.85C325.45,168.67,325.39,171,325.18,173Z"/><rect class="cls-7" x="39.52" y="190.12" width="249.05" height="70.34" rx="3.43"/><path class="cls-8" d="M86.5,201.81q6.39,3.39,6.39,11.64,0,6-4.72,15.17-5.26,10.26-10.72,10.25a3.94,3.94,0,0,1-2.36-1l-2.56-2v11.31a7.28,7.28,0,0,0,.33,2q.47,1.59.6,2.19a4.48,4.48,0,0,1-.5,2.17,2.32,2.32,0,0,1-1.83,1.69q-1.2.14-5.19-1.66-4.19-1.86-5.19-3.33a3.31,3.31,0,0,1,0-2.79,7.55,7.55,0,0,0,.47-2.2V204.07a4.62,4.62,0,0,0-.47-1.46,3.38,3.38,0,0,1-.4-1.53c.27-2.13,1.07-3.2,2.4-3.2a18.73,18.73,0,0,1,2.69.77,15.72,15.72,0,0,0,3.76.83,14.15,14.15,0,0,0,5.09-1.07,15.28,15.28,0,0,1,4.5-1.13,6.66,6.66,0,0,1,1.59.2,7.57,7.57,0,0,1,3.2,2A15.58,15.58,0,0,0,86.5,201.81ZM81,206.93a9.3,9.3,0,0,0-4.26,1.66,14.44,14.44,0,0,0-4.19,3.66v16q3.6-1.12,6.79-8.18,2.93-6.39,2.93-10.85C82.25,207.71,81.82,206.93,81,206.93Z"/><path class="cls-8" d="M118.51,254.17a8.5,8.5,0,0,1-3.13-.36c-1.15-.33-2.28-.68-3.39-1q-2-.54-6.26-1.93c-3.55-1.55-6.23-4.62-8-9.18A40,40,0,0,1,95.29,227a67,67,0,0,1,2.39-16.31q3.27-12.51,8.45-12.51a5,5,0,0,1,1.3.24c.55.15,1,.25,1.3.3a32.11,32.11,0,0,1,6.32-1.4,11.85,11.85,0,0,1,1.33.07q8,1,12.58,10,4.13,8.11,4.12,19.36,0,10.65-3.72,18.3Q125.35,253.37,118.51,254.17Zm-1.2-48.77c-1-.27-1.94,1-2.89,3.93s-1.92,4.32-2.9,4.32a2.21,2.21,0,0,1-1-.36,3.4,3.4,0,0,0-1-.44q-2.27,5-2.27,14.24a44.4,44.4,0,0,0,1.53,12.45c1.16,3.86,2.75,6,4.8,6.38q3.59.68,5.79-7.38a64.37,64.37,0,0,0,1.92-16.77,52.1,52.1,0,0,0-1-11.05Q119.24,205.94,117.31,205.4Z"/><path class="cls-8" d="M150.52,200.88a3.83,3.83,0,0,1-.3,1.26c-.2.53-.33.86-.37,1a30.87,30.87,0,0,0-.8,4.12v40.86a2.59,2.59,0,0,0,.4,1.43,2.08,2.08,0,0,1,.4,1q0,4.26-1.6,4.59a20.18,20.18,0,0,1-4.66-.86c-2.83-.71-4.48-1.27-4.92-1.67a3.35,3.35,0,0,1-1.46-2.32,1,1,0,0,1,.26-.6,1.82,1.82,0,0,0,.27-1.13V201.67a1.83,1.83,0,0,0-.23-.83,1.7,1.7,0,0,1-.24-.83c.09-1.06.91-1.77,2.47-2.13a16.16,16.16,0,0,1,3.06,0,25.16,25.16,0,0,1,4.79.73C149.54,199.15,150.52,199.9,150.52,200.88Z"/><path class="cls-8" d="M185.85,243.13a10.77,10.77,0,0,1-3.26,8.08q-3.27,3.16-9.05,3.3a11.66,11.66,0,0,1-3.13-.47c-2-.58-3.11-.86-3.19-.86l-3.23-.7a5.94,5.94,0,0,1-2.83-1.5,11.4,11.4,0,0,1-2.93-5.19,26.67,26.67,0,0,0-2.13-5.26,8.76,8.76,0,0,1-1.26-1.86,2.72,2.72,0,0,1,.37-2,2.53,2.53,0,0,1,1.36-1.23,5.16,5.16,0,0,1,1.46-.14,35,35,0,0,1,5.69.57c2.24.38,3.5.72,3.76,1s.62,1.91,1.07,4.79c.4,2.66,1,4.15,1.79,4.46a1.32,1.32,0,0,0,.6.13c.84,0,1.57-.7,2.16-2.09a12,12,0,0,0,.9-4.76q0-5.79-3.59-7.72-8.25-4.45-11.58-8.25a13.74,13.74,0,0,1-3.46-10.38A21.06,21.06,0,0,1,159,203q3.28-5.1,6.95-6,1.53-.33,9.32,2.93c1.28.49,2.58,1,3.89,1.53a7.5,7.5,0,0,1,3.16,2.33c1.24,1.55,1.86,4.24,1.86,8,0,.71,0,1.75-.06,3.13-.05,1.2-.07,2-.07,2.53a8,8,0,0,0,.47,1.53,2.81,2.81,0,0,1,.26,1.46c-.09,2-.91,3-2.46,3.26-.89.14-2.53-.2-4.92-1-2.67-.84-4.35-1.75-5.06-2.72a3.58,3.58,0,0,1-.13-1.33c0-.67.07-2.18.23-4.53s.23-4.06.23-5.12c0-1.91-.22-2.84-.66-2.8q-2.07.13-3.43,3a14.61,14.61,0,0,0-1.36,6.42q0,6,3.52,8.52l8,5.06a16.15,16.15,0,0,1,5.25,4.92C185.22,236.34,185.85,239.31,185.85,243.13Z"/><path class="cls-8" d="M212.4,254.17a8.46,8.46,0,0,1-3.13-.36c-1.15-.33-2.29-.68-3.39-1-1.34-.36-3.42-1-6.26-1.93-3.55-1.55-6.23-4.62-8.05-9.18a39.79,39.79,0,0,1-2.4-14.64,66.57,66.57,0,0,1,2.4-16.31q3.26-12.51,8.45-12.51a5.1,5.1,0,0,1,1.3.24,12.74,12.74,0,0,0,1.3.3,32,32,0,0,1,6.32-1.4,12,12,0,0,1,1.33.07q8,1,12.57,10,4.13,8.11,4.13,19.36,0,10.65-3.73,18.3Q219.25,253.37,212.4,254.17Zm-1.2-48.77c-1-.27-1.94,1-2.9,3.93s-1.92,4.32-2.89,4.32a2.28,2.28,0,0,1-1-.36,3.3,3.3,0,0,0-1-.44q-2.26,5-2.26,14.24a44.4,44.4,0,0,0,1.53,12.45c1.15,3.86,2.75,6,4.79,6.38q3.6.68,5.79-7.38a63.91,63.91,0,0,0,1.93-16.77,51.38,51.38,0,0,0-1-11.05Q213.13,205.94,211.2,205.4Z"/><path class="cls-8" d="M268.49,200.88a3.66,3.66,0,0,1-.27,1.39,10.94,10.94,0,0,0-.6,1.8V248c0-.14.11.68.34,2.46.26,2,0,3.37-.8,4s-2.6.8-5.39.53a23.24,23.24,0,0,1-5.52-1.26q-4.06-1.26-4.46-2.66a16.28,16.28,0,0,0-.2-2.86q-3.74-9.85-8.65-21.63v19.7a3.14,3.14,0,0,0,.46,1.39,13.23,13.23,0,0,1,.6,1.2,6.35,6.35,0,0,1,.33,2c0,1.77-.79,2.66-2.39,2.66a23.9,23.9,0,0,1-6.59-1.33q-4-1.34-4.52-2.06a2.48,2.48,0,0,1,0-2.73,7.61,7.61,0,0,0,.79-2.06V203.6a5.48,5.48,0,0,0-.19-1.19,2.48,2.48,0,0,1-.07-1.27,4.43,4.43,0,0,1,2.6-3.06,4.85,4.85,0,0,1,1.46-.13,22.58,22.58,0,0,1,5.32.66,9.89,9.89,0,0,1,4.93,2.27q1.86,2,4.85,12.17,3.66,12.51,5.73,16.9V203.8a6,6,0,0,0-.27-1.49,6,6,0,0,1-.27-1.5,1.9,1.9,0,0,1,.14-.73c.22-.76,1.06-1.31,2.53-1.67a9.6,9.6,0,0,1,3.32-.33,20.44,20.44,0,0,1,3.66.73C267.4,199.43,268.44,200.12,268.49,200.88Z"/></svg>