<svg id="Layer_1" data-name="Layer 1" xmlns="http://www.w3.org/2000/svg" width="550" height="446.42" viewBox="0 0 550 446.42"><defs><style>.cls-1,.cls-8{fill:#f2935c;}.cls-1,.cls-18,.cls-3{stroke:#f2935c;}.cls-1,.cls-3{stroke-linecap:round;stroke-linejoin:round;}.cls-18,.cls-2,.cls-3{fill:#e68b57;}.cls-4{fill:#ed905a;}.cls-5{fill:#ebf3f2;}.cls-6{fill:#fffaec;}.cls-7{fill:#bf886a;}.cls-9{fill:#484848;}.cls-10{fill:#f2f2f2;}.cls-11{fill:#767676;}.cls-12{fill:#f25555;}.cls-13{fill:#d17f4f;}.cls-14{fill:#9d5f3b;}.cls-15{fill:#e38a56;}.cls-16{fill:#ffdcc9;}.cls-17{fill:#edcdbb;}.cls-18{stroke-miterlimit:10;}.cls-19{fill:#a8dadc;}</style></defs><path class="cls-1" d="M101.06,295.61c5,56.87,1.94,103.53-6.94,104.31l-4.36-12.57-5.28,13.43-3.32-5.39-4.25-6.9-5.23,13.42-4-8.28q-2.3-6-4.36-12.58a227.8,227.8,0,0,1-9.67-72.59"/><path class="cls-2" d="M91.76,360.15c-.67,12.2.59,22.73,4.08,22.93s1.55-10.38,2.23-22.57,4.23-17.22.74-17.42S92.44,348,91.76,360.15Z"/><path class="cls-3" d="M263.7.5a739.52,739.52,0,0,0-94.55,166.12q-5.22,12.82-9.81,25.44a1.27,1.27,0,0,0-.05.16L1.36,80.07c5.43,1.26,41.78,9.14,69.14-13.84a68.44,68.44,0,0,0,17.43-22.6c7.53,2.2,33.64,8.85,61.46-4a85.37,85.37,0,0,0,31.16-24.77,64.63,64.63,0,0,0,33.17,9.27C242.45,24,260.64,4,263.7.5Z"/><path class="cls-3" d="M180.55,14.87s9.19,33.32,2.24,71.55C174.17,134,160.2,188.68,159.34,192.06a1.27,1.27,0,0,0-.05.16s-28.52-44.37-49.66-84.36a224.21,224.21,0,0,1-21.7-64.23c7.53,2.2,33.64,8.85,61.46-4A85.37,85.37,0,0,0,180.55,14.87Z"/><path class="cls-4" d="M368.89,201.19l.37-.13,51.21,90.54c64.63,57.51,15.42,40.24-3,47l-58.11,20.36c-4.56-57.72-2.5-115.67,2.67-173.38l.79,1.38Z"/><path class="cls-5" d="M113.15,145c-2,14.43-8.47,26.26-18.29,33.28-7.83,5.61-17.79,8.17-29.3,6.58-26-3.6-38.6-25.33-35-51.3,2.57-18.55,12.85-29.76,28-33.34a55.08,55.08,0,0,1,20.25-.61C104.75,103.23,116.74,119.08,113.15,145Z"/><path class="cls-6" d="M113.15,145c-2,14.43-8.47,26.26-18.29,33.28a43.35,43.35,0,0,1-16.1.62c-25.95-3.6-38.6-25.33-35-51.28,1.73-12.5,6.94-21.66,14.79-27.4a55.08,55.08,0,0,1,20.25-.61C104.75,103.23,116.74,119.08,113.15,145Z"/><circle class="cls-7" cx="58.88" cy="182.77" r="6.81"/><path class="cls-8" d="M387.49,300.46C377,376.4,310.45,412.31,235.85,413.8a253.65,253.65,0,0,1-40.18-2.4,170.43,170.43,0,0,1-30.92-7.28,184.81,184.81,0,0,1-76.43-49.68q-2.08-2.28-4.06-4.57c-29.4-34.1-45.67-78.52-39.32-124.34C57.32,136.12,151.1,75.22,240.5,87.6c72.59,10.05,132.34,85.13,145.65,160.86A167.72,167.72,0,0,1,387.49,300.46Z"/><path class="cls-5" d="M297.77,195.36c-2.26,16.34-9.77,29.69-21.22,37.6-9.14,6.31-20.77,9.15-34.25,7.29C211.89,236,197,211.36,201.08,182c2.91-21,14.88-33.62,32.57-37.6a66.56,66.56,0,0,1,23.69-.58C287.72,148,301.84,166,297.77,195.36Z"/><path class="cls-6" d="M297.77,195.36c-2.26,16.34-9.77,29.69-21.22,37.6a52.72,52.72,0,0,1-18.84.61c-30.38-4.21-45.29-28.89-41.22-58.25,2-14.15,8-24.49,17.16-30.95a66.56,66.56,0,0,1,23.69-.58C287.72,148,301.84,166,297.77,195.36Z"/><ellipse class="cls-9" cx="236.01" cy="200.42" rx="10.22" ry="10.98" transform="translate(5.12 406.71) rotate(-82.12)"/><ellipse class="cls-10" cx="235.68" cy="202.8" rx="4.59" ry="4.94" transform="translate(2.47 408.44) rotate(-82.12)"/><circle class="cls-9" cx="65.51" cy="144.49" r="10.22"/><circle class="cls-10" cx="65.03" cy="147.96" r="4.59"/><path class="cls-11" d="M155,241.49c-2.09,6.45-2.47,9.58-12,5.56-1.74-.73-3.64-1.55-5.68-2.39-1.44-.6-3-1.21-4.57-1.82-1.34-.52-2.78-1.05-4.24-1.58-2.72-1-5.6-1.89-8.7-2.76l-1-.27c-.35-.1-.7-.2-1.07-.29l-.42-.11-2-.48c-2.24-.52-4.44-.95-6.59-1.33-3.13-.55-6.14-1-9-1.37l-2.34-.3-4.36-.53c-11.52-1.38-13.24-3.7-11.16-10,1.73-5.29,1.91-9,10.34-11.58a49.21,49.21,0,0,1,18-1.95c1.72.11,3.47.29,5.3.56a69.29,69.29,0,0,1,8.17,1.75,81.6,81.6,0,0,1,8,2.67c.66.26,1.32.53,2,.81a71.27,71.27,0,0,1,11.84,6.21C154.62,228.36,157.19,234.77,155,241.49Z"/><path class="cls-10" d="M145.81,222.36c-4.29,5.95-9.84,9.06-13.16,7.13s-3.35-7.8-.66-14.16q1,.39,2,.81A72.83,72.83,0,0,1,145.81,222.36Z"/><path class="cls-12" d="M118.78,238.23c-.35-.1-.7-.2-1.07-.29l-.42-.11-2-.48c-2.24-.52-4.44-.95-6.59-1.33-3.13-.55-6.14-1-9-1.37l-2.34-.3c4.5-5.2,10-7.76,14.61-6,3.17,1.17,5.35,4.17,6.39,8.18C118.56,237.06,118.68,237.64,118.78,238.23Z"/><path class="cls-12" d="M138.22,244.42l-.89.24c-1.44-.6-3-1.21-4.57-1.82-1.34-.52-2.78-1.05-4.24-1.58-2.72-1-5.6-1.89-8.7-2.76l-1-.27c-.35-.1-.7-.2-1.07-.29l-.42-.11c.36-.47.74-.9,1.13-1.32,3.17-3.44,7-5.2,10.57-4.51C133.71,232.93,137,237.82,138.22,244.42Z"/><path class="cls-13" d="M293.51,226.11c-2.8,20.27-21.74,27.39-50.25,23.44s-47-16.24-44.19-36.52,17.59,18.81,46.1,22.75S296.32,205.83,293.51,226.11Z"/><path class="cls-14" d="M244.14,103l-41.79,4.52a2.16,2.16,0,0,1-2.3-1.53c-2.07-7.39-.66-14,4.95-19.77a23,23,0,0,1,27.71-4,25.58,25.58,0,0,1,13.14,18.45A2,2,0,0,1,244.14,103Z"/><path class="cls-14" d="M284.48,106.29,271,104.42c-2.1.11-8.84-2.69-8.68-3.49,1.19-6,5-7.67,11.22-10,7.83-2.89,16.87-.52,21.76,6.24,4,5.59,12.37,23.76,4.31,15.77C295,108.37,285.36,106.58,284.48,106.29Z"/><path class="cls-14" d="M185.64,111.61,149.42,133a2.14,2.14,0,0,1-2.72-.45c-4.94-5.88-6.37-12.48-3.64-20.06a23,23,0,0,1,23.62-15,25.6,25.6,0,0,1,19.57,11.4A2,2,0,0,1,185.64,111.61Z"/><path class="cls-14" d="M445.59,317.32l-12-12.42a.93.93,0,0,1-.09-1.14,7.79,7.79,0,0,1,7.58-3.53,9.39,9.39,0,0,1,8.28,8,10.78,10.78,0,0,1-2.58,9.06A.78.78,0,0,1,445.59,317.32Z"/><path class="cls-14" d="M428.41,299.94,415.2,286.29a1,1,0,0,1-.1-1.26,8.53,8.53,0,0,1,8.33-3.87,10.32,10.32,0,0,1,9.1,8.77,11.89,11.89,0,0,1-2.84,10A.86.86,0,0,1,428.41,299.94Z"/><path class="cls-14" d="M405.88,276.07l-8.95-19.6a1.16,1.16,0,0,1,.37-1.38,9.72,9.72,0,0,1,10.38-1,11.72,11.72,0,0,1,6.4,12.83,13.47,13.47,0,0,1-6.81,9.57A1,1,0,0,1,405.88,276.07Z"/><path class="cls-15" d="M341,380c-28.16,25.2-68.22,37.74-110.93,38.68a248.14,248.14,0,0,1-39.66-2.32,166.77,166.77,0,0,1-30.5-7.23,181.17,181.17,0,0,1-75.34-49.55c-1.37-1.52-2.7-3-4-4.57C51.56,321,35.6,276.6,42,230.75,48.21,185.5,75,147.52,111.37,122.61c-28.53,24.44-48.89,57.8-54.24,96.48-6.35,45.85,9.62,90.26,38.57,124.31,1.31,1.53,2.63,3,4,4.56A181.07,181.07,0,0,0,175,397.51a166,166,0,0,0,30.5,7.23,248.16,248.16,0,0,0,39.66,2.33C280.72,406.28,314.43,397.48,341,380Z"/><path class="cls-15" d="M253.7,413.66l6,2.85a222.27,222.27,0,0,1-29.51,2.61,248.1,248.1,0,0,1-39.65-2.33,168.56,168.56,0,0,1-46.24-13.44l-.48-.2a181.55,181.55,0,0,1-56-39.84l-.28-.3q-1.45-1.47-2.82-3c-1.37-1.52-2.7-3-4-4.56s-2.59-3.09-3.84-4.7A76.13,76.13,0,0,1,78.35,343a70.62,70.62,0,0,1,5.28-14.6c.06-.13.12-.23.19-.36a.75.75,0,0,1,.06-.13,174.06,174.06,0,0,0,12,15.85l.5.57.27.32c1,1.22,2.14,2.45,3.23,3.67,2.58,2.86,5.27,5.62,8.06,8.32a182.88,182.88,0,0,0,47,32.91,3,3,0,0,0,.37.16,169,169,0,0,0,19.9,8.17,166.45,166.45,0,0,0,30.49,7.22,248.34,248.34,0,0,0,35,2.37l1,.49Z"/><path class="cls-16" d="M164.63,362.44a74.5,74.5,0,0,1-1.47,7.68,69.62,69.62,0,0,1-7.95,19.5,59.58,59.58,0,0,1-6.24,8.6,52.24,52.24,0,0,1-4.9,5,181.85,181.85,0,0,1-56.3-40.13c-1-1-1.9-2-2.81-3q-2.05-2.28-4-4.57c-1.38-1.63-2.73-3.26-4.06-5l0-.22a73.45,73.45,0,0,1,1.47-7.71,71.85,71.85,0,0,1,5.47-15c9.6-19.18,26.94-31.08,44.84-28.6C152.94,302.38,169,330.78,164.63,362.44Z"/><path class="cls-16" d="M260.58,416.45a222.85,222.85,0,0,1-30.14,2.7,248.1,248.1,0,0,1-39.65-2.33,166.85,166.85,0,0,1-30.51-7.22,171.73,171.73,0,0,1-16.21-6.42,181.85,181.85,0,0,1-56.3-40.13l2.92-6.15,5.94-12.49,2.3-4.84,64.23,30.55,78.67,37.43,11.93,5.66Z"/><path class="cls-17" d="M155.57,389.33a4.49,4.49,0,0,1-.24.42l-.18.32a60.34,60.34,0,0,1-6.24,8.6,51,51,0,0,1-4.61,4.68,3.9,3.9,0,0,1-.29.28,181.73,181.73,0,0,1-56.3-40.13c-1-1-1.9-2-2.81-3-1.38-1.52-2.7-3-4-4.57s-2.73-3.26-4.06-5l0-.22A76.13,76.13,0,0,1,78.35,343a70.62,70.62,0,0,1,5.28-14.6c.06-.13.12-.23.19-.36a.75.75,0,0,1,.06-.13,174.06,174.06,0,0,0,12,15.85l.5.57.27.32c1,1.22,2.14,2.45,3.23,3.67,2.58,2.86,5.27,5.62,8.06,8.32A185,185,0,0,0,155.57,389.33Z"/><path class="cls-17" d="M260.52,416.9a223,223,0,0,1-30.15,2.7,248,248,0,0,1-39.64-2.33,166.66,166.66,0,0,1-30.51-7.22A171.73,171.73,0,0,1,144,403.63a181.73,181.73,0,0,1-56.3-40.13l.1-.19,2.82-6,5.91-12.45,0,0,.09-.17c1,1.22,2.14,2.45,3.23,3.67,2.58,2.86,5.27,5.62,8.06,8.32a185,185,0,0,0,47.62,32.65,179.6,179.6,0,0,0,19.94,8.08,171.27,171.27,0,0,0,30.92,7.28,256.66,256.66,0,0,0,33.49,2.44l.81.38,1,.49,11.93,5.66,6,2.85Z"/><path class="cls-14" d="M329.37,141.23l-10.77-8.35c-1.87-.95-6.32-6.74-5.79-7.35,4-4.58,8.16-4.16,14.7-3,8.24,1.4,14.89,8,15.76,16.26.72,6.86-1.12,26.76-4.13,15.81C337.41,148.25,330,141.91,329.37,141.23Z"/><path class="cls-1" d="M265.13,361.34c-26.27,50.68-53.93,88.38-61.85,84.28l3.08-12.95-11.67,8.49.09-6.32.12-8.11-11.62,8.52,1.05-9.15q1.26-6.25,3.07-13a227.93,227.93,0,0,1,30.8-66.44"/><path class="cls-1" d="M342.4,367.85c5.32,33.36,4.93,60.83-.87,61.4l-3.31-7.33-3,8-2.37-3.12-3-4-3,8-2.94-4.82c-1.14-2.31-2.25-4.76-3.3-7.34A123.24,123.24,0,0,1,311.72,376"/><path class="cls-18" d="M549.07,217.18A739.35,739.35,0,0,0,358.13,226q-13.63,2.44-26.74,5.31l-.17,0L341.64,37.94c1.84,5.27,14.6,40.2,48.64,51.06a68.55,68.55,0,0,0,28.42,2.65c2.16,7.54,10.49,33.17,36.21,49.82a85.25,85.25,0,0,0,37.58,13.11,64.57,64.57,0,0,0,9.89,33C517.82,211.8,544.49,216.46,549.07,217.18Z"/><path class="cls-18" d="M492.49,154.58s-23.25,25.56-59.28,40.12c-44.79,18.11-98.51,35.54-101.82,36.62l-.17,0s22.27-47.81,44.78-87.05a224.33,224.33,0,0,1,42.7-52.66c2.16,7.54,10.49,33.17,36.21,49.82A85.25,85.25,0,0,0,492.49,154.58Z"/><path class="cls-2" d="M229.32,419c-6.49,10.34-13.62,18.2-16.58,16.34s4.74-9.36,11.24-19.7,6.51-16.5,9.46-14.64S235.82,408.67,229.32,419Z"/><path class="cls-2" d="M344.6,401.58c-.06,9.26-1.13,17.17-3,17.16s-.48-7.93-.42-17.19-1.69-13.23.22-13.22S344.67,392.31,344.6,401.58Z"/><path class="cls-2" d="M340.32,384.31c1.21-.24,1.66,1.17,1.89,2.31s.12,0-1.09.22-1.41,1.47-1.64.33S339.11,384.56,340.32,384.31Z"/><path class="cls-2" d="M235.31,398.08c1.82,1,1.36,2.41.8,3.43s.17.09-1.64-.89-3-.32-2.46-1.34S233.5,397.1,235.31,398.08Z"/><path class="cls-19" d="M270,252.19c-2.05-.28-4.54-1.78-4.25-3.83a2.94,2.94,0,0,1,.45-1.18,32.36,32.36,0,0,0,3.49-7.19l4.31,6,.61.77C277.14,250.6,272.47,252.53,270,252.19Z"/><path class="cls-19" d="M251.84,271.94c-4.91-.68-10.87-4.26-10.19-9.17a7.17,7.17,0,0,1,1.09-2.82,78.27,78.27,0,0,0,8.35-17.21L261.42,257l1.45,1.86C268.84,268.12,257.64,272.74,251.84,271.94Z"/><path class="cls-19" d="M26.49,207.32c-3-3.91-4.81-10.63-.9-13.67a7.12,7.12,0,0,1,2.76-1.26,77.81,77.81,0,0,0,18-6.49l-2.59,17.44-.26,2.35C41.33,216.46,30.08,212,26.49,207.32Z"/></svg>