<svg id="Layer_1" data-name="Layer 1" xmlns="http://www.w3.org/2000/svg" width="555" height="436.19" viewBox="0 0 555 436.19"><defs><style>.cls-1{fill:#0091ad;}.cls-2{fill:#cce9ef;}.cls-3{fill:#667578;}.cls-4{fill:#0096b3;}.cls-5{fill:#009ebd;}.cls-6{fill:#d1eff5;}</style></defs><path class="cls-1" d="M534.77,106.64C489.51,191.26,399.92,306,344.92,364.75L337.15,373c-33.67,35.67-55.09,55.72-82.48,60.94-22.25,4.25-47.07,2.11-72-3.68-49.19-11.43-98.83-37.17-130-56.59-5.12-3.18-9.73-6.19-13.77-8.94-57.21-39-56.92-138.42,41.2-138.42a70.07,70.07,0,0,1,19.07,3.15C131.47,238.85,170,264.6,201.69,245c33.36-20.58,80.45-72.95,115.76-129.07,15.15-24.07,27.31-55.51,41-82.49,7-13.8,4.9-29.93,19.8-24.13L539.17,80.43C555.69,86.85,542.87,91.49,534.77,106.64Z"/><path class="cls-2" d="M52.61,373.69c-5.12-3.18-9.73-6.19-13.77-8.94-57.21-39-56.92-138.42,41.2-138.42a70.07,70.07,0,0,1,19.07,3.15c8.64,8,8.46,14.16,9.77,23.13C118.6,319.32,94.88,368,52.61,373.69Z"/><rect class="cls-3" x="99.66" y="233.82" width="7.85" height="1.87" rx="0.5"/><path class="cls-3" d="M94.6,352l-5.84-.77a.94.94,0,0,1-.83-1.05h0a1,1,0,0,1,1.1-.8l5.83.77a1,1,0,0,1,.84,1.06h0A1,1,0,0,1,94.6,352Z"/><path class="cls-3" d="M96.12,348.05,93.59,343a.93.93,0,0,1,.46-1.25h0a1,1,0,0,1,1.31.45l2.53,5.06a.92.92,0,0,1-.47,1.25h0A1,1,0,0,1,96.12,348.05Z"/><path class="cls-3" d="M96,337l5.73,1.29a.92.92,0,0,1,.73,1.12h0a1,1,0,0,1-1.18.7l-5.73-1.29a.94.94,0,0,1-.73-1.12h0A1,1,0,0,1,96,337Z"/><rect class="cls-3" x="97.7" y="332.95" width="7.85" height="1.87" rx="0.5"/><path class="cls-3" d="M105.85,330.3,100.5,328a.92.92,0,0,1-.48-1.24h0a1,1,0,0,1,1.31-.46l5.34,2.35a.92.92,0,0,1,.48,1.24h0A1,1,0,0,1,105.85,330.3Z"/><rect class="cls-3" x="101.62" y="321.73" width="7.85" height="1.87" rx="0.5"/><path class="cls-3" d="M104.63,316l5.88.34a1,1,0,0,1,.92,1h0a1,1,0,0,1-1,.88l-5.88-.34a1,1,0,0,1-.92-1h0A1,1,0,0,1,104.63,316Z"/><path class="cls-3" d="M110,313.15l-5.63-1.63a.91.91,0,0,1-.65-1.16h0a1,1,0,0,1,1.22-.63l5.63,1.63a.94.94,0,0,1,.66,1.17h0A1,1,0,0,1,110,313.15Z"/><rect class="cls-3" x="105.55" y="304.9" width="7.85" height="1.87" rx="0.5"/><rect class="cls-3" x="105.55" y="299.28" width="7.85" height="1.87" rx="0.5"/><path class="cls-3" d="M112.24,295.94l-5.82-.82a.94.94,0,0,1-.83-1.06h0a1,1,0,0,1,1.11-.79l5.83.82a1,1,0,0,1,.83,1.06h0A1,1,0,0,1,112.24,295.94Z"/><path class="cls-3" d="M112.52,261.49l-5.83.75a1,1,0,0,1-1.11-.81h0a1,1,0,0,1,.85-1.05l5.83-.74a1,1,0,0,1,1.1.8h0A.94.94,0,0,1,112.52,261.49Z"/><path class="cls-3" d="M114.48,267.1l-5.83.75a1,1,0,0,1-1.1-.8h0a1,1,0,0,1,.84-1.06l5.83-.74a1,1,0,0,1,1.1.8h0A.93.93,0,0,1,114.48,267.1Z"/><rect class="cls-3" x="107.51" y="288.06" width="7.85" height="1.87" rx="0.5"/><path class="cls-3" d="M114.31,284.49l-5.87-.34a1,1,0,0,1-.92-1h0a1,1,0,0,1,1-.88l5.87.34a1,1,0,0,1,.92,1h0A1,1,0,0,1,114.31,284.49Z"/><rect class="cls-3" x="107.51" y="276.84" width="7.85" height="1.87" rx="0.5"/><rect class="cls-3" x="107.51" y="271.23" width="7.85" height="1.87" rx="0.5"/><path class="cls-3" d="M108,240.27l-5.58-1.78a.94.94,0,0,1-.62-1.19h0a1,1,0,0,1,1.24-.59l5.58,1.79a.93.93,0,0,1,.62,1.18h0A1,1,0,0,1,108,240.27Z"/><path class="cls-3" d="M109.78,244.5l-5.88-.25a1,1,0,0,1-.94-1h0a1,1,0,0,1,1-.9l5.88.25a1,1,0,0,1,.93,1h0A1,1,0,0,1,109.78,244.5Z"/><path class="cls-3" d="M111.93,248.75l-5.36,2.31a1,1,0,0,1-1.3-.47h0a.91.91,0,0,1,.49-1.23l5.36-2.31a1,1,0,0,1,1.3.46h0A.93.93,0,0,1,111.93,248.75Z"/><path class="cls-3" d="M111.32,256.44l-5.58-1.78a.94.94,0,0,1-.62-1.19h0a1,1,0,0,1,1.25-.59l5.58,1.79a.92.92,0,0,1,.61,1.19h0A1,1,0,0,1,111.32,256.44Z"/><path class="cls-3" d="M62.37,373.66l-5.58-1.78a.93.93,0,0,1-.61-1.19h0a1,1,0,0,1,1.24-.59L63,371.89a.93.93,0,0,1,.62,1.18h0A1,1,0,0,1,62.37,373.66Z"/><path class="cls-3" d="M65.92,373l-2.11-5.24a.93.93,0,0,1,.56-1.21h0a1,1,0,0,1,1.27.54l2.12,5.23a.93.93,0,0,1-.57,1.21h0A1,1,0,0,1,65.92,373Z"/><path class="cls-3" d="M71.77,370.61,68,366.28a.91.91,0,0,1,.13-1.31h0a1,1,0,0,1,1.38.12l3.75,4.33a.89.89,0,0,1-.13,1.31h0A1,1,0,0,1,71.77,370.61Z"/><rect class="cls-3" x="73.36" y="363.77" width="7.48" height="1.96" rx="0.5" transform="translate(-287.65 441.85) rotate(-90)"/><path class="cls-3" d="M90.82,357.12l-5.52-1.94a.93.93,0,0,1-.57-1.21h0a1,1,0,0,1,1.26-.55l5.52,1.95a.94.94,0,0,1,.58,1.2h0A1,1,0,0,1,90.82,357.12Z"/><path class="cls-3" d="M83.13,364,81,358.73a.93.93,0,0,1,.57-1.21h0a1,1,0,0,1,1.26.54L85,363.29a.93.93,0,0,1-.57,1.21h0A1,1,0,0,1,83.13,364Z"/><path class="cls-2" d="M337.15,373c-33.67,35.67-55.09,55.72-82.48,60.94-22.25,4.25-47.07,2.11-72-3.68C197.9,389.87,238.44,361,286.06,361A113.54,113.54,0,0,1,337.15,373Z"/><path class="cls-3" d="M180.6,424.51l4.1,4a.91.91,0,0,1,0,1.32h0a1,1,0,0,1-1.39,0l-4.11-4a.92.92,0,0,1,0-1.32h0A1,1,0,0,1,180.6,424.51Z"/><path class="cls-3" d="M280.2,358.89l2.44,5.1a.92.92,0,0,1-.49,1.24h0a1,1,0,0,1-1.3-.46l-2.44-5.11a.93.93,0,0,1,.49-1.24h0A1,1,0,0,1,280.2,358.89Z"/><path class="cls-3" d="M275.85,359.79l-3.13,4.75a1,1,0,0,1-1.36.3h0a.92.92,0,0,1-.3-1.29l3.13-4.75a1,1,0,0,1,1.36-.29h0A.9.9,0,0,1,275.85,359.79Z"/><path class="cls-3" d="M266.12,365.76l-1.93-5.3a.92.92,0,0,1,.6-1.19h0a1,1,0,0,1,1.25.58l1.93,5.3a.92.92,0,0,1-.6,1.19h0A1,1,0,0,1,266.12,365.76Z"/><path class="cls-3" d="M259.61,360.07l3.15,4.74a.91.91,0,0,1-.3,1.29h0a1,1,0,0,1-1.35-.29L258,361.07a.91.91,0,0,1,.3-1.29h0A1,1,0,0,1,259.61,360.07Z"/><path class="cls-3" d="M254.92,361.46l.78,5.56a1,1,0,0,1-.84,1.05h0a1,1,0,0,1-1.11-.8l-.77-5.56a1,1,0,0,1,.84-1.06h0A1,1,0,0,1,254.92,361.46Z"/><path class="cls-3" d="M247.57,362.92l3.15,4.74a.92.92,0,0,1-.3,1.29h0a1,1,0,0,1-1.36-.29l-3.15-4.74a.91.91,0,0,1,.31-1.29h0A1,1,0,0,1,247.57,362.92Z"/><path class="cls-3" d="M242.86,370.12,240,365.21a.92.92,0,0,1,.39-1.27h0a1,1,0,0,1,1.33.36l2.85,4.92a.92.92,0,0,1-.39,1.27h0A1,1,0,0,1,242.86,370.12Z"/><path class="cls-3" d="M236.39,368.09l2.7,5a.92.92,0,0,1-.42,1.26h0a1,1,0,0,1-1.32-.4l-2.71-5a.93.93,0,0,1,.42-1.26h0A1,1,0,0,1,236.39,368.09Z"/><path class="cls-3" d="M229.93,370.93l4.11,4a.91.91,0,0,1,0,1.32h0a1,1,0,0,1-1.39,0l-4.1-4a.9.9,0,0,1,0-1.32h0A1,1,0,0,1,229.93,370.93Z"/><path class="cls-3" d="M225.71,374.84l4.11,4a.9.9,0,0,1,0,1.32h0a1,1,0,0,1-1.39,0l-4.1-4a.9.9,0,0,1,0-1.32h0A1,1,0,0,1,225.71,374.84Z"/><path class="cls-3" d="M221.92,378.59l3.44,4.55a.91.91,0,0,1-.22,1.31h0a1,1,0,0,1-1.37-.21l-3.44-4.55a.91.91,0,0,1,.22-1.31h0A1,1,0,0,1,221.92,378.59Z"/><path class="cls-3" d="M195.82,402.43l4.63,3.46a.92.92,0,0,1,.17,1.32h0a1,1,0,0,1-1.38.15l-4.63-3.46a.91.91,0,0,1-.16-1.32h0A1,1,0,0,1,195.82,402.43Z"/><path class="cls-3" d="M198.67,397.17l4.63,3.47a.9.9,0,0,1,.17,1.31h0a1,1,0,0,1-1.38.16l-4.63-3.47a.9.9,0,0,1-.16-1.31h0A1,1,0,0,1,198.67,397.17Z"/><path class="cls-3" d="M215.91,381.32l4.1,4a.9.9,0,0,1,0,1.32h0a1,1,0,0,1-1.38,0l-4.11-4a.91.91,0,0,1,0-1.32h0A1,1,0,0,1,215.91,381.32Z"/><path class="cls-3" d="M211.86,385.16l3.84,4.26a.9.9,0,0,1-.1,1.32h0a1,1,0,0,1-1.38-.1l-3.85-4.25a.91.91,0,0,1,.11-1.32h0A1,1,0,0,1,211.86,385.16Z"/><path class="cls-3" d="M207.47,389.15l4.11,4a.93.93,0,0,1,0,1.33h0a1,1,0,0,1-1.39,0l-4.11-4a.93.93,0,0,1,0-1.33h0A1,1,0,0,1,207.47,389.15Z"/><path class="cls-3" d="M203.25,393.06l4.11,4a.92.92,0,0,1,0,1.32h0a1,1,0,0,1-1.39,0l-4.1-4a.91.91,0,0,1,0-1.32h0A1,1,0,0,1,203.25,393.06Z"/><path class="cls-3" d="M183,420.29l2.55,5.06a.91.91,0,0,1-.46,1.25h0a1,1,0,0,1-1.31-.44l-2.55-5.06a.92.92,0,0,1,.46-1.24h0A1,1,0,0,1,183,420.29Z"/><path class="cls-3" d="M185,416.15l3.92,4.19a.92.92,0,0,1-.08,1.32h0a1,1,0,0,1-1.39-.08l-3.92-4.19a.92.92,0,0,1,.08-1.32h0A1,1,0,0,1,185,416.15Z"/><path class="cls-3" d="M186.66,411.71l5.47,2.06a.92.92,0,0,1,.56,1.21h0a1,1,0,0,1-1.28.53l-5.47-2.06a.93.93,0,0,1-.56-1.21h0A1,1,0,0,1,186.66,411.71Z"/><path class="cls-3" d="M192.86,406.76l2.55,5.06a.91.91,0,0,1-.46,1.25h0a1,1,0,0,1-1.31-.44l-2.54-5.06a.9.9,0,0,1,.46-1.24h0A1,1,0,0,1,192.86,406.76Z"/><path class="cls-3" d="M322.5,363.9l1.4,5.45a.93.93,0,0,1-.72,1.13h0a1,1,0,0,1-1.18-.68l-1.41-5.45a1,1,0,0,1,.72-1.14h0A1,1,0,0,1,322.5,363.9Z"/><path class="cls-3" d="M318,363.28l-3.51,4.51a1,1,0,0,1-1.37.19h0a.91.91,0,0,1-.21-1.31l3.51-4.5a1,1,0,0,1,1.38-.19h0A.9.9,0,0,1,318,363.28Z"/><path class="cls-3" d="M306.07,365.09l4.63-3.47a1,1,0,0,1,1.37.15h0a.9.9,0,0,1-.16,1.31l-4.62,3.48a1,1,0,0,1-1.38-.16h0A.91.91,0,0,1,306.07,365.09Z"/><path class="cls-3" d="M297.82,363.14l5-3a1,1,0,0,1,1.35.29h0a.91.91,0,0,1-.3,1.29l-5,3a1,1,0,0,1-1.35-.29h0A.91.91,0,0,1,297.82,363.14Z"/><path class="cls-3" d="M286.73,357.33l1.23,5.48a.94.94,0,0,1-.76,1.11h0a1,1,0,0,1-1.16-.72l-1.23-5.48a.94.94,0,0,1,.75-1.11h0A1,1,0,0,1,286.73,357.33Z"/><path class="cls-3" d="M296.91,359.86l-3.51,4.51a1,1,0,0,1-1.37.19h0a.91.91,0,0,1-.2-1.31l3.51-4.5a1,1,0,0,1,1.37-.2h0A.92.92,0,0,1,296.91,359.86Z"/><path class="cls-3" d="M329.82,366.37l-1.39,5.46a1,1,0,0,1-1.18.68h0a.93.93,0,0,1-.72-1.12l1.38-5.46a1,1,0,0,1,1.18-.69h0A.94.94,0,0,1,329.82,366.37Z"/><path class="cls-3" d="M336.6,369.05l-3.51,4.51a1,1,0,0,1-1.37.19h0a.91.91,0,0,1-.2-1.31l3.5-4.5a1,1,0,0,1,1.38-.2h0A.92.92,0,0,1,336.6,369.05Z"/><path class="cls-4" d="M541.64,104.86c-.17.3-.32.61-.46.92a5.44,5.44,0,0,1-6.15,2.9c-4-.91-9.83-1.46-15.7-4.06L366.62,36.94c-5-2.21-8.61-4.76-11.53-6.39A2.66,2.66,0,0,1,354,27l0,0c7.45-14.7,5.22-31.86,21.07-25.69L546.32,77C563.9,83.79,550.26,88.73,541.64,104.86Z"/><path class="cls-5" d="M515.71,114.59c6.75-10.42,7.54,2.6-10.76,30.87s-30.11,37.12-27.62,28.41c1.82-6.37,2.63-4.06,20.94-32.34Z"/><path class="cls-5" d="M476,180.46c.75.51-4.46,6.16-6.5,4.78s.15-6,2.23-7.68c1.53-1.25.3.2,2.33,1.59Z"/><path class="cls-5" d="M234.67,224.8c9.73-8,6.36,4.65-20,26.34s-69.07,12.71-63.94,5.12c3.75-5.55,32.41,10.89,58.82-10.79Z"/><path class="cls-5" d="M240.14,219.89c-.53-.44,5.12-5.67,6.54-4.48s-1.42,5.37-3.56,7c-1.57,1.18-.21-.17-1.63-1.37Z"/><path class="cls-6" d="M42.32,353.36c5.56,11-10,7.67-25.06-22.28s-12.92-47.21-6.58-40.52c4.65,4.9-2.63,6.83,12.46,36.78S39.44,347.65,42.32,353.36Z"/><path class="cls-6" d="M273.81,415.23c12.73-1.62,4.56,11.42-30,15.81"/><path class="cls-5" d="M358.66,26.19c-6.43,7,0,.91,3.53-13.84C364,4.86,365.8-.28,370.43,1.87c1.88.88-2.9,2.54-4.13,11.51C364.54,26.19,359.85,24.89,358.66,26.19Z"/></svg>