<svg id="Layer_1" data-name="Layer 1" xmlns="http://www.w3.org/2000/svg" width="330" height="324.67" viewBox="0 0 330 324.67"><defs><style>.cls-1{fill:#4d4d4d;}.cls-2{fill:#fff;}</style></defs><ellipse class="cls-1" cx="165" cy="162.34" rx="164.5" ry="162.34"/><ellipse class="cls-2" cx="165" cy="162.34" rx="148.82" ry="146.86"/><path class="cls-1" d="M184.23,59.29a5.15,5.15,0,0,1,8.08,3.17,9.36,9.36,0,0,1,.11,1.41V261.45a5.14,5.14,0,0,1-8.16,3.93L74.31,186.9a5.07,5.07,0,0,1-2.13-4.12V141.87a5,5,0,0,1,2.13-4.11Z"/><rect class="cls-1" x="37.35" y="139.82" width="31.25" height="45.04" rx="6.97"/><path class="cls-1" d="M243.68,165.77c27.24,34.45,27.9,35.11,31.54,32.23s4.21-4.51-23-39-29-34.27-32.6-31.39S216.43,131.31,243.68,165.77Z"/><path class="cls-1" d="M243.44,160.09c-24.45,36.49-24.88,37.31-21,39.9s5.58,2.63,30-33.87,23.75-38.06,19.89-40.65S267.88,123.59,243.44,160.09Z"/></svg>