<svg id="Layer_1" data-name="Layer 1" xmlns="http://www.w3.org/2000/svg" width="325" height="324.67" viewBox="0 0 325 324.67"><defs><style>.cls-1{fill:#4d4d4d;}.cls-2{fill:#fff;}</style></defs><circle class="cls-1" cx="162.5" cy="162.34" r="162.34"/><circle class="cls-2" cx="162.5" cy="162.34" r="146.86"/><path class="cls-1" d="M181.48,59.29a5.06,5.06,0,0,1,8,3.17,9.36,9.36,0,0,1,.11,1.41V261.45a5.06,5.06,0,0,1-8.05,3.93L73,186.9a5.09,5.09,0,0,1-2.1-4.12V141.87a5.06,5.06,0,0,1,2.1-4.11Z"/><rect class="cls-1" x="36.53" y="139.82" width="30.84" height="45.04" rx="6.97"/><path class="cls-1" d="M235.79,166.81a54.2,54.2,0,0,1-26.88,46.84,1.69,1.69,0,0,1-2.54-1.47V210.1a1.7,1.7,0,0,1,.81-1.44c14.06-8.63,21.56-24.16,21.56-41.86s-7.5-33.22-21.56-41.85a1.7,1.7,0,0,1-.81-1.44v-2.08a1.7,1.7,0,0,1,2.54-1.48A54.25,54.25,0,0,1,235.79,166.81Z"/><path class="cls-1" d="M263.24,166.81A73,73,0,0,1,227,229.9a2.29,2.29,0,0,1-3.42-2v-2.8a2.26,2.26,0,0,1,1.1-1.94,66.11,66.11,0,0,0,0-112.73,2.29,2.29,0,0,1-1.1-1.94v-2.81a2.29,2.29,0,0,1,3.42-2A73,73,0,0,1,263.24,166.81Z"/><path class="cls-1" d="M288.47,166.81a83,83,0,0,1-41.16,71.71,2.6,2.6,0,0,1-3.89-2.25v-3.19a2.61,2.61,0,0,1,1.25-2.21,75.14,75.14,0,0,0,0-128.14,2.59,2.59,0,0,1-1.25-2.2V97.34a2.6,2.6,0,0,1,3.89-2.26A83,83,0,0,1,288.47,166.81Z"/></svg>