<svg id="Layer_1" data-name="Layer 1" xmlns="http://www.w3.org/2000/svg" width="335" height="450.4" viewBox="0 0 335 450.4"><defs><style>.cls-1{fill:#e56b6f;}.cls-2{fill:#ffdab9;}.cls-3{fill:#90a955;}.cls-4{fill:#6a994e;}</style></defs><path class="cls-1" d="M328.33,207.79C295.88,309,240.47,450.4,134.24,450.4S7.88,277.4.81,171.4c-6.93-104,60.13-90.11,166.36-90.11C281.54,81.29,357.78,116,328.33,207.79Z"/><path class="cls-2" d="M185,199.08a63.38,63.38,0,0,1,.65-8.57c.3-2.88.47-5.35,2.93-5.48s2.88,2.26,3.46,5.17a66.42,66.42,0,0,1,1.48,8.46c.33,6.76.38,10.65-3.73,10.85S185.37,205.84,185,199.08Z"/><path class="cls-2" d="M143.7,293.71a63.34,63.34,0,0,1,1.41-8.48c.56-2.85.95-5.29,3.41-5.19s2.67,2.5,3,5.45a66.13,66.13,0,0,1,.72,8.56c-.27,6.76-.57,10.64-4.69,10.48S143.43,300.47,143.7,293.71Z"/><path class="cls-2" d="M54.61,330.65a62.39,62.39,0,0,1,1.14-8.52c.46-2.86.78-5.32,3.24-5.3s2.75,2.42,3.15,5.36a65.24,65.24,0,0,1,1,8.53c-.06,6.77-.23,10.65-4.35,10.62S54.55,337.41,54.61,330.65Z"/><path class="cls-2" d="M120.9,330.89a60.7,60.7,0,0,1,1.14-8.51c.46-2.87.78-5.32,3.24-5.3s2.75,2.41,3.15,5.35a67.4,67.4,0,0,1,1,8.54c-.06,6.76-.24,10.65-4.36,10.61S120.84,337.66,120.9,330.89Z"/><path class="cls-2" d="M103.91,348.31a61.86,61.86,0,0,1,1.07-8.52c.44-2.87.73-5.33,3.19-5.33s2.77,2.39,3.2,5.33a65.79,65.79,0,0,1,1.07,8.52c0,6.77-.14,10.66-4.26,10.66S103.91,355.08,103.91,348.31Z"/><path class="cls-2" d="M88.18,322.81a64,64,0,0,1,1.14-8.52c.47-2.86.78-5.32,3.25-5.3s2.74,2.42,3.15,5.36a67,67,0,0,1,1,8.53c-.06,6.77-.24,10.65-4.36,10.62S88.12,329.57,88.18,322.81Z"/><path class="cls-2" d="M69.5,349.73a62.39,62.39,0,0,1,1.14-8.52c.47-2.86.78-5.32,3.25-5.3s2.74,2.42,3.14,5.36a63.56,63.56,0,0,1,1,8.53c0,6.77-.23,10.65-4.35,10.62S69.44,356.49,69.5,349.73Z"/><path class="cls-2" d="M99.86,383a63.85,63.85,0,0,1,2.09-8.33c.79-2.79,1.38-5.2,3.82-4.9s2.46,2.71,2.53,5.68a65.84,65.84,0,0,1,0,8.59c-.82,6.71-1.44,10.56-5.52,10.06S99.05,389.72,99.86,383Z"/><path class="cls-2" d="M165.71,390.69a64,64,0,0,1,2.08-8.33c.79-2.8,1.38-5.2,3.82-4.91s2.46,2.71,2.53,5.68a65.84,65.84,0,0,1,0,8.59c-.82,6.72-1.43,10.56-5.52,10.06S164.89,397.41,165.71,390.69Z"/><path class="cls-2" d="M146.87,406.09a63.73,63.73,0,0,1,2-8.35c.76-2.8,1.33-5.21,3.77-4.93s2.48,2.68,2.58,5.65a66.59,66.59,0,0,1,.1,8.59c-.75,6.72-1.33,10.57-5.43,10.11S146.12,412.82,146.87,406.09Z"/><path class="cls-2" d="M134.11,379a62.28,62.28,0,0,1,2.09-8.33c.78-2.79,1.37-5.2,3.81-4.9s2.46,2.71,2.53,5.67a65.87,65.87,0,0,1,0,8.59c-.82,6.72-1.43,10.56-5.52,10.07S133.29,385.7,134.11,379Z"/><path class="cls-2" d="M112.52,403.63a62.28,62.28,0,0,1,2.09-8.33c.78-2.79,1.37-5.2,3.82-4.9s2.46,2.71,2.53,5.68a66,66,0,0,1,0,8.59c-.82,6.71-1.43,10.56-5.52,10.06S111.7,410.35,112.52,403.63Z"/><path class="cls-2" d="M157.07,328.75a63,63,0,0,1,3.42-7.88c1.23-2.63,2.21-4.91,4.57-4.21s2,3.07,1.57,6a66.42,66.42,0,0,1-1.38,8.48c-1.91,6.49-3.14,10.18-7.09,9S155.16,335.24,157.07,328.75Z"/><path class="cls-2" d="M220.77,347.08a64.47,64.47,0,0,1,3.42-7.88c1.23-2.62,2.21-4.9,4.57-4.21s2,3.07,1.57,6a66.14,66.14,0,0,1-1.38,8.48c-1.9,6.5-3.14,10.19-7.09,9S218.87,353.58,220.77,347.08Z"/><path class="cls-2" d="M199.68,359.21A61.93,61.93,0,0,1,203,351.3c1.2-2.64,2.16-4.93,4.53-4.26s2,3.06,1.62,6a65,65,0,0,1-1.3,8.49c-1.85,6.51-3,10.21-7,9.09S197.83,365.72,199.68,359.21Z"/><path class="cls-2" d="M191.51,330.37a61.52,61.52,0,0,1,3.42-7.88c1.23-2.62,2.2-4.9,4.57-4.21s2,3.07,1.56,6a66,66,0,0,1-1.37,8.48c-1.91,6.5-3.14,10.19-7.09,9S189.6,336.87,191.51,330.37Z"/><path class="cls-2" d="M166.19,351.17a61.52,61.52,0,0,1,3.42-7.88c1.23-2.63,2.2-4.9,4.57-4.21s2,3.07,1.56,6a66.25,66.25,0,0,1-1.37,8.48c-1.91,6.49-3.14,10.18-7.09,9S164.28,357.66,166.19,351.17Z"/><path class="cls-2" d="M173.68,269.37a61.52,61.52,0,0,1,3.42-7.88c1.23-2.63,2.2-4.9,4.57-4.21s2,3.07,1.56,6a66.25,66.25,0,0,1-1.37,8.48c-1.91,6.49-3.14,10.18-7.09,9S171.77,275.86,173.68,269.37Z"/><path class="cls-2" d="M237.38,287.71a62.32,62.32,0,0,1,3.42-7.88c1.23-2.63,2.21-4.91,4.57-4.22s2,3.08,1.57,6a66.29,66.29,0,0,1-1.38,8.47c-1.91,6.5-3.14,10.19-7.09,9S235.47,294.2,237.38,287.71Z"/><path class="cls-2" d="M216.28,299.83a61.86,61.86,0,0,1,3.36-7.91c1.2-2.64,2.16-4.93,4.53-4.26s2,3.06,1.62,6a68.53,68.53,0,0,1-1.3,8.49c-1.85,6.51-3.05,10.22-7,9.09S214.44,306.34,216.28,299.83Z"/><path class="cls-2" d="M208.12,271a60.9,60.9,0,0,1,3.42-7.88c1.23-2.63,2.2-4.91,4.56-4.22s2,3.08,1.57,6a64.57,64.57,0,0,1-1.38,8.47c-1.9,6.5-3.13,10.19-7.08,9S206.21,277.49,208.12,271Z"/><path class="cls-2" d="M182.79,291.79a62.89,62.89,0,0,1,3.43-7.88c1.23-2.63,2.2-4.9,4.56-4.21s2,3.07,1.57,6a66.42,66.42,0,0,1-1.38,8.48c-1.9,6.49-3.13,10.19-7.09,9S180.89,298.29,182.79,291.79Z"/><path class="cls-2" d="M50.36,275.51A63.32,63.32,0,0,1,51.44,267c.45-2.87.74-5.33,3.21-5.33s2.76,2.4,3.18,5.34a65.92,65.92,0,0,1,1.06,8.52c0,6.77-.16,10.66-4.28,10.65S50.35,282.28,50.36,275.51Z"/><path class="cls-2" d="M116.65,275.26a63.32,63.32,0,0,1,1.08-8.52c.44-2.87.74-5.33,3.2-5.32s2.77,2.39,3.19,5.33a66.09,66.09,0,0,1,1.06,8.53c0,6.76-.16,10.65-4.28,10.64S116.64,282,116.65,275.26Z"/><path class="cls-2" d="M99.8,292.81a62.86,62.86,0,0,1,1-8.53c.42-2.87.69-5.34,3.16-5.35s2.78,2.37,3.23,5.3a65,65,0,0,1,1.13,8.52c.05,6.76-.06,10.65-4.18,10.68S99.85,299.58,99.8,292.81Z"/><path class="cls-2" d="M83.88,267.42A61.75,61.75,0,0,1,85,258.9c.44-2.87.74-5.33,3.2-5.33s2.76,2.4,3.19,5.34a64.33,64.33,0,0,1,1.05,8.52c0,6.77-.15,10.66-4.27,10.65S83.87,274.19,83.88,267.42Z"/><path class="cls-2" d="M65.4,294.48A61.75,61.75,0,0,1,66.48,286c.44-2.87.74-5.33,3.2-5.33s2.76,2.4,3.19,5.33a64.71,64.71,0,0,1,1,8.53c0,6.77-.16,10.65-4.28,10.65S65.39,301.25,65.4,294.48Z"/><path class="cls-2" d="M225.09,234.68a62.63,62.63,0,0,1,3.68-7.76c1.32-2.59,2.37-4.83,4.71-4.06s1.88,3.14,1.36,6.06a64.8,64.8,0,0,1-1.66,8.43c-2.12,6.42-3.48,10.07-7.39,8.78S223,241.1,225.09,234.68Z"/><path class="cls-2" d="M266.65,266.55a62.41,62.41,0,0,1,3.61-7.8c1.3-2.6,2.33-4.85,4.67-4.1s1.91,3.12,1.42,6a65.7,65.7,0,0,1-1.58,8.45c-2.07,6.44-3.39,10.1-7.31,8.84S264.58,273,266.65,266.55Z"/><path class="cls-2" d="M259.45,237.46a63.46,63.46,0,0,1,3.69-7.77c1.31-2.58,2.36-4.82,4.7-4.05s1.88,3.14,1.37,6.06a68.7,68.7,0,0,1-1.66,8.43c-2.13,6.42-3.48,10.07-7.39,8.78S257.33,243.88,259.45,237.46Z"/><path class="cls-2" d="M233.45,257.39a62.63,62.63,0,0,1,3.68-7.76c1.32-2.59,2.37-4.83,4.71-4.06s1.88,3.14,1.36,6.06a64.48,64.48,0,0,1-1.66,8.43c-2.12,6.43-3.47,10.08-7.39,8.78S231.33,263.82,233.45,257.39Z"/><path class="cls-2" d="M79,224a62.46,62.46,0,0,1,.25-8.58c.17-2.9.23-5.38,2.68-5.61s3,2.12,3.69,5a65.66,65.66,0,0,1,1.86,8.39c.64,6.73.87,10.62-3.23,11S79.64,230.78,79,224Z"/><path class="cls-2" d="M63.91,243.13a62,62,0,0,1,.18-8.59c.14-2.9.17-5.38,2.62-5.63s3,2.09,3.73,5a65.63,65.63,0,0,1,2,8.37c.7,6.73,1,10.61-3.14,11S64.61,249.86,63.91,243.13Z"/><path class="cls-2" d="M45.62,219.38a64,64,0,0,1,.26-8.58c.16-2.9.23-5.38,2.68-5.61s3,2.12,3.68,5a65.55,65.55,0,0,1,1.87,8.39c.64,6.74.87,10.62-3.23,11S46.26,226.12,45.62,219.38Z"/><path class="cls-2" d="M29.83,248.09a62.61,62.61,0,0,1,.25-8.59c.17-2.89.23-5.37,2.68-5.6s3,2.12,3.69,5a67.64,67.64,0,0,1,1.86,8.38c.64,6.74.87,10.63-3.23,11S30.47,254.83,29.83,248.09Z"/><path class="cls-2" d="M164.24,222.59a64,64,0,0,1,2.08-8.33c.78-2.8,1.37-5.21,3.81-4.91s2.46,2.7,2.54,5.67a67.5,67.5,0,0,1,0,8.59c-.81,6.72-1.42,10.56-5.51,10.07S163.43,229.31,164.24,222.59Z"/><path class="cls-2" d="M145.43,238a63.83,63.83,0,0,1,2-8.35c.75-2.8,1.32-5.21,3.76-4.94s2.49,2.68,2.59,5.65a66.3,66.3,0,0,1,.12,8.59c-.75,6.72-1.33,10.57-5.42,10.12S144.69,244.75,145.43,238Z"/><path class="cls-2" d="M132.63,210.93a62.48,62.48,0,0,1,2.07-8.33c.78-2.8,1.37-5.21,3.81-4.91s2.47,2.7,2.54,5.67a65.69,65.69,0,0,1,0,8.59c-.81,6.72-1.42,10.56-5.51,10.07S131.82,217.65,132.63,210.93Z"/><path class="cls-2" d="M111.08,235.62a62.26,62.26,0,0,1,2.07-8.34c.78-2.79,1.37-5.2,3.82-4.91s2.46,2.71,2.53,5.67a65.86,65.86,0,0,1,0,8.6c-.81,6.71-1.41,10.56-5.5,10.06S110.27,242.34,111.08,235.62Z"/><path class="cls-2" d="M194.57,234.47a63,63,0,0,1,3.31-7.92c1.2-2.65,2.14-4.94,4.51-4.27s2,3,1.65,6a66.53,66.53,0,0,1-1.26,8.49c-1.82,6.52-3,10.23-7,9.12S192.75,241,194.57,234.47Z"/><path class="cls-2" d="M244.74,317.38a62.32,62.32,0,0,1,3.52-7.84c1.27-2.61,2.27-4.88,4.62-4.15s2,3.1,1.49,6a64.31,64.31,0,0,1-1.49,8.46c-2,6.47-3.26,10.14-7.2,8.93S242.75,323.84,244.74,317.38Z"/><path class="cls-2" d="M24.76,193.84a62.46,62.46,0,0,1,2-8.36c.74-2.81,1.29-5.22,3.74-5s2.5,2.67,2.61,5.63a65.72,65.72,0,0,1,.16,8.59c-.72,6.73-1.27,10.58-5.36,10.15S24.05,200.57,24.76,193.84Z"/><path class="cls-2" d="M284.89,223.86a63.64,63.64,0,0,1,1.47-8.46c.58-2.85,1-5.29,3.45-5.17s2.65,2.52,2.94,5.47a67,67,0,0,1,.66,8.57c-.32,6.76-.65,10.63-4.76,10.44S284.57,230.62,284.89,223.86Z"/><path class="cls-2" d="M99.89,198.24a63.34,63.34,0,0,1,2.52-8.21c.93-2.75,1.64-5.12,4.07-4.7s2.31,2.83,2.23,5.8a65.36,65.36,0,0,1-.42,8.58c-1.16,6.67-2,10.47-6,9.76S98.73,204.91,99.89,198.24Z"/><path class="cls-2" d="M244.42,212a62,62,0,0,1,.18-8.59c.14-2.9.18-5.38,2.62-5.63s3,2.09,3.74,5a68.36,68.36,0,0,1,1.94,8.37c.7,6.73,1,10.61-3.13,11S245.12,218.7,244.42,212Z"/><path class="cls-2" d="M266.45,194.91a64.22,64.22,0,0,1-.21-8.59c0-2.9-.06-5.37,2.38-5.74s3.09,2,3.95,4.8a68.64,68.64,0,0,1,2.31,8.27c1,6.7,1.43,10.56-2.64,11.17S267.45,201.61,266.45,194.91Z"/><path class="cls-2" d="M65.38,185.34a61.57,61.57,0,0,1,3.18-8c1.15-2.66,2.06-5,4.44-4.35s2.07,3,1.75,6a66.36,66.36,0,0,1-1.13,8.51c-1.71,6.55-2.83,10.28-6.81,9.23S63.67,191.89,65.38,185.34Z"/><path class="cls-2" d="M214.4,206.48a62.61,62.61,0,0,1,1-8.53c.42-2.87.7-5.33,3.17-5.34s2.78,2.37,3.22,5.3a67.17,67.17,0,0,1,1.12,8.52c0,6.77-.09,10.66-4.21,10.68S214.44,213.25,214.4,206.48Z"/><path class="cls-2" d="M154.63,186.8a61.69,61.69,0,0,1,2.7-8.15c1-2.73,1.75-5.09,4.16-4.61s2.26,2.88,2.11,5.84a68,68,0,0,1-.6,8.57c-1.31,6.64-2.2,10.43-6.24,9.63S153.33,193.44,154.63,186.8Z"/><path class="cls-2" d="M124.92,179.24a62.32,62.32,0,0,1,2.19-8.3c.82-2.79,1.44-5.19,3.88-4.86s2.42,2.74,2.46,5.71a65.71,65.71,0,0,1-.08,8.59c-.9,6.7-1.56,10.54-5.64,10S124,186,124.92,179.24Z"/><path class="cls-2" d="M231.76,175.45a63.68,63.68,0,0,1,.4-8.58c.22-2.9.32-5.37,2.78-5.56s2.94,2.17,3.6,5.06a68.21,68.21,0,0,1,1.72,8.42c.52,6.75.68,10.63-3.42,11S232.29,182.2,231.76,175.45Z"/><path class="cls-2" d="M92.91,162.65a62.11,62.11,0,0,1,3.81-7.7c1.36-2.57,2.44-4.79,4.77-4s1.83,3.17,1.27,6.09a66.89,66.89,0,0,1-1.8,8.4c-2.22,6.39-3.63,10-7.52,8.66S90.69,169,92.91,162.65Z"/><path class="cls-2" d="M50.12,161.23a62.82,62.82,0,0,1,3.81-7.7c1.36-2.57,2.44-4.79,4.77-4s1.83,3.16,1.27,6.08a66.52,66.52,0,0,1-1.8,8.4c-2.22,6.39-3.63,10-7.52,8.66S47.9,167.62,50.12,161.23Z"/><path class="cls-2" d="M201.38,169.52a63.68,63.68,0,0,1,.4-8.58c.22-2.9.32-5.37,2.78-5.56s2.94,2.17,3.6,5.06a68.21,68.21,0,0,1,1.72,8.42c.52,6.75.68,10.63-3.43,10.95S201.9,176.27,201.38,169.52Z"/><path class="cls-2" d="M284.77,177.83a63.87,63.87,0,0,1-1.39-8.47c-.39-2.88-.8-5.32,1.56-6s3.33,1.51,4.58,4.21a68.75,68.75,0,0,1,3.43,7.87c1.91,6.5,2.87,10.27-1.08,11.43S286.68,184.33,284.77,177.83Z"/><path class="cls-2" d="M174.62,156.65a63.68,63.68,0,0,1,.4-8.58c.22-2.89.32-5.37,2.78-5.56s2.94,2.17,3.6,5.07a67.64,67.64,0,0,1,1.72,8.41c.52,6.75.68,10.64-3.43,11S175.14,163.4,174.62,156.65Z"/><path class="cls-2" d="M144.51,150.88a64.29,64.29,0,0,1,2.49-8.22c.92-2.75,1.63-5.12,4.06-4.71s2.32,2.83,2.24,5.8a64.9,64.9,0,0,1-.39,8.58c-1.15,6.67-1.95,10.48-6,9.78S143.36,157.55,144.51,150.88Z"/><path class="cls-2" d="M73.62,143a62.36,62.36,0,0,1,2.4-8.24c.88-2.77,1.56-5.15,4-4.76s2.36,2.8,2.32,5.77a67.06,67.06,0,0,1-.3,8.58c-1.07,6.68-1.82,10.5-5.89,9.85S72.55,149.71,73.62,143Z"/><path class="cls-2" d="M30.18,146.89a63.72,63.72,0,0,1,4-7.59c1.43-2.52,2.59-4.71,4.89-3.84s1.73,3.22,1.09,6.12a66.54,66.54,0,0,1-2,8.35c-2.41,6.32-3.92,9.9-7.77,8.43S27.77,153.21,30.18,146.89Z"/><path class="cls-2" d="M117.2,147.76a64.2,64.2,0,0,1,2.5-8.22c.92-2.75,1.63-5.12,4-4.71s2.32,2.83,2.25,5.8a65.05,65.05,0,0,1-.4,8.58c-1.14,6.67-1.94,10.48-6,9.78S116.06,154.43,117.2,147.76Z"/><path class="cls-3" d="M265,69.43c-2.35,18.48-13.24,26.77-39,41.92-18.53,10.88-35.47,3-55.73.54-21.38-2.62-62.22-.53-77.8-16.92C72.48,74,80.73,32.41,82.85,15.14,84.35,2.88,101,23.93,121.9,32.22c10.9,4.32-.61-34.49,34.27-3.17,12,10.72,8.52-30.91,27.71-28.56,18.27,2.24,30.48,29.6,43.83,37.33,9.55,5.53,20.36-9,35.16-10.44C282.53,25.44,266.37,58.47,265,69.43Z"/><path class="cls-4" d="M269.66,50.73c-1.52-1.4-3.82-2.07-7.15-1.74-14.8,1.47-25.61,16-35.17,10.44C214,51.7,201.79,24.34,183.51,22.1c-19.18-2.35-15.76,39.28-27.7,28.56-34.89-31.32-23.37,7.49-34.27,3.17C100.6,45.54,84,24.49,82.48,36.75c-.75,6.12-2.27,15.29-3,25.51-1.7-18.13,1.77-37.17,3-47.51C84,2.49,100.6,23.54,121.54,31.83c10.9,4.32-.62-34.49,34.27-3.17C167.75,39.38,164.33-2.25,183.51.1,201.79,2.34,214,29.7,227.34,37.43c9.56,5.53,20.37-9,35.17-10.44C274.91,25.77,273.06,38.44,269.66,50.73Z"/></svg>