<svg id="Layer_1" data-name="Layer 1" xmlns="http://www.w3.org/2000/svg" width="1230" height="890" viewBox="0 0 1230 890"><defs><style>.cls-1{fill:#fff;}.cls-2,.cls-9{fill:#f2935c;}.cls-19,.cls-2,.cls-4{stroke:#f2935c;}.cls-2,.cls-4{stroke-linecap:round;stroke-linejoin:round;}.cls-19,.cls-3,.cls-4{fill:#e68b57;}.cls-5{fill:#ed905a;}.cls-6{fill:#ebf3f2;}.cls-7{fill:#fffaec;}.cls-8{fill:#bf886a;}.cls-10{fill:#484848;}.cls-11{fill:#f2f2f2;}.cls-12{fill:#767676;}.cls-13{fill:#f25555;}.cls-14{fill:#d17f4f;}.cls-15{fill:#9d5f3b;}.cls-16{fill:#e38a56;}.cls-17{fill:#ffdcc9;}.cls-18{fill:#edcdbb;}.cls-19{stroke-miterlimit:10;}.cls-20{fill:#ade8f4;}</style></defs><path class="cls-1" d="M941.9,512.44c0,278.13-239.48,270.84-528.27,270.84S2.41,606.41,2.41,328.28,162.35,1.1,451.14,1.1,941.9,234.32,941.9,512.44Z"/><path class="cls-2" d="M816.3,760.46c12.15,52.84,15.3,97.14,7,99l-5.73-11.3-3.23,13.33-3.78-4.6-4.9-5.94-3.17,13.31L797.62,857c-2-3.53-3.87-7.29-5.73-11.26a216.46,216.46,0,0,1-18.56-67"/><path class="cls-3" d="M816,822.37c1,11.56,3.51,21.3,6.82,21s.11-10-.84-21.52,1.73-16.75-1.57-16.48S815,810.83,816,822.37Z"/><path class="cls-4" d="M930.85,461.66a702.35,702.35,0,0,0-67.29,168.58q-3.24,12.75-5.91,25.21a.48.48,0,0,0,0,.17L694.42,570.68c5.28.48,40.5,3.16,63.25-22a65,65,0,0,0,13.45-23.52c7.37,1.09,32.8,4,57.29-11.76a80.89,80.89,0,0,0,26.09-27.35,61.35,61.35,0,0,0,32.42,4.36C913.93,486.57,928.43,465.37,930.85,461.66Z"/><path class="cls-4" d="M854.5,486a169.62,169.62,0,0,1,11.44,67c-1.92,45.85-7.94,99.15-8.31,102.43a.48.48,0,0,0,0,.17s-32.61-38-57.71-72.9a213.32,213.32,0,0,1-28.78-57.55c7.37,1.09,32.8,4,57.29-11.76A81,81,0,0,0,854.5,486Z"/><path class="cls-5" d="M1056,636.78l.33-.2,60,78.5c68.29,45.68,19.75,35.85,3.32,44.58l-52,26.71c-11.81-53.71-17.42-108.49-20.08-163.43l.93,1.17Z"/><path class="cls-6" d="M808.05,617.23c0,13.84-4.54,25.8-12.87,33.69-6.64,6.3-15.67,10-26.71,10-24.9,0-39.6-18.8-39.6-43.7,0-17.79,8.21-29.67,22-35a52.65,52.65,0,0,1,19-3.21C794.71,579,808.05,592.37,808.05,617.23Z"/><path class="cls-7" d="M808.05,617.23c0,13.84-4.54,25.8-12.87,33.69a41,41,0,0,1-15.07,2.68c-24.88,0-39.6-18.8-39.6-43.68,0-12,3.71-21.28,10.35-27.71a52.65,52.65,0,0,1,19-3.21C794.71,579,808.05,592.37,808.05,617.23Z"/><circle class="cls-8" cx="761.92" cy="659.8" r="6.47"/><path class="cls-9" d="M1086.38,727.71c0,72.81-57.91,115.26-127.89,126.38a243.07,243.07,0,0,1-38.11,3,162.4,162.4,0,0,1-30-2.83A175.35,175.35,0,0,1,812,817.48c-1.51-1.25-3-2.5-4.42-3.77-32.1-28.24-53.19-67.91-53.19-111.85,0-85.72,80.29-155.23,166-155.23,69.59,0,135.58,62.85,158,132.36A159.35,159.35,0,0,1,1086.38,727.71Z"/><path class="cls-6" d="M988.25,640.53c0,15.66-5.33,29.2-15.07,38.13-7.77,7.13-18.35,11.32-31.27,11.32-29.15,0-46.37-21.27-46.37-49.45,0-20.12,9.62-33.57,25.75-39.62a63.31,63.31,0,0,1,22.23-3.63C972.67,597.28,988.25,612.37,988.25,640.53Z"/><path class="cls-7" d="M988.25,640.53c0,15.66-5.33,29.2-15.07,38.13a50,50,0,0,1-17.64,3c-29.13,0-46.37-21.28-46.37-49.43,0-13.56,4.34-24.08,12.12-31.35a63.28,63.28,0,0,1,22.23-3.6C972.67,597.28,988.25,612.37,988.25,640.53Z"/><ellipse class="cls-10" cx="945.41" cy="632.85" rx="10.43" ry="9.7"/><ellipse class="cls-11" cx="948.59" cy="631.82" rx="4.69" ry="4.36"/><circle class="cls-10" cx="768.51" cy="607.4" r="9.7"/><circle class="cls-11" cx="771.46" cy="606.37" r="4.36"/><path class="cls-12" d="M867.56,687.83c-1.1,7.71-.89,12.81-8.61,18.49A39.39,39.39,0,0,1,837,713.93a43,43,0,0,1-7.93-.4,53.18,53.18,0,0,1-9.78-2.35c-18.53-6.4-24.75-16.67-22.91-29.82,1.33-9.41,1.37-13.82,10.81-10.62,2.94,1,6.34,2.21,10.15,3.29,1.32.4,2.74.78,4.18,1.14a85.81,85.81,0,0,0,8.54,1.66c.68.11,1.37.19,2,.27s1.55.15,2.32.22c2.17.16,4.31.22,6.38.22,3,0,5.92-.14,8.67-.32,2.26-.15,4.4-.35,6.42-.5C867,675.81,868.87,678.57,867.56,687.83Z"/><path class="cls-11" d="M849.56,677.22c-.9,7.89-4.72,13.86-8.72,13.52-3.76-.33-6.42-6.14-6.33-13.42,2.17.16,4.31.22,6.38.22C843.87,677.54,846.76,677.37,849.56,677.22Z"/><path class="cls-13" d="M842.11,713.42a39.2,39.2,0,0,1-5.08.51,43,43,0,0,1-7.93-.4,53.18,53.18,0,0,1-9.78-2.35c2.24-6.15,6.3-10.28,11-10.29,3.21,0,6.16,1.89,8.43,5.1A23.65,23.65,0,0,1,842.11,713.42Z"/><path class="cls-13" d="M838,708.16a22.65,22.65,0,0,1,.73-2.15c1.66-4.13,4.41-7,7.86-7.57,4.5-.76,9.12,2.44,12.39,7.9A39.39,39.39,0,0,1,837,714"/><path class="cls-14" d="M988.25,670c0,19.44-16.89,28.6-44.22,28.6S897.7,689.45,897.7,670s19,15.4,46.33,15.4S988.25,650.57,988.25,670Z"/><path class="cls-15" d="M925.8,560.6l-38.73,9.7a2.07,2.07,0,0,1-2.35-1.14c-2.92-6.69-2.45-13.08,2.07-19.25a21.81,21.81,0,0,1,25.56-7.34,24.24,24.24,0,0,1,14.76,15.64,1.87,1.87,0,0,1-1.18,2.35Z"/><path class="cls-15" d="M964.18,558.47H951.25c-2,.38-8.67-1.38-8.63-2.15.35-5.77,3.7-7.87,9.26-10.84a17.87,17.87,0,0,1,21.29,3c4.53,4.73,14.73,20.74,6.1,14.27C974.31,559.06,965,558.62,964.18,558.47Z"/><path class="cls-15" d="M871.9,576.37l-31.34,24.79a2.08,2.08,0,0,1-2.62-.07c-5.41-4.9-7.61-10.91-6-18.4a21.82,21.82,0,0,1,20.31-17.23,24.24,24.24,0,0,1,19.89,8.18,1.85,1.85,0,0,1-.08,2.63h0Z"/><path class="cls-15" d="M1143.25,736l-12.93-10.11a.89.89,0,0,1-.23-1.07,7.37,7.37,0,0,1,6.67-4.3,8.93,8.93,0,0,1,8.83,6.43,10.27,10.27,0,0,1-1.25,8.86.77.77,0,0,1-1,.23Z"/><path class="cls-15" d="M1124.81,721.89l-14.25-11.12a1,1,0,0,1-.26-1.17,8.12,8.12,0,0,1,7.33-4.73,9.82,9.82,0,0,1,9.71,7.07,11.28,11.28,0,0,1-1.37,9.74.82.82,0,0,1-1.15.21Z"/><path class="cls-15" d="M1100.56,702.37l-11-17.27a1.09,1.09,0,0,1,.17-1.35,9.2,9.2,0,0,1,9.63-2.27,11.12,11.12,0,0,1,7.7,11.23,12.79,12.79,0,0,1-5.16,9.89.92.92,0,0,1-1.29-.16Z"/><path class="cls-16" d="M1053,808.64C1029.76,836,993.7,853,953.64,859.48a236.78,236.78,0,0,1-37.61,3,158.46,158.46,0,0,1-29.63-2.83,172,172,0,0,1-77.32-36.8c-1.49-1.25-2.94-2.5-4.36-3.78-31.68-28.25-52.47-67.91-52.47-111.91,0-43.38,20.25-82.6,51.22-110.77C779.81,623.1,765,657.16,765,694.22c0,44,20.8,83.65,52.48,111.91,1.42,1.26,2.88,2.52,4.36,3.78a172.28,172.28,0,0,0,77.33,36.8,158.45,158.45,0,0,0,29.63,2.82,236.78,236.78,0,0,0,37.61-3C999.72,841.16,1030.25,828.5,1053,808.64Z"/><path class="cls-16" d="M975.25,851.63l6,1.9a211,211,0,0,1-27.42,6.3,236.65,236.65,0,0,1-37.6,3A159.43,159.43,0,0,1,871,856.21l-.48-.13a172.29,172.29,0,0,1-57.88-30.18l-.31-.24c-1-.79-2-1.61-3-2.45q-2.22-1.87-4.35-3.78c-1.42-1.29-2.85-2.56-4.23-3.92a71.13,71.13,0,0,1,3.52-21.86,1.47,1.47,0,0,1,.13-.37v-.13a168.41,168.41,0,0,0,13.37,13.35l.54.47.3.26c1.15,1,2.33,2,3.52,3,2.8,2.35,5.69,4.59,8.66,6.77a173.86,173.86,0,0,0,48.48,24.84l.37.1A160.44,160.44,0,0,0,929,849.86a235.07,235.07,0,0,0,33.22-2.33l1,.32Z"/><path class="cls-17" d="M884.8,815.05a70.58,70.58,0,0,1-.38,7.41,66.44,66.44,0,0,1-4.94,19.39,58,58,0,0,1-4.74,8.9,50,50,0,0,1-4,5.3,172.53,172.53,0,0,1-58.18-30.42c-1-.79-2-1.61-3-2.45-1.49-1.25-2.93-2.51-4.35-3.78s-3-2.71-4.47-4.14v-.21a66,66,0,0,1,.39-7.44,67.86,67.86,0,0,1,3.19-14.79c6.53-19.3,21.3-32.75,38.46-32.75C866,760.07,884.8,784.69,884.8,815.05Z"/><path class="cls-17" d="M982.1,853.37a211.2,211.2,0,0,1-28,6.47,236.65,236.65,0,0,1-37.6,3A158.67,158.67,0,0,1,886.85,860a164.55,164.55,0,0,1-16.08-3.93,172.59,172.59,0,0,1-58.21-30.46l2-6.16,4-12.53,1.53-4.85,64.4,20.37,78.88,25,12,3.77Z"/><path class="cls-18" d="M879.78,841.52c0,.15-.11.29-.17.43l-.13.33a58,58,0,0,1-4.74,8.9,50.32,50.32,0,0,1-3.73,5,3.15,3.15,0,0,1-.24.3,172.67,172.67,0,0,1-58.21-30.42c-1-.79-2-1.61-3-2.45-1.49-1.25-2.93-2.5-4.35-3.78s-3-2.71-4.47-4.14v-.21a71.16,71.16,0,0,1,3.45-21.86,1.47,1.47,0,0,1,.13-.37v-.13a168.41,168.41,0,0,0,13.37,13.35l.54.47.3.26c1.15,1,2.33,2,3.52,3,2.8,2.35,5.69,4.59,8.66,6.77A175.43,175.43,0,0,0,879.78,841.52Z"/><path class="cls-18" d="M982.1,853.79a211.2,211.2,0,0,1-28,6.47,236.65,236.65,0,0,1-37.6,3,158.66,158.66,0,0,1-29.65-2.89,164.55,164.55,0,0,1-16.08-3.93,172.66,172.66,0,0,1-58.21-30.38l.07-.19,1.87-6,4-12.48v0l.06-.17c1.15,1,2.33,2,3.52,3,2.8,2.35,5.69,4.59,8.66,6.77a175.6,175.6,0,0,0,49,24.51,166.93,166.93,0,0,0,19.81,5,162.4,162.4,0,0,0,30,2.83,241.86,241.86,0,0,0,31.82-2.07l.82.26,1,.32,12,3.77,6,1.9Z"/><path class="cls-15" d="M1011,585.49,999.74,579c-1.88-.65-6.82-5.52-6.4-6.17,3.17-4.82,7.13-5,13.43-4.78a17.88,17.88,0,0,1,16.94,13.28c1.57,6.36,2.43,25.31-1.82,15.41C1019.45,591.05,1011.63,586.05,1011,585.49Z"/><path class="cls-2" d="M979.25,800.92C961.14,852,940,891.09,932.05,888.26l1.2-12.58-9.92,9.48-.73-6-1-7.64-9.82,9.53-.21-8.75c.26-4,.65-8.23,1.21-12.58a216.42,216.42,0,0,1,20.32-66.52"/><path class="cls-2" d="M1052.74,797c9.35,30.69,12.56,56.58,7.18,57.88l-4.06-6.49-1.79,7.88-2.63-2.63-3.37-3.37-1.75,7.91-3.39-4.14c-1.38-2-2.74-4.19-4.06-6.47a117.21,117.21,0,0,1-13.93-38.87"/><path class="cls-19" d="M1227.56,628.37a702.61,702.61,0,0,0-178.5,33.13q-12.51,4.08-24.5,8.48l-.15.06-15.36-183.32c2.41,4.72,19,35.92,52.41,41.7a65.19,65.19,0,0,0,27.1-1.21c3,6.81,14.18,29.84,40.55,42.15a81,81,0,0,0,37.06,7.44,61.42,61.42,0,0,0,13.61,29.75C1197.43,627.37,1223.13,628.24,1227.56,628.37Z"/><path class="cls-19" d="M1166.15,576.8a169.67,169.67,0,0,1-50.53,45.46c-39.78,22.88-88,46.27-91,47.72l-.15.06s14.78-47.88,30.78-87.72a213.34,213.34,0,0,1,33.3-55.11c3,6.81,14.18,29.84,40.55,42.15A81.19,81.19,0,0,0,1166.15,576.8Z"/><path class="cls-20" d="M835.84,739.76c-3.34.1-4.32-29.57-7.35-23.46-2.22,4.51-4.86-2.6-8.23-4.39a54.28,54.28,0,0,0,9.85,2,43.88,43.88,0,0,0,7.94.09C837.71,714.71,844.05,739.52,835.84,739.76Z"/><path class="cls-20" d="M852.84,732.65c-1.19-3.51-6.11-25.92-9.18-14.76-1.3,4.69-3.76-4-5.61-3.91a37.49,37.49,0,0,0,5.07-.71,38.8,38.8,0,0,0,16.56-7.71C861.07,707.53,857.56,746.78,852.84,732.65Z"/><path class="cls-3" d="M953,859.84c-4.77,10.53-10.47,18.89-13.47,17.53s3.23-9.43,8-20,4-16.36,7-15S957.8,849.26,953,859.84Z"/><path class="cls-3" d="M1059.25,828.42c1.14,8.72,1.17,16.31-.63,16.55s-1.48-7.4-2.63-16.12-3.31-12.23-1.51-12.46S1058.06,819.7,1059.25,828.42Z"/><path class="cls-3" d="M1052.93,812.74c1.11-.39,1.71.88,2.08,1.92s.11,0-1,.35-1.14,1.57-1.5.53S1051.82,813.16,1052.93,812.74Z"/><path class="cls-3" d="M955.94,839.37c1.83.69,1.58,2.09,1.19,3.12s.18.07-1.66-.62-2.88.09-2.49-.94S954.1,838.68,955.94,839.37Z"/></svg>