<svg id="Layer_1" data-name="Layer 1" xmlns="http://www.w3.org/2000/svg" xmlns:xlink="http://www.w3.org/1999/xlink" width="1920" height="1080" viewBox="0 0 1920 1080"><defs><style>.cls-1{fill:url(#linear-gradient);}.cls-2{fill:#ededed;}.cls-3{fill:#f2f2f2;}.cls-4{fill:#577590;}.cls-5{fill:#666;}.cls-13,.cls-6{fill:#f2935c;}.cls-22,.cls-6,.cls-8{stroke:#f2935c;}.cls-6,.cls-8{stroke-linecap:round;stroke-linejoin:round;}.cls-22,.cls-7,.cls-8{fill:#e68b57;}.cls-9{fill:#ed905a;}.cls-10{fill:#ebf3f2;}.cls-11{fill:#fffaec;}.cls-12{fill:#bf886a;}.cls-14{fill:#484848;}.cls-15{fill:#767676;}.cls-16{fill:#f25555;}.cls-17{fill:#d17f4f;}.cls-18{fill:#9d5f3b;}.cls-19{fill:#e38a56;}.cls-20{fill:#ffdcc9;}.cls-21{fill:#edcdbb;}.cls-22{stroke-miterlimit:10;}.cls-23{fill:#a8dadc;}.cls-24{fill:#a18f7c;}.cls-25{fill:#99765e;}.cls-26{fill:#886f60;}.cls-27{fill:#997b66;}.cls-28{fill:#9b9b7a;}.cls-29{fill:#a3b18a;}</style><linearGradient id="linear-gradient" x1="959.19" y1="17.85" x2="959.19" y2="1078.59" gradientUnits="userSpaceOnUse"><stop offset="0" stop-color="#cfdbd5"/><stop offset="0.59" stop-color="#d1dcd6"/><stop offset="0.81" stop-color="#d8e1d8"/><stop offset="0.96" stop-color="#e3eadd"/><stop offset="1" stop-color="#e8eddf"/></linearGradient></defs><rect class="cls-1" x="-0.81" y="-1.98" width="1920" height="1080"/><path class="cls-2" d="M281.23,672.41a46.26,46.26,0,0,0-37.17-61.15,62,62,0,0,0-61.76-56.37c-1.85,0-3.68.1-5.5.26A123.07,123.07,0,0,0-51,596.75,62.15,62.15,0,0,0-65.63,595a62,62,0,0,0-62,62,62.66,62.66,0,0,0,.61,8.61,45.35,45.35,0,0,0-32,43.2h0A45.29,45.29,0,0,0-113.89,754H254.62a45.29,45.29,0,0,0,45.17-45.17h0A45.19,45.19,0,0,0,281.23,672.41Z"/><path class="cls-3" d="M341.88,549.39a43,43,0,0,0-55.22-49.45,56.76,56.76,0,0,0-102.88-1,42.94,42.94,0,0,0-52,47.65,34.27,34.27,0,0,0-15.38,28.53h0a34.33,34.33,0,0,0,34.23,34.23H319.4a34.34,34.34,0,0,0,34.23-34.23h0A34.17,34.17,0,0,0,341.88,549.39Z"/><rect class="cls-3" x="336.54" y="38.44" width="1330.46" height="869.75" rx="91.82"/><path class="cls-4" d="M739.5,145.1,696,205.85l-2.06,49.52H656.45l.94-49.2-22.62-58.7,40.34-5.06,6.33,34.17,20.14-34.15Z"/><path class="cls-4" d="M823.51,196.38a57.48,57.48,0,0,1-1.66,13.88,54.29,54.29,0,0,1-4.79,12.54,51.53,51.53,0,0,1-7.59,10.72,48.2,48.2,0,0,1-10,8.34,48.83,48.83,0,0,1-26.06,7.36,49.82,49.82,0,0,1-13.57-1.82,51.41,51.41,0,0,1-12.06-5.1,48.93,48.93,0,0,1-18-18.2,53.55,53.55,0,0,1-5-12.14A50.68,50.68,0,0,1,723,198.43a55.31,55.31,0,0,1,6.45-25.94A54.11,54.11,0,0,1,737,161.73a49.28,49.28,0,0,1,9.93-8.46,47.25,47.25,0,0,1,11.9-5.54,45.34,45.34,0,0,1,13.53-2,59,59,0,0,1,20.92,3.56,44.26,44.26,0,0,1,26.5,26.15A56.71,56.71,0,0,1,823.51,196.38Zm-35.12,2.05a22,22,0,0,0-1-6.6,17.94,17.94,0,0,0-2.89-5.7,14.63,14.63,0,0,0-4.71-4,13,13,0,0,0-6.44-1.54,15.89,15.89,0,0,0-6.65,1.34,15.24,15.24,0,0,0-5,3.68,16.08,16.08,0,0,0-3.2,5.46,19.76,19.76,0,0,0-1.11,6.6,24.56,24.56,0,0,0,1,6.65,19.71,19.71,0,0,0,2.85,6,15.15,15.15,0,0,0,4.7,4.35,12.58,12.58,0,0,0,6.53,1.66,15.1,15.1,0,0,0,6.68-1.46,15.31,15.31,0,0,0,5-4,18.18,18.18,0,0,0,3.16-5.73A20.41,20.41,0,0,0,788.39,198.43Z"/><path class="cls-4" d="M923.65,164.26c0,3.91-.18,8.2-.55,12.9s-1,9.54-1.82,14.55-1.94,10.09-3.28,15.23a109.54,109.54,0,0,1-5,14.83,86.83,86.83,0,0,1-7,13.33,52.2,52.2,0,0,1-9.17,10.83,40.34,40.34,0,0,1-11.59,7.28A37.08,37.08,0,0,1,871,255.86a39.61,39.61,0,0,1-15.94-3,36.13,36.13,0,0,1-11.59-8,42.38,42.38,0,0,1-7.89-11.66A74.59,74.59,0,0,1,830.76,219a109.53,109.53,0,0,1-2.42-15.27q-.66-7.78-.67-15a220.38,220.38,0,0,1,1.11-22.1q1.11-11,3.16-22l37,1.42q-2.13,12.42-3.68,25a210,210,0,0,0-1.54,25.19c0,.9,0,2.23.12,4s.22,3.75.44,5.94.51,4.43.91,6.72a36.09,36.09,0,0,0,1.62,6.29,16.29,16.29,0,0,0,2.49,4.67,4.34,4.34,0,0,0,3.44,1.82,5.31,5.31,0,0,0,4.11-2.18,20.27,20.27,0,0,0,3.21-5.81,58.6,58.6,0,0,0,2.41-8.39q1-4.74,1.74-9.89c.47-3.42.86-6.85,1.15-10.28s.52-6.62.71-9.57.3-5.56.35-7.83.08-4,.08-5.06q0-6.18-.19-12.3c-.14-4.09-.33-8.16-.6-12.23h37Q923.66,153,923.65,164.26Z"/><path class="cls-4" d="M1031,210.3l-3.32,35.12-66.6,5.22,2.53-113h41.13l-5.85,72.66Z"/><path class="cls-4" d="M1132.48,191.63a57.07,57.07,0,0,1-1.66,13.89,54,54,0,0,1-4.79,12.53,51.53,51.53,0,0,1-7.59,10.72,48.63,48.63,0,0,1-36.11,15.7,49.82,49.82,0,0,1-13.57-1.82,51.41,51.41,0,0,1-12.06-5.1,49,49,0,0,1-10.16-7.91,49.58,49.58,0,0,1-7.76-10.28,53.55,53.55,0,0,1-5-12.14,51.09,51.09,0,0,1-1.78-13.53,55.28,55.28,0,0,1,6.45-26,54,54,0,0,1,7.55-10.75,49.33,49.33,0,0,1,9.93-8.47,47.76,47.76,0,0,1,11.9-5.54,45.67,45.67,0,0,1,13.53-2,58.53,58.53,0,0,1,20.92,3.56,44.22,44.22,0,0,1,26.5,26.14A56.82,56.82,0,0,1,1132.48,191.63Zm-35.12,2.06a22.12,22.12,0,0,0-1-6.61,17.9,17.9,0,0,0-2.89-5.69,14.72,14.72,0,0,0-4.7-4,13.26,13.26,0,0,0-6.45-1.54,15.71,15.71,0,0,0-6.65,1.35,15.1,15.1,0,0,0-5,3.68,16.2,16.2,0,0,0-3.2,5.45,19.82,19.82,0,0,0-1.11,6.61,24.49,24.49,0,0,0,1,6.64,19.6,19.6,0,0,0,2.85,6,15,15,0,0,0,4.7,4.35,12.69,12.69,0,0,0,6.53,1.67,14.84,14.84,0,0,0,6.68-1.47,15.16,15.16,0,0,0,5-3.95,17.92,17.92,0,0,0,3.16-5.74A20.43,20.43,0,0,0,1097.36,193.69Z"/><path class="cls-4" d="M1219.1,211.72a43.05,43.05,0,0,1-3.76,18.71,35.64,35.64,0,0,1-10.29,13,43,43,0,0,1-15.26,7.52,70.46,70.46,0,0,1-18.79,2.41,39.25,39.25,0,0,1-8.5-1c-3.09-.68-6.21-1.54-9.38-2.57s-6.2-2.13-9.13-3.32-5.53-2.31-7.79-3.36l3.48-31a56,56,0,0,0,14.91,6.13,64.84,64.84,0,0,0,16.1,2.1q1.5,0,3.63-.12a17.53,17.53,0,0,0,4.08-.71,8.89,8.89,0,0,0,3.28-1.78,4.28,4.28,0,0,0,1.35-3.4,3.73,3.73,0,0,0-1-2.58,7.12,7.12,0,0,0-2.46-1.74,14.92,14.92,0,0,0-3.4-1c-1.26-.24-2.5-.41-3.72-.52s-2.34-.16-3.4-.16h-2.47a34.62,34.62,0,0,1-12.38-2.13,27.66,27.66,0,0,1-9.57-6,27.32,27.32,0,0,1-6.21-9.5,33.56,33.56,0,0,1-2.21-12.38,36.55,36.55,0,0,1,3.76-16.73A38.9,38.9,0,0,1,1150,149a45.06,45.06,0,0,1,14.44-8,51.68,51.68,0,0,1,16.85-2.77q3.87,0,8,.28a72.66,72.66,0,0,1,8.19,1,76.85,76.85,0,0,1,8,1.81,47.94,47.94,0,0,1,7.36,2.77l-3,32.12a97.11,97.11,0,0,0-11.27-3.05A56.31,56.31,0,0,0,1187,172h-2.65a31.66,31.66,0,0,0-3.4.23q-1.82.21-3.6.6a15.55,15.55,0,0,0-3.24,1.06,6.35,6.35,0,0,0-2.3,1.78,3.77,3.77,0,0,0-.79,2.61,3.41,3.41,0,0,0,1.31,2.69,7.87,7.87,0,0,0,3.16,1.39,19.83,19.83,0,0,0,4.27.43c1.56,0,3.1,0,4.63-.11l4.27-.24a25,25,0,0,1,3.24,0,32,32,0,0,1,11.4,2.69,26.24,26.24,0,0,1,8.58,6.09,25.75,25.75,0,0,1,5.38,9.06A34.45,34.45,0,0,1,1219.1,211.72Z"/><path class="cls-4" d="M1312.43,188.31a100.56,100.56,0,0,1-.94,13.76q-13.53.87-26.9,2.81t-26.74,3.84a19.66,19.66,0,0,0,6.45,9.09,16.65,16.65,0,0,0,10.48,3.41,23.22,23.22,0,0,0,6.92-1.19,57.5,57.5,0,0,0,7.48-3,80.28,80.28,0,0,0,7.12-3.83c2.26-1.37,4.22-2.61,5.85-3.72l-3.8,35.91a34.76,34.76,0,0,1-6.68,4,46.81,46.81,0,0,1-7.47,2.68,57.71,57.71,0,0,1-7.84,1.51,66.89,66.89,0,0,1-7.75.47,46.07,46.07,0,0,1-14.32-2.13,42.6,42.6,0,0,1-11.74-6,44.48,44.48,0,0,1-9.22-9.06,53.33,53.33,0,0,1-6.56-11.39,66.27,66.27,0,0,1-4-13.05,73.22,73.22,0,0,1-1.34-13.93,81.47,81.47,0,0,1,1.34-14.71,74,74,0,0,1,4.08-14.16,59.85,59.85,0,0,1,6.88-12.62,49.67,49.67,0,0,1,9.69-10.16A43,43,0,0,1,1256,140a46.21,46.21,0,0,1,15.46-2.46,40.31,40.31,0,0,1,12.85,1.94,35.93,35.93,0,0,1,10.37,5.38,37.25,37.25,0,0,1,7.91,8.19,47,47,0,0,1,5.53,10.4,61.67,61.67,0,0,1,3.25,11.94A76.1,76.1,0,0,1,1312.43,188.31Zm-31.64-4.11a22.38,22.38,0,0,0-.47-4.55,14.52,14.52,0,0,0-1.54-4.23,9.47,9.47,0,0,0-2.81-3.13,7.34,7.34,0,0,0-4.39-1.19,9.38,9.38,0,0,0-5.58,1.7,16.21,16.21,0,0,0-4.15,4.27,25.69,25.69,0,0,0-2.85,5.57,42.53,42.53,0,0,0-1.66,5.54l23.41-2.21Z"/><path class="cls-4" d="M1356.34,134.68l-6.49,83.21h-29.27l-3-83.21Zm-5.22,107.58a15.56,15.56,0,0,1-1.35,6.48,17.22,17.22,0,0,1-3.6,5.26,16.7,16.7,0,0,1-5.26,3.56,16,16,0,0,1-6.41,1.31,16.25,16.25,0,0,1-6.48-1.31,16.78,16.78,0,0,1-8.82-8.82,16.25,16.25,0,0,1-1.31-6.48,16.9,16.9,0,0,1,4.87-11.83,17.22,17.22,0,0,1,5.26-3.6,15.71,15.71,0,0,1,6.48-1.34,15.52,15.52,0,0,1,6.41,1.34,17.1,17.1,0,0,1,5.26,3.6,16.88,16.88,0,0,1,3.6,5.34A15.9,15.9,0,0,1,1351.12,242.26Z"/><path class="cls-5" d="M508.34,368c0,1.45-.07,3-.2,4.77s-.37,3.54-.68,5.4-.72,3.73-1.21,5.63a41.37,41.37,0,0,1-1.86,5.5,32.24,32.24,0,0,1-2.6,4.93,18.83,18.83,0,0,1-3.4,4A14.93,14.93,0,0,1,494.1,401a13.57,13.57,0,0,1-5.27,1,14.72,14.72,0,0,1-5.9-1.09,13.67,13.67,0,0,1-4.3-3,16,16,0,0,1-2.93-4.34,27.66,27.66,0,0,1-1.78-5.24,41.92,41.92,0,0,1-.9-5.66c-.16-1.92-.25-3.77-.25-5.55q0-4.11.41-8.19t1.18-8.16l13.71.53q-.79,4.59-1.36,9.24a74.71,74.71,0,0,0-.58,9.34c0,.33,0,.82.05,1.47s.08,1.39.16,2.2.19,1.64.34,2.49a13.52,13.52,0,0,0,.6,2.33,6,6,0,0,0,.92,1.73,1.62,1.62,0,0,0,1.27.67,2,2,0,0,0,1.53-.8,7.45,7.45,0,0,0,1.18-2.16,21.11,21.11,0,0,0,.9-3.1c.25-1.17.47-2.39.64-3.66s.32-2.54.43-3.81.19-2.45.26-3.55.11-2.06.13-2.9,0-1.46,0-1.87c0-1.53,0-3-.07-4.56s-.12-3-.22-4.52H508C508.22,362.52,508.34,365.26,508.34,368Z"/><path class="cls-5" d="M546.72,385.78c0,2.2,0,4.39-.07,6.55s-.13,4.33-.22,6.52l-16.85-.29c.59-3.46,1.1-6.92,1.53-10.36a84.81,84.81,0,0,0,.64-10.44v-1.23a17.6,17.6,0,0,0-.12-1.92c0-.72-.14-1.45-.25-2.2a13.35,13.35,0,0,0-.43-2.07,5.68,5.68,0,0,0-.68-1.53,1.11,1.11,0,0,0-.95-.61,2.51,2.51,0,0,0-1.69.59,4.71,4.71,0,0,0-1.14,1.51,10,10,0,0,0-.72,2.07,21.71,21.71,0,0,0-.39,2.28c-.09.76-.15,1.48-.18,2.15s0,1.23,0,1.66q-.15,5.19-.24,10.3t-.33,10.34l-14.94.65q.58-10.35,1.13-20.57t.86-20.56l13.83-.71-.12,4.69a19.67,19.67,0,0,1,1.77-1.88,12.58,12.58,0,0,1,2-1.5,10.41,10.41,0,0,1,2.3-1,8.91,8.91,0,0,1,2.56-.37,10.89,10.89,0,0,1,4.37.82,9.85,9.85,0,0,1,3.22,2.23,12.4,12.4,0,0,1,2.26,3.33,22.53,22.53,0,0,1,1.46,4.08,34.76,34.76,0,0,1,.85,4.53c.2,1.57.33,3.12.4,4.64s.1,3,.1,4.43Z"/><path class="cls-5" d="M577.19,359c-.12,1.83-.23,3.65-.32,5.45s-.23,3.61-.38,5.45l-12.43.64v3.69h10.79l-.59,9.08-10.25.3,0,16.17-14.82.29.94-41.07Z"/><path class="cls-5" d="M614.4,378.17a20.72,20.72,0,0,1-.62,5.14A19.92,19.92,0,0,1,612,388a18.85,18.85,0,0,1-2.81,4,18,18,0,0,1-13.38,5.82,18.78,18.78,0,0,1-5-.68,19.3,19.3,0,0,1-4.47-1.89,18.17,18.17,0,0,1-3.77-2.93,18.4,18.4,0,0,1-2.87-3.81,20.39,20.39,0,0,1-1.84-4.49,19.18,19.18,0,0,1-.66-5,20.49,20.49,0,0,1,.61-5,19.83,19.83,0,0,1,1.78-4.61,20.19,20.19,0,0,1,2.79-4,19,19,0,0,1,3.68-3.13,17.69,17.69,0,0,1,4.41-2.05,16.63,16.63,0,0,1,5-.73,22,22,0,0,1,7.75,1.31,16.81,16.81,0,0,1,6,3.77,16.56,16.56,0,0,1,3.83,5.92A20.93,20.93,0,0,1,614.4,378.17Zm-13,.76a7.83,7.83,0,0,0-.37-2.45,6.67,6.67,0,0,0-1.07-2.11,5.55,5.55,0,0,0-1.74-1.49,4.82,4.82,0,0,0-2.39-.57,5.82,5.82,0,0,0-2.46.49,5.69,5.69,0,0,0-1.86,1.37,6.14,6.14,0,0,0-1.19,2,7.48,7.48,0,0,0-.41,2.44,9,9,0,0,0,.36,2.47,7.41,7.41,0,0,0,1.05,2.22,5.7,5.7,0,0,0,1.74,1.61,4.8,4.8,0,0,0,2.42.62,5.46,5.46,0,0,0,4.34-2,7,7,0,0,0,1.17-2.12,7.49,7.49,0,0,0,.4-2.48Z"/><path class="cls-5" d="M650.78,372.37a19.89,19.89,0,0,1-.39,4.14,12.59,12.59,0,0,1-1.25,3.41,11.79,11.79,0,0,1-2.2,2.87,19.36,19.36,0,0,1-3.25,2.52l7,12.43-13.19,2.57L633,387.83l-3.63.12-.55,12.15h-12.6q.15-6.69.28-13.3t.31-13.3q.06-3.37.12-6.68t.23-6.68a35.64,35.64,0,0,1,4-1.26,39.22,39.22,0,0,1,4-.78c1.34-.18,2.7-.31,4.07-.38s2.79-.1,4.24-.1a22.42,22.42,0,0,1,6.46.92,16.58,16.58,0,0,1,5.52,2.77,13.68,13.68,0,0,1,3.85,4.6A13.4,13.4,0,0,1,650.78,372.37Zm-13.12.93a7.1,7.1,0,0,0-.34-2.25,4.69,4.69,0,0,0-1-1.78,4.45,4.45,0,0,0-1.64-1.17,5.66,5.66,0,0,0-2.3-.42,8.72,8.72,0,0,0-1.14.07,6.9,6.9,0,0,0-1.08.22l-.47,10.9h.7a11.67,11.67,0,0,0,2.57-.32,8,8,0,0,0,2.34-1,5.61,5.61,0,0,0,1.7-1.73,4.58,4.58,0,0,0,.66-2.52Z"/><path class="cls-5" d="M683.83,359.3l-.25,12.42-8.73.35-1.06,27.19-12.36.64-1.12-27.18-8.73.47.36-13.83Z"/><path class="cls-5" d="M720.42,359.36q-1.32,10.31-2.25,20.52t-1.79,20.55l-12,.88.52-4.51a6.1,6.1,0,0,1-1.36,1.17,8.42,8.42,0,0,1-1.65.81,10.28,10.28,0,0,1-1.82.44,11.87,11.87,0,0,1-1.79.1,9.87,9.87,0,0,1-3.75-.78,12.94,12.94,0,0,1-3.22-2,15.81,15.81,0,0,1-2.64-2.9,20.09,20.09,0,0,1-2-3.49,20.37,20.37,0,0,1-1.23-3.73,17,17,0,0,1-.43-3.69c0-1.76,0-3.58.1-5.47s.19-3.77.37-5.67.4-3.77.69-5.62.64-3.63,1.07-5.33l7.17.32q3.62.15,7.18.09c-.44,1.7-.89,3.4-1.33,5.11s-.83,3.42-1.19,5.16-.63,3.46-.85,5.2a44.24,44.24,0,0,0-.32,5.27c0,.41,0,1,.06,1.76a13.24,13.24,0,0,0,.31,2.25,6.56,6.56,0,0,0,.76,2,1.62,1.62,0,0,0,1.45.84,2.64,2.64,0,0,0,2-1,8.52,8.52,0,0,0,1.55-2.56,22.25,22.25,0,0,0,1.16-3.72c.32-1.41.6-2.88.82-4.41s.41-3.08.54-4.64.24-3,.31-4.41.12-2.61.15-3.71,0-1.94,0-2.55V360.5a7.49,7.49,0,0,0-.09-1.14l3.78.09h6.78C718.43,359.45,719.43,359.42,720.42,359.36Z"/><path class="cls-5" d="M758.58,385.78c0,2.2,0,4.39-.08,6.55s-.12,4.33-.22,6.52l-16.87-.29c.58-3.46,1.09-6.92,1.52-10.36a82.9,82.9,0,0,0,.65-10.44v-1.23a17.6,17.6,0,0,0-.12-1.92c-.06-.72-.14-1.45-.25-2.2a13.38,13.38,0,0,0-.44-2.07,5.36,5.36,0,0,0-.67-1.53,1.13,1.13,0,0,0-1-.61,2.51,2.51,0,0,0-1.69.59,4.47,4.47,0,0,0-1.14,1.51,10,10,0,0,0-.72,2.07,17.51,17.51,0,0,0-.39,2.28c-.09.76-.15,1.48-.18,2.15s0,1.23,0,1.66q-.15,5.19-.24,10.3c-.06,3.4-.15,6.85-.29,10.34l-14.94.65q.6-10.35,1.12-20.57t.87-20.56l13.83-.71-.12,4.69a18.55,18.55,0,0,1,1.77-1.88,11.24,11.24,0,0,1,2-1.5,10.41,10.41,0,0,1,2.3-1,8.91,8.91,0,0,1,2.56-.37,10.89,10.89,0,0,1,4.37.82,9.85,9.85,0,0,1,3.22,2.23,12.14,12.14,0,0,1,2.25,3.33,21.83,21.83,0,0,1,1.47,4.08,36.51,36.51,0,0,1,.85,4.53c.19,1.57.33,3.12.39,4.64s.11,3,.11,4.43Z"/><path class="cls-5" d="M798.23,398.1,783.7,400l-1.76-6.62h-6.67L773.8,400l-14.94-1.46,11.66-39,16.29-.82Zm-17.34-13.71-2.23-10.2-2.16,10.2Z"/><path class="cls-5" d="M826.27,359.3,826,371.72l-8.73.35-1.06,27.19-12.36.64-1.11-27.18-8.73.47.35-13.83Z"/><path class="cls-5" d="M860.05,376.94a37.74,37.74,0,0,1-.35,5.09c-3.34.22-6.66.56-10,1s-6.6,1-9.9,1.42a7.27,7.27,0,0,0,2.38,3.37,6.18,6.18,0,0,0,3.88,1.26,8.31,8.31,0,0,0,2.57-.44,20.74,20.74,0,0,0,2.77-1.1,28.94,28.94,0,0,0,2.63-1.42c.84-.5,1.57-1,2.17-1.37l-1.4,13.3a13.83,13.83,0,0,1-2.48,1.49,17.94,17.94,0,0,1-2.77,1,21.81,21.81,0,0,1-2.9.55,22.92,22.92,0,0,1-2.87.18,17.07,17.07,0,0,1-5.3-.79,15.94,15.94,0,0,1-4.35-2.21,16.75,16.75,0,0,1-3.42-3.36,20.37,20.37,0,0,1-2.43-4.22,24.88,24.88,0,0,1-1.46-4.83,27.1,27.1,0,0,1-.5-5.16,30.11,30.11,0,0,1,.5-5.45,27.1,27.1,0,0,1,1.51-5.24,22.23,22.23,0,0,1,2.54-4.67,18.88,18.88,0,0,1,3.59-3.77,16.4,16.4,0,0,1,4.65-2.52,17.16,17.16,0,0,1,5.72-.9,15.11,15.11,0,0,1,4.77.71,13.53,13.53,0,0,1,6.76,5,16.76,16.76,0,0,1,2,3.85,22.58,22.58,0,0,1,1.2,4.42A26.69,26.69,0,0,1,860.05,376.94Zm-11.72-1.53a8.55,8.55,0,0,0-.17-1.68,5.21,5.21,0,0,0-.58-1.57,3.38,3.38,0,0,0-1-1.16,2.7,2.7,0,0,0-1.61-.45,3.41,3.41,0,0,0-2.06.63,6.25,6.25,0,0,0-1.54,1.58,9.86,9.86,0,0,0-1.06,2.07,17.11,17.11,0,0,0-.61,2l8.67-.82Z"/><path class="cls-5" d="M887.65,385.1l-1.23,13L861.75,400l.94-41.83h15.23l-2.17,26.9Z"/><path class="cls-5" d="M920.49,360.94l-13.77,22.5.41,16.58H892.07l.35-16.46L881.7,361.82l14.94-1.88,4.69,12.66,5.1-12.66Z"/><path class="cls-5" d="M968.58,360.94l-13.77,22.5.41,16.58h-15.1l.35-16.46-10.72-21.74,14.94-1.88,4.69,12.66,5.09-12.66Z"/><path class="cls-5" d="M1001.76,378.17a20.72,20.72,0,0,1-.62,5.14,19.92,19.92,0,0,1-1.77,4.64,18.85,18.85,0,0,1-2.81,4,17.83,17.83,0,0,1-3.72,3.09,18.34,18.34,0,0,1-4.5,2,18,18,0,0,1-5.16.72,18.78,18.78,0,0,1-5-.68,19.74,19.74,0,0,1-4.47-1.89,18.24,18.24,0,0,1-6.63-6.74,19.76,19.76,0,0,1-1.85-4.49,19.18,19.18,0,0,1-.66-5,20.56,20.56,0,0,1,2.39-9.61,20,20,0,0,1,2.8-4,18.89,18.89,0,0,1,3.67-3.13,17.69,17.69,0,0,1,4.41-2.05,17,17,0,0,1,5-.73,22,22,0,0,1,7.75,1.31,16.39,16.39,0,0,1,9.82,9.69A21,21,0,0,1,1001.76,378.17Zm-13,.76a8.45,8.45,0,0,0-.36-2.45,6.78,6.78,0,0,0-1.07-2.11,5.45,5.45,0,0,0-1.75-1.49,4.82,4.82,0,0,0-2.39-.57,5.82,5.82,0,0,0-2.46.49,5.69,5.69,0,0,0-1.86,1.37,6,6,0,0,0-1.18,2,7.23,7.23,0,0,0-.41,2.44,8.71,8.71,0,0,0,.3,2.49,7.41,7.41,0,0,0,1,2.22,5.61,5.61,0,0,0,1.75,1.61,4.64,4.64,0,0,0,2.41.62,5.46,5.46,0,0,0,4.34-2,6.49,6.49,0,0,0,1.17-2.12,7.66,7.66,0,0,0,.45-2.5Z"/><path class="cls-5" d="M1038.73,359.36q-1.32,10.31-2.25,20.52t-1.79,20.55l-12,.88.52-4.51a6.1,6.1,0,0,1-1.36,1.17,8.42,8.42,0,0,1-1.65.81,10.28,10.28,0,0,1-1.82.44,11.87,11.87,0,0,1-1.79.1,9.87,9.87,0,0,1-3.75-.78,12.94,12.94,0,0,1-3.22-2,15.81,15.81,0,0,1-2.64-2.9,20.09,20.09,0,0,1-2-3.49,20.37,20.37,0,0,1-1.23-3.73,17,17,0,0,1-.43-3.69c0-1.76,0-3.58.1-5.47s.19-3.77.37-5.67.41-3.77.69-5.62.64-3.63,1.07-5.33l7.18.32q3.6.15,7.17.09-.67,2.55-1.33,5.11t-1.19,5.16c-.35,1.72-.63,3.46-.85,5.2a44.24,44.24,0,0,0-.32,5.27c0,.41,0,1,.06,1.76a13.24,13.24,0,0,0,.31,2.25,6.56,6.56,0,0,0,.76,2,1.62,1.62,0,0,0,1.45.84,2.64,2.64,0,0,0,2-1,8.4,8.4,0,0,0,1.55-2.56,22.25,22.25,0,0,0,1.16-3.72c.32-1.41.6-2.88.82-4.41s.41-3.08.54-4.64.24-3,.31-4.41.12-2.61.15-3.71,0-1.94,0-2.55V360.5a7.49,7.49,0,0,0-.09-1.14l3.78.09h6.73C1036.74,359.45,1037.74,359.42,1038.73,359.36Z"/><path class="cls-5" d="M1080.16,360.59,1079.1,373a9.3,9.3,0,0,0-1.67-.32,15.43,15.43,0,0,0-1.67-.09,14.66,14.66,0,0,0-4,.53,10,10,0,0,0-3.34,1.61,8.06,8.06,0,0,0-2.31,2.74,8.38,8.38,0,0,0-.87,3.91,8,8,0,0,0,.49,2.86,5.5,5.5,0,0,0,1.37,2,6,6,0,0,0,2.17,1.21,9.37,9.37,0,0,0,2.83.41,11.87,11.87,0,0,0,2.23-.22,17.35,17.35,0,0,0,2.28-.6,19,19,0,0,0,2.2-.88,19.63,19.63,0,0,0,2-1l-.47,13.77a18.9,18.9,0,0,1-2.46,1c-.88.3-1.78.57-2.71.79a25.68,25.68,0,0,1-2.78.51,23.43,23.43,0,0,1-2.65.18,17.78,17.78,0,0,1-13.44-5.79,19.59,19.59,0,0,1-3.79-6.22,21.23,21.23,0,0,1-1.35-7.56,28.9,28.9,0,0,1,1.37-9,20.82,20.82,0,0,1,4-7.22,18.51,18.51,0,0,1,6.56-4.8,21.92,21.92,0,0,1,9-1.75,25.48,25.48,0,0,1,4.1.33A14.44,14.44,0,0,1,1080.16,360.59Z"/><path class="cls-5" d="M1118.68,378.17a21.19,21.19,0,0,1-.61,5.14,19.51,19.51,0,0,1-1.78,4.64,18.85,18.85,0,0,1-2.81,4,17.83,17.83,0,0,1-3.72,3.09,18.07,18.07,0,0,1-9.65,2.73,18.78,18.78,0,0,1-5-.68,19,19,0,0,1-4.46-1.89,17.84,17.84,0,0,1-3.77-2.93,18.4,18.4,0,0,1-2.87-3.81,19,19,0,0,1-2.5-9.49,20.49,20.49,0,0,1,.61-5,20.15,20.15,0,0,1,4.57-8.6,18.33,18.33,0,0,1,3.68-3.13,17.35,17.35,0,0,1,4.41-2.05,16.63,16.63,0,0,1,5-.73,22,22,0,0,1,7.75,1.31,16.45,16.45,0,0,1,9.81,9.69A20.91,20.91,0,0,1,1118.68,378.17Zm-13,.76a8.45,8.45,0,0,0-.36-2.45,6.67,6.67,0,0,0-1.07-2.11,5.55,5.55,0,0,0-1.74-1.49,4.82,4.82,0,0,0-2.39-.57,5.82,5.82,0,0,0-2.46.49,5.58,5.58,0,0,0-1.86,1.37,6,6,0,0,0-1.19,2,7.48,7.48,0,0,0-.41,2.44,9.16,9.16,0,0,0,.38,2.49,7.69,7.69,0,0,0,1.06,2.22,5.7,5.7,0,0,0,1.74,1.61,4.8,4.8,0,0,0,2.42.62,5.47,5.47,0,0,0,4.33-2,6.49,6.49,0,0,0,1.17-2.12,7.33,7.33,0,0,0,.37-2.5Z"/><path class="cls-5" d="M1155.66,359.36q-1.32,10.31-2.26,20.52t-1.82,20.55l-12,.88.53-4.51a6.37,6.37,0,0,1-1.36,1.17,8.23,8.23,0,0,1-1.66.81,10.28,10.28,0,0,1-1.82.44,11.73,11.73,0,0,1-1.78.1,9.87,9.87,0,0,1-3.75-.78,12.82,12.82,0,0,1-3.23-2,16.46,16.46,0,0,1-2.63-2.9,20.85,20.85,0,0,1-2-3.49,20.37,20.37,0,0,1-1.23-3.73,17.63,17.63,0,0,1-.43-3.69c0-1.76,0-3.58.11-5.47s.19-3.77.36-5.67.41-3.77.69-5.62.64-3.63,1.07-5.33l7.18.32c2.4.1,4.8.13,7.18.09q-.68,2.55-1.34,5.11t-1.18,5.16c-.35,1.72-.64,3.46-.85,5.2a44.24,44.24,0,0,0-.32,5.27c0,.41,0,1,.05,1.76a15.61,15.61,0,0,0,.31,2.25,6.56,6.56,0,0,0,.76,2,1.62,1.62,0,0,0,1.45.84,2.67,2.67,0,0,0,2-1,8.73,8.73,0,0,0,1.55-2.56,23.22,23.22,0,0,0,1.16-3.72c.32-1.41.59-2.88.82-4.41s.4-3.08.54-4.64.24-3,.31-4.41.11-2.61.14-3.71,0-1.94,0-2.55V360.5a7.49,7.49,0,0,0-.09-1.14l3.78.09h6.72C1153.67,359.45,1154.66,359.42,1155.66,359.36Z"/><path class="cls-5" d="M1183.11,385.1l-1.23,13L1157.21,400l.94-41.83h15.23l-2.17,26.9Z"/><path class="cls-5" d="M1217.68,377.35a23.48,23.48,0,0,1-1.06,7.35,19.26,19.26,0,0,1-2.94,5.76,18.6,18.6,0,0,1-4.5,4.26,26.38,26.38,0,0,1-5.71,2.88,34,34,0,0,1-6.61,1.66,49.39,49.39,0,0,1-7.19.53c-.92,0-1.82,0-2.7-.08s-1.77-.12-2.69-.22l.82-38.14a36.65,36.65,0,0,1,6.63-1.45,55.14,55.14,0,0,1,6.79-.43,23.91,23.91,0,0,1,7.7,1.18,17.1,17.1,0,0,1,6.07,3.44,15.45,15.45,0,0,1,4,5.59A19.32,19.32,0,0,1,1217.68,377.35Zm-19.93,11.25a9.81,9.81,0,0,0,3.21-1.07,9.39,9.39,0,0,0,2.51-2,8.59,8.59,0,0,0,1.62-2.69,8.84,8.84,0,0,0,.57-3.21,12.6,12.6,0,0,0-.35-3.12,6.7,6.7,0,0,0-1.14-2.52,5.54,5.54,0,0,0-2.08-1.7,7.65,7.65,0,0,0-3.16-.69Z"/><path class="cls-5" d="M1255.85,385.78c0,2.2,0,4.39-.07,6.55s-.12,4.33-.22,6.52l-16.88-.29c.6-3.46,1.11-6.92,1.53-10.36a82.89,82.89,0,0,0,.64-10.44v-1.23a17.6,17.6,0,0,0-.12-1.92,17,17,0,0,0-.24-2.2,14.66,14.66,0,0,0-.44-2.07,5.68,5.68,0,0,0-.68-1.53,1.13,1.13,0,0,0-1-.61,2.51,2.51,0,0,0-1.69.59,4.86,4.86,0,0,0-1.14,1.51,10,10,0,0,0-.72,2.07,21.71,21.71,0,0,0-.39,2.28c-.09.76-.15,1.48-.18,2.15s0,1.23,0,1.66c-.1,3.46-.17,6.89-.23,10.3s-.13,6.84-.24,10.32l-14.94.65q.6-10.35,1.13-20.57t.86-20.56l13.83-.71-.12,4.69a21,21,0,0,1,1.77-1.88,12.58,12.58,0,0,1,2-1.5,10.41,10.41,0,0,1,2.3-1,8.91,8.91,0,0,1,2.56-.37,10.89,10.89,0,0,1,4.37.82,9.85,9.85,0,0,1,3.22,2.23,12.4,12.4,0,0,1,2.26,3.33,21.79,21.79,0,0,1,1.46,4.08,34.76,34.76,0,0,1,.85,4.53c.2,1.57.33,3.12.4,4.64s.1,3,.1,4.43Z"/><path class="cls-5" d="M1271.58,353.26l-3.28,17.84-9,.29-1.82-17.81Z"/><path class="cls-5" d="M1303.58,359.3l-.3,12.42-8.7.38-1,27.19-12.37.64-1.11-27.18-8.73.47.35-13.83Z"/><path class="cls-5" d="M1344.91,360.59l-1,12.36a9.3,9.3,0,0,0-1.67-.32,15.43,15.43,0,0,0-1.67-.09,14.66,14.66,0,0,0-4,.53,10,10,0,0,0-3.34,1.61,8,8,0,0,0-2.32,2.74,8.5,8.5,0,0,0-.86,3.91,8,8,0,0,0,.48,2.86,5.53,5.53,0,0,0,1.38,2,6,6,0,0,0,2.17,1.21,9.37,9.37,0,0,0,2.83.41,11.77,11.77,0,0,0,2.22-.22,17.5,17.5,0,0,0,2.29-.6,18.5,18.5,0,0,0,2.16-.89,19.63,19.63,0,0,0,2-1l-.47,13.77a18.9,18.9,0,0,1-2.46,1c-.88.3-1.78.57-2.71.79a26.32,26.32,0,0,1-2.79.51,23.43,23.43,0,0,1-2.65.18,18.3,18.3,0,0,1-7.57-1.55,17.94,17.94,0,0,1-5.86-4.24,19.59,19.59,0,0,1-3.79-6.22,21.23,21.23,0,0,1-1.35-7.56,28.6,28.6,0,0,1,1.36-9,20.82,20.82,0,0,1,4-7.22,18.43,18.43,0,0,1,6.56-4.8,21.92,21.92,0,0,1,9-1.75,25.48,25.48,0,0,1,4.1.33A14.06,14.06,0,0,1,1344.91,360.59Z"/><path class="cls-5" d="M1383.44,378.17a20.72,20.72,0,0,1-.62,5.14,19.92,19.92,0,0,1-1.77,4.64,18.85,18.85,0,0,1-2.81,4,18,18,0,0,1-13.38,5.82,18.78,18.78,0,0,1-5-.68,19.74,19.74,0,0,1-4.47-1.89,18.24,18.24,0,0,1-6.63-6.74,19.76,19.76,0,0,1-1.85-4.49,19.18,19.18,0,0,1-.66-5,20.56,20.56,0,0,1,2.39-9.61,20,20,0,0,1,2.8-4,18.6,18.6,0,0,1,3.67-3.13,17.69,17.69,0,0,1,4.41-2.05,16.63,16.63,0,0,1,5-.73,22,22,0,0,1,7.75,1.31,16.39,16.39,0,0,1,9.82,9.69A20.94,20.94,0,0,1,1383.44,378.17Zm-13,.76a7.83,7.83,0,0,0-.37-2.45,6.65,6.65,0,0,0-1.06-2.11,5.45,5.45,0,0,0-1.75-1.49,4.82,4.82,0,0,0-2.39-.57,5.82,5.82,0,0,0-2.46.49,5.69,5.69,0,0,0-1.86,1.37,6,6,0,0,0-1.18,2,7.23,7.23,0,0,0-.41,2.44,9,9,0,0,0,.35,2.47,7.29,7.29,0,0,0,1,2.22,5.61,5.61,0,0,0,1.75,1.61,4.64,4.64,0,0,0,2.41.62,5.46,5.46,0,0,0,4.34-2,6.49,6.49,0,0,0,1.17-2.12,7.55,7.55,0,0,0,.45-2.48Z"/><path class="cls-5" d="M1411.18,385.1l-1.23,13L1385.28,400l.94-41.83h15.24l-2.17,26.9Z"/><path class="cls-5" d="M1438.25,385.1l-1.23,13L1412.35,400l.94-41.83h15.29l-2.22,26.9Z"/><path class="cls-5" d="M1472.33,376.94A36.19,36.19,0,0,1,1472,382c-3.34.22-6.66.56-10,1s-6.6,1-9.9,1.42a7.29,7.29,0,0,0,2.39,3.37,6.16,6.16,0,0,0,3.88,1.26,8.24,8.24,0,0,0,2.56-.44,20.74,20.74,0,0,0,2.77-1.1,27.84,27.84,0,0,0,2.64-1.42c.84-.5,1.56-1,2.17-1.37l-1.41,13.3a13.83,13.83,0,0,1-2.48,1.49,17.82,17.82,0,0,1-2.76,1,21.81,21.81,0,0,1-2.9.55,23,23,0,0,1-2.88.18,17.07,17.07,0,0,1-5.3-.79,15.94,15.94,0,0,1-4.35-2.21,16.71,16.71,0,0,1-3.41-3.36,19.68,19.68,0,0,1-2.43-4.22,24,24,0,0,1-1.47-4.83,27.1,27.1,0,0,1-.5-5.16,31.12,31.12,0,0,1,.5-5.45,27.82,27.82,0,0,1,1.51-5.24,21.58,21.58,0,0,1,2.55-4.67,17.84,17.84,0,0,1,3.59-3.77,16.21,16.21,0,0,1,4.64-2.52,17.22,17.22,0,0,1,5.73-.9,15.05,15.05,0,0,1,4.76.71,13.27,13.27,0,0,1,3.84,2,13.45,13.45,0,0,1,2.93,3,17.35,17.35,0,0,1,2,3.85,22.58,22.58,0,0,1,1.2,4.42A28.68,28.68,0,0,1,1472.33,376.94Zm-11.75-1.53a7.86,7.86,0,0,0-.18-1.68,5.47,5.47,0,0,0-.57-1.57,3.38,3.38,0,0,0-1-1.16,2.7,2.7,0,0,0-1.61-.45,3.49,3.49,0,0,0-2.07.63,6.25,6.25,0,0,0-1.54,1.58,9.65,9.65,0,0,0-1,2.07,17.15,17.15,0,0,0-.62,2l8.59-.73Z"/><path class="cls-5" d="M1502.18,360.59,1501.12,373a9.3,9.3,0,0,0-1.67-.32,15.43,15.43,0,0,0-1.67-.09,14.66,14.66,0,0,0-4,.53,10,10,0,0,0-3.34,1.61,8.16,8.16,0,0,0-2.31,2.74,8.37,8.37,0,0,0-.86,3.91,8,8,0,0,0,.48,2.86,5.33,5.33,0,0,0,1.38,2,5.85,5.85,0,0,0,2.16,1.21,9.37,9.37,0,0,0,2.83.41,11.87,11.87,0,0,0,2.23-.22,17.35,17.35,0,0,0,2.28-.6,18.34,18.34,0,0,0,2.2-.88,19.63,19.63,0,0,0,2-1l-.47,13.77a18.9,18.9,0,0,1-2.46,1c-.88.3-1.78.57-2.71.79a25.68,25.68,0,0,1-2.78.51,23.43,23.43,0,0,1-2.65.18,18.3,18.3,0,0,1-7.57-1.55,17.94,17.94,0,0,1-5.86-4.24,19.44,19.44,0,0,1-3.8-6.22,21.23,21.23,0,0,1-1.35-7.56,28.9,28.9,0,0,1,1.37-9,20.82,20.82,0,0,1,4-7.22,18.51,18.51,0,0,1,6.56-4.8,21.92,21.92,0,0,1,9-1.75,25.48,25.48,0,0,1,4.1.33A14.44,14.44,0,0,1,1502.18,360.59Z"/><path class="cls-5" d="M1536,359.3l-.3,12.42-8.73.35-1,27.19-12.36.64-1.12-27.18-8.73.47.35-13.83Z"/><path class="cls-5" d="M744.78,448.94a37.74,37.74,0,0,1-.35,5.09c-3.34.22-6.66.56-10,1s-6.6,1-9.9,1.42a7.27,7.27,0,0,0,2.38,3.37,6.21,6.21,0,0,0,3.89,1.26,8.24,8.24,0,0,0,2.56-.44,20.74,20.74,0,0,0,2.77-1.1,27.84,27.84,0,0,0,2.64-1.42c.83-.5,1.56-1,2.16-1.37l-1.35,13.35a13.83,13.83,0,0,1-2.48,1.49,17.94,17.94,0,0,1-2.77,1,21.81,21.81,0,0,1-2.9.55,22.92,22.92,0,0,1-2.87.18,17.07,17.07,0,0,1-5.3-.79,15.94,15.94,0,0,1-4.35-2.21,16.75,16.75,0,0,1-3.42-3.36,20.37,20.37,0,0,1-2.43-4.22,24.83,24.83,0,0,1-1.48-4.84,27.1,27.1,0,0,1-.5-5.16,31.12,31.12,0,0,1,.5-5.45,27.1,27.1,0,0,1,1.51-5.24,21.58,21.58,0,0,1,2.55-4.67,18.56,18.56,0,0,1,3.58-3.77,16.05,16.05,0,0,1,4.66-2.51,17.22,17.22,0,0,1,5.73-.9,15.05,15.05,0,0,1,4.76.71,13.53,13.53,0,0,1,6.76,5,16.56,16.56,0,0,1,2,3.85,22.6,22.6,0,0,1,1.21,4.42A27.06,27.06,0,0,1,744.78,448.94Zm-11.72-1.53a8.55,8.55,0,0,0-.17-1.68,5.47,5.47,0,0,0-.57-1.57,3.72,3.72,0,0,0-1-1.16,2.73,2.73,0,0,0-1.62-.45,3.41,3.41,0,0,0-2.06.63,6.25,6.25,0,0,0-1.54,1.58,9.83,9.83,0,0,0-1.05,2.07,15.43,15.43,0,0,0-.62,2l8.67-.82Z"/><path class="cls-5" d="M783,457.78c0,2.2,0,4.39-.07,6.55s-.12,4.33-.22,6.52l-16.87-.29c.58-3.46,1.09-6.92,1.52-10.36a82.89,82.89,0,0,0,.64-10.44v-1.23a12.09,12.09,0,0,0-.11-1.92c-.11-.71-.15-1.45-.25-2.2a14.66,14.66,0,0,0-.44-2.07,5.68,5.68,0,0,0-.68-1.53,1.13,1.13,0,0,0-1-.61,2.47,2.47,0,0,0-1.68.59,4.47,4.47,0,0,0-1.14,1.51,8.76,8.76,0,0,0-.72,2.07,21.73,21.73,0,0,0-.4,2.28c-.09.76-.14,1.48-.17,2.15s0,1.23,0,1.66c-.1,3.46-.17,6.89-.23,10.3s-.14,6.85-.24,10.32l-14.94.65q.6-10.35,1.13-20.57T748,430.6l13.83-.71-.11,4.69a18.55,18.55,0,0,1,1.77-1.88,11.24,11.24,0,0,1,2-1.5,10.41,10.41,0,0,1,2.3-1,9,9,0,0,1,2.57-.37,10.84,10.84,0,0,1,4.36.82,9.89,9.89,0,0,1,3.23,2.23,12.14,12.14,0,0,1,2.25,3.33,22.56,22.56,0,0,1,1.47,4.08,36.51,36.51,0,0,1,.85,4.53c.19,1.57.32,3.12.39,4.64s.1,3,.1,4.43Z"/><path class="cls-5" d="M822,450.17a20.72,20.72,0,0,1-.62,5.14,19.92,19.92,0,0,1-1.77,4.64,18.85,18.85,0,0,1-2.81,4,18,18,0,0,1-13.38,5.82,18.78,18.78,0,0,1-5-.68A19.74,19.74,0,0,1,794,467.2a17.78,17.78,0,0,1-3.76-2.93,18.05,18.05,0,0,1-2.87-3.81,19.76,19.76,0,0,1-1.85-4.49,19.18,19.18,0,0,1-.66-5,20.56,20.56,0,0,1,2.39-9.61,20,20,0,0,1,2.8-4,18.89,18.89,0,0,1,3.67-3.13,17.69,17.69,0,0,1,4.41-2.05,16.63,16.63,0,0,1,5-.73,22,22,0,0,1,7.75,1.31,16.39,16.39,0,0,1,9.82,9.69A20.94,20.94,0,0,1,822,450.17Zm-13,.76a7.83,7.83,0,0,0-.37-2.45,6.67,6.67,0,0,0-1.07-2.11,5.32,5.32,0,0,0-1.74-1.49,4.82,4.82,0,0,0-2.39-.57,5.82,5.82,0,0,0-2.46.49,5.69,5.69,0,0,0-1.86,1.37,6,6,0,0,0-1.18,2,7.23,7.23,0,0,0-.41,2.44,9,9,0,0,0,.35,2.47,7.41,7.41,0,0,0,1,2.22,5.61,5.61,0,0,0,1.75,1.61,4.64,4.64,0,0,0,2.41.62,5.46,5.46,0,0,0,4.34-2,6.49,6.49,0,0,0,1.17-2.12,7.49,7.49,0,0,0,.4-2.48Z"/><path class="cls-5" d="M859,431.36q-1.32,10.31-2.25,20.52t-1.79,20.55l-12,.88.52-4.51A6.1,6.1,0,0,1,842.1,470a8.42,8.42,0,0,1-1.65.81,10.28,10.28,0,0,1-1.82.44,11.87,11.87,0,0,1-1.79.1,9.87,9.87,0,0,1-3.75-.78,12.94,12.94,0,0,1-3.22-2,15.81,15.81,0,0,1-2.64-2.9,20.09,20.09,0,0,1-2-3.49,20.37,20.37,0,0,1-1.23-3.73,17,17,0,0,1-.43-3.69c0-1.76,0-3.58.1-5.47s.19-3.77.37-5.67.4-3.77.69-5.62.64-3.63,1.07-5.33L833,433q3.63.15,7.18.09-.67,2.55-1.33,5.11t-1.19,5.16c-.35,1.72-.63,3.46-.85,5.2a44.24,44.24,0,0,0-.32,5.27c0,.41,0,1,.06,1.76a13.24,13.24,0,0,0,.31,2.25,6.56,6.56,0,0,0,.76,2,1.62,1.62,0,0,0,1.45.84,2.64,2.64,0,0,0,2-1,8.47,8.47,0,0,0,1.54-2.54,22.25,22.25,0,0,0,1.16-3.72c.32-1.41.6-2.88.82-4.41s.41-3.08.54-4.64.24-3,.31-4.41.12-2.61.15-3.71,0-1.94,0-2.55v-1.14a7.49,7.49,0,0,0-.09-1.14l3.78.09H856C857,431.45,858,431.42,859,431.36Z"/><path class="cls-5" d="M895.72,466a13.56,13.56,0,0,1-3.4,3,23,23,0,0,1-4.34,2.14,28.6,28.6,0,0,1-4.74,1.28,27.58,27.58,0,0,1-4.63.42,20.74,20.74,0,0,1-7.82-1.44,18,18,0,0,1-10.21-10.08,20.31,20.31,0,0,1-1.46-7.74,26.49,26.49,0,0,1,.73-6.21,25.77,25.77,0,0,1,2.1-5.65,23,23,0,0,1,3.32-4.84,21.44,21.44,0,0,1,4.45-3.78,21.14,21.14,0,0,1,5.47-2.44,22.1,22.1,0,0,1,6.31-.87,23.17,23.17,0,0,1,2.7.11,24.64,24.64,0,0,1,2.85.35,18.69,18.69,0,0,1,2.77.69,12.25,12.25,0,0,1,2.46,1.08l-.82,11.19a14.53,14.53,0,0,0-3.38-.83,26,26,0,0,0-3.42-.22,14.72,14.72,0,0,0-4.37.63,10.33,10.33,0,0,0-3.55,1.86,8.86,8.86,0,0,0-2.39,3.07,10.13,10.13,0,0,0-.88,4.28,10.88,10.88,0,0,0,.41,2.95,8,8,0,0,0,1.25,2.51,6.6,6.6,0,0,0,2.08,1.78,6,6,0,0,0,2.88.67,10.42,10.42,0,0,0,2.3-.29,5,5,0,0,0,2-1l.12-2.28-7-.12.35-8.79c2.92-.1,5.83-.19,8.73-.25s5.84-.16,8.79-.28Z"/><path class="cls-5" d="M932.72,471.44l-14.65.7L918,459.78h-6.74l-.41,12.83H897.68l1.12-41.19,13.94.64-.88,21h6.51l0-22,13.36.36Z"/><path class="cls-5" d="M974.94,431c-.12,1.83-.23,3.65-.32,5.45s-.23,3.61-.39,5.45l-12.42.64v3.69h10.77l-.58,9.08-10.26.3.06,16.17L947,472l.94-41.07Z"/><path class="cls-5" d="M1012.14,450.17a21.19,21.19,0,0,1-.61,5.14,19.92,19.92,0,0,1-1.77,4.64,18.89,18.89,0,0,1-2.82,4,17.83,17.83,0,0,1-3.72,3.09,18.07,18.07,0,0,1-9.65,2.73,18.78,18.78,0,0,1-5-.68,19.3,19.3,0,0,1-4.47-1.89,18.17,18.17,0,0,1-3.77-2.93,18.4,18.4,0,0,1-2.87-3.81,20.39,20.39,0,0,1-1.84-4.49,19.18,19.18,0,0,1-.66-5,20.49,20.49,0,0,1,.61-5,19.83,19.83,0,0,1,1.78-4.61,20.19,20.19,0,0,1,2.79-4,19,19,0,0,1,3.68-3.13,17.69,17.69,0,0,1,4.41-2.05,16.63,16.63,0,0,1,5-.73,22,22,0,0,1,7.75,1.31,16.45,16.45,0,0,1,9.81,9.69A20.94,20.94,0,0,1,1012.14,450.17Zm-13,.76a7.83,7.83,0,0,0-.37-2.45,6.67,6.67,0,0,0-1.07-2.11,5.55,5.55,0,0,0-1.74-1.49,4.82,4.82,0,0,0-2.39-.57,5.82,5.82,0,0,0-2.46.49,5.69,5.69,0,0,0-1.86,1.37,6.14,6.14,0,0,0-1.19,2,7.48,7.48,0,0,0-.41,2.44,9.44,9.44,0,0,0,.35,2.47,7.69,7.69,0,0,0,1.06,2.22,5.7,5.7,0,0,0,1.74,1.61,4.8,4.8,0,0,0,2.42.62,5.49,5.49,0,0,0,4.34-2,7,7,0,0,0,1.17-2.12,7.77,7.77,0,0,0,.41-2.48Z"/><path class="cls-5" d="M1050.41,450.17a20.72,20.72,0,0,1-.62,5.14A19.92,19.92,0,0,1,1048,460a18.85,18.85,0,0,1-2.81,4,18,18,0,0,1-13.38,5.82,18.78,18.78,0,0,1-5-.68,19.74,19.74,0,0,1-4.47-1.89,17.78,17.78,0,0,1-3.76-2.93,18.44,18.44,0,0,1-2.88-3.81,20.39,20.39,0,0,1-1.84-4.49,19.18,19.18,0,0,1-.66-5,20.28,20.28,0,0,1,5.18-13.6,19,19,0,0,1,3.68-3.13,17.69,17.69,0,0,1,4.41-2.05,16.63,16.63,0,0,1,5-.73,22,22,0,0,1,7.75,1.31,16.81,16.81,0,0,1,6,3.77,16.56,16.56,0,0,1,3.83,5.92A20.91,20.91,0,0,1,1050.41,450.17Zm-13,.76a7.83,7.83,0,0,0-.37-2.45,6.67,6.67,0,0,0-1.07-2.11,5.55,5.55,0,0,0-1.74-1.49,4.82,4.82,0,0,0-2.39-.57,5.82,5.82,0,0,0-2.46.49,5.69,5.69,0,0,0-1.86,1.37,6.14,6.14,0,0,0-1.19,2,7.48,7.48,0,0,0-.41,2.44,9,9,0,0,0,.36,2.47,7.29,7.29,0,0,0,1,2.22,5.7,5.7,0,0,0,1.74,1.61,4.8,4.8,0,0,0,2.42.62,5.46,5.46,0,0,0,4.34-2,7,7,0,0,0,1.17-2.12,7.55,7.55,0,0,0,.45-2.48Z"/><path class="cls-5" d="M1085.65,449.35a23.81,23.81,0,0,1-1,7.35,19.42,19.42,0,0,1-3,5.76,18.6,18.6,0,0,1-4.5,4.26,25.71,25.71,0,0,1-5.71,2.88,34,34,0,0,1-6.61,1.66,49.39,49.39,0,0,1-7.19.53c-.92,0-1.81,0-2.69-.08s-1.78-.12-2.7-.22l.82-38.14a37,37,0,0,1,6.64-1.45,55,55,0,0,1,6.78-.43,24,24,0,0,1,7.71,1.18,17.06,17.06,0,0,1,6.06,3.44,15.45,15.45,0,0,1,4,5.59A19.32,19.32,0,0,1,1085.65,449.35Zm-19.92,11.25a9.81,9.81,0,0,0,3.21-1.07,9.5,9.5,0,0,0,2.5-2,8.43,8.43,0,0,0,1.63-2.69,8.84,8.84,0,0,0,.57-3.21,13.1,13.1,0,0,0-.35-3.12,6.88,6.88,0,0,0-1.15-2.52,5.47,5.47,0,0,0-2.08-1.7,7.65,7.65,0,0,0-3.16-.69Z"/><path class="cls-5" d="M1126.9,431c-.12,1.83-.22,3.65-.32,5.45s-.23,3.61-.38,5.45l-12.42.64v3.69h10.8l-.59,9.08-10.25.3.06,16.17L1099,472l.94-41.07Z"/><path class="cls-5" d="M1164.11,450.17a20.72,20.72,0,0,1-.62,5.14,19.92,19.92,0,0,1-1.77,4.64,18.85,18.85,0,0,1-2.81,4,18,18,0,0,1-13.38,5.82,18.78,18.78,0,0,1-5-.68,19.74,19.74,0,0,1-4.47-1.89,17.78,17.78,0,0,1-3.76-2.93,18.05,18.05,0,0,1-2.87-3.81,19.58,19.58,0,0,1-1.85-4.49,19.18,19.18,0,0,1-.66-5,20.56,20.56,0,0,1,2.39-9.61,20,20,0,0,1,2.8-4,18.6,18.6,0,0,1,3.67-3.13,17.69,17.69,0,0,1,4.41-2.05,16.63,16.63,0,0,1,5-.73,22,22,0,0,1,7.75,1.31,16.39,16.39,0,0,1,9.82,9.69A20.94,20.94,0,0,1,1164.11,450.17Zm-13,.76a7.83,7.83,0,0,0-.37-2.45,6.47,6.47,0,0,0-1.07-2.11,5.32,5.32,0,0,0-1.74-1.49,4.82,4.82,0,0,0-2.39-.57,5.82,5.82,0,0,0-2.46.49,5.75,5.75,0,0,0-3,3.39,7.23,7.23,0,0,0-.41,2.44,9,9,0,0,0,.35,2.47,7.29,7.29,0,0,0,1,2.22,5.7,5.7,0,0,0,1.74,1.61,4.8,4.8,0,0,0,2.42.62,5.46,5.46,0,0,0,4.34-2,6.49,6.49,0,0,0,1.17-2.12,7.62,7.62,0,0,0,.41-2.5Z"/><path class="cls-5" d="M1200.49,444.37a19.89,19.89,0,0,1-.39,4.14,12.59,12.59,0,0,1-1.25,3.41,12,12,0,0,1-2.19,2.87,19.55,19.55,0,0,1-3.26,2.52l7,12.43-13.19,2.57-4.51-12.48-3.63.12-.53,12.19h-12.6q.15-6.69.28-13.3t.31-13.3q.06-3.37.12-6.68c0-2.21.11-4.44.23-6.68a35.64,35.64,0,0,1,4-1.26,39.22,39.22,0,0,1,4-.78c1.34-.18,2.7-.31,4.08-.38s2.78-.1,4.23-.1a22.42,22.42,0,0,1,6.46.92,16.58,16.58,0,0,1,5.52,2.77A13.68,13.68,0,0,1,1199,438,13.48,13.48,0,0,1,1200.49,444.37Zm-13.12.93a6.83,6.83,0,0,0-.34-2.25,4.65,4.65,0,0,0-2.64-2.95,5.66,5.66,0,0,0-2.3-.42,7.4,7.4,0,0,0-1.15.07,6.9,6.9,0,0,0-1.08.22l-.47,10.9h.7a11.67,11.67,0,0,0,2.57-.32,7.7,7.7,0,0,0,2.34-1,5.61,5.61,0,0,0,1.7-1.73,4.59,4.59,0,0,0,.67-2.52Z"/><path class="cls-5" d="M1242.21,448.47v3.42c0,1.14-.06,2.28-.17,3.43a25.45,25.45,0,0,1-1.58,6.93A18.84,18.84,0,0,1,1237,468a15.43,15.43,0,0,1-5.23,3.89,16.66,16.66,0,0,1-7.06,1.44,23.46,23.46,0,0,1-3.24-.26,24.18,24.18,0,0,1-3.34-.79A21.7,21.7,0,0,1,1215,471a13.81,13.81,0,0,1-2.68-1.8l1.82-12.13a15.37,15.37,0,0,0,3.83,2.71,10.45,10.45,0,0,0,4.6,1,6.86,6.86,0,0,0,2.73-.47,5,5,0,0,0,1.84-1.29,5.91,5.91,0,0,0,1.16-1.92,11.22,11.22,0,0,0,.62-2.34,22.13,22.13,0,0,0,.23-2.56v-2.61a89.63,89.63,0,0,0-.46-9.27c-.32-3.08-.59-6.17-.82-9.25l13.41-.87A181.53,181.53,0,0,1,1242.21,448.47Z"/><path class="cls-5" d="M1272.15,448.47v3.42a30.3,30.3,0,0,1-.17,3.43,25.45,25.45,0,0,1-1.58,6.93A18.84,18.84,0,0,1,1267,468a15.43,15.43,0,0,1-5.23,3.89,16.66,16.66,0,0,1-7.06,1.44,23.31,23.31,0,0,1-3.23-.26,23.84,23.84,0,0,1-3.34-.79A21.37,21.37,0,0,1,1245,471a13.81,13.81,0,0,1-2.68-1.8l1.82-12.13a15.17,15.17,0,0,0,3.84,2.71,10.45,10.45,0,0,0,4.6,1,6.82,6.82,0,0,0,2.72-.47,5.11,5.11,0,0,0,1.85-1.29,6.17,6.17,0,0,0,1.15-1.92,10.64,10.64,0,0,0,.62-2.34,20.12,20.12,0,0,0,.23-2.56v-2.61a92.51,92.51,0,0,0-.47-9.27c-.31-3.08-.59-6.16-.82-9.25l13.42-.87A181.53,181.53,0,0,1,1272.15,448.47Z"/><path class="cls-5" d="M1285.22,466.57a5.71,5.71,0,0,1-.5,2.4,6.31,6.31,0,0,1-3.28,3.27,6,6,0,0,1-2.37.48,6.14,6.14,0,0,1-6.15-6.11v0a6.23,6.23,0,0,1,1.8-4.38,6.49,6.49,0,0,1,2-1.33,5.71,5.71,0,0,1,2.4-.5,5.52,5.52,0,0,1,2.37.5,6.42,6.42,0,0,1,2,1.33,6.14,6.14,0,0,1,1.33,2A5.86,5.86,0,0,1,1285.22,466.57Z"/><path class="cls-6" d="M246.25,928.18c17.37,54.39,24.64,100.58,16.15,103.29l-7-11.3-2.2,14.26-4.42-4.53-5.66-5.8L241,1038.34l-5.72-7.2q-3.57-5.34-7-11.31a227.74,227.74,0,0,1-25.38-68.69"/><path class="cls-7" d="M251.36,993.19c2,12,5.57,22,9,21.47s-.77-10.46-2.79-22.5.35-17.73-3.1-17.16S249.35,981.19,251.36,993.19Z"/><path class="cls-8" d="M340.08,604.55a738.69,738.69,0,0,0-55.74,182.84q-2.28,13.65-4,27v.17L101.63,739.82c5.57,0,42.77-.27,64.41-28.7a68.45,68.45,0,0,0,12-25.87c7.83.49,34.76,1.24,59.08-17.41a85.5,85.5,0,0,0,24.95-31,64.66,64.66,0,0,0,34.4,1.75C324.54,632.15,337.86,608.64,340.08,604.55Z"/><path class="cls-8" d="M262.12,636.84s16.28,30.49,17.9,69.31c2.05,48.31.43,104.72.33,108.21v.17c0,.06-37.57-37-67-71.39a224.27,224.27,0,0,1-35.28-57.89c7.83.49,34.76,1.24,59.08-17.41A85.66,85.66,0,0,0,262.12,636.84Z"/><path class="cls-9" d="M486.79,777.23l.33-.21L557,854.09c75.69,41.91,23.89,35.87,7.4,46.51l-52.21,32.63C495,877.93,484.3,820.94,476.67,763.5l1.07,1.2Z"/><path class="cls-10" d="M225,778.6c1.22,14.51-2.49,27.48-10.53,36.48-6.4,7.2-15.56,11.88-27.14,12.86-26.15,2.2-43.22-16.23-45.41-42.36-1.57-18.66,6-31.85,20-38.67a55.18,55.18,0,0,1,19.62-5C207.54,739.7,222.76,752.52,225,778.6Z"/><path class="cls-11" d="M225,778.6c1.22,14.51-2.49,27.48-10.53,36.48a43.52,43.52,0,0,1-15.57,4.15c-26.1,2.19-43.22-16.23-45.41-42.34-1.06-12.58,2-22.66,8.41-30a55.18,55.18,0,0,1,19.62-5C207.54,739.7,222.76,752.52,225,778.6Z"/><circle class="cls-12" cx="180.31" cy="827.37" r="6.81"/><path class="cls-13" d="M526.75,870c6.45,76.39-50.59,126-123,143.89a254.21,254.21,0,0,1-39.72,6.49,171,171,0,0,1-31.76-.31,184.75,184.75,0,0,1-85.48-31.67c-1.69-1.18-3.34-2.37-5-3.57C205.62,958,180,918.24,176.11,872.15c-7.56-90,70.54-170,160.48-177.53,73-6.14,147.81,54,177.43,124.93A167.89,167.89,0,0,1,526.75,870Z"/><path class="cls-10" d="M416.13,787.16c1.38,16.44-3,31.12-12.44,41.35-7.53,8.16-18.26,13.49-31.81,14.63-30.61,2.54-50.55-18.23-53-47.77-1.77-21.12,7.13-36.06,23.52-43.83a66.42,66.42,0,0,1,23-5.77C395.92,743.17,413.65,757.63,416.13,787.16Z"/><path class="cls-11" d="M416.13,787.16c1.38,16.44-3,31.12-12.44,41.35a52.78,52.78,0,0,1-18.25,4.73c-30.56,2.57-50.53-18.23-53-47.77-1.16-14.24,2.42-25.65,9.94-34a66.64,66.64,0,0,1,23-5.77C395.92,743.17,413.65,757.63,416.13,787.16Z"/><ellipse class="cls-14" cx="356.95" cy="805.67" rx="10.98" ry="10.22" transform="translate(-66.3 32.77) rotate(-4.81)"/><ellipse class="cls-3" cx="357.13" cy="808.07" rx="4.94" ry="4.59" transform="translate(-66.5 32.79) rotate(-4.81)"/><circle class="cls-14" cx="178.37" cy="788.57" r="10.22"/><circle class="cls-3" cx="178.66" cy="792.06" r="4.59"/><path class="cls-15" d="M287,863.54c-.62,6.75-.3,9.88-10.48,8.06-1.86-.33-3.9-.72-6.07-1.09-1.54-.27-3.19-.52-4.86-.77-1.42-.21-2.94-.41-4.48-.61-2.88-.38-5.88-.61-9.1-.78h-1c-.36,0-.73-.05-1.11-.05h-2.49c-2.3,0-4.54,0-6.72.16-3.17.15-6.21.37-9.08.64l-2.35.22-4.37.44c-11.54,1.18-13.73-.7-13.08-7.31.52-5.54-.12-9.2,7.54-13.56A48.88,48.88,0,0,1,236.46,843c1.7-.27,3.45-.48,5.29-.62a68.57,68.57,0,0,1,8.36-.09,81.36,81.36,0,0,1,8.39.85l2.13.35a71.07,71.07,0,0,1,12.91,3.37C283.73,850.81,287.64,856.5,287,863.54Z"/><path class="cls-3" d="M273.81,846.89c-2.88,6.75-7.61,11-11.27,9.85s-5-6.87-3.75-13.67c.7.11,1.41.22,2.12.35A73.15,73.15,0,0,1,273.81,846.89Z"/><path class="cls-16" d="M250.93,868.31h-3.6q-3.45,0-6.72.15c-3.17.15-6.21.38-9.08.64l-2.35.22c3.25-6.06,8-9.76,12.94-9.06,3.35.45,6.13,2.89,8,6.58A10.52,10.52,0,0,1,250.93,868.31Z"/><path class="cls-16" d="M271.25,870.08l-.81.43c-1.54-.27-3.19-.52-4.86-.77-1.42-.21-2.94-.41-4.48-.61-2.88-.38-5.88-.61-9.1-.78h-2.54a16,16,0,0,1,.81-1.53c2.34-4.06,5.69-6.62,9.32-6.73C264.33,859.86,268.61,863.91,271.25,870.08Z"/><path class="cls-17" d="M418.73,818.1c1.72,20.39-15.19,31.5-43.87,33.91s-49.42-5.52-51.14-25.92,21.29,14.48,50,12.06S417,797.7,418.73,818.1Z"/><path class="cls-18" d="M343.54,708.84l-39.77,13.6a2.16,2.16,0,0,1-2.58-1c-3.64-6.76-3.72-13.51.48-20.38a23,23,0,0,1,26.16-10,25.6,25.6,0,0,1,16.87,15.12,2,2,0,0,1-1.07,2.61Z"/><path class="cls-18" d="M383.59,703.19,370,704.33c-2,.57-9.21-.68-9.23-1.5-.16-6.11,3.19-8.58,8.74-12.22,7-4.54,16.35-4.21,22.6,1.31,5.13,4.57,17.29,20.46,7.67,14.43C394.31,702.91,384.54,703.28,383.59,703.19Z"/><path class="cls-18" d="M288.34,730.1,257.7,758.92a2.15,2.15,0,0,1-2.75.16c-6.11-4.65-9-10.77-8-18.77a23,23,0,0,1,19.75-19.82,25.58,25.58,0,0,1,21.59,6.82A2,2,0,0,1,288.34,730.1Z"/><path class="cls-18" d="M587.13,873.7l-14.43-9.48a.94.94,0,0,1-.34-1.1A7.81,7.81,0,0,1,579,858a9.39,9.39,0,0,1,9.83,6,10.82,10.82,0,0,1-.52,9.4.79.79,0,0,1-1,.36Z"/><path class="cls-18" d="M566.54,860.49l-15.88-10.42a1,1,0,0,1-.38-1.21,8.54,8.54,0,0,1,7.28-5.6,10.3,10.3,0,0,1,10.8,6.55,11.91,11.91,0,0,1-.57,10.38.86.86,0,0,1-1.17.34h0Z"/><path class="cls-18" d="M539.33,842.15l-13-17.16a1.13,1.13,0,0,1,.06-1.42,9.71,9.71,0,0,1,9.91-3.26,11.74,11.74,0,0,1,9.06,11.11,13.48,13.48,0,0,1-4.54,10.83,1,1,0,0,1-1.42,0h0Z"/><path class="cls-19" d="M498.87,957.79c-21.94,30.78-58.26,51.81-99.72,62.11a247.69,247.69,0,0,1-39.2,6.45,166.67,166.67,0,0,1-31.35-.35,181,181,0,0,1-84.38-31.79c-1.67-1.18-3.29-2.33-4.91-3.58-35.77-26.8-61.1-66.61-64.93-112.74-3.88-45.51,13.91-88.45,43.92-120.74-22.47,30.11-35,67.13-31.72,106,3.88,46.12,29.22,85.94,64.94,112.79,1.62,1.21,3.23,2.35,4.91,3.57a181,181,0,0,0,84.34,31.8,166.67,166.67,0,0,0,31.35.35,249,249,0,0,0,39.2-6.44C445.84,996.7,476.79,980.7,498.87,957.79Z"/><path class="cls-19" d="M421.1,1009.81l6.48,1.46a219.89,219.89,0,0,1-28.22,9,247.53,247.53,0,0,1-39.19,6.43,168.54,168.54,0,0,1-48.06-3l-.52-.09a181.48,181.48,0,0,1-63.38-26.56l-.34-.23c-1.16-.75-2.3-1.51-3.41-2.31-1.67-1.18-3.29-2.33-4.91-3.57s-3.2-2.44-4.77-3.74a74,74,0,0,1-.27-7.88A70.83,70.83,0,0,1,236.45,964a1.43,1.43,0,0,1,.11-.39.33.33,0,0,1,0-.14,172.24,172.24,0,0,0,15.19,12.83l.61.44.33.25c1.25,1,2.63,1.92,4,2.88,3.15,2.22,6.38,4.32,9.69,6.34A182.66,182.66,0,0,0,319.46,1008l.4.08a169,169,0,0,0,21.2,3.67,166.47,166.47,0,0,0,31.33.35,249.13,249.13,0,0,0,34.67-5.38l1.08.26Z"/><path class="cls-20" d="M323,979.41a75.57,75.57,0,0,1,.25,7.82,69.19,69.19,0,0,1-3.47,20.77,59.7,59.7,0,0,1-4.2,9.76,51.82,51.82,0,0,1-3.68,6A181.64,181.64,0,0,1,248.11,997c-1.19-.76-2.29-1.54-3.4-2.31-1.67-1.19-3.3-2.38-4.91-3.58s-3.38-2.58-5-4l-.05-.21a73.71,73.71,0,0,1,1.78-23.68C241.68,942.39,256,927,274,925.45,298.35,923.39,320.26,947.57,323,979.41Z"/><path class="cls-20" d="M428.42,1011a222.15,222.15,0,0,1-28.81,9.26,248.66,248.66,0,0,1-39.19,6.42,167.52,167.52,0,0,1-31.35-.34,172.28,172.28,0,0,1-17.23-2.66,181.85,181.85,0,0,1-63.74-26.78l1.5-6.65,3.05-13.48,1.18-5.23,69.37,15.69,85,19.23,12.88,2.9Z"/><path class="cls-21" d="M320,1007.64a1.62,1.62,0,0,1-.14.46l-.11.35a60.58,60.58,0,0,1-4.2,9.76,50.82,50.82,0,0,1-3.46,5.58,4,4,0,0,1-.23.34,181.85,181.85,0,0,1-63.74-26.78c-1.19-.76-2.29-1.54-3.4-2.31-1.68-1.18-3.29-2.33-4.9-3.58s-3.38-2.58-5.06-4l-.05-.21a76.14,76.14,0,0,1-.22-7.85A70.83,70.83,0,0,1,236.45,964a1.43,1.43,0,0,1,.11-.39.33.33,0,0,1,0-.14,172.24,172.24,0,0,0,15.19,12.83l.61.44.33.25c1.25,1,2.63,1.92,4,2.88,3.15,2.22,6.38,4.32,9.69,6.34A184.88,184.88,0,0,0,320,1007.64Z"/><path class="cls-21" d="M428.46,1011.47a222.65,222.65,0,0,1-28.82,9.23,248.58,248.58,0,0,1-39.18,6.44,166.67,166.67,0,0,1-31.35-.34,172.59,172.59,0,0,1-17.24-2.7,181.85,181.85,0,0,1-63.74-26.78l.06-.21,1.43-6.47,3-13.44h0V977c1.25,1,2.63,1.92,4,2.87,3.14,2.22,6.38,4.33,9.69,6.35A185,185,0,0,0,320,1007.7a179.3,179.3,0,0,0,21.23,3.5,171.91,171.91,0,0,0,31.76.31,256.89,256.89,0,0,0,33.21-5l.87.19,1.09.26,12.88,2.9,6.48,1.46Z"/><path class="cls-18" d="M435.06,727.41l-12.34-5.78c-2-.51-7.65-5.18-7.26-5.89,2.89-5.35,7-5.86,13.68-6.16,8.34-.45,16.28,4.53,18.95,12.4,2.21,6.53,4.78,26.35-.56,16.33C444.45,732.5,435.83,727.94,435.06,727.41Z"/><path class="cls-6" d="M420.75,956.26c-14.49,55.21-33.19,98.07-41.82,95.81l.16-13.31-9.55,10.85-1.3-6.19-1.66-7.94-9.47,10.87-1-9.16q-.15-6.37.13-13.36a228.06,228.06,0,0,1,15.45-71.58"/><path class="cls-6" d="M497.54,945.63c12.52,31.38,18.18,58.26,12.65,60.09l-4.84-6.42-1.17,8.46-3-2.52-3.81-3.24-1.16,8.46-3.93-4c-1.62-2-3.24-4.15-4.83-6.44a122.93,122.93,0,0,1-18-39.65"/><path class="cls-22" d="M666.08,753.24a739.41,739.41,0,0,0-184.34,50.55q-12.75,5.38-24.92,11.06h-.16L424.34,624c3,4.74,23.07,36,58.67,39.13a68.61,68.61,0,0,0,28.31-3.66c3.76,6.88,17.52,30,46.27,40.64a85.22,85.22,0,0,0,39.54,4.54,64.49,64.49,0,0,0,16.9,30C634.41,754.85,661.45,753.54,666.08,753.24Z"/><path class="cls-22" d="M597.13,704.6a179.42,179.42,0,0,1-49,52.16c-39.71,27.51-88.29,56.32-91.28,58.1h-.17s11.22-51.54,24.56-94.77a224.17,224.17,0,0,1,30.09-60.75c3.76,6.88,17.52,30,46.27,40.65A85.34,85.34,0,0,0,597.13,704.6Z"/><path class="cls-7" d="M398.54,1020.38c-4.06,11.51-9.29,20.75-12.59,19.58s2.57-10.17,6.64-21.69,2.72-17.52,6-16.36S402.54,1008.87,398.54,1020.38Z"/><path class="cls-7" d="M507.12,978.06c2,9,2.67,17,.85,17.4s-2.21-7.64-4.19-16.68-4.56-12.54-2.69-13S505.15,969,507.12,978.06Z"/><path class="cls-7" d="M499.15,962.15c1.13-.5,1.88.77,2.35,1.84s.12,0-1,.45-1.05,1.74-1.53.68S498,962.7,499.15,962.15Z"/><path class="cls-7" d="M399.73,998.7c2,.58,1.86,2.06,1.54,3.17s.18,0-1.8-.5-3,.34-2.69-.77S397.75,998.1,399.73,998.7Z"/><path class="cls-23" d="M401.54,848.7c-2.06.17-4.82-.74-5-2.81a3,3,0,0,1,.18-1.25,32.51,32.51,0,0,0,1.83-7.78l5.52,4.91.77.62C408.14,845.59,404,848.5,401.54,848.7Z"/><path class="cls-23" d="M388.15,872c-4.94.42-11.55-1.76-12-6.7a7.14,7.14,0,0,1,.44-3A78.43,78.43,0,0,0,381,843.63l13.21,11.64,1.82,1.5C403.89,864.5,394,871.47,388.15,872Z"/><path class="cls-23" d="M154.1,858.44c-3.78-3.16-7-9.32-3.88-13.14a7.05,7.05,0,0,1,2.42-1.84,77.82,77.82,0,0,0,16.13-10.28l1.31,17.58.26,2.35C170.59,864.09,158.63,862.21,154.1,858.44Z"/><path class="cls-2" d="M320.85,247.11A46.24,46.24,0,0,0,283.69,186a62,62,0,0,0-61.76-56.36c-1.86,0-3.69.1-5.5.26A123.07,123.07,0,0,0-11.4,171.45,62.21,62.21,0,0,0-26,169.7a62,62,0,0,0-62,62,62.77,62.77,0,0,0,.61,8.61,45.35,45.35,0,0,0-32,43.2h0a45.31,45.31,0,0,0,45.18,45.17H294.25a45.31,45.31,0,0,0,45.17-45.17h0A45.17,45.17,0,0,0,320.85,247.11Z"/><path class="cls-2" d="M1918.08,266.41a38.93,38.93,0,0,0-31.37-51.52,52.3,52.3,0,0,0-52.13-47.49c-1.56,0-3.11.08-4.64.22a103.92,103.92,0,0,0-192.29,35A52.36,52.36,0,0,0,1573,253.46a52.8,52.8,0,0,0,.51,7.26,38.21,38.21,0,0,0-27,36.39h0a38.2,38.2,0,0,0,38.13,38.06h311a38.2,38.2,0,0,0,38.12-38.06h0A38.07,38.07,0,0,0,1918.08,266.41Z"/><path class="cls-3" d="M60.48,207.69h0A44.75,44.75,0,0,0-1.38,152.31h0A59.23,59.23,0,0,0-60.2,100.08a59,59,0,0,0-38.49,14.21A46.16,46.16,0,0,0-136.33,94.9a46.21,46.21,0,0,0-40.25,23.46,24.51,24.51,0,0,0-9.74-2A24.81,24.81,0,0,0-210,133.76a62.36,62.36,0,0,0-28.54-6.87,62.59,62.59,0,0,0-62.59,62.59,62.56,62.56,0,0,0,2.55,17.74A37.79,37.79,0,0,0-306,213,37.45,37.45,0,0,0-317,239.55a37.73,37.73,0,0,0,37.61,37.62h320a37.59,37.59,0,0,0,19.93-69.48Z"/><path class="cls-3" d="M1736.47,357.24a44,44,0,0,1-.84-8.49,43,43,0,0,1,56.07-41,56.76,56.76,0,0,1,102.88-1A43,43,0,0,1,1947,348.75a44.48,44.48,0,0,1-.38,5.7A34.28,34.28,0,0,1,1962,383h0a34.33,34.33,0,0,1-34.23,34.23H1759A34.33,34.33,0,0,1,1724.73,383h0A34.16,34.16,0,0,1,1736.47,357.24Z"/><path class="cls-3" d="M30.61,298.82h0a44.75,44.75,0,0,1,61.86-55.37h0a59.23,59.23,0,0,1,97.31-38,46.24,46.24,0,0,1,77.89,4.07,24.51,24.51,0,0,1,9.74-2,24.81,24.81,0,0,1,23.67,17.4,62.63,62.63,0,0,1,88.58,73.46,37.59,37.59,0,0,1-19.14,69.95h-320a37.59,37.59,0,0,1-19.93-69.48Z"/><polygon class="cls-24" points="1784.13 984.51 1776.79 1001.17 1793.54 1039.16 1800.89 1022.5 1784.13 984.51"/><polygon class="cls-24" points="1827.47 945.18 1824.52 945.18 1824.52 1076.08 1854.86 1007.28 1827.47 945.18"/><polygon class="cls-24" points="1824.52 945.18 1801.48 945.18 1784.13 984.51 1800.89 1022.5 1824.52 1076.08 1824.52 945.18"/><path class="cls-24" d="M1896.3,960.52l-17-15.34h-10.91v92.71l35.84-81.26-3.28,3.64A3.26,3.26,0,0,1,1896.3,960.52Z"/><polygon class="cls-24" points="1868.36 945.18 1827.47 945.18 1854.86 1007.28 1868.36 1037.89 1868.36 945.18"/><polygon class="cls-24" points="1801.48 945.18 1768.42 945.18 1768.42 1020.13 1776.79 1001.17 1784.13 984.51 1801.48 945.18"/><polygon class="cls-24" points="1768.42 945.18 1735.37 945.18 1768.42 1020.13 1768.42 945.18"/><path class="cls-24" d="M1928.43,917.59h-15.34l-4.22-4.28a2.15,2.15,0,0,0-3,0l-4.36,4.3H1876.6l-1-1.06a2.17,2.17,0,0,0-3,0l-1.1,1.08H1754.28l-1.14-1.16a2,2,0,0,0-2.86,0l-1.19,1.18h-20.81l-6.75-6.85a2.89,2.89,0,0,0-4.08,0l-7,6.87h-1.37a13.84,13.84,0,0,0-13.79,13.79h0a13.68,13.68,0,0,0,1.5,6.21h0l.15.25a16,16,0,0,0,1,1.63l9.9,15.64a1.2,1.2,0,0,0,1.67.38l16.29-10.3h153.45l17,15.34a3.26,3.26,0,0,0,4.62-.25l3.28-3.64,10.32-11.45h2.61l4.46,4.6a4.56,4.56,0,0,0,6.45.1l6.19-6a13.82,13.82,0,0,0,8-12.49h0A13.83,13.83,0,0,0,1928.43,917.59Zm-46.62,12.55,6.74,6.82-13.57-.09Zm41.7-10.33,12.75,12.92-25.89,0ZM1842,917.94l9.56,9.69-19.25-.13Zm-101,15.13,5.49-5.41,5.41,5.49Zm24.33-11.81,9.92,10-20-.13Zm38.31,18.88,6.83-6.74,6.74,6.83Z"/><polygon class="cls-24" points="1810.45 933.4 1803.62 940.14 1817.19 940.23 1810.45 933.4"/><polygon class="cls-24" points="1842.02 917.95 1832.33 927.5 1851.58 927.63 1842.02 917.95"/><polygon class="cls-24" points="1888.55 936.96 1881.81 930.13 1874.98 936.87 1888.55 936.96"/><polygon class="cls-24" points="1746.47 927.66 1740.98 933.07 1751.88 933.15 1746.47 927.66"/><polygon class="cls-24" points="1775.23 931.31 1765.31 921.26 1755.26 931.18 1775.23 931.31"/><polygon class="cls-24" points="1910.37 932.77 1936.26 932.73 1923.51 919.8 1910.37 932.77"/><polygon class="cls-24" points="1856.03 1026.2 1851.38 1037.14 1861.99 1062.09 1866.64 1051.15 1856.03 1026.2"/><polygon class="cls-24" points="1883.46 1000.37 1881.59 1000.37 1881.59 1086.34 1900.8 1041.15 1883.46 1000.37"/><polygon class="cls-24" points="1881.59 1000.37 1867.01 1000.37 1856.03 1026.2 1866.64 1051.15 1881.59 1086.34 1881.59 1000.37"/><path class="cls-24" d="M1927,1010.44l-10.78-10.07h-6.9v60.89l22.68-53.37-2.07,2.39A2,2,0,0,1,1927,1010.44Z"/><polygon class="cls-24" points="1909.34 1000.37 1883.46 1000.37 1900.8 1041.15 1909.34 1061.26 1909.34 1000.37"/><polygon class="cls-24" points="1867.01 1000.37 1846.09 1000.37 1846.09 1049.6 1851.38 1037.14 1856.03 1026.2 1867.01 1000.37"/><polygon class="cls-24" points="1846.09 1000.37 1825.17 1000.37 1846.09 1049.6 1846.09 1000.37"/><path class="cls-24" d="M1947.36,982.25h-9.71l-2.67-2.81a1.33,1.33,0,0,0-1.93,0l-2.76,2.83h-15.73l-.66-.7a1.35,1.35,0,0,0-1.94,0l-.69.71h-74.13l-.72-.76a1.25,1.25,0,0,0-1.81,0l-.75.77h-13.17l-4.28-4.5a1.79,1.79,0,0,0-2.58,0l-4.41,4.52h-.87a8.91,8.91,0,0,0-8.72,9.06h0a9.26,9.26,0,0,0,.94,4.07h0l.1.16a9,9,0,0,0,.65,1.07l6.26,10.28a.75.75,0,0,0,1.06.24l10.31-6.76h97.11l10.78,10.07a2,2,0,0,0,2.93-.16l2.07-2.39,6.53-7.52h1.65l2.83,3a2.81,2.81,0,0,0,4.08.06l3.92-3.94a9.12,9.12,0,0,0,5.06-8.2h0A8.92,8.92,0,0,0,1947.36,982.25Zm-29.51,8.24,4.27,4.48-8.59-.06Zm26.39-6.79,8.07,8.49-16.39,0Zm-51.57-1.22,6,6.36-12.18-.08Zm-63.94,9.94,3.47-3.56,3.42,3.6Zm15.39-7.76,6.28,6.6-12.64-.09Zm24.25,12.4,4.32-4.43,4.26,4.49Z"/><polygon class="cls-24" points="1872.69 992.63 1868.37 997.06 1876.95 997.12 1872.69 992.63"/><polygon class="cls-24" points="1892.67 982.48 1886.54 988.76 1898.72 988.84 1892.67 982.48"/><polygon class="cls-24" points="1922.12 994.97 1917.85 990.49 1913.53 994.91 1922.12 994.97"/><polygon class="cls-24" points="1832.2 988.86 1828.73 992.42 1835.62 992.46 1832.2 988.86"/><polygon class="cls-24" points="1850.4 991.26 1844.12 984.66 1837.76 991.17 1850.4 991.26"/><polygon class="cls-24" points="1557.04 889.11 1566.43 910.39 1545.02 958.93 1535.64 937.65 1557.04 889.11"/><polygon class="cls-24" points="1501.67 838.85 1505.44 838.85 1505.44 1006.11 1466.67 918.19 1501.67 838.85"/><polygon class="cls-24" points="1505.44 838.85 1534.88 838.85 1557.04 889.11 1535.64 937.65 1505.44 1006.11 1505.44 838.85"/><path class="cls-24" d="M1413.72,858.45l21.77-19.6h13.93V957.32l-45.79-103.83,4.19,4.65A4.18,4.18,0,0,0,1413.72,858.45Z"/><polygon class="cls-24" points="1449.42 838.85 1501.67 838.85 1466.67 918.19 1449.42 957.32 1449.42 838.85"/><polygon class="cls-24" points="1534.88 838.85 1577.12 838.85 1577.12 934.62 1566.43 910.39 1557.04 889.11 1534.88 838.85"/><polygon class="cls-24" points="1577.12 838.85 1619.35 838.85 1577.12 934.62 1577.12 838.85"/><path class="cls-24" d="M1355.05,821.22h0a17.66,17.66,0,0,0,10.21,16l7.9,7.67a5.83,5.83,0,0,0,8.25-.13l5.7-5.87h3.34l13.18,14.64,4.19,4.65a4.18,4.18,0,0,0,5.9.31l21.77-19.6h196.06L1652.37,852a1.54,1.54,0,0,0,2.13-.48l12.65-20a19.61,19.61,0,0,0,1.31-2.08l.2-.32h-.05a17.52,17.52,0,0,0,1.92-7.93h0a17.68,17.68,0,0,0-17.63-17.62h-1.75l-8.9-8.78a3.68,3.68,0,0,0-5.21,0l-8.63,8.75h-26.59l-1.53-1.5a2.57,2.57,0,0,0-3.64,0l-1.46,1.48H1445.52l-1.4-1.38a2.75,2.75,0,0,0-3.9,0l-1.33,1.35h-31.77l-5.57-5.5a2.76,2.76,0,0,0-3.89,0l-5.4,5.47h-19.59A17.67,17.67,0,0,0,1355.05,821.22Zm85.91,7-17.34.11,8.61-8.72ZM1395.75,823l-33.09-.06,16.3-16.51Zm99.71-6.73-24.59.16,12.21-12.38Zm102.79,7.2,6.92-7,7,6.91Zm-4.32-2.51-25.51.17,12.67-12.84Zm-79.12,11.56,8.61-8.72,8.72,8.61Z"/><polygon class="cls-24" points="1523.42 823.8 1532.14 832.41 1514.81 832.52 1523.42 823.8"/><polygon class="cls-24" points="1483.08 804.05 1495.46 816.27 1470.87 816.43 1483.08 804.05"/><polygon class="cls-24" points="1423.62 828.35 1432.23 819.63 1440.96 828.24 1423.62 828.35"/><polygon class="cls-24" points="1605.17 816.47 1612.18 823.38 1598.25 823.47 1605.17 816.47"/><polygon class="cls-24" points="1568.42 821.13 1581.09 808.29 1593.93 820.96 1568.42 821.13"/><polygon class="cls-24" points="1395.75 823 1362.66 822.94 1378.96 806.43 1395.75 823"/><polyline class="cls-25" points="1801.57 1083.18 1801.57 855.13 1702.95 855.13"/><polyline class="cls-25" points="1801.57 1083.18 1801.57 855.13 1900.19 855.13"/><polyline class="cls-25" points="1626.06 1023.91 1626.06 795.86 1527.44 795.86"/><polyline class="cls-25" points="1626.06 1023.91 1626.06 795.86 1724.68 795.86"/><polyline class="cls-26" points="1716.7 1150.45 1716.7 807.77 1568.51 807.77"/><polyline class="cls-27" points="1716.7 1150.45 1716.7 807.77 1864.89 807.77"/><polyline class="cls-26" points="1557.63 1035.94 1557.63 807.89 1459.01 807.89"/><polyline class="cls-27" points="1557.63 1035.94 1557.63 807.89 1656.26 807.89"/><polyline class="cls-26" points="1850.88 1013.96 1850.88 785.9 1752.26 785.9"/><polyline class="cls-27" points="1850.88 1013.96 1850.88 785.9 1949.5 785.9"/><path class="cls-28" d="M1505.33,802.29l-28.88,29.77a10.89,10.89,0,0,1-15.4.23l-29.78-28.88"/><rect class="cls-28" x="1427.21" y="755.26" width="589.18" height="65.82" rx="32.91"/><path class="cls-28" d="M1473.62,778.66,1506.8,745a5.13,5.13,0,0,1,7.26,0l33.63,33.18"/><path class="cls-28" d="M1614.64,787.59l-77.86,70.1a7.81,7.81,0,0,1-11-.58l-70.1-77.86"/><path class="cls-28" d="M1553.12,786.34l33.17-33.61a5.16,5.16,0,0,1,7.28-.05l33.61,33.17"/><path class="cls-28" d="M1845,786.34l33.4-33.85a4.82,4.82,0,0,1,6.81,0l33.85,33.4"/><polyline class="cls-29" points="1725.58 809.27 1741.66 792.98 1757.95 809.06"/><polyline class="cls-29" points="1643.51 779.22 1666.33 756.1 1689.44 778.91"/><polyline class="cls-29" points="1555.28 801.48 1571.36 785.19 1587.66 801.27"/><polyline class="cls-29" points="1881.42 792.37 1894.33 779.28 1907.42 792.2"/><polyline class="cls-29" points="1825.7 788 1849.36 764.02 1873.34 787.68"/><polyline class="cls-29" points="1441.44 791.38 1471.87 760.54 1503.23 791.48"/></svg>